<?xml version="1.0" encoding="utf-8"?>
<!-- Generator: Adobe Illustrator 15.1.0, SVG Export Plug-In . SVG Version: 6.00 Build 0)  -->
<!DOCTYPE svg PUBLIC "-//W3C//DTD SVG 1.1//EN" "http://www.w3.org/Graphics/SVG/1.1/DTD/svg11.dtd">
<svg version="1.1" id="Capa_1" xmlns="http://www.w3.org/2000/svg" xmlns:xlink="http://www.w3.org/1999/xlink" x="0px" y="0px"
	  viewBox="0 0 8.212 8.198" enable-background="new 0 0 8.212 8.198" xml:space="preserve">
<g>
	<defs>
		<rect id="SVGID_1_" y="0" width="8.212" height="8.198"/>
	</defs>
	<clipPath id="SVGID_2_">
		<use xlink:href="#SVGID_1_"  overflow="visible"/>
	</clipPath>
	<path clip-path="url(#SVGID_2_)" fill="#006437" d="M7.544,1.861c-0.171-0.261-0.359-0.556-0.56-0.795
		c-0.25-0.3-0.667-0.357-0.995-0.519C5.814,0.46,5.658,0.343,5.475,0.266C5.04,0.081,4.576,0,4.106,0
		C3.514,0,2.793,0.104,2.288,0.438c-0.376,0.247-0.799,0.545-1.131,0.85C0.385,1.999,0,3.082,0,4.106
		c0,0.373,0.034,0.878,0.196,1.22c0.106,0.22,0.248,0.372,0.323,0.614c0.048,0.155,0.085,0.297,0.168,0.438
		c0.221,0.376,0.564,0.709,0.905,0.974c0.31,0.24,0.63,0.44,1.014,0.509c0.718,0.127,1.297,0.421,2.043,0.312
		c0.69-0.1,1.312-0.415,1.876-0.816c0.13-0.093,0.236-0.175,0.35-0.288c0.11-0.11,0.251-0.184,0.358-0.296
		c0.244-0.258,0.383-0.446,0.518-0.77c0.263-0.623,0.461-1.211,0.461-1.898C8.212,3.312,7.98,2.526,7.544,1.861 M4.106,7.27
		c-1.748,0-3.165-1.417-3.165-3.164c0-1.748,1.417-3.165,3.165-3.165s3.165,1.417,3.165,3.165C7.271,5.853,5.854,7.27,4.106,7.27"/>
	<path clip-path="url(#SVGID_2_)" fill="#4A825F" d="M7.721,4.249C7.723,4.073,7.756,3.9,7.749,3.72
		C7.73,3.296,7.615,2.889,7.433,2.507c-0.23-0.48-0.596-1.025-1.062-1.306C6.024,0.993,5.619,0.765,5.244,0.615
		C4.367,0.265,3.337,0.372,2.505,0.77C2.203,0.915,1.806,1.139,1.592,1.403c-0.137,0.171-0.206,0.345-0.373,0.5
		C1.111,2.002,1.011,2.086,0.928,2.209C0.709,2.536,0.571,2.942,0.489,3.324C0.416,3.667,0.376,4.005,0.47,4.343
		c0.176,0.631,0.162,1.215,0.54,1.779c0.349,0.521,0.847,0.905,1.391,1.206c0.126,0.069,0.233,0.124,0.369,0.171
		c0.133,0.047,0.247,0.133,0.379,0.177c0.305,0.099,0.512,0.137,0.826,0.121c0.607-0.029,1.163-0.096,1.719-0.363
		c0.645-0.308,1.193-0.802,1.562-1.412c0.146-0.24,0.312-0.51,0.429-0.765C7.832,4.938,7.715,4.578,7.721,4.249 M4.106,6.431
		c-1.285,0-2.326-1.041-2.326-2.326c0-1.284,1.041-2.325,2.326-2.325s2.326,1.041,2.326,2.325C6.433,5.39,5.392,6.431,4.106,6.431"
		/>
	<path clip-path="url(#SVGID_2_)" fill="#A7BCAA" d="M6.719,3.598c-0.086-0.679-0.515-1.295-1.06-1.684
		C5.46,1.773,5.18,1.599,4.938,1.556C4.779,1.528,4.646,1.547,4.488,1.494C4.387,1.46,4.297,1.427,4.19,1.417
		C3.907,1.393,3.601,1.448,3.33,1.529C3.085,1.603,2.857,1.697,2.675,1.875C2.336,2.208,1.96,2.404,1.735,2.842
		C1.526,3.247,1.458,3.697,1.458,4.149c0,0.104,0.002,0.191,0.02,0.295C1.495,4.545,1.48,4.647,1.5,4.746
		c0.044,0.228,0.092,0.373,0.212,0.567C1.943,5.689,2.18,6.018,2.545,6.278C2.967,6.58,3.473,6.754,3.992,6.775
		c0.203,0.009,0.431,0.02,0.634,0.003c0.255-0.019,0.443-0.219,0.653-0.332c0.113-0.06,0.234-0.099,0.346-0.167
		C5.888,6.12,6.106,5.902,6.284,5.653c0.224-0.313,0.443-0.738,0.457-1.131C6.752,4.228,6.755,3.89,6.719,3.598 M4.106,5.736
		c-0.9,0-1.63-0.729-1.63-1.629c0-0.901,0.73-1.63,1.63-1.63c0.9,0,1.631,0.729,1.631,1.63C5.737,5.007,5.007,5.736,4.106,5.736"/>
	<path clip-path="url(#SVGID_2_)" fill="#006437" d="M6.46,3.649C6.385,3.035,5.996,2.481,5.505,2.13
		c-0.178-0.127-0.432-0.284-0.65-0.323C4.713,1.782,4.59,1.799,4.449,1.752c-0.09-0.031-0.171-0.061-0.267-0.069
		C3.926,1.66,3.65,1.71,3.406,1.783C3.185,1.849,2.98,1.934,2.816,2.095c-0.306,0.3-0.645,0.477-0.848,0.871
		c-0.188,0.366-0.25,0.772-0.25,1.179c0,0.093,0.003,0.171,0.018,0.265c0.016,0.091,0.002,0.183,0.02,0.273
		c0.04,0.205,0.083,0.336,0.191,0.51c0.209,0.339,0.423,0.635,0.752,0.87C3.08,6.334,3.535,6.492,4.002,6.511
		c0.185,0.008,0.391,0.017,0.573,0.003c0.229-0.018,0.399-0.198,0.588-0.299c0.103-0.055,0.211-0.09,0.312-0.15
		C5.711,5.919,5.908,5.725,6.069,5.5c0.203-0.283,0.399-0.665,0.412-1.02C6.491,4.215,6.493,3.911,6.46,3.649 M4.106,6.044
		c-1.071,0-1.939-0.869-1.939-1.938c0-1.072,0.868-1.939,1.939-1.939s1.938,0.867,1.938,1.939C6.045,5.176,5.178,6.044,4.106,6.044"
		/>
	<path clip-path="url(#SVGID_2_)" fill="#A7BCAA" d="M2.258,1.118C2.066,1.167,2.014,1.229,1.912,1.395
		c-0.088,0.143-0.178,0.2-0.317,0.295C1.37,1.843,1.186,1.958,1.06,2.204c-0.098,0.19-0.198,0.394-0.255,0.593
		C0.746,3.005,0.62,3.255,0.6,3.472c-0.026,0.29,0.246,0.427,0.468,0.246C1.33,3.503,1.184,3.246,1.185,2.952
		c0-0.142,0.016-0.411,0.073-0.537C1.338,2.236,1.603,2.109,1.756,2c0.24-0.17,0.476-0.541,0.739-0.622
		c0.198-0.061,0.366-0.025,0.556-0.142c0.197-0.12,0.378-0.255,0.625-0.24C3.907,1.01,4.47,1.12,4.457,0.713
		c-0.008-0.212-0.234-0.205-0.4-0.195C3.783,0.534,3.502,0.601,3.237,0.671C2.881,0.764,2.609,1.028,2.258,1.118"/>
	<path clip-path="url(#SVGID_2_)" fill="#A7BCAA" d="M5.199,0.841c0,0.153-0.125,0.277-0.277,0.277S4.646,0.994,4.646,0.841
		S4.77,0.565,4.922,0.565S5.199,0.688,5.199,0.841"/>
</g>
</svg>
