<?xml version="1.0" encoding="utf-8"?>
<!-- Generator: Adobe Illustrator 23.0.6, SVG Export Plug-In . SVG Version: 6.00 Build 0)  -->
<svg version="1.1" xmlns="http://www.w3.org/2000/svg" xmlns:xlink="http://www.w3.org/1999/xlink" x="0px" y="0px"
	 viewBox="0 0 8.2 8.2" style="enable-background:new 0 0 8.2 8.2;" xml:space="preserve">
<style type="text/css">
	.st0{fill:#FFFFFF;}
	.st1{fill:#BB4C23;}
	.st2{fill:#FFD888;}
	.st3{fill:#EC953C;}
	.st4{fill:#FEBF46;}
	.st5{fill:#D11820;}
	.st6{fill:#E53E2F;}
	.st7{fill:#EB6D51;}
	.st8{fill:#E8573F;}
	.st9{fill:#ED8063;}
	.st10{fill:#F09377;}
	.st11{fill:#F6BBA5;}
	.st12{fill:#DCB054;}
	.st13{fill:#A69357;}
	.st14{fill:#F7E5DC;}
	.st15{fill:#FAE34D;}
	.st16{fill:#FCEB93;}
	.st17{fill:#FDF2BD;}
	.st18{fill:#FEFAE6;}
	.st19{fill:#F8DE00;}
	.st20{opacity:0.33;}
	.st21{opacity:0.4;}
	.st22{fill:#F9ECD3;}
	.st23{fill:#FFDC9A;}
	.st24{fill:#FFEDCE;}
	.st25{fill:#FFE6B9;}
	.st26{fill:#EBBC92;}
	.st27{fill:#318F78;}
	.st28{fill:#48BD9F;}
	.st29{fill:#ECBB56;}
	.st30{opacity:0.57;}
	.st31{opacity:0.28;}
	.st32{fill:#EAB542;}
	.st33{fill:#E2D8CF;}
	.st34{fill:#C4AF9D;}
	.st35{fill:#90796A;}
	.st36{fill:#F1ECE8;}
	.st37{fill:#B8CC9E;}
	.st38{opacity:0.61;fill:#FFFFFF;}
	.st39{fill:#E4EADA;}
	.st40{fill:#F69182;}
	.st41{fill:#BD575D;}
	.st42{fill:#F9B6A8;}
	.st43{fill:#FBCDC2;}
	.st44{fill:#9E1C0F;}
	.st45{fill:#C14D31;}
	.st46{fill:#C75D40;}
	.st47{fill:#D88B6F;}
	.st48{fill:#E5AD96;}
	.st49{fill:#006437;}
	.st50{fill:#2F774F;}
	.st51{fill:#69A244;}
	.st52{fill:#86B061;}
	.st53{fill:#BFD1A8;}
	.st54{fill:#A00053;}
	.st55{fill:#BF4675;}
	.st56{fill:#EBC8D1;}
	.st57{fill:#CD7190;}
	.st58{fill:#FBF3F5;}
	.st59{fill:#E3B1BF;}
	.st60{fill:#440213;}
	.st61{fill:#6C3F3F;}
	.st62{fill:#8C6764;}
	.st63{fill:#9F7E7B;}
	.st64{fill:#B29895;}
	.st65{fill:#4A825F;}
	.st66{fill:#8FAB94;}
	.st67{fill:#A7BCAA;}
	.st68{fill:#95726F;}
	.st69{fill:#D3C4C1;}
	.st70{fill:#CF4841;}
	.st71{fill:#E39D8C;}
	.st72{fill:#A03631;}
	.st73{fill:#6F2F15;}
	.st74{fill:#864D31;}
	.st75{fill:#9E6E55;}
	.st76{fill:#C8AA99;}
	.st77{fill:#D9AA88;}
	.st78{fill:#E4C3A9;}
	.st79{fill:#EFDCCE;}
	.st80{fill:#895221;}
	.st81{fill:#ECD9C0;}
	.st82{fill:#E4C7A0;}
	.st83{opacity:0.67;fill:#FFFFFF;}
</style>
<g id="Layer_1">
</g>
<g id="Layer_2">
	<g>
		<path class="st60" d="M7.5,1.9C7.4,1.6,7.2,1.3,7,1.1C6.7,0.8,6.3,0.7,6,0.5C5.8,0.5,5.7,0.3,5.5,0.3C5,0.1,4.6,0,4.1,0
			C3.5,0,2.8,0.1,2.3,0.4C1.9,0.7,1.5,1,1.2,1.3C0.4,2,0,3.1,0,4.1C0,4.5,0,5,0.2,5.3c0.1,0.2,0.2,0.4,0.3,0.6
			c0,0.2,0.1,0.3,0.2,0.4c0.2,0.4,0.6,0.7,0.9,1c0.3,0.2,0.6,0.4,1,0.5c0.7,0.1,1.3,0.4,2,0.3C5.3,8.1,6,7.8,6.5,7.4
			c0.1-0.1,0.2-0.2,0.3-0.3C7,7,7.1,6.9,7.2,6.8C7.5,6.5,7.6,6.3,7.8,6C8,5.4,8.2,4.8,8.2,4.1C8.2,3.3,8,2.5,7.5,1.9z M4.1,7.3
			c-1.7,0-3.2-1.4-3.2-3.2c0-1.7,1.4-3.2,3.2-3.2c1.7,0,3.2,1.4,3.2,3.2C7.3,5.9,5.9,7.3,4.1,7.3z"/>
		<path class="st61" d="M7.7,4.2c0-0.2,0-0.3,0-0.5c0-0.4-0.1-0.8-0.3-1.2C7.2,2,6.8,1.5,6.4,1.2C6,1,5.6,0.8,5.2,0.6
			C4.4,0.3,3.3,0.4,2.5,0.8C2.2,0.9,1.8,1.1,1.6,1.4C1.5,1.6,1.4,1.7,1.2,1.9C1.1,2,1,2.1,0.9,2.2C0.7,2.5,0.6,2.9,0.5,3.3
			c-0.1,0.3-0.1,0.7,0,1C0.6,5,0.6,5.6,1,6.1C1.4,6.6,1.9,7,2.4,7.3c0.1,0.1,0.2,0.1,0.4,0.2c0.1,0,0.2,0.1,0.4,0.2
			C3.5,7.8,3.7,7.8,4,7.8c0.6,0,1.2-0.1,1.7-0.4C6.3,7.1,6.9,6.6,7.3,6c0.1-0.2,0.3-0.5,0.4-0.8C7.8,4.9,7.7,4.6,7.7,4.2z M4.1,6.4
			c-1.3,0-2.3-1-2.3-2.3c0-1.3,1-2.3,2.3-2.3c1.3,0,2.3,1,2.3,2.3C6.4,5.4,5.4,6.4,4.1,6.4z"/>
		<path class="st62" d="M6.7,3.6C6.6,2.9,6.2,2.3,5.7,1.9C5.5,1.8,5.2,1.6,4.9,1.6c-0.2,0-0.3,0-0.4-0.1c-0.1,0-0.2-0.1-0.3-0.1
			c-0.3,0-0.6,0-0.9,0.1C3.1,1.6,2.9,1.7,2.7,1.9C2.3,2.2,2,2.4,1.7,2.8C1.5,3.2,1.5,3.7,1.5,4.1c0,0.1,0,0.2,0,0.3
			c0,0.1,0,0.2,0,0.3c0,0.2,0.1,0.4,0.2,0.6c0.2,0.4,0.5,0.7,0.8,1C3,6.6,3.5,6.8,4,6.8c0.2,0,0.4,0,0.6,0c0.3,0,0.4-0.2,0.7-0.3
			c0.1-0.1,0.2-0.1,0.3-0.2c0.3-0.2,0.5-0.4,0.7-0.6c0.2-0.3,0.4-0.7,0.5-1.1C6.8,4.2,6.8,3.9,6.7,3.6z M4.1,5.7
			C3.2,5.7,2.5,5,2.5,4.1c0-0.9,0.7-1.6,1.6-1.6c0.9,0,1.6,0.7,1.6,1.6C5.7,5,5,5.7,4.1,5.7z"/>
		<path class="st63" d="M6.5,3.6C6.4,3,6,2.5,5.5,2.1C5.3,2,5.1,1.8,4.9,1.8c-0.1,0-0.3,0-0.4-0.1c-0.1,0-0.2-0.1-0.3-0.1
			c-0.3,0-0.5,0-0.8,0.1C3.2,1.8,3,1.9,2.8,2.1C2.5,2.4,2.2,2.6,2,3C1.8,3.3,1.7,3.7,1.7,4.1c0,0.1,0,0.2,0,0.3c0,0.1,0,0.2,0,0.3
			c0,0.2,0.1,0.3,0.2,0.5c0.2,0.3,0.4,0.6,0.8,0.9C3.1,6.3,3.5,6.5,4,6.5c0.2,0,0.4,0,0.6,0c0.2,0,0.4-0.2,0.6-0.3
			c0.1-0.1,0.2-0.1,0.3-0.2c0.2-0.1,0.4-0.3,0.6-0.6c0.2-0.3,0.4-0.7,0.4-1C6.5,4.2,6.5,3.9,6.5,3.6z M4.1,6C3,6,2.2,5.2,2.2,4.1
			C2.2,3,3,2.2,4.1,2.2C5.2,2.2,6,3,6,4.1C6,5.2,5.2,6,4.1,6z"/>
		<path class="st64" d="M2.3,1.1C2.1,1.2,2,1.2,1.9,1.4C1.8,1.5,1.7,1.6,1.6,1.7C1.4,1.8,1.2,2,1.1,2.2C1,2.4,0.9,2.6,0.8,2.8
			C0.7,3,0.6,3.3,0.6,3.5c0,0.3,0.2,0.4,0.5,0.2C1.3,3.5,1.2,3.2,1.2,3c0-0.1,0-0.4,0.1-0.5C1.3,2.2,1.6,2.1,1.8,2
			C2,1.8,2.2,1.5,2.5,1.4c0.2-0.1,0.4,0,0.6-0.1C3.2,1.1,3.4,1,3.7,1c0.2,0,0.8,0.1,0.8-0.3c0-0.2-0.2-0.2-0.4-0.2
			c-0.3,0-0.6,0.1-0.8,0.2C2.9,0.8,2.6,1,2.3,1.1z"/>
		<path class="st64" d="M5.2,0.8c0,0.2-0.1,0.3-0.3,0.3C4.8,1.1,4.6,1,4.6,0.8c0-0.2,0.1-0.3,0.3-0.3C5.1,0.6,5.2,0.7,5.2,0.8z"/>
	</g>
</g>
</svg>
