<?xml version="1.0" encoding="utf-8"?>
<!-- Generator: Adobe Illustrator 23.0.6, SVG Export Plug-In . SVG Version: 6.00 Build 0)  -->
<svg version="1.1" xmlns="http://www.w3.org/2000/svg" xmlns:xlink="http://www.w3.org/1999/xlink" x="0px" y="0px"
	 viewBox="0 0 17.7 15.3" style="enable-background:new 0 0 17.7 15.3;" xml:space="preserve">
<style type="text/css">
	.st0{fill:#FFFFFF;}
	.st1{fill:#BB4C23;}
	.st2{fill:#FFD888;}
	.st3{fill:#EC953C;}
	.st4{fill:#FEBF46;}
	.st5{fill:#D11820;}
	.st6{fill:#E53E2F;}
	.st7{fill:#EB6D51;}
	.st8{fill:#E8573F;}
	.st9{fill:#ED8063;}
	.st10{fill:#F09377;}
	.st11{fill:#F6BBA5;}
	.st12{fill:#DCB054;}
	.st13{fill:#A69357;}
	.st14{fill:#F7E5DC;}
	.st15{fill:#FAE34D;}
	.st16{fill:#FCEB93;}
	.st17{fill:#FDF2BD;}
	.st18{fill:#FEFAE6;}
	.st19{fill:#F8DE00;}
	.st20{opacity:0.33;}
	.st21{opacity:0.4;}
	.st22{fill:#F9ECD3;}
	.st23{fill:#FFDC9A;}
	.st24{fill:#FFEDCE;}
	.st25{fill:#FFE6B9;}
	.st26{fill:#EBBC92;}
	.st27{fill:#318F78;}
	.st28{fill:#48BD9F;}
	.st29{fill:#ECBB56;}
	.st30{opacity:0.57;}
	.st31{opacity:0.28;}
	.st32{fill:#EAB542;}
	.st33{fill:#E2D8CF;}
	.st34{fill:#C4AF9D;}
	.st35{fill:#90796A;}
	.st36{fill:#F1ECE8;}
	.st37{fill:#B8CC9E;}
	.st38{opacity:0.61;fill:#FFFFFF;}
	.st39{fill:#E4EADA;}
	.st40{fill:#F69182;}
	.st41{fill:#BD575D;}
	.st42{fill:#F9B6A8;}
	.st43{fill:#FBCDC2;}
	.st44{fill:#9E1C0F;}
	.st45{fill:#C14D31;}
	.st46{fill:#C75D40;}
	.st47{fill:#D88B6F;}
	.st48{fill:#E5AD96;}
	.st49{fill:#006437;}
	.st50{fill:#2F774F;}
	.st51{fill:#69A244;}
	.st52{fill:#86B061;}
	.st53{fill:#BFD1A8;}
	.st54{fill:#A00053;}
	.st55{fill:#BF4675;}
	.st56{fill:#EBC8D1;}
	.st57{fill:#CD7190;}
	.st58{fill:#FBF3F5;}
	.st59{fill:#E3B1BF;}
	.st60{fill:#440213;}
	.st61{fill:#6C3F3F;}
	.st62{fill:#8C6764;}
	.st63{fill:#9F7E7B;}
	.st64{fill:#B29895;}
	.st65{fill:#4A825F;}
	.st66{fill:#8FAB94;}
	.st67{fill:#A7BCAA;}
	.st68{fill:#95726F;}
	.st69{fill:#D3C4C1;}
	.st70{fill:#CF4841;}
	.st71{fill:#E39D8C;}
	.st72{fill:#A03631;}
	.st73{fill:#6F2F15;}
	.st74{fill:#864D31;}
	.st75{fill:#9E6E55;}
	.st76{fill:#C8AA99;}
	.st77{fill:#D9AA88;}
	.st78{fill:#E4C3A9;}
	.st79{fill:#EFDCCE;}
	.st80{fill:#895221;}
	.st81{fill:#ECD9C0;}
	.st82{fill:#E4C7A0;}
	.st83{opacity:0.67;fill:#FFFFFF;}
</style>
<g id="Layer_1">
</g>
<g id="Layer_2">
	<g>
		<path class="st37" d="M12.5,0c-2.4,0.1-4.8,2.4-6.3,4c-1,1.1-1.9,2.2-2.8,3.4C2.5,8.5,2.1,9.9,1.2,11c-1.2,1.5-2,1.7,0,3.2
			c1.1,0.9,2.7,1.2,4.1,1.1c1.4-0.1,2.5-0.8,3.5-1.6c0.3-0.3,0.5-0.6,1-0.8c0.6-0.2,1.3,0.1,1.9-0.3c1.3-0.9,1.7-2.7,3.1-3.7
			c1.1-0.8,1.6-0.9,2.2-2c0.8-1.6,0.9-3.2-0.4-4.5c-0.8-0.8-2-2.1-3.2-2.3C13.1,0,12.8,0,12.5,0z"/>
		<path class="st38" d="M10.1,1.5C9,2,8,2.7,7.3,3.8C7.1,4.3,6.7,4.5,6.3,4.9c-0.4,0.4-0.7,0.8-1,1.3C5,6.6,4.7,7,4.5,7.5
			C4.3,7.9,4.2,8.4,4,8.8C3.7,9.2,3.3,9.5,3,9.9c-0.3,0.4-0.5,0.8-0.7,1.2c-0.2,0.4-0.9,1.3-0.6,1.6c0.2,0.2,0.7,0.2,0.9,0.4
			c0.3,0.1,0.6,0.3,0.8,0.4c0.3,0.2,0.4,0.4,0.8,0.3c0.2,0,0.7-0.3,0.9-0.4c0.3-0.2,0.4-0.3,0.7-0.4c0.3-0.1,0.5,0,0.7,0
			c1.2,0,0.4-1.1,1-1.7c0.3-0.3,0.4-0.1,0.7-0.1c0.5,0,0.5-0.2,0.8-0.6c0.2-0.3,0.5-0.5,0.7-0.8C9.9,9.3,9.8,9.1,10,8.8
			c0.2-0.5,0.6-0.5,1.1-0.5c0.5,0,0.7,0,1.1-0.4C12.4,7.6,12.6,7.2,13,7c0.4-0.3,0.9-0.2,1.3-0.5c0.5-0.4,1.4-0.5,1.6-1
			c0.2-0.3,0-0.8,0.1-1.1c0.2-0.4,0.6-0.4,0.4-0.9c-0.1-0.3-0.4-0.5-0.6-0.7c-0.3-0.3-0.5-0.6-0.8-0.8c-1-1-2.5-1.5-3.9-0.9
			C10.9,1.1,10.4,1.3,10.1,1.5z"/>
		<path class="st39" d="M9.6,2.2C9.2,2.6,9.1,3,8.8,3.4c-0.3,0.4-0.6,0.5-0.7,1C8.1,4.9,8.2,4.8,7.6,5C7,5.3,7,5.6,6.8,6.2
			C6.6,6.6,6.2,6.8,6,7.2c-0.3,0.3-0.5,0.7-0.7,1C4.9,8.6,4.6,9,4.2,9.4c-0.4,0.4-1,1-1.3,1.6C2.4,12.1,4,13,5,12.9
			c0.1-0.7-1-1.2-0.9-1.8c0.2-0.9,1.7,0.5,2.2,0.4c1-0.3-0.6-1.4-0.3-2c0.2-0.3,0.7-0.3,0.8-0.7C7,8.4,6.6,8.3,6.7,7.9
			C6.8,7,8.3,8,8.9,8c1.4-0.1-0.7-1.6,0.2-2.4c0.3-0.3,0.9,0,1.2-0.4c0.1-0.2,0-0.8,0-1c-0.1-0.5-0.3-0.8,0.4-0.6
			c0.8,0.2,1.5,0.5,2.3,0.8c0.4,0.2,1,0.4,1.4,0.1c0.5-0.3,0.1-0.8,0-1.2c-0.1-0.2-0.2-0.6,0.1-0.7c0.2-0.1,0.5,0.2,0.7,0.2
			c0.3,0-0.6-0.8-0.7-0.8c-0.5-0.2-1.1-0.3-1.6-0.4C11.7,1.4,10.5,1.3,9.6,2.2z"/>
	</g>
</g>
</svg>
