<?xml version="1.0" encoding="utf-8"?>
<!-- Generator: Adobe Illustrator 23.0.6, SVG Export Plug-In . SVG Version: 6.00 Build 0)  -->
<svg version="1.1" xmlns="http://www.w3.org/2000/svg" xmlns:xlink="http://www.w3.org/1999/xlink" x="0px" y="0px"
	 viewBox="0 0 10.3 10.2" style="enable-background:new 0 0 10.3 10.2;" xml:space="preserve">
<style type="text/css">
	.st0{fill:#FFFFFF;}
	.st1{fill:#BB4C23;}
	.st2{fill:#FFD888;}
	.st3{fill:#EC953C;}
	.st4{fill:#FEBF46;}
	.st5{fill:#D11820;}
	.st6{fill:#E53E2F;}
	.st7{fill:#EB6D51;}
	.st8{fill:#E8573F;}
	.st9{fill:#ED8063;}
	.st10{fill:#F09377;}
	.st11{fill:#F6BBA5;}
	.st12{fill:#DCB054;}
	.st13{fill:#A69357;}
	.st14{fill:#F7E5DC;}
	.st15{fill:#FAE34D;}
	.st16{fill:#FCEB93;}
	.st17{fill:#FDF2BD;}
	.st18{fill:#FEFAE6;}
	.st19{fill:#F8DE00;}
	.st20{opacity:0.33;}
	.st21{opacity:0.4;}
	.st22{fill:#F9ECD3;}
	.st23{fill:#FFDC9A;}
	.st24{fill:#FFEDCE;}
	.st25{fill:#FFE6B9;}
	.st26{fill:#EBBC92;}
	.st27{fill:#318F78;}
	.st28{fill:#48BD9F;}
	.st29{fill:#ECBB56;}
	.st30{opacity:0.57;}
	.st31{opacity:0.28;}
	.st32{fill:#EAB542;}
	.st33{fill:#E2D8CF;}
	.st34{fill:#C4AF9D;}
	.st35{fill:#90796A;}
	.st36{fill:#F1ECE8;}
	.st37{fill:#B8CC9E;}
	.st38{opacity:0.61;fill:#FFFFFF;}
	.st39{fill:#E4EADA;}
	.st40{fill:#F69182;}
	.st41{fill:#BD575D;}
	.st42{fill:#F9B6A8;}
	.st43{fill:#FBCDC2;}
	.st44{fill:#9E1C0F;}
	.st45{fill:#C14D31;}
	.st46{fill:#C75D40;}
	.st47{fill:#D88B6F;}
	.st48{fill:#E5AD96;}
	.st49{fill:#006437;}
	.st50{fill:#2F774F;}
	.st51{fill:#69A244;}
	.st52{fill:#86B061;}
	.st53{fill:#BFD1A8;}
	.st54{fill:#A00053;}
	.st55{fill:#BF4675;}
	.st56{fill:#EBC8D1;}
	.st57{fill:#CD7190;}
	.st58{fill:#FBF3F5;}
	.st59{fill:#E3B1BF;}
	.st60{fill:#440213;}
	.st61{fill:#6C3F3F;}
	.st62{fill:#8C6764;}
	.st63{fill:#9F7E7B;}
	.st64{fill:#B29895;}
	.st65{fill:#4A825F;}
	.st66{fill:#8FAB94;}
	.st67{fill:#A7BCAA;}
	.st68{fill:#95726F;}
	.st69{fill:#D3C4C1;}
	.st70{fill:#CF4841;}
	.st71{fill:#E39D8C;}
	.st72{fill:#A03631;}
	.st73{fill:#6F2F15;}
	.st74{fill:#864D31;}
	.st75{fill:#9E6E55;}
	.st76{fill:#C8AA99;}
	.st77{fill:#D9AA88;}
	.st78{fill:#E4C3A9;}
	.st79{fill:#EFDCCE;}
	.st80{fill:#895221;}
	.st81{fill:#ECD9C0;}
	.st82{fill:#E4C7A0;}
	.st83{opacity:0.67;fill:#FFFFFF;}
</style>
<g id="Layer_1">
</g>
<g id="Layer_2">
	<g>
		<path class="st73" d="M10.3,5c0,0.4,0,0.8-0.1,1.2c-0.1,0.6-0.4,1.1-0.7,1.6C9.4,8,9.4,8.4,9.2,8.7C8.7,9.1,7.9,9.1,7.4,9.4
			C7,9.7,7,10,6.6,10.1c-0.6,0.1-1.3,0.2-1.9,0C4.3,10,4,9.6,3.7,9.6c-0.5-0.1-0.8,0-1.3-0.3C2,9,1.7,8.6,1.3,8.2
			C1,7.7,0.5,7.2,0.2,6.6c-0.1-0.3,0-0.8-0.2-1.2c-0.3-0.8,0.1-2,0.5-2.8C0.7,2.4,0.9,2.2,1,2c0.2-0.4,0.2-0.6,0.6-0.8
			c0.2-0.1,0.5-0.1,0.7-0.2c0.2-0.1,0.3-0.4,0.5-0.6c0.4-0.4,1.2-0.6,1.8-0.4C5.2,0.3,5.7,0,6.4,0c1.5,0,2.8,1.4,3.2,2.7
			c0.1,0.2,0,0.5,0,0.7c0,0.3,0.1,0.2,0.3,0.5C10.2,4.1,10.3,4.5,10.3,5z"/>
		<path class="st74" d="M2.9,1.3c0.3,0,0.6,0.3,0.9,0.1C4,1.2,3.9,0.9,4,0.7c0-0.2,0-0.2,0.4-0.3c0.6-0.1,1-0.1,1.6,0.1
			c0.3,0.1,0.4,0.3,0.7,0.4C6.8,1,7,0.9,7.2,1c0.2,0.1,0.3,0.3,0.4,0.4C7.8,1.6,8,1.6,8.2,1.8C8.5,2.2,8.9,2.7,9,3.2
			c0.1,0.3-0.1,0.7,0,1C9,4.4,9.2,4.6,9.2,4.8c0.1,0.2,0,0.5,0,0.7C9.3,6,9.5,6.2,9.2,6.6C9.1,6.9,9,7.2,8.8,7.4
			C8.6,7.8,8.4,7.8,8,7.9C7.5,7.9,7.4,8.5,7,8.8C6.5,9.1,5.8,9.2,5.1,9.2c-0.2,0-0.5,0-0.7,0c-0.1,0-0.3,0.1-0.5,0
			C3.7,9,3.9,8.6,3.6,8.4C3.3,8.2,3,8.7,2.6,8.6c-0.5-0.2-0.9-0.7-1-1.2C1.5,6.8,1,6.6,0.8,6.2C0.5,5.7,1.1,5.6,1.2,5.2
			C1.3,5,1.1,4.8,1,4.6C0.8,4.5,0.5,4.5,0.5,4.2C0.4,3.9,0.7,3.7,0.9,3.5c0.2-0.3,0.3-0.6,0.6-0.9c0.1-0.2,0.3-0.2,0.5-0.3
			c0.2-0.1,0.1-0.2,0.2-0.4C2.3,1.6,2.5,1.3,2.9,1.3C2.8,1.3,2.8,1.3,2.9,1.3z"/>
		<path class="st75" d="M3.1,2.3c-0.1,0-0.3,0-0.4,0c-0.3-0.1-0.4,0-0.5,0.3C2.2,2.8,2.3,2.8,2,2.9C1.8,3,1.6,3.1,1.5,3.3
			C1.3,3.5,1.4,3.9,1.7,4c0.1,0.1,0.2,0,0.3,0.1c0.1,0.1,0.2,0.2,0.3,0.3c0.4,0.3,0.8,0,0.6-0.5c-0.1-0.4,0-0.6,0.3-0.8
			C3.5,3,3.8,2.9,3.8,2.6C3.9,2.2,3.5,2.3,3.1,2.3z"/>
		<path class="st75" d="M1.7,5.8C1.5,5.9,1.4,6.1,1.4,6.3c0,0.2,0.4,0.2,0.5,0.4C2,6.8,2,7,2.1,7.1c0.1,0.1,0.2,0.2,0.3,0.4
			c0.2,0.2,0.3,0.3,0.7,0.3c0.3,0,0.5,0,0.7-0.2C4.4,7,3.3,6.9,2.9,6.8C2.6,6.7,2.6,6.6,2.6,6.3c0-0.3,0-0.2-0.2-0.4
			C2.2,5.8,2.1,5.6,1.9,5.6C1.8,5.7,1.7,5.7,1.7,5.8z"/>
		<path class="st75" d="M5,3.5C4.8,3.4,4.4,3.5,4.3,3.8C4.1,4,4,4.3,4,4.6c0,0.2,0.2,0.1,0,0.3C3.9,5,3.6,5.1,3.6,5.4
			c0,0.3,0.5,0.5,0.7,0.5c0.7,0,0.6-0.9,1.2-1c0.2,0,0.6,0,0.7-0.2c0.1-0.1,0-0.2,0-0.3c0-0.1,0-0.2,0-0.3c0-0.2,0.1-0.2-0.1-0.2
			c-0.2,0-0.4,0.3-0.6,0.3C5.3,4.2,5.3,4,5.2,3.8C5.2,3.7,5.1,3.6,5,3.5z"/>
		<path class="st75" d="M5.5,1.1c-0.4-0.1-0.7,0-1.1,0c0,0.3,0.3,0.2,0.4,0.4c0.1,0.2-0.2,0.3-0.3,0.4c-0.6,0.3,0,0.4,0.4,0.6
			c0,0.5,0.6,0.4,0.9,0.2c0.1-0.1,0.2-0.2,0.2-0.3c0-0.1-0.2-0.3-0.1-0.5c0.1-0.2,0.6,0,0.8-0.2C6.8,1.5,6.2,1.2,6,1.2L5.5,1.1z"/>
		<path class="st75" d="M5,7.1c0,0.1,0,0.1,0,0.2c0,0.1,0.2,0.2,0.2,0.4c0,0.2-0.3,0.2-0.3,0.3c-0.1,0.1-0.1,0.5,0,0.6
			C5.1,8.9,6,8.6,6.1,8.2c0.1-0.3,0-0.2,0.3-0.4c0.3-0.1,0.4-0.6,0-0.8C6.3,7.1,6.2,7.1,6.1,7C6,6.9,6,6.7,5.9,6.6
			C5.8,6.3,5.3,6.5,5.1,6.8C5.1,6.8,5,7,5,7.1z"/>
		<path class="st75" d="M6.9,5.3c-0.1,0-0.4,0-0.5,0.1c-0.2,0.2-0.1,0.1,0,0.3C6.4,6,6.5,6.3,6.7,6.4c0.2,0.1,0.5,0.2,0.6,0.2
			c0.3,0.1,0.4,0,0.3,0.4c0.3,0.2,0.5,0,0.7-0.2c0.1-0.1,0.2-0.4,0.2-0.5c0-0.2-0.1-0.3,0-0.5c0.1-0.3,0.5-0.2,0.4-0.6
			c0-0.3-0.5-0.9-0.8-0.8c-0.7,0,0,0.8-0.5,0.9L6.9,5.3z"/>
		<path class="st75" d="M7.7,2.2c-0.1,0-0.1,0-0.2,0C7.3,2,6.6,1.8,6.6,2.3c0,0.1,0.3,0.3,0.4,0.4c0.2,0.3,0.2,1.1,0.7,1
			c0.3-0.1,0.4-0.4,0.4-0.6c0-0.1,0-0.1,0-0.2c0-0.1,0.2-0.1,0.2-0.2C8.5,2.3,8,2.2,7.7,2.2z"/>
		<path class="st76" d="M2.3,3.2C2.2,3.3,2,3.3,2,3.5c0,0.2,0.4,0.4,0.6,0.2c0.1-0.1,0-0.4,0.1-0.6C2.8,2.9,3.2,2.8,3,2.6
			C2.9,2.5,2.6,2.4,2.5,2.5C2.3,2.7,2.5,3,2.3,3.2z"/>
		<path class="st76" d="M5.1,1.2C4.7,1.1,5,1.5,5,1.6c0,0.1-0.6,0.5-0.2,0.6c0.2,0,0.1-0.1,0.3-0.2c0.2-0.1,0.3,0.1,0.4,0
			C5.5,2,5.6,1.8,5.6,1.8C5.7,1.7,6,1.4,5.9,1.3C5.8,1.1,5.2,1.3,5.1,1.2z"/>
		<path class="st76" d="M4.2,5.2c-0.1,0.1-0.1,0.2,0,0.3c0.1,0.1,0.2,0,0.3,0c0,0,0.1-0.1,0.1-0.1C4.7,5.1,4.9,5,5.2,4.9
			c0,0,0.5-0.2,0.4-0.3C5.2,4.4,4.9,4.7,4.9,4.2C4.9,4,5,3.7,4.7,3.8C4.4,3.9,4.4,4.2,4.4,4.4c0,0.3,0,0.4-0.1,0.7
			C4.3,5.1,4.2,5.2,4.2,5.2z"/>
		<path class="st76" d="M7.5,2.4c-0.1,0-0.2,0.1-0.2,0.2C7.2,2.7,7.2,2.9,7.3,3c0,0.1,0.1,0.2,0.2,0.2C7.8,3.5,8,3,8,2.7
			C7.9,2.5,7.7,2.4,7.5,2.4z"/>
		<path class="st76" d="M7.9,5.4c-0.3,0.2-0.8,0-1,0.3C6.7,6,6.9,6.1,7.2,6.2c0.1,0,0.3,0,0.4,0c0.1,0.1,0.1,0.1,0.1,0.2
			c0.1,0.1,0.3,0.2,0.4,0c0.1-0.2-0.1-0.4,0-0.6c0.1-0.2,0.3-0.2,0.4-0.3C8.7,5.2,8.7,5,8.4,4.9c-0.1,0-0.2,0-0.3,0
			C8,5,8.1,5.1,8,5.2C8,5.3,7.9,5.4,7.9,5.4z"/>
		<path class="st76" d="M2.3,6.5C2.3,6.4,2.3,6.4,2.3,6.5C2.5,6,1.9,5.8,1.7,6.1C1.5,6.3,1.9,6.3,2,6.4c0,0.1,0,0.2,0.1,0.2
			C2.1,6.6,2.2,6.5,2.3,6.5z"/>
		<path class="st76" d="M3.4,7.5c0.4-0.1,0.3-0.3,0-0.4C3.2,6.9,2.8,6.8,2.6,6.8C2.3,7,2.4,7.3,2.6,7.4C2.8,7.5,3.2,7.5,3.4,7.5z"/>
		<path class="st76" d="M5.6,6.9c0,0-0.1,0-0.1,0c-0.1,0-0.1,0.2-0.1,0.2c0,0,0,0.1,0,0.1c0,0.1,0.1,0.1,0.1,0.1c0,0,0,0.2,0,0.2
			c0,0.1-0.1,0.1-0.1,0.2c0,0-0.1,0.1-0.1,0.2C5.3,8,5.3,8,5.4,8.1c0.1,0,0.1,0,0.2,0c0.2,0,0.2-0.2,0.3-0.3
			c0.1-0.1,0.2-0.1,0.3-0.2c0.1,0,0.2-0.1,0.2-0.2c0-0.1-0.2-0.1-0.2-0.1C6.1,7.2,6,7.2,5.9,7.2c-0.1,0-0.1,0-0.1-0.1
			c0,0,0.1-0.1,0-0.1c0-0.1-0.1-0.1-0.1-0.1C5.7,6.8,5.6,6.8,5.6,6.9z"/>
	</g>
</g>
</svg>
