<?xml version="1.0" encoding="utf-8"?>
<!-- Generator: Adobe Illustrator 23.0.6, SVG Export Plug-In . SVG Version: 6.00 Build 0)  -->
<svg version="1.1" xmlns="http://www.w3.org/2000/svg" xmlns:xlink="http://www.w3.org/1999/xlink" x="0px" y="0px"
	 viewBox="0 0 11.1 11.6" style="enable-background:new 0 0 11.1 11.6;" xml:space="preserve">
<style type="text/css">
	.st0{fill:#FFFFFF;}
	.st1{fill:#BB4C23;}
	.st2{fill:#FFD888;}
	.st3{fill:#EC953C;}
	.st4{fill:#FEBF46;}
	.st5{fill:#D11820;}
	.st6{fill:#E53E2F;}
	.st7{fill:#EB6D51;}
	.st8{fill:#E8573F;}
	.st9{fill:#ED8063;}
	.st10{fill:#F09377;}
	.st11{fill:#F6BBA5;}
	.st12{fill:#DCB054;}
	.st13{fill:#A69357;}
	.st14{fill:#F7E5DC;}
	.st15{fill:#FAE34D;}
	.st16{fill:#FCEB93;}
	.st17{fill:#FDF2BD;}
	.st18{fill:#FEFAE6;}
	.st19{fill:#F8DE00;}
	.st20{opacity:0.33;}
	.st21{opacity:0.4;}
	.st22{fill:#F9ECD3;}
	.st23{fill:#FFDC9A;}
	.st24{fill:#FFEDCE;}
	.st25{fill:#FFE6B9;}
	.st26{fill:#EBBC92;}
	.st27{fill:#318F78;}
	.st28{fill:#48BD9F;}
	.st29{fill:#ECBB56;}
	.st30{opacity:0.57;}
	.st31{opacity:0.28;}
	.st32{fill:#EAB542;}
	.st33{fill:#E2D8CF;}
	.st34{fill:#C4AF9D;}
	.st35{fill:#90796A;}
	.st36{fill:#F1ECE8;}
	.st37{fill:#B8CC9E;}
	.st38{opacity:0.61;fill:#FFFFFF;}
	.st39{fill:#E4EADA;}
	.st40{fill:#F69182;}
	.st41{fill:#BD575D;}
	.st42{fill:#F9B6A8;}
	.st43{fill:#FBCDC2;}
	.st44{fill:#9E1C0F;}
	.st45{fill:#C14D31;}
	.st46{fill:#C75D40;}
	.st47{fill:#D88B6F;}
	.st48{fill:#E5AD96;}
	.st49{fill:#006437;}
	.st50{fill:#2F774F;}
	.st51{fill:#69A244;}
	.st52{fill:#86B061;}
	.st53{fill:#BFD1A8;}
	.st54{fill:#A00053;}
	.st55{fill:#BF4675;}
	.st56{fill:#EBC8D1;}
	.st57{fill:#CD7190;}
	.st58{fill:#FBF3F5;}
	.st59{fill:#E3B1BF;}
	.st60{fill:#440213;}
	.st61{fill:#6C3F3F;}
	.st62{fill:#8C6764;}
	.st63{fill:#9F7E7B;}
	.st64{fill:#B29895;}
	.st65{fill:#4A825F;}
	.st66{fill:#8FAB94;}
	.st67{fill:#A7BCAA;}
	.st68{fill:#95726F;}
	.st69{fill:#D3C4C1;}
	.st70{fill:#CF4841;}
	.st71{fill:#E39D8C;}
	.st72{fill:#A03631;}
	.st73{fill:#6F2F15;}
	.st74{fill:#864D31;}
	.st75{fill:#9E6E55;}
	.st76{fill:#C8AA99;}
	.st77{fill:#D9AA88;}
	.st78{fill:#E4C3A9;}
	.st79{fill:#EFDCCE;}
	.st80{fill:#895221;}
	.st81{fill:#ECD9C0;}
	.st82{fill:#E4C7A0;}
	.st83{opacity:0.67;fill:#FFFFFF;}
</style>
<g id="Layer_1">
</g>
<g id="Layer_2">
	<g>
		<path class="st54" d="M7.5,10.3L6.8,9.8C4.9,11,2.5,11,0.7,9.8L0,10.5C2.2,12,5.2,11.9,7.5,10.3z"/>
		<path class="st55" d="M3.1,11.6l1.9-1c-0.2,0-0.4,0.1-0.6,0.1l-1.6,0.9C2.9,11.5,3,11.6,3.1,11.6z M4.5,11.5l2.1-1.2l-0.2-0.1
			L4,11.6C4.1,11.5,4.3,11.5,4.5,11.5z M0.5,10.8l1-0.6c-0.1,0-0.2-0.1-0.2-0.1l-1,0.6C0.4,10.8,0.5,10.8,0.5,10.8z M2.1,11.4
			l1.4-0.8c-0.1,0-0.3,0-0.4,0l-1.3,0.7C1.9,11.4,2,11.4,2.1,11.4z M1.3,11.2l1.2-0.6c-0.1,0-0.2,0-0.3-0.1L1,11.1
			C1.1,11.1,1.2,11.2,1.3,11.2z"/>
		<path class="st56" d="M8.8,9.1c2.4-2.6,2.5-6.5,0.4-8.9L8.6,1c1.8,2.1,1.7,5.4-0.4,7.6C7.8,9.1,7.3,9.4,6.8,9.8l0.6,0.6
			C8,10,8.4,9.6,8.8,9.1z"/>
		<path class="st57" d="M9.2,8.9c2.4-2.6,2.5-6.5,0.4-8.9L8.9,0.7c1.8,2.1,1.7,5.4-0.4,7.6c-2,2.3-5.3,2.7-7.6,1.2l-0.7,0.7
			C3,12.1,6.8,11.6,9.2,8.9z"/>
		<path class="st58" d="M9,8.8c2.3-2.5,2.4-6.2,0.4-8.6L8.9,0.8c1.7,2.1,1.6,5.3-0.4,7.6c-2,2.2-5.2,2.7-7.5,1.2l-0.5,0.6
			C3.1,11.8,6.7,11.3,9,8.8z"/>
		<polygon class="st55" points="0.3,10.3 0,10.5 0.2,10.3 0.5,10.1 		"/>
		<polygon class="st59" points="0.5,10.1 0.2,10.3 0.7,9.8 1,9.5 		"/>
		<polygon class="st59" points="8.9,0.8 8.6,1 9.1,0.4 9.4,0.2 		"/>
		<polygon class="st55" points="9.4,0.2 9.1,0.4 9.3,0.2 9.6,0 		"/>
	</g>
</g>
</svg>
