<?xml version="1.0" encoding="utf-8"?>
<!-- Generator: Adobe Illustrator 23.0.6, SVG Export Plug-In . SVG Version: 6.00 Build 0)  -->
<svg version="1.1" xmlns="http://www.w3.org/2000/svg" xmlns:xlink="http://www.w3.org/1999/xlink" x="0px" y="0px"
	 viewBox="0 0 15.3 16.6" style="enable-background:new 0 0 15.3 16.6;" xml:space="preserve">
<style type="text/css">
	.st0{fill:#FFFFFF;}
	.st1{fill:#BB4C23;}
	.st2{fill:#FFD888;}
	.st3{fill:#EC953C;}
	.st4{fill:#FEBF46;}
	.st5{fill:#D11820;}
	.st6{fill:#E53E2F;}
	.st7{fill:#EB6D51;}
	.st8{fill:#E8573F;}
	.st9{fill:#ED8063;}
	.st10{fill:#F09377;}
	.st11{fill:#F6BBA5;}
	.st12{fill:#DCB054;}
	.st13{fill:#A69357;}
	.st14{fill:#F7E5DC;}
	.st15{fill:#FAE34D;}
	.st16{fill:#FCEB93;}
	.st17{fill:#FDF2BD;}
	.st18{fill:#FEFAE6;}
	.st19{fill:#F8DE00;}
	.st20{opacity:0.33;}
	.st21{opacity:0.4;}
	.st22{fill:#F9ECD3;}
	.st23{fill:#FFDC9A;}
	.st24{fill:#FFEDCE;}
	.st25{fill:#FFE6B9;}
	.st26{fill:#EBBC92;}
	.st27{fill:#318F78;}
	.st28{fill:#48BD9F;}
	.st29{fill:#ECBB56;}
	.st30{opacity:0.57;}
	.st31{opacity:0.28;}
	.st32{fill:#EAB542;}
	.st33{fill:#E2D8CF;}
	.st34{fill:#C4AF9D;}
	.st35{fill:#90796A;}
	.st36{fill:#F1ECE8;}
	.st37{fill:#B8CC9E;}
	.st38{opacity:0.61;fill:#FFFFFF;}
	.st39{fill:#E4EADA;}
	.st40{fill:#F69182;}
	.st41{fill:#BD575D;}
	.st42{fill:#F9B6A8;}
	.st43{fill:#FBCDC2;}
	.st44{fill:#9E1C0F;}
	.st45{fill:#C14D31;}
	.st46{fill:#C75D40;}
	.st47{fill:#D88B6F;}
	.st48{fill:#E5AD96;}
	.st49{fill:#006437;}
	.st50{fill:#2F774F;}
	.st51{fill:#69A244;}
	.st52{fill:#86B061;}
	.st53{fill:#BFD1A8;}
	.st54{fill:#A00053;}
	.st55{fill:#BF4675;}
	.st56{fill:#EBC8D1;}
	.st57{fill:#CD7190;}
	.st58{fill:#FBF3F5;}
	.st59{fill:#E3B1BF;}
	.st60{fill:#440213;}
	.st61{fill:#6C3F3F;}
	.st62{fill:#8C6764;}
	.st63{fill:#9F7E7B;}
	.st64{fill:#B29895;}
	.st65{fill:#4A825F;}
	.st66{fill:#8FAB94;}
	.st67{fill:#A7BCAA;}
	.st68{fill:#95726F;}
	.st69{fill:#D3C4C1;}
	.st70{fill:#CF4841;}
	.st71{fill:#E39D8C;}
	.st72{fill:#A03631;}
	.st73{fill:#6F2F15;}
	.st74{fill:#864D31;}
	.st75{fill:#9E6E55;}
	.st76{fill:#C8AA99;}
	.st77{fill:#D9AA88;}
	.st78{fill:#E4C3A9;}
	.st79{fill:#EFDCCE;}
	.st80{fill:#895221;}
	.st81{fill:#ECD9C0;}
	.st82{fill:#E4C7A0;}
	.st83{opacity:0.67;fill:#FFFFFF;}
</style>
<g id="Layer_1">
</g>
<g id="Layer_2">
	<g>
		<g>
			<g>
				<path class="st70" d="M4.2,15.2c-3-1.8-5.6-5.3-3.4-9c2-3.5,8.5-7.7,11.9-5.7s3,9.7,1,13.2C11.6,17.4,7.3,17,4.2,15.2z"/>
				<g>
					<path class="st71" d="M5,8.4c-2,3.4-1.5,5.6-0.4,6.2c-2.7-1.6-4.9-4.7-2.9-8.2c1.9-3.2,7.7-7.1,10.8-5.4
						C11.1,0.4,6.8,5.2,5,8.4z"/>
					<path class="st72" d="M4.2,15.2c1.3,0.7,3.6,0,5.7-3.7c2-3.5,4.2-10.2,2.8-11c3.4,2,3,9.7,1,13.2C11.6,17.4,7.3,17,4.2,15.2z"
						/>
				</g>
			</g>
			<g>
				<path class="st70" d="M11.5,2.7C11.1,2.5,11,2,11.3,1.4c0.3-0.5,0.8-0.7,1.2-0.5c0.4,0.2,0.4,0.8,0.1,1.3
					C12.3,2.7,11.8,2.9,11.5,2.7z"/>
				<path class="st70" d="M3.6,11.8c0-0.2,0-0.4,0.1-0.7c0.1-0.3,0.2-0.5,0.4-0.6c0.2-0.1,0.4-0.2,0.6-0.1c0,0,0.1,0,0.1,0
					c0.3,0.2,0.4,0.7,0.3,1.2c-0.1,0.3-0.2,0.5-0.4,0.6c-0.2,0.1-0.4,0.2-0.6,0.1C3.8,12.3,3.6,12.1,3.6,11.8z"/>
				<path class="st70" d="M6.1,7.4c0.4,0.2,0.4,0.7,0.2,1.2C6.2,8.8,6,9,5.8,9.1C5.6,9.3,5.3,9.3,5.1,9.2C4.9,9.1,4.8,8.9,4.8,8.6
					c0-0.2,0-0.4,0.1-0.6C5.2,7.4,5.6,7.2,6.1,7.4C6,7.4,6.1,7.4,6.1,7.4z"/>
				<path class="st70" d="M7.5,4.5c0.2-0.1,0.4-0.1,0.6,0c0,0,0,0,0.1,0l0,0C8.4,4.7,8.5,5,8.4,5.2c0,0.2-0.1,0.4-0.3,0.6
					C8,6,7.8,6.2,7.6,6.3C7.4,6.4,7.1,6.3,6.9,6.2C6.6,5.9,6.6,5.4,7,4.9C7.1,4.7,7.3,4.6,7.5,4.5z"/>
				<path class="st70" d="M10.3,3.3C9.8,3.7,9.3,3.7,9,3.4l0,0C8.7,3,8.9,2.5,9.3,2.1c0.4-0.3,0.8-0.4,1.1-0.2
					c0.1,0,0.1,0.1,0.2,0.1C10.8,2.4,10.7,2.9,10.3,3.3z"/>
				<path class="st70" d="M2.7,11.5c0,0,0.1,0,0.1,0.1c0.2,0.1,0.3,0.3,0.4,0.5c0.1,0.2,0.1,0.5,0.1,0.7c0,0.3-0.2,0.5-0.4,0.6
					c-0.2,0.1-0.5,0-0.7-0.1c-0.2-0.1-0.3-0.3-0.4-0.5c-0.2-0.5,0-1.1,0.4-1.2C2.3,11.4,2.5,11.4,2.7,11.5z"/>
				<path class="st70" d="M3.1,7.9c0,0,0.1,0,0.1,0.1c0.2,0.1,0.3,0.3,0.3,0.5c0.1,0.2,0,0.4,0,0.7C3.5,9.3,3.3,9.5,3.2,9.7
					C3,9.9,2.7,10,2.5,9.9C2.3,9.8,2.1,9.6,2,9.4C2,9.2,2,8.9,2.1,8.7C2.2,8.2,2.7,7.8,3.1,7.9z"/>
				<path class="st70" d="M5.4,5.6c0,0.2-0.1,0.5-0.2,0.7l0,0C5,6.5,4.8,6.7,4.7,6.8C4.4,6.9,4.1,6.9,4,6.7c-0.4-0.2-0.4-0.8,0-1.3
					C4.2,5,4.7,4.8,5.1,5c0,0,0,0,0,0C5.3,5.2,5.4,5.4,5.4,5.6z"/>
				<path class="st70" d="M7.4,2.2c0.2,0,0.3,0,0.5,0.1C7.9,2.3,8,2.4,8,2.5c0.1,0.2,0.2,0.5,0,0.7C8,3.4,7.8,3.5,7.7,3.7
					C7.4,3.8,7.2,3.9,7,3.9c-0.2,0-0.5-0.1-0.6-0.3C6.1,3.3,6.3,2.8,6.8,2.4C7,2.3,7.2,2.2,7.4,2.2z"/>
				<path class="st70" d="M8.4,1.8C8.2,1.7,8,1.6,7.9,1.4C7.8,1,8.1,0.5,8.7,0.3c0.3-0.1,0.7-0.1,0.9,0c0.1,0.1,0.2,0.2,0.3,0.4
					C10,1.1,9.7,1.6,9.1,1.8C8.9,1.9,8.6,1.9,8.4,1.8z"/>
				<path class="st70" d="M0.9,8.4c0.1,0,0.2,0,0.3,0.1c0.1,0.1,0.2,0.2,0.3,0.3C1.6,9,1.6,9.2,1.6,9.4c0,0.2-0.1,0.5-0.2,0.6
					c-0.1,0.2-0.4,0.4-0.6,0.4c-0.2,0-0.4-0.1-0.5-0.3C0.2,9.9,0.1,9.7,0.1,9.4c0-0.2,0.1-0.5,0.2-0.6C0.4,8.5,0.7,8.4,0.9,8.4z"/>
				<path class="st70" d="M2.9,5.8c0,0.2-0.1,0.4-0.2,0.6C2.4,6.9,1.9,7.1,1.5,6.9c-0.4-0.2-0.4-0.8,0-1.3C1.6,5.4,1.8,5.3,2,5.2
					C2.2,5,2.4,5,2.6,5.2c0,0,0,0,0,0C2.9,5.3,3,5.6,2.9,5.8z"/>
				<path class="st70" d="M4.4,4.5c-0.3,0.1-0.5,0-0.7-0.2C3.4,4,3.5,3.5,4,3.1c0.2-0.2,0.4-0.3,0.6-0.3c0.2-0.1,0.4,0,0.5,0.1
					c0,0,0.1,0.1,0.1,0.1c0.2,0.2,0.2,0.4,0.1,0.7C5.3,3.8,5.2,4,5,4.2C4.8,4.3,4.6,4.4,4.4,4.5z"/>
			</g>
			<g>
				<g>
					<g>
						<path class="st29" d="M5.4,14c0.2-0.3,0.2-0.6,0-0.7c-0.2-0.1-0.4,0.1-0.6,0.4c-0.2,0.3-0.2,0.6,0,0.7
							C4.9,14.4,5.2,14.3,5.4,14z"/>
					</g>
					<g>
						<path class="st29" d="M7.1,11c0.2-0.3,0.2-0.6,0-0.7c-0.2-0.1-0.4,0.1-0.6,0.4c-0.2,0.3-0.2,0.6,0,0.7
							C6.6,11.5,6.9,11.3,7.1,11z"/>
					</g>
					<g>
						<path class="st29" d="M8.8,8.1c0.2-0.3,0.2-0.6,0-0.7C8.6,7.2,8.3,7.4,8.2,7.7S8,8.3,8.2,8.4C8.3,8.5,8.6,8.4,8.8,8.1z"/>
					</g>
					<g>
						<path class="st29" d="M10.5,5.1c0.2-0.3,0.2-0.6,0-0.7C10.3,4.3,10,4.4,9.9,4.7C9.7,5,9.7,5.4,9.9,5.5
							C10,5.6,10.3,5.4,10.5,5.1z"/>
					</g>
					<g>
						<path class="st29" d="M12.3,2c0.2-0.3,0.2-0.6,0-0.7c-0.2-0.1-0.4,0.1-0.6,0.4c-0.2,0.3-0.2,0.6,0,0.7
							C11.8,2.5,12.1,2.3,12.3,2z"/>
					</g>
				</g>
				<g>
					<g>
						<g>
							<g>
								<path class="st29" d="M4.7,11.5c0.1-0.3,0.1-0.6-0.1-0.7C4.4,10.8,4.1,11,4,11.3c-0.1,0.3-0.1,0.6,0.1,0.7
									C4.3,12.1,4.6,11.9,4.7,11.5z"/>
							</g>
							<g>
								<path class="st29" d="M5.9,8.4C6,8.1,6,7.8,5.8,7.7C5.7,7.6,5.4,7.8,5.3,8.1c-0.2,0.3-0.1,0.6,0,0.7
									C5.5,8.9,5.7,8.7,5.9,8.4z"/>
							</g>
							<g>
								<path class="st29" d="M7.8,5.6C8.1,5.3,8.1,5,7.9,4.9c-0.2-0.1-0.5,0-0.7,0.3C7.1,5.4,7,5.8,7.2,5.9C7.3,6,7.6,5.9,7.8,5.6z
									"/>
							</g>
							<g>
								<path class="st29" d="M10,3c0.3-0.2,0.4-0.5,0.3-0.7c-0.1-0.2-0.4-0.1-0.7,0.1C9.3,2.7,9.2,3,9.3,3.1C9.4,3.3,9.7,3.2,10,3z
									"/>
							</g>
						</g>
						<g>
							<g>
								<path class="st29" d="M2.8,12.3c-0.1-0.3-0.4-0.5-0.5-0.4C2,11.9,2,12.2,2.1,12.5C2.2,12.8,2.5,13,2.6,13
									C2.8,12.9,2.9,12.6,2.8,12.3z"/>
							</g>
							<g>
								<path class="st29" d="M3.1,9c0.1-0.3,0-0.6-0.2-0.7C2.8,8.3,2.5,8.5,2.5,8.8c-0.1,0.3,0,0.6,0.2,0.7C2.8,9.6,3,9.3,3.1,9z"
									/>
							</g>
							<g>
								<path class="st29" d="M4.8,6.1C5,5.8,5.1,5.5,4.9,5.4c-0.2-0.1-0.5,0-0.6,0.3C4,6,4,6.3,4.2,6.4C4.3,6.5,4.6,6.4,4.8,6.1z"
									/>
							</g>
							<g>
								<path class="st29" d="M7.4,3.4c0.3-0.2,0.4-0.5,0.3-0.7C7.6,2.5,7.3,2.6,7,2.8C6.7,3,6.6,3.3,6.7,3.4
									C6.8,3.6,7.1,3.6,7.4,3.4z"/>
							</g>
							<g>
								<path class="st29" d="M9,1.4C9.3,1.3,9.5,1,9.5,0.8C9.4,0.7,9.1,0.6,8.8,0.7S8.3,1.1,8.3,1.2C8.4,1.4,8.7,1.5,9,1.4z"/>
							</g>
						</g>
						<g>
							<g>
								<path class="st29" d="M1.2,9.4c0-0.3-0.1-0.6-0.3-0.6c-0.2,0-0.4,0.3-0.4,0.6c0,0.3,0.1,0.6,0.3,0.6S1.2,9.8,1.2,9.4z"/>
							</g>
							<g>
								<path class="st29" d="M2.4,6.2c0.2-0.3,0.2-0.6,0.1-0.7C2.3,5.4,2,5.5,1.8,5.8C1.6,6.1,1.6,6.4,1.7,6.5
									C1.9,6.7,2.2,6.5,2.4,6.2z"/>
							</g>
							<g>
								<path class="st29" d="M4.7,3.9C5,3.6,5.1,3.3,4.9,3.2C4.8,3,4.5,3.1,4.2,3.3C4,3.6,3.9,3.9,4,4C4.2,4.2,4.5,4.1,4.7,3.9z"/>
							</g>
						</g>
					</g>
					<g>
						<g>
							<g>
								<path class="st29" d="M7.2,13c0.2-0.3,0.5-0.4,0.7-0.2C8,12.9,8,13.2,7.7,13.5c-0.2,0.3-0.5,0.4-0.7,0.2
									C6.9,13.6,7,13.3,7.2,13z"/>
							</g>
							<g>
								<path class="st29" d="M9.3,10.4c0.2-0.3,0.5-0.4,0.6-0.3c0.2,0.1,0.1,0.4-0.1,0.7c-0.2,0.3-0.5,0.4-0.6,0.3
									C9.1,11,9.1,10.7,9.3,10.4z"/>
							</g>
							<g>
								<path class="st29" d="M10.7,7.3c0.1-0.3,0.4-0.5,0.6-0.4c0.2,0.1,0.2,0.4,0.1,0.7C11.3,7.9,11,8.1,10.8,8
									C10.7,7.9,10.6,7.6,10.7,7.3z"/>
							</g>
							<g>
								<path class="st29" d="M11.9,4.1c0.1-0.3,0.3-0.6,0.5-0.6c0.2,0,0.3,0.3,0.2,0.7c-0.1,0.3-0.3,0.6-0.5,0.6
									C12,4.7,11.9,4.4,11.9,4.1z"/>
							</g>
						</g>
						<g>
							<g>
								<path class="st29" d="M7.5,15c0.3-0.1,0.6,0.1,0.7,0.3c0,0.2-0.2,0.4-0.6,0.5C7.3,15.8,7,15.7,7,15.5
									C6.9,15.3,7.2,15.1,7.5,15z"/>
							</g>
							<g>
								<path class="st29" d="M10.2,13.1c0.2-0.2,0.5-0.3,0.7-0.2c0.1,0.1,0.1,0.5-0.2,0.7c-0.2,0.2-0.5,0.3-0.7,0.2
									C9.8,13.6,9.9,13.3,10.2,13.1z"/>
							</g>
							<g>
								<path class="st29" d="M11.8,10.1c0.1-0.3,0.4-0.5,0.6-0.4c0.2,0.1,0.2,0.4,0.1,0.7c-0.1,0.3-0.4,0.5-0.6,0.4
									C11.7,10.8,11.7,10.5,11.8,10.1z"/>
							</g>
							<g>
								<path class="st29" d="M12.9,6.5c0-0.3,0.2-0.6,0.4-0.6c0.2,0,0.3,0.3,0.3,0.6c0,0.3-0.2,0.6-0.4,0.6
									C13,7.2,12.9,6.9,12.9,6.5z"/>
							</g>
							<g>
								<path class="st29" d="M13.8,4.2c-0.1-0.3,0-0.6,0.2-0.7c0.2,0,0.4,0.2,0.5,0.5c0.1,0.3,0,0.6-0.2,0.7
									C14.1,4.7,13.9,4.5,13.8,4.2z"/>
							</g>
						</g>
						<g>
							<g>
								<path class="st29" d="M10.8,14.9c0.3-0.2,0.6-0.2,0.7,0c0.1,0.2,0,0.5-0.3,0.6c-0.3,0.2-0.6,0.2-0.7,0
									C10.3,15.4,10.5,15.1,10.8,14.9z"/>
							</g>
							<g>
								<path class="st29" d="M12.9,12.3c0.1-0.3,0.4-0.5,0.6-0.4c0.2,0.1,0.2,0.4,0.1,0.7c-0.1,0.3-0.4,0.5-0.6,0.4
									C12.8,13,12.8,12.6,12.9,12.3z"/>
							</g>
							<g>
								<path class="st29" d="M13.8,9.1c0.1-0.3,0.3-0.6,0.5-0.5c0.2,0,0.3,0.4,0.2,0.7c-0.1,0.3-0.3,0.6-0.5,0.5
									C13.8,9.8,13.7,9.4,13.8,9.1z"/>
							</g>
						</g>
					</g>
				</g>
			</g>
		</g>
	</g>
</g>
</svg>
