<?xml version="1.0" encoding="utf-8"?>
<!-- Generator: Adobe Illustrator 23.0.6, SVG Export Plug-In . SVG Version: 6.00 Build 0)  -->
<svg version="1.1" xmlns="http://www.w3.org/2000/svg" xmlns:xlink="http://www.w3.org/1999/xlink" x="0px" y="0px"
	 viewBox="0 0 17.3 17.3" style="enable-background:new 0 0 17.3 17.3;" xml:space="preserve">
<style type="text/css">
	.st0{fill:#FFFFFF;}
	.st1{fill:#BB4C23;}
	.st2{fill:#FFD888;}
	.st3{fill:#EC953C;}
	.st4{fill:#FEBF46;}
	.st5{fill:#D11820;}
	.st6{fill:#E53E2F;}
	.st7{fill:#EB6D51;}
	.st8{fill:#E8573F;}
	.st9{fill:#ED8063;}
	.st10{fill:#F09377;}
	.st11{fill:#F6BBA5;}
	.st12{fill:#DCB054;}
	.st13{fill:#A69357;}
	.st14{fill:#F7E5DC;}
	.st15{fill:#FAE34D;}
	.st16{fill:#FCEB93;}
	.st17{fill:#FDF2BD;}
	.st18{fill:#FEFAE6;}
	.st19{fill:#F8DE00;}
	.st20{opacity:0.33;}
	.st21{opacity:0.4;}
	.st22{fill:#F9ECD3;}
	.st23{fill:#FFDC9A;}
	.st24{fill:#FFEDCE;}
	.st25{fill:#FFE6B9;}
	.st26{fill:#EBBC92;}
	.st27{fill:#318F78;}
	.st28{fill:#48BD9F;}
	.st29{fill:#ECBB56;}
	.st30{opacity:0.57;}
	.st31{opacity:0.28;}
	.st32{fill:#EAB542;}
	.st33{fill:#E2D8CF;}
	.st34{fill:#C4AF9D;}
	.st35{fill:#90796A;}
	.st36{fill:#F1ECE8;}
	.st37{fill:#B8CC9E;}
	.st38{opacity:0.61;fill:#FFFFFF;}
	.st39{fill:#E4EADA;}
	.st40{fill:#F69182;}
	.st41{fill:#BD575D;}
	.st42{fill:#F9B6A8;}
	.st43{fill:#FBCDC2;}
	.st44{fill:#9E1C0F;}
	.st45{fill:#C14D31;}
	.st46{fill:#C75D40;}
	.st47{fill:#D88B6F;}
	.st48{fill:#E5AD96;}
	.st49{fill:#006437;}
	.st50{fill:#2F774F;}
	.st51{fill:#69A244;}
	.st52{fill:#86B061;}
	.st53{fill:#BFD1A8;}
	.st54{fill:#A00053;}
	.st55{fill:#BF4675;}
	.st56{fill:#EBC8D1;}
	.st57{fill:#CD7190;}
	.st58{fill:#FBF3F5;}
	.st59{fill:#E3B1BF;}
	.st60{fill:#440213;}
	.st61{fill:#6C3F3F;}
	.st62{fill:#8C6764;}
	.st63{fill:#9F7E7B;}
	.st64{fill:#B29895;}
	.st65{fill:#4A825F;}
	.st66{fill:#8FAB94;}
	.st67{fill:#A7BCAA;}
	.st68{fill:#95726F;}
	.st69{fill:#D3C4C1;}
	.st70{fill:#CF4841;}
	.st71{fill:#E39D8C;}
	.st72{fill:#A03631;}
	.st73{fill:#6F2F15;}
	.st74{fill:#864D31;}
	.st75{fill:#9E6E55;}
	.st76{fill:#C8AA99;}
	.st77{fill:#D9AA88;}
	.st78{fill:#E4C3A9;}
	.st79{fill:#EFDCCE;}
	.st80{fill:#895221;}
	.st81{fill:#ECD9C0;}
	.st82{fill:#E4C7A0;}
	.st83{opacity:0.67;fill:#FFFFFF;}
</style>
<g id="Layer_1">
</g>
<g id="Layer_2">
	<g>
		<g>
			<g class="st20">
				<g>
					<g>
						<ellipse transform="matrix(0.7071 -0.7071 0.7071 0.7071 -3.5845 8.6539)" class="st0" cx="8.7" cy="8.7" rx="8.7" ry="8.7"/>
					</g>
				</g>
			</g>
			<g class="st21">
				<g>
					<g>
						<circle class="st0" cx="8.7" cy="8.7" r="7.2"/>
					</g>
				</g>
			</g>
			<g>
				<g>
					<g>
						<circle class="st22" cx="8.7" cy="8.7" r="5.8"/>
					</g>
				</g>
			</g>
		</g>
		<path class="st23" d="M15.1,8.7c0,0.1,0,0.2,0,0.3c-0.1,0.8-0.1,1.6-0.5,2.4c-0.2,0.4-0.6,0.6-0.8,0.9c-0.3,0.4-0.5,0.9-0.9,1.2
			c-0.4,0.3-0.9,0.7-1.4,0.9c-1,0.5-2.5,0.9-3.6,0.5c-0.4-0.1-0.7-0.3-1.1-0.4c-0.6-0.1-1.1-0.2-1.6-0.5c-0.9-0.6-1.7-1.3-2.1-2.3
			c-0.2-0.5-0.5-0.8-0.7-1.3C2.1,10,2.1,9.5,2,9C1.9,8.2,2.1,7.1,2.4,6.3c0.3-1,0.7-1.7,1.5-2.4c0.2-0.2,0.3-0.3,0.5-0.5
			c0.4-0.3,0.9-0.6,1.4-0.8c1.9-0.7,4.1-0.9,5.9,0.2c0.5,0.3,0.8,0.7,1.2,1.1c0.4,0.4,0.8,0.6,1.2,1.1C14.8,6.1,15.2,7.5,15.1,8.7z"
			/>
		<path class="st24" d="M3.5,5.3c0-0.1,0.1-0.1,0.1-0.2c0.5-0.6,0.9-1.2,1.5-1.6c0.4-0.2,0.7-0.2,1.1-0.4C6.7,3,7,2.7,7.6,2.7
			c0.5,0,1.1-0.1,1.6,0c1,0.1,2.3,0.5,3.1,1.3c0.2,0.3,0.4,0.6,0.7,0.8c0.4,0.4,0.8,0.7,1,1.2c0.4,0.9,0.7,1.8,0.5,2.8
			c-0.1,0.5,0,0.9-0.1,1.3c-0.1,0.5-0.3,0.9-0.5,1.3c-0.3,0.7-1,1.5-1.6,2c-0.7,0.6-1.4,1-2.3,1.1c-0.2,0-0.4,0.1-0.7,0.1
			c-0.5,0-1,0-1.5-0.1c-1.8-0.3-3.6-1.3-4.5-3c-0.2-0.4-0.3-1-0.4-1.4C2.7,9.6,2.5,9.2,2.5,8.7C2.5,7.5,2.8,6.2,3.5,5.3z"/>
		<path class="st25" d="M6.6,15.7c0,0.2-0.1,0.3,0,0.5c0.1,0.3,0.7,0.5,1,0.6C8,16.9,8.4,17,8.8,17c0.2,0,0.8,0.2,1,0.1
			c0.2-0.1,0.3-0.4,0.5-0.5c0.3-0.1,0.6,0,0.9,0c0.6,0,1.1-0.1,1.5-0.5c0.3-0.4,0.9-0.7,1-1.3c0.1-0.3-0.1-0.6,0-0.9
			c0.1-0.3,0.4-0.5,0.5-0.9c0.2-0.8,0-1.6-0.3-2.3c-0.2-0.4-0.3-0.7-0.7-0.9c-0.3-0.1-0.7-0.3-0.9-0.1c-0.7,0.6,0.7,1.5,0,2.1
			c-0.3,0.3-0.6,0.1-0.9-0.2c-0.4-0.5-0.2-1-0.7-1.4c-0.9-0.6-2.4,0.2-1.6,1.3c0.3,0.4,1.2,0.9,1.6,1.1c0.4,0.2,0.9,0.3,1,0.8
			c0.3,1.1-1.3,0.8-1.8,0.6c-0.3-0.1-0.9-0.1-1.2-0.3c-0.2-0.2-0.1-0.4-0.2-0.6c-0.1-0.3-0.5-0.4-0.8-0.5c-0.3,0-0.6,0-0.7,0.3
			c-0.2,0.3,0.1,0.5,0.2,0.7c0.2,0.6-0.2,1-0.7,0.8c-0.4-0.1-1.3-0.5-1.2,0.3c0.1,0.6,0.8,0.6,1,0.9C6.6,15.6,6.6,15.6,6.6,15.7z"/>
		<path class="st26" d="M12.4,4.9c0-0.1-0.1-0.2-0.2-0.2S12,4.8,12,4.9s0.1,0.2,0.2,0.2S12.4,5,12.4,4.9z"/>
		<path class="st26" d="M11.2,13.7c0-0.1-0.1-0.2-0.2-0.2c-0.1,0-0.2,0.1-0.2,0.2c0,0.1,0.1,0.2,0.2,0.2
			C11.1,13.8,11.2,13.8,11.2,13.7z"/>
		<path class="st26" d="M9,13.5c0-0.1-0.1-0.2-0.2-0.2s-0.2,0.1-0.2,0.2c0,0.1,0.1,0.2,0.2,0.2S9,13.6,9,13.5z"/>
		<path class="st0" d="M4.6,3.8C5.1,3.3,6,2.9,6.7,2.6c0.5-0.2,0.5-0.1,0.9,0c0.3,0.1,0.7-0.1,1-0.1c0.3,0,0.2,0.2,0.5,0.3
			c0.2,0.1,0.4-0.1,0.7,0c0.2,0,0.3,0.2,0.5,0.1c0,0.2,0.5,0.2,0.6,0.2c0.2,0,0.3,0,0.4,0.1c0.1,0.1,0.2,0.2,0.3,0.2
			c0.1,0,0.2,0,0.3,0.1c0,0,0.1,0.1,0.1,0.2c0.3,0.2,0.5,0.3,0.2,0.7c-0.2,0.3-0.5,0.3-0.7,0.1c-0.4-0.2-0.5-0.6-0.9-0.8
			c-0.3-0.2-0.8-0.2-1.1-0.1c-0.3,0-0.5,0.3-0.7,0.1c-0.2-0.2,0-0.5-0.5-0.5c-0.3,0-0.6,0.2-0.8,0.3c-0.2,0-0.3-0.1-0.5-0.1
			c-0.2,0-0.6-0.1-0.8,0c-0.3,0.2-0.3,0.7-0.6,1C5.4,4.4,5.2,4.4,5.1,4.5C4.9,4.7,4.6,5.1,4.5,5.3c-0.3,0.3-0.3,0.6-0.4,1
			C4,6.7,3.8,6.8,3.6,7.1C3.4,7.5,3.5,8.5,2.9,8.5c-0.5,0-0.5-0.9-0.4-1.2c0.1-0.5,0.5-0.9,0.8-1.2c0.4-0.5,0.5-1,0.9-1.5L4.6,3.8z"
			/>
	</g>
</g>
</svg>
