<?xml version="1.0" encoding="utf-8"?>
<!-- Generator: Adobe Illustrator 23.0.6, SVG Export Plug-In . SVG Version: 6.00 Build 0)  -->
<svg version="1.1" xmlns="http://www.w3.org/2000/svg" xmlns:xlink="http://www.w3.org/1999/xlink" x="0px" y="0px"
	 viewBox="0 0 100.9 98.9" style="enable-background:new 0 0 100.9 98.9;" xml:space="preserve">
<style type="text/css">
	.st0{fill:#FFFFFF;}
	.st1{fill:#BB4C23;}
	.st2{fill:#FFD888;}
	.st3{fill:#EC953C;}
	.st4{fill:#FEBF46;}
	.st5{fill:#D11820;}
	.st6{fill:#E53E2F;}
	.st7{fill:#EB6D51;}
	.st8{fill:#E8573F;}
	.st9{fill:#ED8063;}
	.st10{fill:#F09377;}
	.st11{fill:#F6BBA5;}
	.st12{fill:#DCB054;}
	.st13{fill:#A69357;}
	.st14{fill:#F7E5DC;}
	.st15{fill:#FAE34D;}
	.st16{fill:#FCEB93;}
	.st17{fill:#FDF2BD;}
	.st18{fill:#FEFAE6;}
	.st19{fill:#F8DE00;}
	.st20{opacity:0.33;}
	.st21{opacity:0.4;}
	.st22{fill:#F9ECD3;}
	.st23{fill:#FFDC9A;}
	.st24{fill:#FFEDCE;}
	.st25{fill:#FFE6B9;}
	.st26{fill:#EBBC92;}
	.st27{fill:#318F78;}
	.st28{fill:#48BD9F;}
	.st29{fill:#ECBB56;}
	.st30{opacity:0.57;}
	.st31{opacity:0.28;}
	.st32{fill:#EAB542;}
	.st33{fill:#E2D8CF;}
	.st34{fill:#C4AF9D;}
	.st35{fill:#90796A;}
	.st36{fill:#F1ECE8;}
	.st37{fill:#B8CC9E;}
	.st38{opacity:0.61;fill:#FFFFFF;}
	.st39{fill:#E4EADA;}
	.st40{fill:#F69182;}
	.st41{fill:#BD575D;}
	.st42{fill:#F9B6A8;}
	.st43{fill:#FBCDC2;}
	.st44{fill:#9E1C0F;}
	.st45{fill:#C14D31;}
	.st46{fill:#C75D40;}
	.st47{fill:#D88B6F;}
	.st48{fill:#E5AD96;}
	.st49{fill:#006437;}
	.st50{fill:#2F774F;}
	.st51{fill:#69A244;}
	.st52{fill:#86B061;}
	.st53{fill:#BFD1A8;}
	.st54{fill:#A00053;}
	.st55{fill:#BF4675;}
	.st56{fill:#EBC8D1;}
	.st57{fill:#CD7190;}
	.st58{fill:#FBF3F5;}
	.st59{fill:#E3B1BF;}
	.st60{fill:#440213;}
	.st61{fill:#6C3F3F;}
	.st62{fill:#8C6764;}
	.st63{fill:#9F7E7B;}
	.st64{fill:#B29895;}
	.st65{fill:#4A825F;}
	.st66{fill:#8FAB94;}
	.st67{fill:#A7BCAA;}
	.st68{fill:#95726F;}
	.st69{fill:#D3C4C1;}
	.st70{fill:#CF4841;}
	.st71{fill:#E39D8C;}
	.st72{fill:#A03631;}
	.st73{fill:#6F2F15;}
	.st74{fill:#864D31;}
	.st75{fill:#9E6E55;}
	.st76{fill:#C8AA99;}
	.st77{fill:#D9AA88;}
	.st78{fill:#E4C3A9;}
	.st79{fill:#EFDCCE;}
	.st80{fill:#895221;}
	.st81{fill:#ECD9C0;}
	.st82{fill:#E4C7A0;}
	.st83{opacity:0.67;fill:#FFFFFF;}
</style>
<g id="Layer_1">
</g>
<g id="Layer_2">
	<path class="st83" d="M100.9,49.4c0,3.8-2.4,7.2-3.2,10.8c-0.8,3.7-0.2,7.8-1.8,11.1c-1.6,3.4-5.3,5.4-7.6,8.3
		c-2.3,2.9-3.5,6.9-6.4,9.2c-2.9,2.3-7.1,2.6-10.4,4.2c-3.3,1.6-6.2,4.7-9.8,5.5c-3.5,0.8-7.4-0.7-11.2-0.7c-3.8,0-7.7,1.5-11.2,0.7
		c-3.7-0.8-6.5-3.9-9.8-5.5c-3.4-1.6-7.5-1.9-10.4-4.2c-2.9-2.3-4.1-6.3-6.4-9.2c-2.3-2.9-5.9-5-7.6-8.3C3.4,68,4,63.9,3.2,60.2
		C2.4,56.7,0,53.2,0,49.4c0-3.8,2.4-7.2,3.2-10.8C4,35,3.4,30.8,5,27.5c1.6-3.4,5.3-5.4,7.6-8.3c2.3-2.9,3.5-6.9,6.4-9.2
		c2.9-2.3,7.1-2.6,10.4-4.2c3.3-1.6,6.2-4.7,9.8-5.5C42.8-0.6,46.7,1,50.5,1c3.8,0,7.7-1.5,11.2-0.7c3.7,0.8,6.5,3.9,9.8,5.5
		C74.8,7.4,79,7.7,81.9,10c2.9,2.3,4.1,6.3,6.4,9.2c2.3,2.9,5.9,5,7.6,8.3c1.6,3.3,1,7.4,1.8,11.1C98.5,42.2,100.9,45.6,100.9,49.4z
		"/>
</g>
</svg>
