<?xml version="1.0" encoding="utf-8"?>
<!-- Generator: Adobe Illustrator 23.0.6, SVG Export Plug-In . SVG Version: 6.00 Build 0)  -->
<svg version="1.1" xmlns="http://www.w3.org/2000/svg" xmlns:xlink="http://www.w3.org/1999/xlink" x="0px" y="0px"
	 viewBox="0 0 13.5 13.5" style="enable-background:new 0 0 13.5 13.5;" xml:space="preserve">
<style type="text/css">
	.st0{fill:#FFFFFF;}
	.st1{fill:#BB4C23;}
	.st2{fill:#FFD888;}
	.st3{fill:#EC953C;}
	.st4{fill:#FEBF46;}
	.st5{fill:#D11820;}
	.st6{fill:#E53E2F;}
	.st7{fill:#EB6D51;}
	.st8{fill:#E8573F;}
	.st9{fill:#ED8063;}
	.st10{fill:#F09377;}
	.st11{fill:#F6BBA5;}
	.st12{fill:#DCB054;}
	.st13{fill:#A69357;}
	.st14{fill:#F7E5DC;}
	.st15{fill:#FAE34D;}
	.st16{fill:#FCEB93;}
	.st17{fill:#FDF2BD;}
	.st18{fill:#FEFAE6;}
	.st19{fill:#F8DE00;}
	.st20{opacity:0.33;}
	.st21{opacity:0.4;}
	.st22{fill:#F9ECD3;}
	.st23{fill:#FFDC9A;}
	.st24{fill:#FFEDCE;}
	.st25{fill:#FFE6B9;}
	.st26{fill:#EBBC92;}
	.st27{fill:#318F78;}
	.st28{fill:#48BD9F;}
	.st29{fill:#ECBB56;}
	.st30{opacity:0.57;}
	.st31{opacity:0.28;}
	.st32{fill:#EAB542;}
	.st33{fill:#E2D8CF;}
	.st34{fill:#C4AF9D;}
	.st35{fill:#90796A;}
	.st36{fill:#F1ECE8;}
	.st37{fill:#B8CC9E;}
	.st38{opacity:0.61;fill:#FFFFFF;}
	.st39{fill:#E4EADA;}
	.st40{fill:#F69182;}
	.st41{fill:#BD575D;}
	.st42{fill:#F9B6A8;}
	.st43{fill:#FBCDC2;}
	.st44{fill:#9E1C0F;}
	.st45{fill:#C14D31;}
	.st46{fill:#C75D40;}
	.st47{fill:#D88B6F;}
	.st48{fill:#E5AD96;}
	.st49{fill:#006437;}
	.st50{fill:#2F774F;}
	.st51{fill:#69A244;}
	.st52{fill:#86B061;}
	.st53{fill:#BFD1A8;}
	.st54{fill:#A00053;}
	.st55{fill:#BF4675;}
	.st56{fill:#EBC8D1;}
	.st57{fill:#CD7190;}
	.st58{fill:#FBF3F5;}
	.st59{fill:#E3B1BF;}
	.st60{fill:#440213;}
	.st61{fill:#6C3F3F;}
	.st62{fill:#8C6764;}
	.st63{fill:#9F7E7B;}
	.st64{fill:#B29895;}
	.st65{fill:#4A825F;}
	.st66{fill:#8FAB94;}
	.st67{fill:#A7BCAA;}
	.st68{fill:#95726F;}
	.st69{fill:#D3C4C1;}
	.st70{fill:#CF4841;}
	.st71{fill:#E39D8C;}
	.st72{fill:#A03631;}
	.st73{fill:#6F2F15;}
	.st74{fill:#864D31;}
	.st75{fill:#9E6E55;}
	.st76{fill:#C8AA99;}
	.st77{fill:#D9AA88;}
	.st78{fill:#E4C3A9;}
	.st79{fill:#EFDCCE;}
	.st80{fill:#895221;}
	.st81{fill:#ECD9C0;}
	.st82{fill:#E4C7A0;}
	.st83{opacity:0.67;fill:#FFFFFF;}
</style>
<g id="Layer_1">
</g>
<g id="Layer_2">
	<g>
		<g>
			<g>
				<path class="st44" d="M6.8,13.5c-0.1,0-0.2,0-0.3,0c-0.8-0.1-1.7-0.1-2.5-0.4c-0.4-0.2-0.6-0.6-1-0.8c-0.5-0.3-0.9-0.4-1.3-0.9
					c-0.3-0.5-0.8-1-1-1.5c-0.5-1-1-2.5-0.7-3.7C0.2,5.8,0.4,5.4,0.4,5c0.1-0.6,0.1-1.1,0.5-1.7c0.6-1,1.2-1.8,2.3-2.2
					C3.8,1,4.1,0.6,4.5,0.4c0.5-0.2,1-0.2,1.5-0.3c0.9-0.2,2,0,2.8,0.3c1,0.3,1.8,0.7,2.5,1.5c0.2,0.2,0.4,0.3,0.5,0.6
					c0.3,0.4,0.7,0.9,0.9,1.4c0.8,1.9,1,4.2,0,6.1c-0.3,0.5-0.7,0.8-1.1,1.3c-0.4,0.5-0.6,0.9-1.1,1.2C9.5,13.1,8.1,13.6,6.8,13.5z"
					/>
				<path class="st45" d="M13.2,6.7c0,0.1,0,0.2,0,0.3c-0.1,0.8-0.1,1.6-0.4,2.4c-0.2,0.4-0.5,0.6-0.8,1c-0.3,0.4-0.4,0.9-0.9,1.2
					c-0.4,0.3-0.9,0.7-1.4,1c-1,0.5-2.4,0.9-3.5,0.6c-0.4-0.1-0.7-0.3-1.1-0.3c-0.6-0.1-1.1-0.1-1.6-0.4c-0.9-0.6-1.7-1.2-2.1-2.2
					C1.2,9.6,0.9,9.3,0.7,8.9c-0.2-0.4-0.2-1-0.3-1.5c-0.2-0.8,0-1.9,0.3-2.7C0.9,3.7,1.3,3,2,2.3C2.2,2.1,2.3,2,2.5,1.8
					C3,1.5,3.4,1.2,3.9,1C5.7,0.2,8,0,9.7,1C10.2,1.2,10.6,1.7,11,2c0.4,0.4,0.8,0.6,1.2,1.1C12.8,4.1,13.2,5.5,13.2,6.7z"/>
				<path class="st46" d="M9.9,1.5c0.1,0,0.1,0.1,0.2,0.1c0.6,0.5,1.3,0.9,1.7,1.5c0.2,0.4,0.2,0.7,0.4,1.1c0.2,0.5,0.5,0.8,0.5,1.3
					c0,0.5,0.1,1.1,0.1,1.6c-0.1,1.1-0.4,2.4-1.2,3.2c-0.3,0.3-0.6,0.4-0.8,0.7c-0.4,0.4-0.6,0.8-1.2,1.1c-0.9,0.5-1.9,0.8-2.9,0.6
					c-0.5-0.1-0.9,0-1.4,0c-0.5,0-0.9-0.3-1.4-0.5c-0.8-0.3-1.6-1-2.1-1.6c-0.6-0.7-1-1.4-1.2-2.3C0.7,8.2,0.6,8,0.6,7.7
					c0-0.5-0.1-1.1,0-1.5c0.3-1.9,1.2-3.8,2.9-4.8C4,1.1,4.5,1.1,5,0.9c0.5-0.2,0.9-0.4,1.5-0.4C7.6,0.5,8.9,0.8,9.9,1.5z"/>
				<path class="st47" d="M5.3,4c0,0.6-0.5,1-1,1c-0.6,0-1-0.5-1-1c0-0.6,0.5-1,1-1C4.8,2.9,5.3,3.4,5.3,4z"/>
				<path class="st47" d="M11.5,8.8c0,0.4-0.3,0.8-0.8,0.8c-0.4,0-0.8-0.3-0.8-0.8C10,8.4,10.3,8,10.8,8C11.2,8,11.5,8.4,11.5,8.8z"
					/>
				<path class="st47" d="M6.2,10.1c0,0.6-0.5,1.1-1.1,1.1c-0.6,0-1.1-0.5-1.1-1.1C3.9,9.5,4.4,9,5.1,9C5.7,9,6.2,9.5,6.2,10.1z"/>
				<path class="st48" d="M11.1,4.6c0,0.6-0.5,1.1-1.1,1.1c-0.6,0-1.1-0.5-1.1-1.1C8.8,4,9.3,3.5,10,3.5C10.6,3.5,11.1,4,11.1,4.6z"
					/>
				<path class="st48" d="M2.4,7.7c0,0.2-0.2,0.4-0.4,0.4c-0.2,0-0.4-0.2-0.4-0.4c0-0.2,0.2-0.4,0.4-0.4C2.2,7.3,2.4,7.5,2.4,7.7z"
					/>
				<path class="st48" d="M5.9,7.4C5.9,7.8,5.6,8,5.3,8C5,8,4.7,7.8,4.7,7.4c0-0.3,0.3-0.6,0.6-0.6C5.6,6.8,5.9,7.1,5.9,7.4z"/>
				<path class="st48" d="M9.2,11.3c0,0.3-0.3,0.6-0.6,0.6c-0.3,0-0.6-0.3-0.6-0.6c0-0.3,0.3-0.6,0.6-0.6
					C8.9,10.6,9.2,10.9,9.2,11.3z"/>
				<path class="st48" d="M9.8,2.6c0,0.1-0.1,0.3-0.3,0.3c-0.1,0-0.3-0.1-0.3-0.3c0-0.1,0.1-0.3,0.3-0.3C9.6,2.4,9.8,2.5,9.8,2.6z"
					/>
				<path class="st48" d="M6.2,5.3c0,0.1-0.1,0.3-0.3,0.3c-0.1,0-0.3-0.1-0.3-0.3C5.7,5.1,5.8,5,6,5C6.1,5,6.2,5.1,6.2,5.3z"/>
				<path class="st48" d="M9.1,9.1c0,0.1-0.1,0.3-0.3,0.3c-0.1,0-0.3-0.1-0.3-0.3c0-0.1,0.1-0.3,0.3-0.3C9,8.8,9.1,9,9.1,9.1z"/>
				<path class="st48" d="M7.1,11.8c0,0.1-0.1,0.3-0.3,0.3c-0.1,0-0.3-0.1-0.3-0.3c0-0.1,0.1-0.3,0.3-0.3
					C6.9,11.5,7.1,11.6,7.1,11.8z"/>
				<path class="st48" d="M4,2.2c0,0.1-0.1,0.3-0.3,0.3c-0.1,0-0.3-0.1-0.3-0.3c0-0.1,0.1-0.3,0.3-0.3C3.8,1.9,4,2,4,2.2z"/>
				<path class="st48" d="M12.3,5.8c0,0.2-0.2,0.4-0.4,0.4c-0.2,0-0.4-0.2-0.4-0.4c0-0.2,0.2-0.4,0.4-0.4
					C12.1,5.5,12.3,5.6,12.3,5.8z"/>
				<path class="st47" d="M10.3,6.8c0,0.1-0.1,0.2-0.2,0.2C9.9,7,9.8,6.9,9.8,6.8c0-0.1,0.1-0.2,0.2-0.2C10.2,6.6,10.3,6.7,10.3,6.8
					z"/>
				<path class="st47" d="M7.3,3.5c0,0.1-0.1,0.2-0.2,0.2C7,3.7,6.9,3.6,6.9,3.5c0-0.1,0.1-0.2,0.2-0.2C7.2,3.3,7.3,3.4,7.3,3.5z"/>
				<path class="st47" d="M2.1,3.8C2.1,3.9,2,4,1.9,4C1.8,4,1.7,3.9,1.7,3.8c0-0.1,0.1-0.2,0.2-0.2C2,3.6,2.1,3.7,2.1,3.8z"/>
				<path class="st47" d="M4,5.8C4,5.9,3.9,6,3.7,6C3.6,6,3.5,5.9,3.5,5.8c0-0.1,0.1-0.2,0.2-0.2C3.9,5.6,4,5.7,4,5.8z"/>
				<path class="st47" d="M4.9,11.9c0,0.1-0.1,0.2-0.2,0.2c-0.1,0-0.2-0.1-0.2-0.2c0-0.1,0.1-0.2,0.2-0.2
					C4.8,11.7,4.9,11.8,4.9,11.9z"/>
				<path class="st48" d="M7.1,1.5C7.1,1.8,6.9,2,6.7,2C6.5,2,6.3,1.8,6.3,1.5c0-0.2,0.2-0.4,0.4-0.4C6.9,1.1,7.1,1.3,7.1,1.5z"/>
				<path class="st47" d="M8.2,7c0,0.2-0.2,0.4-0.4,0.4C7.5,7.4,7.3,7.2,7.3,7c0-0.2,0.2-0.4,0.4-0.4C8,6.6,8.2,6.7,8.2,7z"/>
				<path class="st47" d="M12.2,7.7c0,0.2-0.2,0.4-0.4,0.4c-0.2,0-0.4-0.2-0.4-0.4c0-0.2,0.2-0.4,0.4-0.4C12,7.3,12.2,7.5,12.2,7.7z
					"/>
				<path class="st47" d="M2.2,5.2c0,0.2-0.2,0.4-0.4,0.4c-0.2,0-0.4-0.2-0.4-0.4c0-0.2,0.2-0.4,0.4-0.4C2,4.8,2.2,5,2.2,5.2z"/>
				<path class="st47" d="M2.8,10.4c0,0.1-0.1,0.3-0.3,0.3c-0.1,0-0.3-0.1-0.3-0.3c0-0.1,0.1-0.3,0.3-0.3
					C2.7,10.2,2.8,10.3,2.8,10.4z"/>
			</g>
		</g>
		<g>
			<path class="st14" d="M3.8,1.4c0.1,0,0.2-0.1,0.3-0.1c0.2,0,0.5,0,0.7-0.2c0.4-0.2,0.9-0.7,1.4-0.7c0.2,0,0.4,0.2,0.6,0.2
				c0.2,0,0.4-0.2,0.6-0.2c0.4,0,0.7,0.1,1.1,0.3C8.8,0.8,9.1,0.9,9.3,1c0.2,0.1,0.5,0.6,0,0.6C9,1.6,8.9,1.3,8.7,1.2
				C8.5,1,8.3,1.1,8.1,1.1C7.8,1.1,7.7,1,7.4,0.9C7.2,0.8,7,1,6.8,1C6.6,1.1,6.4,1.1,6.1,1.1C5.6,1.1,5.3,1.3,4.8,1.6
				C4.5,1.7,4.2,1.5,4,1.6C3.8,1.7,3.6,2.1,3.4,2.2C3.3,2.3,3.2,2.3,3.1,2.4C3,2.4,3,2.7,2.9,2.8C2.8,3,2.6,3.1,2.4,3.4
				C2.2,3.7,1.8,4.4,1.3,4.4c-0.6,0-0.2-0.5,0-0.8c0.1-0.1,0.3-0.2,0.5-0.4c0.5-0.5,0.8-1.2,1.4-1.6C3.4,1.5,3.6,1.4,3.8,1.4z"/>
			<path class="st14" d="M0.6,5.5c0-0.3,0.3-0.7,0.7-0.4C1.6,5.5,0.6,6,0.6,5.5z"/>
		</g>
	</g>
</g>
</svg>
