<?xml version="1.0" encoding="utf-8"?>
<!-- Generator: Adobe Illustrator 23.0.6, SVG Export Plug-In . SVG Version: 6.00 Build 0)  -->
<svg version="1.1" xmlns="http://www.w3.org/2000/svg" xmlns:xlink="http://www.w3.org/1999/xlink" x="0px" y="0px"
	 viewBox="0 0 8.7 10.8" style="enable-background:new 0 0 8.7 10.8;" xml:space="preserve">
<style type="text/css">
	.st0{fill:#FFFFFF;}
	.st1{fill:#BB4C23;}
	.st2{fill:#FFD888;}
	.st3{fill:#EC953C;}
	.st4{fill:#FEBF46;}
	.st5{fill:#D11820;}
	.st6{fill:#E53E2F;}
	.st7{fill:#EB6D51;}
	.st8{fill:#E8573F;}
	.st9{fill:#ED8063;}
	.st10{fill:#F09377;}
	.st11{fill:#F6BBA5;}
	.st12{fill:#DCB054;}
	.st13{fill:#A69357;}
	.st14{fill:#F7E5DC;}
	.st15{fill:#FAE34D;}
	.st16{fill:#FCEB93;}
	.st17{fill:#FDF2BD;}
	.st18{fill:#FEFAE6;}
	.st19{fill:#F8DE00;}
	.st20{opacity:0.33;}
	.st21{opacity:0.4;}
	.st22{fill:#F9ECD3;}
	.st23{fill:#FFDC9A;}
	.st24{fill:#FFEDCE;}
	.st25{fill:#FFE6B9;}
	.st26{fill:#EBBC92;}
	.st27{fill:#318F78;}
	.st28{fill:#48BD9F;}
	.st29{fill:#ECBB56;}
	.st30{opacity:0.57;}
	.st31{opacity:0.28;}
	.st32{fill:#EAB542;}
	.st33{fill:#E2D8CF;}
	.st34{fill:#C4AF9D;}
	.st35{fill:#90796A;}
	.st36{fill:#F1ECE8;}
	.st37{fill:#B8CC9E;}
	.st38{opacity:0.61;fill:#FFFFFF;}
	.st39{fill:#E4EADA;}
	.st40{fill:#F69182;}
	.st41{fill:#BD575D;}
	.st42{fill:#F9B6A8;}
	.st43{fill:#FBCDC2;}
	.st44{fill:#9E1C0F;}
	.st45{fill:#C14D31;}
	.st46{fill:#C75D40;}
	.st47{fill:#D88B6F;}
	.st48{fill:#E5AD96;}
	.st49{fill:#006437;}
	.st50{fill:#2F774F;}
	.st51{fill:#69A244;}
	.st52{fill:#86B061;}
	.st53{fill:#BFD1A8;}
	.st54{fill:#A00053;}
	.st55{fill:#BF4675;}
	.st56{fill:#EBC8D1;}
	.st57{fill:#CD7190;}
	.st58{fill:#FBF3F5;}
	.st59{fill:#E3B1BF;}
	.st60{fill:#440213;}
	.st61{fill:#6C3F3F;}
	.st62{fill:#8C6764;}
	.st63{fill:#9F7E7B;}
	.st64{fill:#B29895;}
	.st65{fill:#4A825F;}
	.st66{fill:#8FAB94;}
	.st67{fill:#A7BCAA;}
	.st68{fill:#95726F;}
	.st69{fill:#D3C4C1;}
	.st70{fill:#CF4841;}
	.st71{fill:#E39D8C;}
	.st72{fill:#A03631;}
	.st73{fill:#6F2F15;}
	.st74{fill:#864D31;}
	.st75{fill:#9E6E55;}
	.st76{fill:#C8AA99;}
	.st77{fill:#D9AA88;}
	.st78{fill:#E4C3A9;}
	.st79{fill:#EFDCCE;}
	.st80{fill:#895221;}
	.st81{fill:#ECD9C0;}
	.st82{fill:#E4C7A0;}
	.st83{opacity:0.67;fill:#FFFFFF;}
</style>
<g id="Layer_1">
</g>
<g id="Layer_2">
	<g>
		<path class="st15" d="M4.8,2.5l2.8,7.1c0,0.1-0.4,0.4-0.5,0.4c-0.3,0.1-0.5,0.3-0.8,0.4c-0.6,0.2-1.2,0.3-1.7,0.4
			c-0.3,0-0.8,0-1.1-0.1c-0.2-0.1-0.2-0.2-0.2-0.3C3.2,10.2,3,10,3,9.8C2.8,9.2,2.6,8.7,2.5,8.1C2.5,7.7,2.4,7.2,2.3,6.7
			C2.2,6.3,2,5.9,1.9,5.5c-0.1-0.3-0.4-0.6-0.5-1C1.2,4.3,1.1,4.1,1,3.9C0.8,3.7,0.7,3.4,0.6,3.2C0.4,3,0.2,2.8,0.1,2.6
			C0,2.2-0.1,1.8,0.1,1.3C0.4,1.2,0.6,1.1,0.9,1C1,0.9,2.5,0.3,2.5,0.3C2.5,0.3,4.8,2.5,4.8,2.5z"/>
		<path class="st16" d="M8.7,7.8c0-0.1,0-0.3,0-0.4c0-0.6-0.1-1.2-0.1-1.8c0-0.5,0-0.9-0.1-1.4c0-0.2-0.1-0.4-0.1-0.5
			C8.3,3.5,8.2,3.3,8.2,3c0-0.3,0-0.5-0.1-0.7C7.9,0.5,6-0.6,2.5,0.3C2.3,0.3,2.7,1.1,2.7,1.2c0.1,0.1,0.2,0.2,0.2,0.4
			C3,1.7,3,1.9,3.1,2c0.2,0.2,0.3,0.4,0.5,0.6c0.2,0.1,0.5,0.1,0.7,0.3C4.3,3,4.6,3.1,4.5,3.2C4.4,3.2,4.1,3.3,4,3.3
			c0,0.1,0.2,0.2,0.2,0.3c0,0.1,0.1,0.2,0.1,0.3c0.1,0.2,0.2,0.4,0.2,0.7c0,0.1,0,0.3,0,0.4c0,0.2,0.1,0.3,0.1,0.5
			c0,0.2-0.1,0.3,0,0.5c0,0.2,0.1,0.4,0.1,0.6c0,0.2-0.2,0.4-0.2,0.6c0,0.2,0,0.4,0,0.6c0,0.4,0,0.8,0.1,1.2
			c0.1,0.5,0.3,1.3,1.1,1.4c0.3,0,0.7,0,1-0.1c0.2-0.1,0.4-0.2,0.6-0.3c0.1,0,0-0.1,0.1-0.1c0.1,0,0.2-0.1,0.2-0.1
			C7.9,9.5,8,9.4,8.1,9.3C8.1,9.2,8.2,9.1,8.3,9c0.1-0.1,0.2-0.1,0.3-0.2c0.2-0.2,0.1-0.4,0.1-0.6C8.7,8.1,8.7,8,8.7,7.8z"/>
		<path class="st17" d="M7.5,1.4c0.2,0.4,0.2,0.9,0.2,1.4c0,0.3,0.1,0.6,0,0.9C7.7,4,7.9,4.3,8,4.5c0.2,0.8,0,1.8,0.2,2.6
			C8.3,7.6,8.8,8.4,7.8,9C7.1,9.5,6.2,9.3,6,9C5.7,8.6,6,8,6.1,7.6c0.3-1.1-0.4-2-0.2-3c0.1-0.5,0-1-0.1-1.4c0-0.1,0-0.2-0.1-0.3
			C5.6,2.8,5.5,2.7,5.4,2.6C5.3,2.5,5.3,2.3,5.2,2.1C5,2,4.7,1.8,4.7,1.7c0-0.1,0.1-0.2,0.1-0.3c0-0.1-0.1-0.1-0.2-0.2
			C4.4,1,3.9,0.7,4.4,0.4C4.6,0.3,4.8,0.4,5,0.3c0.2,0,0.4-0.1,0.5-0.1c0.3,0,0.5,0.2,0.7,0.3C6.7,0.9,7.3,1,7.5,1.4z"/>
		<path class="st18" d="M7.3,1.2C7.4,1.7,7.8,2,7.8,2.6c0.1,0.6,0,1.2,0.1,1.7C8,4.6,8.1,4.8,8.1,5.1c0.1,0.2,0.4,1.5,0,1.6
			C7.9,6.5,7.9,6.2,7.9,6C7.8,5.6,7.8,5.2,7.5,4.9C7.2,4.6,6.9,4.3,6.7,4C6.5,3.6,6.5,3.1,6.3,2.7C6.1,2.4,5.8,2.2,5.5,1.9
			C5.4,1.8,5.2,1.7,5.3,1.5c0-0.1,0.1-0.2,0.1-0.3c0-0.2-0.1-0.5,0.3-0.7C6.5,0.1,7.1,1,7.3,1.2z"/>
		<path class="st19" d="M3.9,5.3C3.9,5.3,3.8,5.3,3.9,5.3C3.7,5.5,3.7,5.6,3.6,5.8C3.5,6,3.4,6.1,3.5,6.3c0.1,0.1,0.3,0.1,0.3,0.3
			c0,0.2-0.4,0.4-0.4,0.5c0,0.1,0.3,0.1,0.4,0.2c0,0.1-0.4,0.6-0.6,0.7c0-0.2-0.1-0.3-0.2-0.4C2.9,7.4,2.8,7.2,2.8,6.9
			c0-0.1-0.1-0.3-0.1-0.4c0.1-0.2,0.4-0.3,0.1-0.5C2.5,5.9,2.5,5.9,2.8,5.7C2.9,5.5,3,5.5,2.9,5.4c-0.1,0-0.3,0-0.4-0.1
			C2.1,5.2,2.4,5.2,2.7,4.9c0.4-0.3-0.1-0.3-0.4-0.3C2,4.6,1.6,4.5,2,4.3c0.3-0.2,0.6-0.3,0.3-0.4c-0.2-0.1-0.9,0-0.8-0.2
			c0-0.1,0.5-0.3,0.5-0.4c0-0.2-0.5-0.2-0.7-0.3c-0.2,0-0.2,0,0-0.1c0.1-0.1,0.3-0.2,0.4-0.3c0.2-0.2-0.2-0.2-0.4-0.2
			c-0.3,0-0.3-0.1-0.1-0.3C1.4,1.8,1.3,1.8,1,1.8c-0.3,0-0.3-0.1-0.1-0.3C1,1.3,1.1,1.3,1.4,1.2c0.3-0.1,0.7-0.3,1-0.3
			C2.3,1,2.3,1.1,2.2,1.3c0,0.1-0.2,0.3,0,0.4c0.1,0.1,0.4,0,0.5,0.1c0,0.1-0.2,0.4-0.3,0.5C2.5,2.4,2.8,2.2,3,2.2
			c0.2,0.1-0.1,0.4-0.2,0.5c0.2,0,0.3-0.1,0.5-0.1C3.2,2.8,3.1,3,3,3.1C2.9,3.4,3.1,3.2,3.3,3.3c0.2,0.1,0.2,0,0.1,0.3
			C3.3,3.9,3.3,3.7,3.5,3.8C3.7,3.9,3.7,3.7,3.7,4c0,0.1-0.2,0.3-0.1,0.3c0.1,0.1,0.5-0.1,0.5,0C4.2,4.5,4,4.7,3.9,4.8
			C4.5,4.5,4.1,5,3.9,5.3z"/>
	</g>
</g>
</svg>
