<?xml version="1.0" encoding="utf-8"?>
<!-- Generator: Adobe Illustrator 15.1.0, SVG Export Plug-In . SVG Version: 6.00 Build 0)  -->
<!DOCTYPE svg PUBLIC "-//W3C//DTD SVG 1.1//EN" "http://www.w3.org/Graphics/SVG/1.1/DTD/svg11.dtd">
<svg version="1.1" id="Capa_1" xmlns="http://www.w3.org/2000/svg" xmlns:xlink="http://www.w3.org/1999/xlink" x="0px" y="0px"
	  viewBox="0 0 8.687 16.229" enable-background="new 0 0 8.687 16.229" xml:space="preserve">
<g>
	<defs>
		<rect id="SVGID_1_" y="0" width="8.687" height="16.229"/>
	</defs>
	<clipPath id="SVGID_2_">
		<use xlink:href="#SVGID_1_"  overflow="visible"/>
	</clipPath>
	<path clip-path="url(#SVGID_2_)" fill="#FED5B0" d="M7.966,14.438c1.089-1.712,0.722-4.373,0.333-6.141
		C8.046,7.152,7.694,6.014,7.387,4.883C7.076,3.742,6.32,2.851,6.024,1.731c-0.401-1.523-0.18-2.127-2.112-1.466
		C2.795,0.647,1.839,1.532,1.269,2.58C0.716,3.589,0.611,4.65,0.665,5.731c0.018,0.355,0.139,0.646,0.033,1.011
		C0.544,7.278,0.006,7.546,0,8.185c-0.009,1.284,0.969,2.412,0.951,3.794c-0.014,1.089-0.181,1.479,0.32,2.405
		c0.671,1.241,1.653,2.088,3.183,1.78c0.949-0.189,2.281-0.398,3.026-1.129C7.668,14.854,7.828,14.653,7.966,14.438"/>
	<path clip-path="url(#SVGID_2_)" fill="#FEE4D2" d="M8.15,12.078c0.16-0.987,0.165-1.991-0.258-2.902
		C7.699,8.761,7.741,8.398,7.664,7.947C7.59,7.517,7.42,7.106,7.281,6.696c-0.134-0.402-0.275-0.77-0.483-1.134
		C6.604,5.224,6.312,4.951,6.177,4.578c-0.13-0.353-0.123-0.745-0.242-1.105C5.819,3.126,5.664,2.778,5.51,2.451
		C5.36,2.137,5.074,1.253,4.746,1.29c-0.24,0.029-0.464,0.334-0.667,0.453C3.862,1.869,3.632,1.99,3.411,2.111
		c-0.266,0.147-0.44,0.125-0.576,0.392C2.746,2.681,2.715,3.089,2.696,3.288C2.671,3.538,2.702,3.723,2.65,3.936
		c-0.057,0.245-0.219,0.329-0.328,0.49C1.759,5.248,2.901,5.205,3.021,5.869C3.077,6.181,2.904,6.165,2.746,6.41
		C2.538,6.728,2.634,6.876,2.769,7.218c0.114,0.292,0.116,0.566,0.19,0.864c0.082,0.334,0.273,0.378,0.434,0.63
		C3.61,9.051,3.436,9.346,3.224,9.654c-0.236,0.341-0.34,0.474-0.282,0.909c0.042,0.325,0.218,0.675,0.209,0.996
		c-0.011,0.397-0.283,0.728-0.277,1.146c0.007,0.49-0.322,1.165-0.087,1.595c0.148,0.265,0.496,0.341,0.639,0.583
		c0.183,0.312,0.015,0.579,0.426,0.718c0.207,0.07,0.532-0.011,0.743-0.044c0.299-0.049,0.618-0.116,0.88-0.167
		c1.162-0.228,2.16-1.042,2.455-2.248C8.016,12.793,8.094,12.437,8.15,12.078"/>
</g>
</svg>
