<?xml version="1.0" encoding="utf-8"?>
<!-- Generator: Adobe Illustrator 23.0.6, SVG Export Plug-In . SVG Version: 6.00 Build 0)  -->
<svg version="1.1" xmlns="http://www.w3.org/2000/svg" xmlns:xlink="http://www.w3.org/1999/xlink" x="0px" y="0px"
	 viewBox="0 0 109.7 109.2" style="enable-background:new 0 0 109.7 109.2;" xml:space="preserve">
<style type="text/css">
	.st0{fill:#FFFFFF;}
	.st1{fill:#BB4C23;}
	.st2{fill:#FFD888;}
	.st3{fill:#EC953C;}
	.st4{fill:#FEBF46;}
	.st5{fill:#D11820;}
	.st6{fill:#E53E2F;}
	.st7{fill:#EB6D51;}
	.st8{fill:#E8573F;}
	.st9{fill:#ED8063;}
	.st10{fill:#F09377;}
	.st11{fill:#F6BBA5;}
	.st12{fill:#DCB054;}
	.st13{fill:#A69357;}
	.st14{fill:#F7E5DC;}
	.st15{fill:#FAE34D;}
	.st16{fill:#FCEB93;}
	.st17{fill:#FDF2BD;}
	.st18{fill:#FEFAE6;}
	.st19{fill:#F8DE00;}
	.st20{opacity:0.33;}
	.st21{opacity:0.4;}
	.st22{fill:#F9ECD3;}
	.st23{fill:#FFDC9A;}
	.st24{fill:#FFEDCE;}
	.st25{fill:#FFE6B9;}
	.st26{fill:#EBBC92;}
	.st27{fill:#318F78;}
	.st28{fill:#48BD9F;}
	.st29{fill:#ECBB56;}
	.st30{opacity:0.57;}
	.st31{opacity:0.28;}
	.st32{fill:#EAB542;}
	.st33{fill:#E2D8CF;}
	.st34{fill:#C4AF9D;}
	.st35{fill:#90796A;}
	.st36{fill:#F1ECE8;}
	.st37{fill:#B8CC9E;}
	.st38{opacity:0.61;fill:#FFFFFF;}
	.st39{fill:#E4EADA;}
	.st40{fill:#F69182;}
	.st41{fill:#BD575D;}
	.st42{fill:#F9B6A8;}
	.st43{fill:#FBCDC2;}
	.st44{fill:#9E1C0F;}
	.st45{fill:#C14D31;}
	.st46{fill:#C75D40;}
	.st47{fill:#D88B6F;}
	.st48{fill:#E5AD96;}
	.st49{fill:#006437;}
	.st50{fill:#2F774F;}
	.st51{fill:#69A244;}
	.st52{fill:#86B061;}
	.st53{fill:#BFD1A8;}
	.st54{fill:#A00053;}
	.st55{fill:#BF4675;}
	.st56{fill:#EBC8D1;}
	.st57{fill:#CD7190;}
	.st58{fill:#FBF3F5;}
	.st59{fill:#E3B1BF;}
	.st60{fill:#440213;}
	.st61{fill:#6C3F3F;}
	.st62{fill:#8C6764;}
	.st63{fill:#9F7E7B;}
	.st64{fill:#B29895;}
	.st65{fill:#4A825F;}
	.st66{fill:#8FAB94;}
	.st67{fill:#A7BCAA;}
	.st68{fill:#95726F;}
	.st69{fill:#D3C4C1;}
	.st70{fill:#CF4841;}
	.st71{fill:#E39D8C;}
	.st72{fill:#A03631;}
	.st73{fill:#6F2F15;}
	.st74{fill:#864D31;}
	.st75{fill:#9E6E55;}
	.st76{fill:#C8AA99;}
	.st77{fill:#D9AA88;}
	.st78{fill:#E4C3A9;}
	.st79{fill:#EFDCCE;}
	.st80{fill:#895221;}
	.st81{fill:#ECD9C0;}
	.st82{fill:#E4C7A0;}
	.st83{opacity:0.67;fill:#FFFFFF;}
</style>
<g id="Layer_1">
</g>
<g id="Layer_2">
	<g>
		<path class="st2" d="M109.6,54.8c-0.1,1.2-0.4,2.2-0.8,3.2c-0.6,1.4-1.5,2.7-1.9,4.2c-0.4,1.2-0.4,2.5-0.6,3.8
			c-0.5,3.6-1.7,7-3.7,10c-0.9,1.5-2.1,2.9-2.3,4.6c-0.2,1.2,0.1,2.3,0,3.5c-0.1,1.9-1.9,3.6-3,5c-1.2,1.5-2.4,2.4-4.1,3.3
			c-1,0.5-1.8,1.2-2.7,2c-2.5,2.1-4.9,4.2-7.4,6.4c-1.3,1.1-2.6,2.3-4.3,2.6c-1.2,0.2-2.5,0-3.7,0.4c-0.7,0.3-1.3,0.9-2,1.3
			c-1.5,1.2-3.3,2-5.1,2.6c-1.8,0.6-3.1-0.1-4.8,0.7c-2.3,1.1-5.1,1-7.2-0.4c-0.3-0.2-0.6-0.4-0.9-0.6c-0.5-0.2-1.1-0.3-1.6-0.3
			c-2.7-0.3-5.3-0.9-8-1.3c-3.1-0.5-6,0-9.1-1c-0.8-0.3-1.7-0.6-2.3-1.2c-0.5-0.4-0.8-0.9-1.2-1.4c-0.8-0.8-2.4-1-3.5-1.4
			c-1.2-0.6-2.5-1.2-3.9-1.4c-2-0.3-3.3-0.8-4.9-2.1c-2.5-2-4.9-4.2-7-6.7c-1.8-2.1-4.1-3.6-5.6-5.9c-0.7-1-1.3-2.1-1.5-3.3
			c-0.3-1.5-0.2-3-0.3-4.5c-0.1-1.5-0.4-3.1-1.5-4.2c-2.2-2.2-2.7-4-3.3-7.2c-0.6-2.8-1.1-5.6-1.3-8.4c-0.1-1.4-0.1-2.9,0-4.3
			c0.1-1,0.9-2.5,0.7-3.5c-0.5-3.3,0.2-6.8,2.1-9.6c0.6-1,1.2-1.8,1.1-3c-0.1-1.1-0.9-2-0.4-3.2c0.3-0.8,1.2-1.2,1.7-1.8
			c1.7-2.1,2.6-5,4.1-7.2c3.1-4.7,7-9,11.4-12.4c1.1-0.8,2.4-1,3.4-1.8c0.7-0.6,1.2-1.3,1.9-1.9c2-1.6,5.2-1,7.2-2.7
			c0.6-0.5,1.1-1.2,1.6-1.7C36.2,3,37.7,3,39.2,2.7c1.3-0.2,2.5-0.9,3.8-1.2c3-0.7,6.1-1.2,9.1-1.2c2.1,0,5.4-0.8,7.2,0.4
			c0.3,0.2,0.6,0.5,1,0.7c1.4,0.7,2.9-0.5,4.5-0.6c1.9-0.2,3.5,1.3,5.2,2.3c1.9,1.2,4.1,1.8,6.3,2c1.8,0.2,3.2,1,4.8,1.9
			c3.3,1.8,6.5,4,9.4,6.5c2,1.7,4.1,3.6,5.7,5.7c1.2,1.7,1.1,4.2,2.5,5.7c0.9,1.1,2.6,1.2,3.6,2.3c1,1.2,0.8,3.1,1.6,4.4
			c0.6,0.9,1.6,1.4,2.3,2.2c1.1,1.2,1.4,2.7,1.4,4.3c0.1,1.8,0.1,3,0.5,4.8C108.9,46.2,110,50.9,109.6,54.8z"/>
		<g>
			<g>
				<path class="st3" d="M48.9,90.6c-2.5,0-4.3-1.2-5.2-3.4c-0.2-0.5-0.3-0.9-0.4-1.2c-0.3-1.1-0.6-1.4-2.2-2.3
					c-1.9-1-4.8-2.4-7.6-2.9c-0.1,0-0.2,0-0.6,0c-0.4,0-1.1,0-1.4,0.1c-0.3,0.1-0.5,0.3-0.5,0.6c0.1,1.1,1.1,1.2,1.8,1.3
					c0.7,0.1,0.9,0.2,1,0.5c0,0,0,0,0,0c-0.1,0-0.2,0-0.3,0.1c-0.1,0-0.2,0-0.3,0c-0.9,0.2-1.2,0.8-1.4,1.3
					c-0.1,0.2-0.2,0.3-0.3,0.5c-0.7,1.1-1.7,2.5-2.7,3c-0.5,0.2-0.8,0.4-0.9,0.5c0,0,0,0,0,0c-0.1,0-0.3-0.1-0.5-0.1l-0.4-0.1
					c-0.9-0.2-2.1-0.6-2.9-1.1c-0.1-0.1-0.3-0.3-0.4-0.5c-0.1-0.1-0.1-0.2-0.2-0.2c-0.6-0.8-1.2-1.3-2.1-1.3c-0.2,0-0.5,0-0.8,0.1
					c-0.3,0.1-0.6,0.1-0.9,0.1c-0.7,0-1.2-0.1-1.4-0.4c0,0-0.1-0.2,0-0.5c0.2-0.6,1-1.1,1.7-1.6c0.5-0.3,1-0.7,1.3-1.1
					c1.3-1.5,0.6-2.6,0.1-3.6c-0.4-0.7-0.8-1.4-0.6-2.3c0.1-0.6,0.9-1.6,1.4-1.6c0,0,0.1,0,0.2,0.1c0.2,0.1,0.2,0.2,0.2,0.7
					c0,0.5-0.1,1.5,1.1,1.8c0.3,0.1,0.6,0.1,0.9,0.1c0.6,0,1.2-0.3,1.6-0.8c0.4-0.5,0.5-1.2,0.2-1.8c-0.1-0.4-0.3-0.7-0.5-1
					c-0.4-0.6-0.5-0.8-0.2-1.3c0.1-0.2,0.5-0.5,1.6-0.9c0.2-0.1,0.4-0.1,0.6-0.2c0.7-0.2,1.1-0.4,1.3-1.4c0.3-1.8-0.9-2.1-1.6-2.2
					c-0.7-0.2-0.7-0.2-0.7-0.6c0.1-1.1,2-2.2,3-2.2l0.1,0c1,0,1.8,0.4,2.7,0.8c0.6,0.3,1.2,0.6,1.9,0.7c0.7,0.2,1.7,0.4,2.2,0.9
					c0.2,0.2,0.2,0.3,0.2,0.4c0,0.1-0.1,0.4-0.2,0.5c-0.1,0.1-0.2,0.2-0.3,0.4c0,0.3,0.2,0.6,0.5,0.7c1.7,0.3,3.3,1.3,3.4,2.1
					c0.1,0.6-0.6,1.1-1.1,1.4c-0.7,0.4-1.6,0.6-2.5,0.9c-0.9,0.2-1.7,0.5-2.6,0.9c-1.5,0.8-2.2,1.5-2.1,2.4c0.1,0.9,1.1,1.5,2.9,1.9
					c0.5,0.1,2.1,0.4,3.3,0.4c0.4,0,1.7,0,2.1-0.9c0.2-0.5,0.1-1,0-1.4c-0.1-0.3-0.1-0.5-0.1-0.7c0.2-0.5,0.8-1.1,1.2-1.2
					c0.1,0,0.2-0.1,0.3-0.1c0.2,0,0.3,0.1,0.5,0.3c0.3,0.2,0.7,0.6,1.3,0.6c0,0,0.1,0,0.1,0c0.9,0,1.3-0.6,1.6-1.1
					c0.2-0.3,0.4-0.5,0.6-0.6c0.1,0,0.1,0,0.2,0c0.5,0,1.2,0.5,1.2,1.1c0,0.2-0.1,0.3-0.3,0.6c-0.3,0.3-0.6,0.8-0.5,1.5
					c0.1,1.3,0.9,1.4,1.4,1.5c0.3,0.1,0.4,0.1,0.5,0.2c0.2,0.3,0.2,0.5,0.3,0.9c0.1,0.5,0.1,1,0.6,1.6c0.2,0.2,0.5,0.4,0.8,0.5
					c0.2,0.1,0.4,0.2,0.5,0.3c0.2,0.2,0.4,0.5,0.5,0.7c0.3,0.4,0.6,0.9,1.4,1.3c2.2,1,2.7,1.3,2,3.1c-0.5,1.1-0.9,1.5-2.1,2
					C51.4,90.3,50.1,90.6,48.9,90.6z"/>
				<path class="st4" d="M29.8,65.7c0.9,0,1.6,0.3,2.5,0.7c0.6,0.3,1.3,0.6,2,0.8c0.6,0.1,1.5,0.4,1.9,0.8c0,0,0,0,0.1,0.1
					c0,0,0,0.1,0,0.1c-0.2,0.2-0.3,0.4-0.4,0.7c-0.1,0.6,0.3,1.2,0.9,1.3c1.6,0.3,2.9,1.2,3,1.7c0,0.1-0.2,0.4-0.9,0.8
					c-0.7,0.4-1.5,0.6-2.4,0.9c-0.9,0.2-1.8,0.5-2.7,0.9c-0.6,0.3-2.6,1.3-2.4,3c0.2,1.7,2.6,2.2,3.3,2.4l0,0
					c0.5,0.1,2.1,0.4,3.4,0.4c0.5,0,2.1,0,2.7-1.2c0.3-0.7,0.2-1.3,0.1-1.7c0-0.1-0.1-0.3-0.1-0.4c0.1-0.4,0.6-0.8,0.9-0.9
					c0.1,0,0.1,0,0.2,0c0,0,0.1,0.1,0.2,0.1c0.3,0.3,0.8,0.7,1.7,0.7c0,0,0,0,0,0l0.1,0c0,0,0,0,0,0c1.2,0,1.8-0.9,2.1-1.3
					c0.1-0.1,0.2-0.4,0.3-0.4c0,0,0,0,0,0c0.2,0,0.6,0.3,0.6,0.5c0,0-0.1,0.1-0.1,0.2c-0.3,0.3-0.7,0.9-0.7,1.9
					c0.1,1.7,1.4,2,1.8,2.1c0.1,0,0.2,0,0.2,0.1c0.1,0.1,0.1,0.2,0.1,0.6c0.1,0.5,0.1,1.2,0.7,1.9c0.3,0.3,0.7,0.5,1,0.7
					c0.1,0.1,0.3,0.2,0.4,0.2c0.2,0.2,0.3,0.4,0.5,0.6c0.3,0.5,0.7,1,1.7,1.5c2.1,0.9,2.2,1,1.7,2.3c-0.4,1-0.7,1.2-1.8,1.7
					C51.3,89.8,50,90,48.9,90c-1.6,0-3.7-0.5-4.7-3c-0.2-0.5-0.3-0.8-0.4-1.2c-0.4-1.3-0.7-1.7-2.5-2.6c-2-1-4.9-2.4-7.8-2.9
					c-0.1,0-0.3,0-0.7,0c-0.5,0-1.1,0-1.5,0.1c-0.6,0.1-1,0.7-0.9,1.3c0.2,1.1,0.9,1.5,1.6,1.7c-0.5,0.4-0.7,0.8-0.8,1.2
					c-0.1,0.2-0.1,0.3-0.2,0.4c-0.7,1.1-1.5,2.4-2.5,2.8c-0.4,0.2-0.6,0.3-0.8,0.5c-0.1,0-0.2,0-0.2,0c-0.1,0-0.3-0.1-0.4-0.1
					c-1-0.2-2.1-0.6-2.7-1c-0.1-0.1-0.2-0.2-0.3-0.4c-0.1-0.1-0.1-0.2-0.2-0.2c-0.6-0.7-1.3-1.5-2.6-1.5c-0.3,0-0.6,0-0.9,0.1
					c-0.1,0-0.4,0.1-0.8,0.1c-0.4,0-0.7-0.1-0.8-0.1c0,0,0,0,0,0c0.1-0.4,0.9-0.9,1.4-1.3c0.5-0.4,1.1-0.7,1.5-1.1
					c1.6-1.8,0.7-3.3,0.2-4.3c-0.4-0.8-0.7-1.2-0.5-1.8c0.1-0.2,0.3-0.6,0.5-0.9c0,0.6,0,1.8,1.5,2.3c0.3,0.1,0.7,0.2,1,0.2
					c0.8,0,1.6-0.4,2-1c0.5-0.7,0.6-1.5,0.3-2.4c-0.1-0.5-0.4-0.8-0.6-1.1c-0.3-0.5-0.3-0.5-0.2-0.7c0-0.1,0.3-0.3,1.4-0.7
					c0.2-0.1,0.4-0.1,0.5-0.2c0.9-0.2,1.5-0.6,1.7-1.9c0.4-2.3-1.4-2.8-2-2.9c-0.1,0-0.1,0-0.2-0.1C27.5,66.6,28.8,65.7,29.8,65.7
					L29.8,65.7 M29.7,64.5L29.7,64.5c-1.3,0-3.5,1.3-3.7,2.7c-0.2,1.9,2.7,0.4,2.2,2.8c-0.2,1.1-0.5,0.8-1.5,1.2
					c-0.6,0.2-1.6,0.6-1.9,1.2c-0.7,1.1,0.3,1.8,0.6,2.8c0.3,1-0.3,1.9-1.3,1.9c-0.2,0-0.4,0-0.7-0.1c-1.3-0.5-0.1-1.8-1.1-2.5
					c-0.2-0.1-0.3-0.1-0.5-0.1c-0.9,0-1.8,1.4-1.9,2c-0.6,2.5,2.5,3.5,0.6,5.6c-0.8,0.9-2.8,1.7-3.1,2.9c-0.4,1.3,0.9,1.6,2,1.6
					c0.4,0,0.8,0,1-0.1c0.3-0.1,0.5-0.1,0.7-0.1c0.7,0,1.1,0.3,1.7,1.1c0.2,0.3,0.4,0.7,0.7,0.9c0.8,0.5,2.1,0.9,3.1,1.1
					c0.6,0.1,0.9,0.2,1.1,0.2c0.3,0,0.2-0.2,1.1-0.6c1.2-0.6,2.2-2,3-3.3c0.4-0.7,0.5-1.4,1.3-1.5c0.5-0.1,1.3-0.1,1.1-0.8
					c-0.4-1.4-2.5-0.4-2.7-1.7c0.3-0.1,0.9-0.1,1.3-0.1c0.2,0,0.4,0,0.5,0c2.6,0.4,5.2,1.6,7.5,2.8c2.1,1.1,1.5,1.1,2.3,3.2
					c1.1,2.7,3.4,3.8,5.8,3.8c1.3,0,2.7-0.3,4-0.9c1.3-0.6,1.8-1,2.4-2.3c1-2.3-0.2-2.9-2.3-3.8c-1-0.5-1.1-1.1-1.8-1.8
					c-0.4-0.4-1-0.5-1.3-0.8c-0.7-0.8-0.2-1.6-0.9-2.4c-0.6-0.8-1.7,0-1.8-1.4c-0.1-1,0.9-1.2,0.8-2.1c-0.1-0.9-1-1.6-1.8-1.6
					c-0.1,0-0.2,0-0.3,0c-1,0.3-0.9,1.6-2.1,1.6l-0.1,0c-0.9,0-1-0.9-1.9-0.9c-0.1,0-0.3,0-0.5,0.1c-0.7,0.2-1.4,1-1.6,1.6
					c-0.2,0.7,0.3,1.4,0,2c-0.2,0.4-0.8,0.5-1.6,0.5c-1.2,0-2.7-0.3-3.2-0.4c-2.8-0.6-3.4-1.8-0.6-3.2c1.6-0.8,3.5-1,5.1-1.8
					c3.3-1.8,0.3-4.1-2.5-4.6l0,0c0.2,0,0.4-0.9,0.4-1c0-0.3-0.2-0.6-0.4-0.8c-0.6-0.6-1.6-0.9-2.4-1.1
					C32.9,65.6,31.6,64.5,29.7,64.5L29.7,64.5z"/>
			</g>
			<g>
				<path class="st3" d="M70.5,106.1c-1.3-0.2-3.1-0.5-3.7-1.4c-0.4-0.6-0.4-0.6,0-1c0.3-0.3,0.8-0.8,0.8-1.7
					c-0.1-2.3-2.5-3.9-4.7-3.9c-0.4,0-0.9,0.1-1.2,0.2c-1.2,0.5-2,1.1-2.7,1.5c-0.8,0.6-1.3,1-2.2,1c-0.5,0-1.2-0.1-2-0.4
					c-1.6-0.6-3.1-2.1-3.1-3.2c0-0.6,0.4-1,1.3-1.3c0.2-0.1,0.4-0.1,0.6-0.1c0.4,0,0.9,0.1,1.3,0.2l0,0c0.4,0.1,0.9,0.2,1.3,0.2
					c1,0,1.6-0.5,1.9-1.5c0.2-0.7-0.1-1.3-0.3-1.7c-0.3-0.6-0.4-0.8-0.1-1.2c0.3-0.3,1-0.5,1.6-0.7c0.5-0.1,1-0.2,1.4-0.4
					c2.3-1.1,4.4-2.7,6.3-4.8c0.9-1,1.4-1.4,2.1-1.4c0.2,0,0.5,0.1,0.9,0.2c0.2,0.1,0.3,0.1,0.5,0.2c0.3,0.2,0.6,0.3,1,0.3
					c0.2,0,0.4-0.1,0.7-0.2c0.7-0.3,1.1-1.2,1.5-2c0.2-0.5,0.4-0.9,0.6-1.2c0.6-0.7,1.4-1.1,1.9-1.1c0.3,0,0.5,0.1,0.6,0.4
					c0.1,0.1,0.1,0.1,0,0.2c-0.3,0.6-0.1,1.1,0.6,1.5c0.3,0.2,0.7,0.3,1.1,0.3c1,0,1.9-0.6,2.6-1l0.2-0.1c1.1-0.6,2.5-1.5,3.8-1.5
					c0.6,0,1.1,0.2,1.6,0.6c1.2,1.1-0.2,3.1-0.5,3.5c-0.3,0.4-0.6,0.9-0.9,1.4c-0.5,1-1.1,1.9-2,2.3c-0.3,0.2-0.7,0.3-1.1,0.3
					c-0.4,0-0.7-0.1-0.9-0.3c-0.2-0.2-0.2-0.4-0.2-0.6c0-0.5,0.6-1,1.1-1.4c0.6-0.5,1.3-1,1.3-1.8c0-0.3-0.1-1.4-1.7-1.4
					c-0.8,0-1.6,0.3-2,0.4c-0.3,0.1-0.5,0.2-0.6,0.3c-0.2,0.1-0.4,0.2-0.6,0.3c0,0-0.1,0-0.2,0c-0.1,0-0.3,0-0.5,0
					c-0.2,0-0.4,0-0.6,0c-0.5,0-0.8,0.1-1.1,0.3c-0.4,0.4-0.5,0.9-0.5,1.4c0,0.2,0,0.4-0.1,0.5c-0.1,0.4-0.3,0.6-0.6,0.9
					c-0.1,0.2-0.3,0.3-0.4,0.5c0,0.1-0.1,0.1-0.1,0.2c-0.4,0.6-1.2,1.6-0.6,2.5c0.3,0.4,0.8,0.7,1.4,0.7c0.8,0,1.7-0.4,2-1
					c0.2-0.4,0.3-1,0.3-1.4c0-0.2,0-0.5,0.1-0.6c0.1,0,0.3,0.1,0.7,0.3c0.5,0.3,0.5,0.5,0.5,0.5c0,0.1-0.2,0.4-0.3,0.5
					c-0.4,0.5-0.9,1.2-0.6,2.2c0.4,1.2,1.4,1.3,2,1.3c0.6,0,0.6,0.1,0.7,0.4c0,0.1-0.1,0.3-0.2,0.5c-0.2,0.4-0.4,0.9-0.2,1.5
					c0.2,0.8,0.9,1,1.4,1.1c0.2,0,0.3,0.1,0.4,0.2c0.4,0.3,0.5,0.7,0.4,0.8c-0.1,0.2-0.4,0.4-0.9,0.4c-0.1,0-0.1,0-0.2,0
					c-0.9-0.1-1.5-1-2.1-1.8l-0.1-0.2c-0.8-1.1-1.3-1.2-2-1.2c-0.3,0-0.6,0-1.1-0.2c-0.1,0-0.3-0.2-0.6-0.3c-0.4-0.2-1-0.5-1.5-0.5
					c-0.5,0-1.2,0.2-1.4,1.7c-0.1,1.7,1.2,2.2,2.2,2.5c0.4,0.1,0.8,0.3,1,0.4c0.2,0.2,0.3,0.4,0.4,0.8c0,0.1,0.1,0.3,0.1,0.4
					c0.1,0.3,0.1,0.4,0.2,0.6c0.1,0.5,0.2,0.6,0.9,1.2c0.1,0.1,0.3,0.2,0.4,0.3c0.6,0.5,0.8,0.7,1,1.2c-0.1,0-0.3,0.1-0.4,0.1
					c-0.3,0.1-0.7,0.1-1,0.1c-0.7-1.3-1.8-2.1-3.2-2.3c-0.1,0-0.3,0-0.6,0c-0.9,0-1.4-0.1-1.5-0.2c-0.1-0.2-0.3-0.3-0.5-0.3
					c-0.1,0-0.2,0-0.2,0c-0.3,0.1-0.4,0.4-0.3,0.7c0.3,0.8,1,1.1,1.7,1.4c0.2,0.1,0.4,0.2,0.6,0.3c0.5,0.3,0.7,0.5,1,1
					c-0.5,0.3-1,0.6-1.4,1c-0.1,0.1-0.3,0.2-0.4,0.3C72.2,105.2,71.4,105.7,70.5,106.1z"/>
				<path class="st4" d="M85.1,81c0.5,0,0.9,0.2,1.2,0.5c0.9,0.8-0.4,2.5-0.6,2.7c-0.4,0.5-0.7,1-0.9,1.5c-0.5,0.9-1,1.7-1.7,2.1
					c-0.2,0.1-0.5,0.2-0.8,0.2c-0.3,0-0.4-0.1-0.5-0.1c0,0-0.1-0.2-0.1-0.2c0-0.2,0.5-0.7,0.9-1c0.7-0.5,1.5-1.2,1.5-2.3
					c0-0.9-0.6-1.9-2.3-1.9c-0.1,0-0.2,0-0.2,0C82.7,81.8,84,81,85.1,81 M76.2,81.1C76.2,81.1,76.2,81.2,76.2,81.1
					c-0.2,0.8,0.1,1.5,0.9,2.1c0,0,0.1,0.1,0.1,0.1c-0.5,0-0.9,0.2-1.3,0.5c-0.6,0.5-0.7,1.3-0.7,1.8c0,0.1,0,0.3,0,0.4
					c-0.1,0.3-0.2,0.5-0.5,0.8c-0.1,0.2-0.3,0.3-0.4,0.6c0,0.1-0.1,0.1-0.1,0.2c-0.4,0.6-1.4,2-0.6,3.2c0.4,0.6,1.1,0.9,1.9,0.9
					c0.7,0,1.5-0.3,2.1-0.8c0,0.3,0,0.6,0.1,0.9c0.6,1.6,1.9,1.7,2.5,1.7c0,0,0,0,0.1,0c0,0,0,0,0,0.1c-0.2,0.4-0.5,1.1-0.3,1.9
					c0,0,0,0.1,0,0.1l0-0.1c-0.9-1.3-1.5-1.5-2.5-1.5c-0.3,0-0.6,0-1-0.1c-0.1,0-0.3-0.1-0.5-0.2C75.6,93.3,75,93,74.3,93
					c-0.4,0-1.8,0.2-1.9,2.2c-0.2,2.1,1.6,2.7,2.5,3c0.3,0.1,0.7,0.2,0.8,0.3c0.1,0.1,0.1,0.1,0.2,0.5c0,0.1,0.1,0.3,0.2,0.5
					c0.1,0.2,0.1,0.4,0.1,0.5c0.1,0.3,0.1,0.5,0.3,0.7c-0.6-0.4-1.2-0.6-1.9-0.7c-0.2,0-0.4,0-0.7,0c-0.3,0-0.8,0-1.1-0.1
					c-0.2-0.3-0.6-0.5-0.9-0.5c-0.2,0-0.3,0-0.4,0.1c-0.6,0.2-0.8,0.9-0.6,1.4c0.4,1.1,1.3,1.5,2,1.7c0.2,0.1,0.4,0.2,0.5,0.2
					c0.2,0.1,0.3,0.2,0.4,0.3c-0.4,0.2-0.7,0.5-1,0.7c-0.1,0.1-0.2,0.2-0.4,0.3c-0.6,0.5-1.3,0.9-2.1,1.3c-0.9-0.1-2.6-0.4-3.1-1.1
					c-0.1-0.1-0.1-0.1-0.1-0.2c0,0,0,0,0.1-0.1c0.3-0.4,1-1,0.9-2.2c-0.1-2.6-2.9-4.5-5.2-4.5c-0.5,0-1,0.1-1.4,0.2
					c-1.3,0.5-2.1,1.1-2.8,1.6c-0.8,0.6-1.2,0.9-1.9,0.9c-0.5,0-1.1-0.1-1.8-0.4c-1.4-0.5-2.7-1.9-2.8-2.7c0-0.4,0.5-0.6,0.9-0.8
					c0.1,0,0.3-0.1,0.4-0.1c0.3,0,0.8,0.1,1.1,0.2l0,0c0.5,0.1,1,0.2,1.5,0.2c1.2,0,2.1-0.7,2.4-1.9c0.3-0.9-0.1-1.7-0.3-2.2
					c-0.1-0.2-0.2-0.4-0.2-0.5c0,0,0,0,0.1-0.1c0.1-0.2,0.9-0.4,1.3-0.5c0.5-0.1,1-0.2,1.5-0.5c2.4-1.2,4.5-2.8,6.5-5
					c0.9-1,1.3-1.3,1.7-1.3c0.2,0,0.4,0,0.7,0.1c0.1,0,0.2,0.1,0.4,0.2c0.3,0.2,0.7,0.4,1.3,0.4c0.3,0,0.6-0.1,0.9-0.2
					c0.9-0.4,1.4-1.4,1.8-2.3c0.2-0.4,0.4-0.9,0.5-1C75.2,81.5,75.9,81.1,76.2,81.1 M78.5,88.1L78.5,88.1L78.5,88.1 M78.4,88.8
					C78.4,88.8,78.4,88.8,78.4,88.8c0,0.1,0,0.1,0,0.1C78.4,88.9,78.4,88.9,78.4,88.8 M80.8,96.4c0.4,0.3,0.8,0.4,1,0.5
					c0.1,0,0.2,0.1,0.2,0.1c0.1,0,0.1,0.1,0.1,0.1c-0.1,0-0.1,0-0.3,0c0,0-0.1,0-0.1,0C81.4,97.1,81.1,96.8,80.8,96.4 M77.9,102
					c0.1,0.1,0.2,0.2,0.3,0.2c0,0-0.1,0-0.1,0C78,102.2,77.9,102.1,77.9,102 M85.1,79.8c-1.5,0-3.1,1-4.3,1.7
					c-0.6,0.4-1.5,0.9-2.3,0.9c-0.3,0-0.5-0.1-0.8-0.2c-1-0.7,0-0.8-0.4-1.6c-0.3-0.5-0.7-0.7-1.1-0.7c-0.8,0-1.7,0.6-2.4,1.3
					c-0.7,0.7-1.1,2.7-1.9,3.1c-0.2,0.1-0.3,0.1-0.4,0.1c-0.5,0-0.8-0.4-1.3-0.5c-0.4-0.1-0.7-0.2-1-0.2c-0.9,0-1.6,0.6-2.6,1.6
					c-1.8,1.9-3.8,3.5-6.1,4.7c-0.9,0.5-2.6,0.5-3.2,1.3c-0.9,1.2,0.6,2,0.3,3.2c-0.2,0.8-0.7,1-1.3,1c-0.4,0-0.8-0.1-1.3-0.2
					c-0.5-0.1-0.9-0.2-1.4-0.2c-0.3,0-0.6,0-0.8,0.1c-3.6,1.3-0.7,4.8,1.8,5.6c0.9,0.3,1.6,0.4,2.2,0.4c2,0,2.5-1.6,5.1-2.6
					c0.3-0.1,0.7-0.2,1-0.2c1.8,0,4,1.4,4.1,3.4c0.1,1.6-1.9,1.4-0.6,3c0.8,1.1,2.7,1.4,4.3,1.6c0.9-0.4,1.8-1,2.6-1.6
					c0.6-0.5,1.2-1,2-1.3c0.1,0,0.2-0.1,0.2-0.1c-0.3-0.9-0.6-1.3-1.4-1.8c-0.7-0.4-1.7-0.5-2-1.3c0.3,0.7,2,0.5,2.5,0.6
					c1.4,0.2,2.4,1.1,2.9,2.3c0.5,0,1,0,1.5-0.1c0.3-0.1,0.7-0.2,1-0.3c-0.3-1.3-0.6-1.4-1.8-2.4c-0.9-0.8-0.5-0.6-0.9-1.5
					c-0.2-0.5-0.2-1-0.7-1.4c-0.9-0.7-3.1-0.5-2.9-2.4c0.1-0.9,0.4-1.2,0.8-1.2c0.6,0,1.3,0.6,1.8,0.7c1.6,0.5,1.8-0.4,2.9,1.2
					c0.7,0.9,1.4,2.1,2.7,2.2c0.1,0,0.1,0,0.2,0c1.7,0,1.9-1.3,0.8-2.2c-0.4-0.4-1.4-0.2-1.6-1c-0.2-0.7,0.6-1.3,0.4-1.9
					c-0.3-1.6-2.2-0.1-2.8-1.8c-0.6-1.6,2.2-2.2,0.1-3.5c-0.5-0.3-0.8-0.4-1.1-0.4c-0.8,0-0.4,1.5-0.8,2.3c-0.2,0.4-0.9,0.7-1.5,0.7
					c-0.4,0-0.7-0.1-0.9-0.4c-0.4-0.6,0.4-1.6,0.7-2.1c0.4-0.6,0.8-0.9,1-1.6c0.2-0.5,0-1.3,0.4-1.6c0.2-0.2,0.4-0.2,0.7-0.2
					c0.2,0,0.4,0,0.6,0c0.2,0,0.4,0,0.5,0c0.1,0,0.2,0,0.3,0c0.6-0.1,0.8-0.4,1.3-0.6c0.4-0.1,1.1-0.3,1.8-0.3
					c0.6,0,1.1,0.2,1.1,0.8c0,1.1-2.4,1.7-2.5,3.2c0,1.1,0.8,1.5,1.7,1.5c0.5,0,0.9-0.1,1.3-0.3c1.6-0.8,2.1-2.7,3.1-3.9
					c0.9-1.2,1.8-3.1,0.5-4.3C86.5,80.1,85.8,79.8,85.1,79.8L85.1,79.8z"/>
			</g>
			<g>
				<path class="st3" d="M39.1,95.7c-2,0-5-0.7-5.6-0.9c-1.2-0.3-1.9-0.7-2.1-1.2c0-0.1-0.2-0.4,0.2-1c0.2-0.4,0.8-0.5,1.3-0.7
					c0.8-0.3,1.8-0.6,2.1-1.7c0.3-1-0.1-1.6-0.3-2c-0.2-0.4-0.2-0.4,0.1-0.8c0.1-0.1,0.6-0.3,1.4-0.3c0.5,0,0.9,0.1,1.1,0.1
					c0.2,0.1,0.4,0.1,0.6,0.2c0.4,0.1,0.8,0.3,1.2,0.4c0.1,0,0.1,0,0.2,0c0.1,0,0.3,0,0.5,0c0.1,0,0.2,0,0.3,0
					c-0.2,0.1-0.4,0.3-0.5,0.4c-0.3,0.2-0.5,0.3-0.7,0.5c-0.3,0.3-0.6,0.7-0.5,1.2c0.1,0.5,0.7,0.7,1.3,0.8c0.3,0.1,0.9,0.2,1,0.4
					c0.1,0.2,0.1,0.3,0.1,0.3c0,0,0,0,0,0c0,0,0,0-0.1,0.1c-0.1,0.1-0.4,0.4-0.4,0.9c0,0.1,0,0.2,0,0.3c0.1,2,0.1,2.6,0,2.8
					C40.4,95.5,40.1,95.7,39.1,95.7z"/>
				<path class="st4" d="M36.2,87.7c0.4,0,0.8,0.1,1,0.1c0,0,0,0,0,0c0.2,0.1,0.4,0.1,0.6,0.2c0.3,0.1,0.5,0.2,0.8,0.3
					c-0.5,0.6-0.7,1.1-0.6,1.7c0.2,0.9,1.1,1.1,1.7,1.3c0.1,0,0.3,0.1,0.4,0.1c-0.2,0.2-0.3,0.6-0.3,1c0,0.1,0,0.2,0,0.3
					C40,94,40,94.7,40,95.1c-0.2,0-0.4,0.1-0.9,0.1c-1.5,0-3.9-0.5-5.4-0.9c-1.2-0.3-1.7-0.7-1.8-0.9c0-0.1,0-0.3,0.2-0.5
					c0.1-0.2,0.6-0.3,1-0.5c0.9-0.3,2.1-0.7,2.5-2c0.4-1.2-0.1-2-0.3-2.5c0,0,0,0,0,0c0,0,0,0,0,0C35.3,87.8,35.6,87.7,36.2,87.7
					 M36.2,86.5c-0.7,0-1.5,0.1-1.8,0.5c-1.2,1.2,0.5,1.4,0,3c-0.4,1.4-2.7,1.1-3.4,2.3c-1.1,1.9,0.8,2.7,2.3,3.1
					c0.8,0.2,3.7,0.9,5.7,0.9c0.9,0,1.6-0.1,1.9-0.5c0.3-0.4,0.1-3,0.1-3.6c0-0.6,0.7-0.5,0.3-1.4c-0.4-1.1-3.1-0.6-1.9-1.8
					c0.3-0.3,1.7-1,1.6-1.4c0-0.3-0.3-0.4-0.7-0.4c-0.2,0-0.3,0-0.5,0c-0.2,0-0.3,0-0.4,0c-0.1,0-0.1,0-0.1,0
					c-0.6-0.1-1.2-0.4-1.8-0.6C37.2,86.6,36.7,86.5,36.2,86.5L36.2,86.5z"/>
			</g>
			<g>
				<path class="st3" d="M44.3,71.3c-0.2,0-0.4,0-0.7-0.1c-0.8-0.2-1.7-0.8-2.2-1.4c-0.6-0.8-0.8-1.5-0.6-2c0.2-0.4,0.7-0.6,1.5-0.6
					l0.1,0c1.1,0,2.6,0.5,3.2,1.5c0.3,0.5,0.3,1.1,0,1.7C45.4,71,45,71.3,44.3,71.3z"/>
				<path class="st4" d="M42.5,67.8c0.9,0,2.2,0.5,2.7,1.2c0.1,0.2,0.3,0.6,0,1.1c-0.2,0.4-0.5,0.6-0.9,0.6c-0.2,0-0.3,0-0.5-0.1
					c-0.7-0.2-1.4-0.7-1.9-1.2c-0.6-0.7-0.6-1.2-0.5-1.4C41.4,68,41.7,67.8,42.5,67.8L42.5,67.8 M42.5,66.7L42.5,66.7
					c-2.6,0.1-2.8,1.8-1.5,3.5c0.5,0.7,1.5,1.4,2.5,1.6c0.3,0.1,0.6,0.1,0.8,0.1c0.8,0,1.5-0.4,1.9-1.3
					C47.4,68.1,44.4,66.7,42.5,66.7L42.5,66.7z"/>
			</g>
			<g>
				<path class="st3" d="M58.8,108.5c-0.9-0.2-1.7-0.5-2.4-0.9c-0.1,0-0.1-0.1-0.2-0.1c-0.2-0.2-0.5-0.3-0.8-0.5
					c-0.6-0.3-1.2-0.3-1.8-0.4c-1.3-0.1-2.5-0.3-3.7-0.6c0.3,0,0.7-0.1,1-0.2c0.4-0.1,0.7-0.1,1-0.2c0.1,0,0.1,0,0.2,0
					c0.5,0,1,0.1,1.6,0.2c0.6,0.1,1.3,0.3,2,0.3c1.2,0,2.1-0.5,2.6-1.6c0.1,0,0.3,0,0.4,0c1.3,0,2.4,0.6,3,1.7
					c-0.3,0.1-0.5,0.2-0.8,0.3C60,106.9,58.9,107.2,58.8,108.5z M47.4,105.6c-0.6-0.1-1.2-0.2-1.8-0.3c-0.6-0.1-1.2-0.2-2-0.2
					c-0.1-0.3-0.3-0.5-0.4-0.8c-0.1-0.2-0.2-0.4-0.3-0.6l-0.1-0.2c-0.6-1.1-1.2-2.5-0.8-3.5c0.3-0.4,2.4-1.5,2.9-1.5
					c0.4,0,0.7,0.1,0.9,0.3c0.4,0.4,0.4,1.3,0.4,2.1c0,0.4-0.1,0.8-0.2,1.2c-0.2,0.9-0.5,1.9,0.7,3.1
					C47,105.3,47.2,105.4,47.4,105.6z"/>
				<path class="st4" d="M45,99L45,99L45,99 M45,99c0.1,0,0.4,0,0.4,0.1c0.1,0.1,0.3,0.5,0.2,1.7c0,0.4-0.1,0.7-0.2,1.1
					c-0.2,0.8-0.4,1.7,0.2,2.8c0,0,0,0,0,0c-0.5-0.1-1.1-0.1-1.7-0.2c-0.1-0.2-0.2-0.3-0.3-0.5c-0.1-0.2-0.2-0.4-0.3-0.6l-0.1-0.2
					c-0.5-0.9-1.1-2.2-0.8-3C42.9,99.8,44.5,99.1,45,99 M42.6,100.1L42.6,100.1L42.6,100.1 M58.7,105.2c0.9,0,1.6,0.3,2.1,0.8
					c0,0-0.1,0-0.1,0c-0.7,0.2-2,0.6-2.4,1.8c-0.6-0.2-1.1-0.4-1.6-0.7c-0.1,0-0.1-0.1-0.2-0.1c-0.1-0.1-0.2-0.1-0.3-0.2
					C57.5,106.6,58.2,105.9,58.7,105.2C58.7,105.2,58.7,105.2,58.7,105.2 M45,97.8L45,97.8c-0.6,0-3.2,1.2-3.5,1.8
					c-0.6,1.4,0.3,3,0.9,4.2c0.3,0.6,0.6,1.2,0.9,1.7c0.8,0,1.5,0.1,2.3,0.2c2.7,0.4,5.3,1.1,8,1.3c0.6,0.1,1.1,0.1,1.6,0.3
					c0.3,0.1,0.6,0.4,0.9,0.6c1,0.6,2.1,1,3.3,1.1c-0.3-2.1,2-1.8,3.2-2.7c-0.6-1.6-2.1-2.5-3.8-2.5c-0.3,0-0.6,0-0.8,0.1
					c-0.4,1.2-1.2,1.5-2.2,1.5c-0.6,0-1.2-0.1-1.9-0.3c-0.6-0.1-1.2-0.3-1.8-0.3c-0.1,0-0.2,0-0.3,0c-0.8,0.1-1.7,0.4-2.6,0.4
					c-0.7,0-1.4-0.2-2-0.8c-1.4-1.3-0.4-2.2-0.4-3.8C46.9,99.2,46.7,97.8,45,97.8L45,97.8z"/>
			</g>
			<g>
				<path class="st3" d="M40.4,104.9c-1.4-0.1-2.5-0.3-3.8-0.7c-0.7-0.2-1.5-0.5-2.1-1.1c-0.2-0.2-0.4-0.4-0.6-0.7
					c-0.2-0.2-0.4-0.5-0.6-0.7c-0.6-0.6-1.5-0.9-2.4-1.1c-0.4-0.1-0.9-0.3-1.2-0.4l-0.1,0c-0.3-0.1-0.5-0.2-0.8-0.4
					c-0.4-0.7-1.1-1.1-1.8-1.4c-0.7-0.4-1.5-0.5-2.3-0.7c-1.7-0.4-2.8-0.7-3.2-2.1c-0.1-0.4-0.2-0.7-0.2-0.9c-0.2-0.9-0.4-1-1.4-1.4
					c-0.1-0.1-0.3-0.1-0.4-0.2c-0.5-0.2-0.7-0.5-0.7-0.7c0-0.2,0.2-0.5,0.8-0.7c0.2-0.1,0.4-0.1,0.6-0.1c0.4,0,0.8,0.1,1.3,0.3
					c0.5,0.2,1,0.3,1.6,0.3c0.3,0,0.7-0.1,1-0.2c0.2-0.1,0.4-0.2,0.7-0.4c0.3-0.2,0.8-0.5,1.1-0.5c0.1,0,0.1,0,0.2,0.1
					c0.1,0.1,0.1,0.2,0.1,0.2c-0.1,0.2-0.4,0.5-0.7,0.6c-1.1,0.4-1.8,0.9-1.7,2.4c0.1,1,0.2,2,1.4,2.7c1.3,0.8,2.9,1,4,1.1
					c0.3,0,0.5,0,0.8,0c0.4,0,0.8,0,1.4-0.1c0.1,0,0.1,0,0.2,0c0.2,0,0.5,0,0.8-0.1c0.2-0.1,0.4-0.2,0.5-0.3c0,0,0,0,0.1-0.1
					c0,0,0,0,0,0.1c0.1,0.1,0.1,0.3,0.3,0.4c0.3,0.3,0.7,0.5,1.1,0.7c0.2,0.1,0.4,0.2,0.5,0.3c1,0.7,1.9,1.3,2.8,2
					C38.2,101.9,40,103.4,40.4,104.9z"/>
				<path class="st4" d="M25.6,91.8L25.6,91.8L25.6,91.8 M20,92.2c0.3,0,0.7,0.1,1.1,0.3c0.5,0.2,1.1,0.4,1.8,0.4c0.1,0,0.3,0,0.4,0
					c-0.3,0.4-0.5,1-0.4,1.8c0.1,0.8,0.2,1.7,0.8,2.4c-1-0.3-1.5-0.6-1.7-1.5c-0.1-0.4-0.2-0.6-0.2-0.8c-0.2-1.2-0.6-1.4-1.7-1.9
					c-0.1-0.1-0.3-0.1-0.4-0.2c-0.1-0.1-0.2-0.1-0.3-0.1c0.1-0.1,0.2-0.1,0.3-0.2C19.8,92.2,19.9,92.2,20,92.2 M33.1,98.2L33.1,98.2
					L33.1,98.2 M32.5,98.6C32.5,98.6,32.5,98.6,32.5,98.6c0.4,0.5,0.9,0.7,1.3,0.9c0.2,0.1,0.3,0.2,0.5,0.3c1,0.7,1.9,1.3,2.8,2
					c0.5,0.4,1.8,1.4,2.4,2.5c-0.9-0.1-1.8-0.3-2.7-0.5c-0.7-0.2-1.4-0.5-1.9-0.9c-0.2-0.2-0.4-0.4-0.6-0.6
					c-0.2-0.2-0.4-0.5-0.7-0.7c-0.7-0.7-1.8-1-2.6-1.3c-0.4-0.1-0.8-0.2-1.1-0.4l-0.1,0c-0.2-0.1-0.4-0.2-0.6-0.3
					c-0.2-0.2-0.3-0.4-0.5-0.6c0.1,0,0.1,0,0.2,0c0.3,0,0.5,0,0.8,0c0.4,0,0.9,0,1.4-0.1c0.1,0,0.1,0,0.2,0c0.3,0,0.6,0,1-0.1
					C32.4,98.7,32.5,98.6,32.5,98.6 M25.6,90.6c-0.7,0-1.4,0.7-2,0.9c-0.2,0.1-0.5,0.1-0.7,0.1c-0.5,0-0.9-0.2-1.4-0.3
					C21,91.2,20.5,91,20,91c-0.3,0-0.6,0.1-0.8,0.2c-1.5,0.7-1.4,1.8,0,2.4c1.8,0.8,1.2,0.4,1.8,2.2c0.8,2.8,3.7,2.2,5.8,3.2
					c0.5,0.3,1.4,0.7,1.7,1.3c0.3,0.2,0.7,0.3,1,0.5c1.1,0.5,2.6,0.6,3.5,1.4c0.4,0.4,0.8,0.9,1.2,1.4c0.6,0.6,1.5,0.9,2.3,1.2
					c1.6,0.5,3.1,0.7,4.6,0.7c0-1.9-2-3.6-3.3-4.7c-0.9-0.7-1.9-1.4-2.8-2c-0.5-0.3-1.1-0.5-1.5-0.9c-0.3-0.3-0.3-0.7-0.7-0.7l0,0
					c-0.3,0-0.5,0.4-0.8,0.5c-0.2,0.1-0.6,0.1-0.8,0.1c-0.5,0-0.9,0.1-1.3,0.1c-0.2,0-0.5,0-0.7,0c-1.2-0.1-2.7-0.3-3.7-1
					c-0.9-0.5-1.1-1.3-1.1-2.2c-0.1-1.1,0.3-1.4,1.3-1.8c0.6-0.3,1.5-0.9,0.9-1.7C26.1,90.7,25.8,90.6,25.6,90.6L25.6,90.6z"/>
			</g>
			<g>
				<path class="st3" d="M49,97.7c-0.1,0-0.3,0-0.6-0.2c-0.1-0.1-0.2-0.1-0.2-0.5c-0.1-0.4-0.2-0.9-0.7-1.3
					c-0.3-0.2-0.6-0.2-0.9-0.2c-0.3,0-0.6,0.1-0.9,0.2c-0.2,0.1-0.4,0.1-0.6,0.1c-0.1,0-0.2,0-0.3-0.5c-0.1-0.4-0.1-0.7,0.1-0.9
					c0.3-0.4,1-0.8,2.1-0.9c0.4-0.1,0.8-0.1,1.3-0.1c0.8,0,1.6,0.1,2,0.2c0.1,0,0.2,0.1,0.3,0.1c0,0-0.1,0-0.1,0
					c-0.6,0.3-1.3,0.6-1.5,1.2c-0.1,0.3,0,0.7,0.1,1.2C49,96.6,49.2,97.5,49,97.7C49,97.7,49,97.7,49,97.7z"/>
				<path class="st4" d="M48.2,94c0.3,0,0.5,0,0.7,0c-0.2,0.2-0.4,0.5-0.6,0.8c-0.1,0.3-0.1,0.6-0.1,0.9c-0.1-0.1-0.3-0.3-0.5-0.4
					C47.4,95.1,47,95,46.6,95c-0.4,0-0.8,0.1-1.1,0.2l0,0c-0.1,0-0.1,0-0.2,0c0,0,0,0,0,0c-0.1-0.3,0-0.4,0-0.4
					c0.1-0.2,0.7-0.5,1.6-0.7C47.3,94,47.7,94,48.2,94 M45.4,95.4L45.4,95.4L45.4,95.4 M48.2,92.8c-0.4,0-0.9,0-1.4,0.1
					c-1.6,0.2-3,1-2.6,2.5c0.2,0.7,0.5,0.9,0.9,0.9c0.2,0,0.5-0.1,0.7-0.1c0.3-0.1,0.5-0.1,0.8-0.1c0.2,0,0.4,0,0.6,0.2
					c0.7,0.4,0.2,1.5,1,1.8c0.3,0.1,0.6,0.2,0.8,0.2c1.3,0,0.2-2.6,0.4-3.1c0.4-1,3.6-1.1,0.9-2.1C49.9,93,49,92.8,48.2,92.8
					L48.2,92.8z"/>
			</g>
			<g>
				<path class="st3" d="M46.7,14.3c-1,0-1.9-0.4-2.8-0.8c-0.6-0.3-1.3-0.6-2-0.7c-0.7-0.2-1.7-0.4-2.3-1c-0.2-0.2-0.3-0.3-0.3-0.5
					c0-0.1,0.1-0.4,0.2-0.5c0.1-0.1,0.2-0.2,0.3-0.4c0-0.3-0.2-0.6-0.5-0.6c-1.8-0.3-3.5-1.4-3.6-2.2c-0.1-0.6,0.6-1.1,1.2-1.4
					c0.8-0.4,1.7-0.7,2.6-0.9c0.9-0.3,1.8-0.5,2.7-0.9c1.3-0.6,2-1.3,2.1-2c0-0.1,0-0.2,0-0.4c2.9-0.6,5.5-0.9,7.9-1
					c0.6,0,1.2-0.1,1.8-0.1c0.6-0.1,1.2-0.1,1.9-0.1c0.4,0.7,0.6,1.3,0.4,2c-0.1,0.6-0.9,1.7-1.4,1.7c-0.1,0-0.1,0-0.2-0.1
					c-0.2-0.1-0.2-0.3-0.2-0.8c0-0.6,0.1-1.5-1.1-1.9c-0.3-0.1-0.6-0.2-0.9-0.2c-0.7,0-1.3,0.3-1.6,0.8c-0.4,0.5-0.5,1.2-0.3,1.9
					c0.1,0.4,0.3,0.7,0.5,1c0.4,0.6,0.5,0.9,0.2,1.4c-0.2,0.3-0.8,0.6-1.7,1c-0.3,0.1-0.5,0.1-0.6,0.2c-0.8,0.2-1.1,0.4-1.3,1.5
					c-0.3,1.8,0.9,2.1,1.6,2.3c0.7,0.2,0.7,0.2,0.7,0.6C49.8,13.2,47.8,14.3,46.7,14.3L46.7,14.3z"/>
				<path class="st4" d="M55.5,1.2c0.2,0.4,0.3,0.8,0.2,1.3c-0.1,0.3-0.4,0.8-0.7,1c0,0,0,0,0,0c0-0.5,0.1-1.5-0.9-2.2
					C54.6,1.2,55,1.2,55.5,1.2 M50.7,1.5c-0.1,0.1-0.2,0.2-0.3,0.4c-0.5,0.7-0.6,1.6-0.3,2.4c0.1,0.5,0.4,0.8,0.6,1.2
					C50.9,6,50.9,6,50.8,6.2c0,0.1-0.3,0.3-1.4,0.7C49.1,7,49,7,48.8,7.1C47.9,7.3,47.3,7.7,47,9c-0.1,0.6-0.4,2.4,2,3
					c0.1,0,0.2,0,0.3,0.1c-0.2,0.7-1.7,1.7-2.6,1.7l-0.1,0c-0.9,0-1.7-0.4-2.6-0.8c-0.7-0.3-1.3-0.6-2.1-0.8c-0.6-0.1-1.6-0.4-2-0.8
					c0,0-0.1-0.1-0.1-0.1c0-0.1,0-0.1,0-0.2c0.2-0.2,0.3-0.4,0.4-0.7c0.1-0.6-0.3-1.2-0.9-1.3c-1.8-0.3-3.1-1.3-3.1-1.8
					c0-0.1,0.2-0.5,0.9-0.8c0.7-0.4,1.6-0.6,2.5-0.9c0.9-0.3,1.9-0.5,2.8-1c1.5-0.7,2.2-1.5,2.4-2.4c0,0,0,0,0,0
					C46.9,1.9,48.9,1.6,50.7,1.5 M40,11L40,11L40,11 M56.2,0c-1.4,0-2.9,0.3-4,0.3c-2.9,0-5.8,0.5-8.6,1.1c0.5,0.6,0,1.4-1.7,2.3
					c-1.7,0.8-3.7,1-5.3,1.9c-3.5,1.9-0.3,4.2,2.6,4.8l0,0c-0.2,0-0.4,0.9-0.4,1.1c0,0.3,0.2,0.6,0.4,0.9c0.6,0.7,1.7,0.9,2.5,1.1
					c1.7,0.4,3.1,1.6,5,1.6l0.1,0c1.3,0,3.6-1.3,3.7-2.8c0.2-2-2.8-0.5-2.3-2.9C48.4,8,48.7,8.4,49.8,8c0.6-0.2,1.7-0.6,2-1.2
					c0.7-1.2-0.3-1.8-0.7-2.9c-0.3-1,0.3-1.9,1.3-1.9c0.2,0,0.5,0,0.7,0.1c1.4,0.5,0.1,1.9,1.1,2.6c0.2,0.1,0.3,0.2,0.5,0.2
					c0.9,0,1.8-1.4,2-2.1C57.1,1.6,56.6,0.8,56.2,0L56.2,0z"/>
			</g>
			<g>
				<path class="st3" d="M35.1,15.7c-1.2,0-2.7-0.6-3.4-1.5c-0.3-0.5-0.3-1.1,0-1.8c0.3-0.7,0.8-1,1.5-1c0.2,0,0.5,0,0.7,0.1
					c0.8,0.2,1.7,0.8,2.3,1.5c0.6,0.8,0.9,1.6,0.6,2.1C36.6,15.4,36,15.7,35.1,15.7L35.1,15.7z"/>
				<path class="st4" d="M33.2,11.9c0.2,0,0.4,0,0.6,0.1c0.7,0.2,1.5,0.7,1.9,1.3c0.6,0.7,0.7,1.3,0.6,1.5c0,0.1-0.3,0.3-1.1,0.3
					l-0.1,0c-1,0-2.4-0.5-2.9-1.3c-0.2-0.2-0.3-0.6,0-1.2C32.4,12.1,32.7,11.9,33.2,11.9 M33.2,10.8c-0.8,0-1.6,0.4-2,1.3
					c-1.2,2.6,1.9,4.2,3.9,4.2l0.1,0c2.6-0.1,2.8-1.9,1.4-3.6C36,11.9,35,11.2,34,10.9C33.7,10.8,33.4,10.8,33.2,10.8L33.2,10.8z"/>
			</g>
			<g>
				<path class="st3" d="M90.2,45.8C90.2,45.8,90.2,45.8,90.2,45.8c-0.4-0.5-0.3-1.7-0.2-2.8c0.2-1.5,0.3-3.1-0.5-4.1
					c-0.4-0.5-1.1-0.7-1.9-0.7c-0.1,0-0.2,0-0.3,0c-0.2,0-0.4,0.1-0.5,0.3c-0.3,0.5-0.8,1-1.1,1c-0.4,0-0.5-0.2-0.7-0.5
					c-0.2-0.3-0.4-0.8-1-0.9c-0.3-0.1-0.6-0.1-0.9-0.1c-1.1,0-1.8,0.5-2.6,1.1c-0.4,0.3-0.9,0.6-1.4,0.8c-0.4,0.1-0.6,0.4-0.8,0.5
					c0,0-0.1,0.1-0.1,0.1c-0.1-0.1-0.3-0.2-0.6-0.6c-0.6-0.8-0.7-1.3-0.2-2.5c0.4-1.1,0.9-1.3,1.8-1.7c0.5-0.3,1.2-0.6,2-1.2
					c1.1-0.9,1.5-1.2,2.2-1.2c0.5,0,1.1,0.1,2,0.3c0.1,0,0.2,0.2,0.4,0.3c0.2,0.2,0.6,0.5,1,0.6l0.1,0c0.6,0,0.9-0.3,1-0.5
					c0.1-0.1,0.1-0.1,0.1-0.1c0.2,0,0.5,0,0.7,0.1c0.4,0.1,0.9,0.1,1.4,0.1c0.5,0,1-0.1,1.3-0.3c0.6-0.3,1-0.8,1.3-1.3
					c0.4-0.6,0.7-1,1.2-1l0.1,0c0.8,0.1,1.7,1.5,2.4,2.6c0.5,0.8,1,1.6,1.6,2.1c0.3,0.2,0.6,0.5,0.9,0.6l0.2,0.1c1,0.6,1.5,1,1.5,2
					c0,0.9-0.2,1.1-0.2,1.2c0,0,0,0-0.2,0c-0.3,0-0.7-0.1-1-0.3c-0.5-0.2-0.9-0.3-1.4-0.4c-0.2,0-0.4,0-0.5,0
					c-2.4,0-2.6,1.7-2.8,3.3c0,0.3-0.1,0.7-0.2,1c-0.1,0-0.2,0-0.4,0c-1,0-1.8,0.6-2.5,1.1c-0.1,0.1-0.2,0.2-0.3,0.2
					C90.8,45.4,90.4,45.8,90.2,45.8z"/>
				<path class="st4" d="M94,32.1L94,32.1c0.6,0.1,1.5,1.5,2,2.4c0.5,0.9,1.1,1.7,1.7,2.2c0.3,0.3,0.6,0.5,1,0.7l0.2,0.1
					c1,0.6,1.3,0.9,1.3,1.5c0,0.3,0,0.5,0,0.6c-0.2-0.1-0.4-0.1-0.6-0.2c-0.5-0.2-1-0.4-1.5-0.4c-0.2,0-0.4,0-0.6,0
					c-2.9,0-3.2,2.2-3.4,3.8c0,0.2,0,0.3-0.1,0.5c-1.1,0-2,0.7-2.8,1.2c-0.1,0.1-0.2,0.2-0.3,0.3c-0.1,0.1-0.1,0.1-0.2,0.2
					c0-0.5,0.1-1.3,0.1-1.8c0.2-1.6,0.3-3.4-0.7-4.5c-0.5-0.6-1.3-0.9-2.3-0.9c-0.1,0-0.2,0-0.3,0c-0.4,0-0.8,0.2-0.9,0.6
					c-0.2,0.3-0.5,0.6-0.6,0.7c0,0,0,0-0.1,0c0,0-0.1-0.1-0.1-0.2c-0.2-0.4-0.6-1-1.4-1.2c-0.4-0.1-0.7-0.1-1.1-0.1
					c-1.3,0-2.1,0.6-2.9,1.2c-0.4,0.3-0.8,0.6-1.3,0.8c-0.3,0.1-0.5,0.2-0.7,0.4c0-0.1-0.1-0.1-0.2-0.2c-0.4-0.6-0.5-0.8-0.1-1.9
					c0.4-0.8,0.7-1,1.5-1.4c0.6-0.3,1.3-0.6,2.1-1.3c1.1-0.9,1.4-1.1,1.8-1.1c0.4,0,1,0.1,1.8,0.3c0,0,0.1,0.1,0.2,0.2
					c0.3,0.3,0.7,0.7,1.3,0.7c0,0,0,0,0.1,0l0.1,0c0,0,0,0,0,0c0.7,0,1.2-0.4,1.4-0.6c0.1,0,0.3,0,0.4,0.1c0.4,0.1,0.9,0.1,1.4,0.1
					c0.6,0,1.1-0.1,1.6-0.3c0.7-0.4,1.1-1,1.5-1.5C93.6,32.4,93.8,32.1,94,32.1 M88.4,34.3L88.4,34.3L88.4,34.3 M94,31
					c-1.3,0-1.7,1.7-2.8,2.3c-0.3,0.2-0.6,0.2-1,0.2c-0.7,0-1.5-0.2-2.1-0.2l0,0c0,0,0,0,0,0c-0.2,0-0.4,0.2-0.5,0.3
					c-0.2,0.2-0.3,0.3-0.6,0.3l-0.1,0c-0.4,0-0.8-0.7-1.3-0.8c-1-0.2-1.6-0.3-2.1-0.3c-0.9,0-1.4,0.4-2.6,1.3
					c-1.8,1.5-3,1.1-3.9,3.1c-0.6,1.3-0.6,2,0.2,3c0.5,0.7,0.8,0.9,1,0.9c0.3,0,0.5-0.5,1.1-0.7c1.5-0.6,2.3-1.9,3.8-1.9
					c0.2,0,0.5,0,0.8,0.1c0.9,0.2,0.6,1.4,1.9,1.4h0c0.6,0,1.3-0.8,1.6-1.3c0.1,0,0.2,0,0.2,0c3.7,0,0.8,5.6,2,7.3
					c0.2,0.2,0.3,0.3,0.5,0.3c0.4,0,0.9-0.5,1.6-1c0.6-0.5,1.3-1,2.2-1c0.3,0,0.5,0,0.8,0.2c0.6-2.5,0.1-4.4,2.5-4.4
					c0.2,0,0.3,0,0.5,0c0.8,0.1,1.8,0.7,2.5,0.7c0.6,0,1-0.4,0.9-1.8c0-1.4-1-1.9-2-2.6c-0.3-0.2-0.6-0.4-0.8-0.6
					c-1.3-1.1-2.5-4.7-4.3-4.9L94,31L94,31z"/>
			</g>
			<g>
				<path class="st3" d="M3.6,44.9c-0.1,0-0.2,0-0.4-0.1c-0.3-0.1-0.3-0.2-0.3-0.4c0-0.2,0-0.6-0.2-1c-0.2-0.4-0.4-0.7-0.6-0.9
					c0.2-0.6,0.5-1.1,0.8-1.7c0.7,0.4,1.6,0.5,2.5,0.5c0.3,0,0.7,0,1,0l0.1,0c0.4,0,0.7,0,1,0c2,0,2.6,0.5,2.7,1.9
					c0,0.5-0.1,0.9-0.3,1.1c-0.2,0.2-0.4,0.2-0.6,0.2c-0.3,0-0.6-0.1-0.9-0.2c-0.2-0.1-0.4-0.3-0.6-0.5c-0.4-0.4-0.8-0.9-1.5-1
					c-0.2,0-0.3,0-0.4,0c-1.1,0-1.2,0.8-1.2,1.1c0,0.2,0,0.3-0.1,0.3c-0.1,0.1-0.2,0.2-0.3,0.3C4,44.7,3.8,44.9,3.6,44.9z"/>
				<path class="st4" d="M3.2,41.5c0.7,0.3,1.5,0.3,2.2,0.3c0.3,0,0.7,0,1,0l0.1,0c0.4,0,0.7,0,1,0c2,0,2.1,0.5,2.1,1.3
					c0,0.4-0.1,0.6-0.2,0.7c0,0-0.1,0.1-0.2,0.1c-0.1,0-0.3,0-0.6-0.2c-0.1,0-0.3-0.2-0.4-0.4c-0.4-0.4-1-1-1.9-1.2
					c-0.2,0-0.3,0-0.5,0c-0.6,0-1.6,0.2-1.8,1.6c0,0,0,0,0,0C4,43.8,3.9,43.9,3.9,44c-0.1,0.1-0.2,0.2-0.3,0.3c0,0,0,0,0,0
					c0-0.3,0-0.7-0.3-1.2c-0.1-0.3-0.3-0.5-0.4-0.7C2.9,42.1,3.1,41.8,3.2,41.5 M2.8,39.9c-0.5,0.8-1,1.7-1.3,2.7
					c0.2,0.2,0.4,0.5,0.7,1c0.4,0.7-0.2,1.1,0.7,1.6c0.3,0.2,0.5,0.2,0.7,0.2c0.6,0,0.9-0.5,1.4-1c0.6-0.5-0.1-1.2,0.9-1.2
					c0.1,0,0.2,0,0.4,0c0.9,0.1,1.2,1.1,1.9,1.4C8.6,44.9,8.9,45,9.3,45c0.9,0,1.5-0.7,1.5-1.9c0-2.1-1.5-2.4-3.2-2.4
					c-0.3,0-0.7,0-1.1,0c-0.4,0-0.7,0-1.1,0c-1,0-1.9-0.1-2.5-0.6C2.9,40,2.9,40,2.8,39.9L2.8,39.9z"/>
			</g>
			<g>
				<path class="st3" d="M9.1,38.2c-0.9,0-2-0.2-2.7-0.4c-0.5-0.1-1.2-0.2-1.9-0.2c0-0.3,0-0.5,0-0.8c-0.1-0.4-0.2-0.8-0.3-1.2
					c-0.2-0.5-0.3-0.9-0.3-1.4c1.6,0.7,3,1.1,4.1,1.1c1.4,0,3.3-0.6,4-3.4c0.1-0.4,0.1-0.8,0.2-1.1c0.1-0.7,0.2-1.2,0.4-1.6
					c0,0.2,0,0.3-0.1,0.5c-0.2,1.2-0.3,2.4-0.6,3.6c-0.2,0.9-0.3,1.5-0.7,2.4c-0.1,0.2-0.1,0.5-0.2,0.8c-0.1,0.4-0.3,1-0.4,1.2
					C10.4,38,9.9,38.2,9.1,38.2z"/>
				<path class="st4" d="M11,34.9c-0.1,0.2-0.1,0.4-0.2,0.7c-0.1,0.2-0.2,0.5-0.2,0.8c-0.1,0.3-0.2,0.7-0.3,1
					c-0.2,0.2-0.6,0.3-1.2,0.3c-0.9,0-1.9-0.2-2.5-0.4c-0.4-0.1-0.9-0.2-1.4-0.2c0-0.1,0-0.2,0-0.3c-0.1-0.5-0.2-0.9-0.3-1.3
					c0-0.1-0.1-0.2-0.1-0.2c1.3,0.5,2.4,0.7,3.4,0.7C9.2,35.9,10.2,35.6,11,34.9 M13.4,28.2c-1.9,0.3-1.5,2.2-1.9,3.6
					c-0.6,2.2-1.9,3-3.5,3c-1.5,0-3.1-0.7-4.4-1.3c0,0.1-0.1,0.1-0.1,0.2c-0.5,1.2,0.3,2.1,0.4,3.2c0.1,0.5,0,0.9-0.1,1.4
					c0.2,0,0.5,0,0.7,0c0.7,0,1.4,0.1,1.8,0.2c0.7,0.2,1.8,0.4,2.8,0.4c0.8,0,1.6-0.2,2.1-0.7c0.3-0.3,0.5-1.7,0.7-2.1
					c0.3-0.9,0.5-1.5,0.7-2.5C13,31.7,13.1,30,13.4,28.2L13.4,28.2z"/>
			</g>
			<g>
				<path class="st3" d="M49.8,70.4c-0.4,0-0.8-0.1-1-0.3c-0.4-0.4-0.4-1.4-0.4-2.2c0-0.5,0.1-0.9,0.2-1.3c0.2-1,0.5-2-0.8-3.2
					c-0.7-0.7-1.5-1-2.5-1c-0.6,0-1.2,0.1-1.7,0.2c-0.4,0.1-0.7,0.2-1,0.2c-0.1,0-0.1,0-0.2,0c-0.5,0-1.1-0.1-1.7-0.3
					c-0.7-0.1-1.4-0.3-2.1-0.3c-1.3,0-2.2,0.6-2.7,1.7c-0.2,0-0.3,0-0.5,0c-1.4,0-2.6-0.7-3.2-1.8c0.3-0.1,0.6-0.2,0.9-0.3
					c1.1-0.3,2.7-0.9,2.1-3.3c-0.1-0.6-0.6-1-1-1.3c-0.2-0.2-0.5-0.5-0.5-0.6c0-0.1,0.3-0.4,0.5-0.6c0.4-0.3,0.7-0.7,0.9-1.1
					c0.7-2.1,0.6-3.7-0.3-5c-1.6-2.3-5.4-2.5-8.6-2.5c-0.8,0-1.5,0-2.2,0l-0.2,0c-1.3,0-2.9-0.3-3.3-0.9c0-0.1-0.1-0.2,0.1-0.5
					c0.2-0.5,0.8-0.6,1.6-0.9c1.1-0.3,2.4-0.7,3-2.3c0.4-1.1,0.2-2.2,0-3.1c-0.2-0.8-0.4-1.6,0-2.3c0.3-0.7,0.9-1,2-1
					c0.7,0,1.5,0.1,2.2,0.3c0.6,0.1,1.2,0.2,1.7,0.3c0,0,0,0,0,0c0.2,0,0.4-0.1,0.5-0.3c0.6-1,0.4-1.8,0.3-2.4
					c-0.1-0.5-0.1-0.8,0-1.3c0.1-0.4,0.7-0.8,1.2-1.2c0.7-0.6,1.4-1.2,1.6-2c0.2-1.7-1-3-2.1-4.3c-1.7-1.9-2.7-3.2-1.7-5
					c0.5-0.9,1.5-1.3,3.2-1.3c1,0,2,0.1,3,0.2c1.1,0.1,2.1,0.3,3.1,0.3c0.8,0,1.4-0.1,1.9-0.3c0.7-0.2,1.4-0.6,2.1-1
					c1.2-0.6,2.4-1.2,3.6-1.2c0.1,0,0.3,0,0.4,0c0.9,0.1,1.4,0.9,1.6,1.6c0.7,1.7,0.5,4.2-0.3,5.1c-1,1.1-2.9,1.5-4.7,2
					c-1.2,0.3-2.3,0.5-3.2,1c-2.2,1.1-2,2.4-1.7,3.6c0.2,0.8,0.3,1.6-0.2,2.5c-0.2,0.3-0.6,0.5-1,0.7c-0.5,0.2-1.1,0.5-1.4,1.1
					c-0.7,1.5,0.8,3.7,1.5,4.4c0.9,1,2.8,2,4.1,2.1l0.1,0c1.6,0,2-0.5,2.4-1.4c0.1-0.2,0.2-0.5,0.4-0.8c0.3-0.5,0.4-0.8,0.5-1.1
					c0.1-0.4,0.1-0.5,0.6-0.8c0.3-0.2,0.8-0.3,1.3-0.3c1.2,0,2.7,0.5,3.4,0.9c0.3,0.2,0.5,0.3,0.6,0.4c0.1,0.1,0.2,0.1,0.3,0.1
					c0,0.1,0,0.1,0,0.2c0,0.2,0.1,0.4,0.1,0.7c0,0.1,0,0.3,0,0.5c0,0.5,0.1,1.1,0.2,1.7c0,0.4,0.1,0.6,0.1,0.9
					c-0.2,0.3-0.8,0.5-1.7,0.5c-0.3,0-0.7,0-1,0l0,0c-0.4,0-0.8,0-1.1,0c-0.9,0-1.9,0.1-2.5,0.8c-0.4,0.5-0.5,1.3-0.2,2.3
					c0.2,0.7,0.7,1.2,1.1,1.7c0.6,0.7,0.9,1.1,0.7,1.8c0,0.1-0.4,0.3-0.6,0.4c-0.6,0.3-1.6,0.7-1.5,1.9c0.2,2.1,3.5,2.9,5.2,2.9
					c0.7,0,1.2-0.1,1.6-0.3c0.5-0.3,0.7-0.8,0.9-1.2c0.1-0.3,0.3-0.6,0.5-0.8c0.5-0.3,1.5-0.5,2.6-0.5c0.3,0,0.6,0,0.8,0.1
					c1.1,0.2,2,0.9,2.1,1.6c0.1,0.6-0.2,1.3-0.9,1.8c-1,0.7-2.3,1.1-3.8,1.1c-1.7,0-3.4-0.4-5-0.8c-0.2-0.1-0.5-0.1-0.7-0.2
					c-0.5-0.1-1.1-0.2-1.6-0.3c-0.9-0.1-1.8-0.3-2.5-0.6c-0.3-0.1-0.7-0.4-1-0.8c-0.6-0.6-1.4-1.2-2.3-1.2c-0.1,0-0.1,0-0.2,0
					c-0.8,0.1-1.4,0.5-1.6,1.3c-0.3,1.2,0.3,2.7,1.1,3.4c0.9,0.8,2.2,1,3.3,1.2c0.6,0.1,1.1,0.2,1.6,0.3c3,1,4,3,5.3,5.7
					c0.2,0.3,0.3,0.7,0.5,1l0.1,0.2c0.6,1.2,1.3,2.6,0.8,3.7C52.6,69.2,50.3,70.3,49.8,70.4L49.8,70.4z"/>
				<path class="st4" d="M47.9,17.7c0.1,0,0.2,0,0.3,0c0.6,0.1,1,0.8,1.1,1.3c0.6,1.6,0.4,3.9-0.2,4.5c-0.8,1-2.7,1.4-4.4,1.8
					c-1.2,0.3-2.4,0.6-3.3,1c-2.6,1.3-2.3,3.1-2,4.2c0.2,0.8,0.3,1.3-0.2,2.1c-0.1,0.1-0.5,0.3-0.7,0.4c-0.6,0.3-1.3,0.6-1.7,1.4
					c-0.8,1.7,0.7,4,1.6,5c1,1.1,3,2.2,4.5,2.2l0.1,0c1.9,0,2.4-0.8,2.9-1.8c0.1-0.2,0.2-0.5,0.4-0.7c0.4-0.5,0.5-1,0.5-1.3
					c0.1-0.3,0.1-0.3,0.3-0.5c0.1-0.1,0.4-0.2,1-0.2c1.1,0,2.5,0.4,3.2,0.8c0.3,0.2,0.5,0.3,0.6,0.4c0,0,0,0,0,0
					c0,0.2,0.1,0.4,0.1,0.7c0,0.1,0,0.2,0,0.5c0,0.5,0.1,1.1,0.2,1.7c0,0.2,0,0.4,0.1,0.6c-0.2,0.1-0.5,0.1-1.1,0.1
					c-0.3,0-0.6,0-1,0l-0.1,0c-0.4,0-0.8,0-1.2,0c-1,0-2.2,0.1-2.9,1.1c-0.5,0.7-0.6,1.6-0.3,2.8c0.2,0.8,0.8,1.4,1.2,1.9
					c0.6,0.6,0.7,0.8,0.6,1.1c-0.1,0.1-0.2,0.1-0.3,0.2c-0.6,0.3-1.9,0.9-1.8,2.4c0.1,1.3,1.3,2.3,2.7,2.8c-0.1,0-0.3,0-0.4-0.1
					c-0.9-0.1-1.7-0.2-2.4-0.5c-0.2-0.1-0.6-0.4-0.9-0.7c-0.7-0.6-1.5-1.4-2.7-1.4c-0.1,0-0.2,0-0.3,0c-1,0.1-1.8,0.7-2.1,1.7
					c-0.4,1.4,0.3,3.2,1.3,4c1.1,0.9,2.4,1.1,3.6,1.3c0.6,0.1,1.1,0.2,1.5,0.3c2.8,0.9,3.7,2.8,4.9,5.4c0.2,0.3,0.3,0.7,0.5,1
					l0.1,0.2c0.5,1,1.1,2.3,0.8,3.1c-0.4,0.4-2.1,1.2-2.6,1.3c-0.2,0-0.4,0-0.5-0.1C49,69.4,49,68.8,49,67.8c0-0.4,0.1-0.8,0.2-1.2
					c0.2-1,0.5-2.3-0.9-3.7c-0.8-0.8-1.8-1.2-2.9-1.2c-0.7,0-1.3,0.1-1.8,0.2c-0.4,0.1-0.7,0.1-1,0.2c-0.1,0-0.1,0-0.2,0
					c-0.4,0-1-0.1-1.6-0.2c-0.7-0.1-1.4-0.3-2.2-0.3c-1.6,0-2.5,0.8-3,1.7c0,0-0.1,0-0.1,0c-0.9,0-1.7-0.3-2.3-0.9
					c0.1,0,0.1,0,0.2-0.1c1.1-0.4,3.2-1,2.5-4c-0.2-0.7-0.7-1.2-1.1-1.6c-0.1-0.1-0.1-0.1-0.2-0.2c0.1-0.1,0.1-0.1,0.2-0.2
					c0.4-0.4,0.8-0.8,1-1.4c0.8-2.3,0.6-4.1-0.4-5.5c-1.8-2.5-5.8-2.8-9.1-2.8c-0.8,0-1.5,0-2.2,0l-0.1,0c0,0-0.1,0-0.1,0
					c-1.3,0-2.4-0.3-2.7-0.5c0,0,0,0,0,0c0.1-0.3,0.6-0.4,1.3-0.6c1.1-0.3,2.7-0.8,3.4-2.7c0.5-1.3,0.2-2.4,0-3.4
					c-0.2-0.9-0.3-1.4-0.1-1.9c0.2-0.4,0.4-0.7,1.4-0.7c0.6,0,1.4,0.1,2.1,0.3c0.6,0.1,1.2,0.2,1.8,0.3c0,0,0,0,0.1,0
					c0.4,0,0.8-0.2,1-0.6c0.7-1.2,0.5-2.1,0.4-2.8c-0.1-0.5-0.1-0.7,0-1c0.1-0.2,0.6-0.7,1-1c0.8-0.6,1.6-1.3,1.8-2.4
					c0.3-1.9-1.1-3.4-2.3-4.8c-1.7-1.9-2.4-2.9-1.6-4.4c0.3-0.5,0.8-1,2.7-1c0.9,0,2,0.1,2.9,0.2l0,0c1,0.1,2.1,0.3,3.1,0.3
					c0.8,0,1.5-0.1,2.1-0.3c0.8-0.3,1.5-0.6,2.2-1C45.7,18.3,46.9,17.7,47.9,17.7 M57,51.9c0.3,0,0.5,0,0.7,0c1,0.2,1.6,0.7,1.7,1.2
					c0.1,0.5-0.4,1-0.7,1.2c-0.9,0.7-2.1,1-3.5,1c-1.3,0-2.6-0.3-4-0.6c0.1,0,0.2,0,0.3,0c0.8,0,1.4-0.1,1.9-0.4
					c0.7-0.4,0.9-1,1.1-1.5c0.1-0.2,0.2-0.5,0.2-0.5C55,52.1,56,51.9,57,51.9 M47.9,16.6c-2.1,0-4.1,1.6-6,2.2
					C41.5,19,40.9,19,40.2,19c-0.9,0-2-0.1-3-0.2c-1-0.1-2.1-0.2-3.1-0.2c-1.6,0-3,0.3-3.7,1.6c-2.2,4.1,4.3,6.3,3.8,9.5
					c-0.2,1.1-2.3,1.9-2.7,3.1c-0.5,1.3,0.5,2.1-0.3,3.6c-1.2-0.1-2.7-0.5-4-0.5c-1.1,0-2,0.3-2.5,1.4c-0.8,1.8,0.8,3.4,0,5.4
					c-0.9,2.4-3.8,1.5-4.6,3.1c-0.9,1.8,2.2,2.2,3.7,2.2c0.1,0,0.1,0,0.2,0c0.7,0,1.4,0,2.1,0c4.8,0,10.4,0.8,8.3,6.8
					c-0.2,0.7-1.4,1.3-1.4,1.9c0,0.8,1.3,1.2,1.5,2.1c0.7,2.7-1.9,2.2-3.2,3.2c0.7,1.7,2.2,2.6,3.9,2.6c0.3,0,0.6,0,0.9-0.1
					c0.4-1.3,1.3-1.6,2.3-1.6c0.6,0,1.3,0.1,1.9,0.3c0.7,0.1,1.3,0.3,1.9,0.3c0.1,0,0.2,0,0.3,0c0.8-0.1,1.8-0.4,2.7-0.4
					c0.7,0,1.4,0.2,2.1,0.9c1.4,1.4,0.4,2.3,0.4,4c-0.1,1.7,0.1,3.1,1.9,3.2h0c0.6,0,3.3-1.3,3.6-1.9c0.6-1.4-0.3-3.1-0.9-4.4
					c-1.5-3.1-2.4-5.8-6.1-7c-1.5-0.5-3.5-0.3-4.7-1.4c-1-0.8-1.7-3.4,0.2-3.6c0.1,0,0.1,0,0.1,0c1.2,0,2.1,1.5,3.1,2
					c1.2,0.5,2.9,0.6,4.2,0.9c1.8,0.4,3.9,1,5.9,1c1.5,0,2.9-0.3,4.2-1.2c2.2-1.6,1.1-4-1.5-4.5c-0.2,0-0.6-0.1-0.9-0.1h0
					c-1,0-2.3,0.2-2.9,0.6c-0.7,0.5-0.6,1.6-1.3,2c-0.3,0.2-0.7,0.2-1.3,0.2c-1.8,0-4.5-0.9-4.6-2.4c-0.1-1.3,1.8-1.2,2.1-2
					c0.6-1.7-1.4-2.3-1.8-3.8c-0.6-2,0.6-2.4,2.1-2.4c0.4,0,0.7,0,1.1,0c0.4,0,0.8,0,1.1,0c1.1,0,2-0.2,2.3-1l0,0
					c-0.1,0-0.3-3.2-0.3-3.2c-0.4-1.5,0.1-1-1.3-1.8c-0.8-0.5-2.4-1-3.8-1c-0.6,0-1.2,0.1-1.6,0.4c-1.1,0.7-0.6,1.2-1.3,2.1
					c-0.8,1.2-0.5,1.9-2.3,1.9l-0.1,0c-1.2,0-2.9-1-3.7-1.9c-0.7-0.8-1.9-2.6-1.4-3.7c0.3-0.8,1.8-0.8,2.3-1.7
					c1.6-2.6-1.5-4.2,1.7-5.9c2.1-1.1,6.3-1.1,8.1-3.1c1.5-1.7,1.1-7.4-1.7-7.7C48.2,16.6,48.1,16.6,47.9,16.6L47.9,16.6z"/>
			</g>
			<g>
				<path class="st3" d="M6.1,73.8c-0.3-0.5-0.6-1-1-1.4c-2.1-2.1-2.6-3.8-3.2-6.9c-0.2-1.1-0.4-2.2-0.6-3.3
					c0.9,2.7,1.8,3.1,2.4,3.1c0.6,0,1-0.3,1.3-0.6c0.2-0.2,0.4-0.3,0.6-0.4c0.1,0,0.1,0,0.2,0c0.5,0,1.2,0.2,1.5,0.5
					c0.3,0.4,0.3,0.5,0.2,0.9c-0.1,0.4-0.2,0.9,0.1,1.5c0.4,0.9,1.2,1,1.7,1c0.4,0,0.6,0.1,0.8,0.3c0.2,0.2,0.3,0.5,0.2,0.9
					c0,0.4-0.2,0.7-0.5,0.8c-0.1,0.1-0.2,0.1-0.3,0.1c-0.1,0-0.2,0-0.4-0.1c-0.2,0-0.4-0.1-0.6-0.1c-0.3,0-0.7,0.1-1,0.3
					c-1.1,0.7-0.8,1.5-0.7,1.9c0.1,0.3,0.1,0.4,0.1,0.6C6.7,73.3,6.5,73.5,6.1,73.8C6.1,73.7,6.1,73.7,6.1,73.8z M9.4,62.2
					c-0.2,0-0.7-0.1-1.3-0.5c-0.7-0.5-1.3-1.1-1.9-1.8c-0.6-0.7-1.2-1.3-2-1.9c-0.9-0.7-1.7-1-2.3-1c-0.4,0-0.8,0.2-1.1,0.5
					c-0.1,0.1-0.1,0.2-0.2,0.3c0-0.2,0-0.3,0-0.5c-0.1-1.6-0.1-3,0-4.2c0-0.4,0.2-0.8,0.3-1.3c0.2-0.8,0.5-1.7,0.4-2.4
					c0,0,0,0,0-0.1C1.5,49.1,1.7,49,1.9,49C2,49,2,49,2,49c0.3,0,0.8,0.4,1.6,1c0.2,0.2,0.3,0.3,0.4,0.5c0.2,0.3,0.5,0.6,1.1,0.6
					c0.2,0,0.5,0,0.8-0.1c1.7-0.5,1.4-1.8,1.3-2.4C7,47.9,7,47.9,7.4,47.7c0.1,0,0.3-0.1,0.4-0.1c1,0,2.4,1,2.9,1.8
					c0.5,0.9,0.6,1.9,0.6,2.9c0,0.7,0.1,1.4,0.3,2.1c0.2,0.7,0.4,1.7,0.2,2.4c-0.1,0.3-0.2,0.4-0.3,0.4c-0.1,0-0.3,0.1-0.5,0.1
					c-0.1-0.1-0.2-0.1-0.3-0.1c-0.1,0-0.1,0-0.2,0c-0.3,0.1-0.5,0.4-0.4,0.7c0.5,1.5,0.4,3.2-0.1,3.9C9.8,62.1,9.7,62.2,9.4,62.2z"
					/>
				<path class="st4" d="M7.7,48.1L7.7,48.1L7.7,48.1 M7.8,48.3c0.8,0,2,0.8,2.4,1.5c0.4,0.8,0.5,1.7,0.6,2.6c0,0.7,0.1,1.4,0.3,2.2
					c0.2,0.6,0.4,1.5,0.2,2.1c0,0,0,0.1,0,0.1c0,0-0.1,0-0.1,0c-0.1,0-0.3-0.1-0.4-0.1c-0.1,0-0.2,0-0.3,0.1c-0.6,0.2-1,0.8-0.8,1.4
					c0.4,1.4,0.3,2.9,0,3.4c-0.1,0.1-0.1,0.1-0.1,0.1c-0.1,0-0.4,0-1-0.4c-0.6-0.4-1.2-1.1-1.8-1.7c-0.6-0.7-1.3-1.4-2.1-2
					c-1-0.8-1.9-1.1-2.6-1.1c-0.3,0-0.5,0-0.7,0.1c-0.1-1.3,0-2.4,0.1-3.4c0-0.3,0.2-0.7,0.3-1.2C1.8,51.1,2,50.4,2,49.6
					c0.1,0,0.4,0.2,1.2,0.9c0.2,0.1,0.3,0.3,0.4,0.4c0.3,0.3,0.7,0.8,1.5,0.8c0.3,0,0.6-0.1,0.9-0.2c2.2-0.7,1.8-2.5,1.7-3.1
					c0-0.1,0-0.1,0-0.2C7.7,48.3,7.8,48.3,7.8,48.3 M5.7,64.9c0.4,0,0.9,0.2,1.1,0.4c0.1,0.1,0.1,0.1,0.1,0.1c0,0,0,0.2,0,0.2
					c-0.1,0.4-0.2,1,0.1,1.8c0.5,1.2,1.6,1.3,2.2,1.4c0.2,0,0.4,0,0.4,0.1c0,0,0.1,0.2,0.1,0.5c0,0.2-0.1,0.3-0.2,0.4
					c-0.1,0-0.1,0-0.2,0c-0.2,0-0.4-0.1-0.7-0.1c-0.5,0-0.9,0.1-1.3,0.4c-1.5,0.9-1.1,2.1-1,2.6c0,0.1,0.1,0.2,0.1,0.2
					c0,0,0,0,0,0.1C6,72.5,5.8,72.2,5.5,72c-2-2-2.4-3.5-3-6.5c0.4,0.3,0.7,0.4,1.2,0.4c0,0,0,0,0,0c0.8,0,1.3-0.5,1.6-0.7
					C5.4,65,5.5,64.9,5.7,64.9C5.6,64.9,5.6,64.9,5.7,64.9 M5.6,64.9L5.6,64.9L5.6,64.9 M7.8,47.1c-0.2,0-0.4,0-0.6,0.1
					c-1.8,0.7,0.8,2.6-1.4,3.3c-0.3,0.1-0.4,0.1-0.6,0.1c-0.5,0-0.5-0.4-1.1-0.9c-0.5-0.4-1.3-1.1-1.9-1.2c-0.1,0-0.1,0-0.2,0
					c-0.6,0-0.9,0.3-1.2,0.7c0,0.1,0,0.2,0,0.3c0.2,1-0.6,2.5-0.7,3.5c-0.2,1.4-0.1,2.9,0,4.3c0.2,2.8,0.7,5.6,1.3,8.4
					c0.6,3.2,1.1,4.9,3.3,7.2c0.5,0.5,0.9,1.2,1.1,2c0.4-0.6,1.2-0.7,1.5-1.5c0.4-0.9-0.8-1.5,0.4-2.3c0.2-0.2,0.5-0.2,0.7-0.2
					c0.2,0,0.3,0,0.5,0.1c0.2,0,0.3,0.1,0.5,0.1c0.2,0,0.4,0,0.6-0.2c0.9-0.6,1-2,0.4-2.6C9.6,67.3,8.5,68.1,8,67
					c-0.5-1,0.5-1.5-0.4-2.5c-0.4-0.4-1.2-0.7-1.9-0.7c-0.1,0-0.2,0-0.3,0c-0.7,0.1-1,0.9-1.7,1h0c-1.1,0-2.1-3.5-2.3-4.3
					c-0.5-1.9-0.3-2.9,0.6-2.9c0.5,0,1.1,0.3,1.9,0.9c1.4,1.1,2.5,2.7,3.9,3.7c0.6,0.4,1.2,0.6,1.6,0.6c1.7,0,1.9-2.8,1.3-5
					c0,0.1,0.1,0.1,0.2,0.1c0.3,0,0.8-0.1,0.8-0.2c0.3-0.2,0.4-0.4,0.5-0.7c0.3-0.8,0-1.9-0.2-2.7c-0.4-1.7,0-3.4-0.9-5.1
					C10.7,48.2,9.1,47.1,7.8,47.1L7.8,47.1z"/>
			</g>
			<g>
				<path class="st3" d="M15.6,63.3c-0.8,0-1.4-0.5-1.6-1.5c-0.2-0.8-0.1-1.9,0.3-2.6c0.4-0.9,1-1.5,1.4-1.5c0.4,0,0.8,0.4,1.2,1.1
					c0.5,1,0.8,2.7,0.2,3.7C16.9,63,16.4,63.3,15.6,63.3L15.6,63.3z"/>
				<path class="st4" d="M15.7,58.3c0.1,0,0.4,0.1,0.7,0.8c0.5,0.9,0.7,2.3,0.2,3.1c-0.1,0.2-0.4,0.5-1,0.5l-0.1,0c-0.2,0-0.8,0-1-1
					c-0.2-0.7-0.1-1.6,0.2-2.2C15.2,58.6,15.6,58.3,15.7,58.3 M15.7,57.2c-0.7,0-1.5,0.7-2,1.8c-0.4,0.8-0.5,2-0.3,3
					c0.2,1.1,0.9,2,2.2,2l0.1,0c2.8-0.1,2.7-3.5,1.7-5.3C16.9,57.6,16.3,57.2,15.7,57.2L15.7,57.2z"/>
			</g>
			<g>
				<path class="st3" d="M72.9,42.8c-0.5,0-1-0.8-1.5-1.6c-0.2-0.2-0.3-0.5-0.5-0.7c-0.1-0.1-0.2-0.2-0.4-0.2c0,0,0,0-0.1,0
					c-0.1,0-0.3,0.1-0.4,0.2c-0.1,0.1-0.3,0.3-0.4,0.4c-0.2-0.5-0.4-0.9-0.6-1.3c-0.1-0.2-0.3-0.4-0.5-0.4c0,0-0.1,0-0.1,0
					c-0.2,0-0.4,0.1-0.6,0.1c-0.3,0.1-0.5,0.1-0.7,0.1c-0.1,0-0.2,0-0.3-0.1c-0.5-0.2-0.9-0.5-1.3-0.9c-0.3-0.3-0.6-0.5-0.9-0.8
					c-0.3-0.2-0.7-0.4-1.1-0.6c-0.6-0.3-1.1-0.6-1.5-1.1c-0.3-0.5-0.7-1.9-0.5-2.3c0,0,0,0,0.1-0.1c0,0,0,0,0,0
					c0.5,0,1.5,1.2,2.1,1.9c0.7,0.8,1.3,1.5,1.9,1.8c0.1,0,0.2,0,0.2,0c0.2,0,0.3-0.1,0.4-0.2c0.9-1,0.7-2.1,0.5-2.9
					c-0.1-0.5-0.2-0.9-0.1-1.1c0,0,0.1-0.2,0.4-0.2c1.1,0,3,1.5,3.3,2.1c0.1,0.3,0.1,0.6,0,1c-0.1,0.5-0.1,1.1,0.1,1.6
					c0.4,0.8,0.9,1.1,1.3,1.3c0.2,0.1,0.4,0.2,0.6,0.4l0.1,0.1c0.5,0.5,1.5,1.6,1.4,2.3c0,0.3-0.2,0.5-0.6,0.7
					C73.2,42.7,73.1,42.8,72.9,42.8z"/>
				<path class="st4" d="M67.3,33.4L67.3,33.4L67.3,33.4 M67.3,33.6c0.9,0.1,2.4,1.3,2.7,1.8c0,0.1,0,0.4,0,0.7
					c-0.1,0.5-0.2,1.2,0.2,1.9c0.5,1,1.1,1.3,1.5,1.6c0.2,0.1,0.4,0.2,0.5,0.3l0.1,0.1c0.3,0.3,1.3,1.4,1.2,1.9
					c0,0.1-0.2,0.3-0.3,0.3c-0.1,0-0.1,0-0.1,0.1c-0.3-0.1-0.7-0.9-1-1.3c-0.2-0.2-0.3-0.5-0.5-0.7c-0.2-0.3-0.5-0.4-0.8-0.5
					c0,0-0.1,0-0.1,0c-0.2,0-0.4,0.1-0.6,0.2c-0.1-0.2-0.2-0.4-0.2-0.6c-0.2-0.5-0.6-0.8-1.1-0.8c-0.1,0-0.1,0-0.2,0
					c-0.3,0-0.5,0.1-0.7,0.2c-0.2,0.1-0.4,0.1-0.6,0.1c-0.1,0-0.1,0-0.2,0c-0.3-0.1-0.7-0.4-1.1-0.8c0,0,0,0,0,0c0,0,0,0,0,0
					c0.3,0,0.6-0.1,0.9-0.4c1.1-1.3,0.8-2.6,0.6-3.5C67.3,34,67.3,33.7,67.3,33.6 M62.2,34.6c0.4,0.4,0.9,1,1.2,1.3
					c0.2,0.3,0.4,0.5,0.6,0.7c-0.1,0-0.1-0.1-0.2-0.1c-0.6-0.3-1-0.5-1.3-0.9C62.4,35.5,62.3,35,62.2,34.6 M67.2,32.4
					c-0.4,0-0.7,0.1-0.9,0.4c-0.7,1,0.9,2.6-0.4,4C64.9,36.3,63,33,61.7,33c-0.1,0-0.2,0-0.3,0.1c-0.1,0.1-0.2,0.2-0.3,0.3
					c-0.4,0.7,0.1,2.4,0.5,2.9c0.7,1,1.8,1.2,2.7,1.8c0.8,0.5,1.4,1.4,2.3,1.7c0.2,0.1,0.4,0.1,0.5,0.1c0.5,0,1-0.2,1.4-0.3
					c0.2,0.6,0.5,1.3,0.9,2l0.1-0.1c0.3-0.2,0.6-0.5,0.9-0.7c0.8,1.1,1.4,2.5,2.4,2.5c0.2,0,0.5-0.1,0.7-0.2c2-1.2,0.1-3.2-0.7-4.1
					c-0.6-0.7-1.3-0.6-1.8-1.6c-0.4-0.8,0.2-1.8-0.1-2.6C70.7,34,68.5,32.4,67.2,32.4L67.2,32.4z"/>
			</g>
			<g>
				<path class="st3" d="M13.7,89.9c-0.6-0.7-1.3-1.3-2-1.9c-1.2-1.1-2.3-2.1-3.2-3.5c0-0.1-0.1-0.1-0.1-0.2
					c0.2-0.6,0.5-1.4,0.5-2.2c-0.1-1.1-0.6-1.8-1.1-2.3c-0.3-0.3-0.6-0.7-0.8-1.1c-0.1-0.1-0.1-0.3-0.2-0.4c0,0,0-0.2,0-0.2
					c0.1,0,0.2,0,0.3-0.1C7.2,78,7.3,78,7.4,78c0.1,0.2,0.2,0.5,0.6,0.8c1,0.8,1.9,1.3,2.8,1.3c0.5,0,2.3-0.2,2.4-3.1
					c0-0.8-0.2-1.7-0.5-2.5c-0.5-1.8-0.8-2.8,0.5-3.6c0.2-0.1,0.3-0.1,0.4-0.1c0.3,0,0.5,0.4,0.7,0.7c1.2,2.3,1.1,8.1,0.6,8.8
					c-0.3,0.4-0.9,0.9-1.5,1.5c-1.4,1.2-3,2.6-2.9,4c0.1,0.7,0.5,1.2,1.2,1.7c0.5,0.3,1.3,0.4,2.3,0.5c1.8,0.2,2.7,0.4,2.6,1
					c0,0.1,0,0.5-1.2,0.7c-0.3,0-0.5,0.1-0.8,0.1c-0.2,0-0.4,0-0.6,0.1C13.9,89.8,13.8,89.8,13.7,89.9z"/>
				<path class="st4" d="M13.6,71.3L13.6,71.3L13.6,71.3 M13.5,71.3c0.3,0.3,0.8,1.5,1.1,4c0.2,2.3,0,4.2-0.2,4.6
					c-0.2,0.3-0.9,0.9-1.4,1.3c-1.4,1.2-3,2.5-3.1,4.1C9.6,85,9.3,84.6,9,84.2c0.2-0.6,0.4-1.3,0.4-2.1c0-0.9-0.4-1.5-0.7-2
					c0.7,0.4,1.4,0.6,2,0.6c1.4,0,2.9-1,2.9-3.7c0-0.9-0.2-1.8-0.5-2.6C12.6,72.5,12.6,71.9,13.5,71.3
					C13.5,71.4,13.5,71.4,13.5,71.3 M13,88.3c0.3,0,0.6,0.1,1,0.1c0.6,0.1,1.8,0.2,2.1,0.4c-0.1,0-0.3,0.1-0.8,0.2
					c-0.2,0-0.5,0.1-0.7,0.1c-0.2,0-0.4,0-0.6,0.1c0,0,0,0-0.1,0C13.6,88.9,13.3,88.6,13,88.3 M13.6,70.2c-0.2,0-0.5,0.1-0.7,0.2
					c-2.6,1.6-0.3,4.3-0.3,6.6c0,1.8-0.8,2.6-1.8,2.6c-0.7,0-1.6-0.4-2.4-1.1c-0.6-0.5-0.3-1-0.9-1c-0.1,0-0.3,0-0.5,0.1
					c-0.4,0.1-0.6,0.2-0.7,0.2c0,0.3,0,0.5,0,0.8c0.1,0.1,0.1,0.3,0.2,0.4c0.5,1.3,1.8,1.7,1.9,3.2c0,0.8-0.2,1.5-0.5,2.2
					c0.1,0.1,0.2,0.3,0.3,0.4c1.5,2.2,3.7,3.7,5.5,5.7c0.2-0.1,0.4-0.1,0.6-0.2c0.3-0.1,0.8-0.1,1.3-0.2c0.8-0.1,1.7-0.4,1.7-1.3
					c0.1-2.1-4-1.3-5.2-2c-3.1-1.9,2.3-4.8,3.4-6.4C16.2,79.3,16,70.2,13.6,70.2L13.6,70.2z"/>
			</g>
			<g>
				<path class="st3" d="M77.2,32.4c-0.7,0-1.3-0.2-1.6-0.5c-0.1-0.1-0.1-0.2-0.1-0.3c0-0.2,0.1-0.3,0.5-0.5
					c0.5-0.2,1.3-0.6,1.1-1.8c-0.2-1.1-1-1.9-1.9-1.9c-0.5,0-1,0.2-1.5,0.7c-0.3,0.3-0.5,0.6-0.6,0.9c-0.3,0.6-0.5,0.8-0.9,0.8
					c0,0-0.1,0-0.1,0c-0.3,0-0.8-0.4-1.6-1c-0.2-0.2-0.3-0.3-0.4-0.5c-0.2-0.3-0.5-0.6-1.1-0.6c-0.2,0-0.4,0-0.8,0.1
					c-1.7,0.5-1.4,1.8-1.3,2.4c0.2,0.7,0.1,0.7-0.2,0.9c-0.1,0-0.3,0.1-0.4,0.1c-1,0-2.4-1-2.9-1.8c-0.5-0.9-0.6-1.9-0.6-2.9
					c0-0.7-0.1-1.4-0.3-2.1c-0.2-0.7-0.4-1.7-0.2-2.4c0.1-0.3,0.2-0.4,0.3-0.4c0.1,0,0.3-0.1,0.5-0.1c0.1,0.1,0.2,0.1,0.3,0.1
					c0.1,0,0.1,0,0.2,0c0.3-0.1,0.5-0.4,0.4-0.7c-0.5-1.5-0.4-3.2,0.1-3.9c0.2-0.2,0.3-0.3,0.6-0.3c0.3,0,0.8,0.2,1.3,0.5
					c0.7,0.5,1.3,1.1,1.9,1.8c0.6,0.7,1.2,1.3,2,1.9c0.9,0.7,1.7,1,2.3,1c0.4,0,0.8-0.2,1.1-0.5c0.5-0.6,0.5-1.6,0-3.2
					c-1.2-4.2-2.1-4.7-2.9-4.7c-0.6,0-1,0.3-1.3,0.6c-0.2,0.2-0.4,0.3-0.6,0.4c-0.1,0-0.1,0-0.2,0c-0.5,0-1.2-0.2-1.5-0.5
					c-0.3-0.4-0.3-0.5-0.2-0.9c0.1-0.4,0.2-0.9-0.1-1.5c-0.4-0.9-1.2-1-1.7-1c-0.4,0-0.6-0.1-0.8-0.3C64,10.2,64,9.8,64,9.5
					c0-0.4,0.2-0.7,0.5-0.8c0.1-0.1,0.2-0.1,0.3-0.1c0.1,0,0.2,0,0.4,0.1c0.2,0,0.4,0.1,0.6,0.1c0.3,0,0.7-0.1,1-0.3
					c1.1-0.7,0.8-1.5,0.7-1.9c-0.1-0.3-0.1-0.4-0.1-0.6c0.1-0.3,0.3-0.5,0.7-0.7c0.4-0.3,0.8-0.6,1.1-1.3c0.1-0.2,0.1-0.4,0.1-0.7
					c0.1,0.1,0.3,0.2,0.4,0.3c1.8,1.2,4,1.8,6.6,2c0.3,0,0.6,0.1,0.8,0.1c-0.2,0.3-0.4,0.6-0.6,0.9c-0.4,0.4-0.6,0.7-0.9,0.9
					c-0.8,0.8-1,1.2-1,3c0,2.2,0.1,5.4,1,8.2c0.1,0.3,0.7,1.4,1,1.8c0.1,0.1,0.3,0.2,0.5,0.2c0.1,0,0.2,0,0.3-0.1
					c0.9-0.6,0.6-1.6,0.3-2.2c-0.2-0.7-0.3-0.9-0.1-1.1c0.1,0.1,0.1,0.2,0.2,0.3c0.1,0.1,0.1,0.2,0.2,0.2c0.5,0.6,1,0.7,1.5,0.7
					c0.1,0,0.2,0,0.3,0l0,0c0.1,0,0.2,0,0.3,0c0.1,0,0.2,0,0.2,0c1.3,0.1,3,0.3,3.9,1.1c0.4,0.3,0.7,0.5,0.9,0.6c0,0,0,0,0,0
					c0,0.1,0.1,0.3,0.1,0.5l0.1,0.4c0.2,0.8,0.5,2.2,0.4,3.1c0,0.2-0.1,0.4-0.2,0.6c0,0.1-0.1,0.2-0.1,0.3c-0.5,1.2-0.6,2,0.3,3.2
					c0.5,0.7,1,1.7,0.8,2.2c0,0.1-0.1,0.2-0.4,0.3c-0.1,0-0.1,0-0.2,0c-0.6,0-1.3-0.4-2-0.8c-0.5-0.3-1.1-0.6-1.5-0.7
					c-0.3-0.1-0.6-0.1-0.9-0.1c-1.3,0-1.8,0.9-2.3,1.7c-0.4,0.7-0.8,1.4-1.7,1.6C77.5,32.4,77.4,32.4,77.2,32.4z"/>
				<path class="st4" d="M69.6,4.2c1.8,1.1,4,1.7,6.5,1.9c0,0-0.1,0.1-0.1,0.1c-0.3,0.4-0.6,0.7-0.8,0.9C74.2,8.1,74,8.6,74,10.6
					c0,2.2,0.1,5.5,1,8.3c0.1,0.4,0.8,1.5,1.1,2c0.2,0.3,0.6,0.5,0.9,0.5c0.2,0,0.5-0.1,0.7-0.2c0.9-0.6,0.9-1.5,0.8-2.2
					c0.4,0.2,0.8,0.2,1.1,0.2c0.1,0,0.2,0,0.4,0c0.1,0,0.2,0,0.3,0c0.1,0,0.1,0,0.2,0c1.2,0.1,2.8,0.3,3.6,0.9
					c0.3,0.3,0.6,0.4,0.8,0.5c0,0.1,0,0.2,0.1,0.3c0,0.1,0.1,0.3,0.1,0.4c0.2,0.8,0.5,2,0.4,2.9c0,0.1-0.1,0.3-0.2,0.4
					c0,0.1-0.1,0.2-0.1,0.3c-0.6,1.3-0.8,2.4,0.4,3.8c0.4,0.5,0.7,1.2,0.7,1.5c0,0,0,0,0,0c0,0,0,0-0.1,0c-0.4,0-1.1-0.4-1.7-0.7
					c-0.5-0.3-1.1-0.6-1.7-0.8c-0.4-0.1-0.7-0.1-1-0.1c-1.6,0-2.3,1.1-2.8,2c-0.5,0.7-0.7,1.2-1.4,1.3c0,0-0.1,0-0.3,0
					c-0.3,0-0.6,0-0.8-0.1c0.5-0.2,1.6-0.8,1.4-2.4c-0.2-1.4-1.3-2.4-2.5-2.4c-0.7,0-1.4,0.3-1.9,0.8c-0.3,0.3-0.6,0.7-0.7,1
					c-0.1,0.2-0.3,0.4-0.3,0.5c0,0,0,0-0.1,0c0,0,0,0-0.1,0c-0.1,0-0.4-0.1-1.2-0.9c-0.2-0.1-0.3-0.3-0.4-0.4
					c-0.3-0.3-0.7-0.8-1.5-0.8c-0.3,0-0.6,0.1-0.9,0.2c-2.2,0.7-1.8,2.5-1.7,3.1c0,0.1,0,0.1,0,0.2c0,0-0.1,0-0.1,0
					c-0.8,0-2-0.8-2.4-1.5c-0.4-0.8-0.5-1.7-0.6-2.6c0-0.7-0.1-1.4-0.3-2.2c-0.1-0.6-0.4-1.5-0.2-2.1c0,0,0-0.1,0-0.1
					c0.1,0,0.2,0,0.3,0c-0.3,0-0.7-0.2-0.9-0.7l1.1-0.3l1.1-0.3c-0.4-1.4-0.3-2.9,0-3.4c0.1-0.1,0.1-0.1,0.1-0.1c0.1,0,0.4,0,1,0.4
					c0.6,0.4,1.2,1.1,1.8,1.7c0.6,0.7,1.3,1.4,2.1,2c1,0.8,1.9,1.1,2.6,1.1c0.6,0,1.2-0.3,1.5-0.7c0.6-0.8,0.6-2,0.1-3.7l0,0
					c-1-3.6-2-5.1-3.4-5.1c0,0,0,0,0,0c-0.8,0-1.3,0.5-1.6,0.7c-0.1,0.1-0.2,0.2-0.3,0.2c0,0,0,0-0.1,0c-0.4,0-0.9-0.2-1.1-0.4
					c-0.1-0.1-0.1-0.1-0.1-0.1c0,0,0-0.2,0-0.2c0.1-0.4,0.2-1-0.1-1.8c-0.5-1.2-1.6-1.3-2.2-1.4c-0.2,0-0.4,0-0.4-0.1
					c0,0-0.1-0.2-0.1-0.4c0-0.2,0.1-0.3,0.2-0.4c0.1,0,0.1,0,0.2,0c0.2,0,0.4,0.1,0.7,0.1c0.5,0,0.9-0.1,1.3-0.4
					c1.5-0.9,1.1-2.1,1-2.6c0-0.1-0.1-0.2-0.1-0.2c0.1-0.1,0.1-0.2,0.4-0.4C68.7,5.4,69.3,5,69.6,4.2 M64.8,9.1L64.8,9.1L64.8,9.1
					 M68.6,14L68.6,14L68.6,14 M78.1,17.7L78.1,17.7L78.1,17.7 M63,22.2L63,22.2L63,22.2 M68.7,2.2c-0.1,0.5,0,1.1-0.1,1.5
					c-0.4,1-1.3,0.9-1.7,1.9c-0.4,0.9,0.8,1.5-0.4,2.3c-0.2,0.2-0.5,0.2-0.7,0.2c-0.2,0-0.3,0-0.5-0.1C65.1,8,64.9,8,64.7,8
					c-0.2,0-0.4,0-0.6,0.2c-0.9,0.6-1,2-0.4,2.6c0.7,0.8,1.9,0.1,2.4,1.1c0.5,1-0.5,1.5,0.4,2.5c0.4,0.4,1.2,0.7,1.9,0.7
					c0.1,0,0.2,0,0.3,0c0.7-0.1,1-0.9,1.7-1l0,0c1.1,0,2.1,3.5,2.3,4.3c0.5,1.9,0.3,2.9-0.6,2.9c-0.5,0-1.1-0.3-1.9-0.9
					c-1.4-1.1-2.5-2.7-3.9-3.7c-0.6-0.4-1.2-0.6-1.6-0.6c0,0,0,0,0,0c-1.7,0-1.9,2.8-1.3,5c0-0.1-0.1-0.1-0.2-0.1
					c-0.3,0-0.8,0.1-0.8,0.2c-0.3,0.2-0.4,0.4-0.5,0.7c-0.3,0.8,0,1.9,0.2,2.7c0.4,1.7,0,3.4,0.9,5.1c0.5,0.9,2.1,2.1,3.4,2.1
					c0.2,0,0.4,0,0.6-0.1c1.8-0.7-0.8-2.6,1.4-3.3c0.3-0.1,0.5-0.1,0.6-0.1c0.5,0,0.5,0.4,1.1,0.9c0.5,0.4,1.3,1.1,1.9,1.2
					c0.1,0,0.1,0,0.2,0c1.2,0,1.3-1.1,2-1.9c0.3-0.3,0.7-0.5,1-0.5c0.6,0,1.2,0.5,1.4,1.4c0.2,1.4-1.6,0.9-1.7,2.1
					c-0.1,1,1.3,1.3,2.2,1.3c0.2,0,0.4,0,0.5-0.1c2.2-0.5,2-3.3,3.9-3.3c0.2,0,0.4,0,0.7,0.1c1.1,0.3,2.5,1.5,3.7,1.5
					c0.1,0,0.2,0,0.3,0c1.8-0.4,0.6-2.6-0.1-3.4c-0.7-0.9-0.7-1.5-0.2-2.6c0.1-0.3,0.4-0.7,0.4-1.1c0.1-1-0.1-2.3-0.4-3.3
					c-0.5-1.7-0.1-0.8-1.4-1.8c-1.1-0.8-2.8-1.1-4.2-1.2c-0.1,0-0.2,0-0.3,0c-0.1,0-0.2,0-0.3,0c-0.1,0-0.2,0-0.3,0
					c-0.4,0-0.7-0.1-1-0.5c-0.2-0.3-0.5-0.8-0.8-0.8c-0.1,0-0.3,0.1-0.4,0.2c-1,1,0.8,2.5-0.2,3.2c-0.3-0.4-0.8-1.3-0.9-1.6
					c-0.8-2.5-1-5.4-1-8c0-2.4,0.3-1.9,1.7-3.6c0.4-0.5,0.8-1.1,1-1.7c-0.5-0.2-1-0.3-1.6-0.3c-2.3-0.2-4.4-0.7-6.3-2
					C69.5,2.8,69.1,2.5,68.7,2.2L68.7,2.2z"/>
			</g>
			<g>
				<path class="st3" d="M86.9,15.1c0,0-0.1,0-0.1,0c-0.4,0-0.8-0.4-1.3-0.9c-0.6-0.6-1.2-1.2-2.1-1.2c-0.1,0-0.2,0-0.3,0
					c-1,0.2-1.4,0.8-1.7,1.2c-0.2,0.3-0.2,0.3-0.3,0.3c-0.1,0-0.2,0-0.4-0.1c-0.4-0.1-1.2-1.5-1.3-2.2c0-0.2-0.1-0.4-0.1-0.7
					c-0.1-0.4-0.1-0.9-0.3-1.3c-0.1-0.2-0.2-0.4-0.3-0.6c0-0.1-0.1-0.2-0.2-0.3c0.2,0.1,0.4,0.2,0.5,0.3c0.3,0.2,0.5,0.3,0.7,0.4
					c0.2,0.1,0.4,0.1,0.6,0.1c0.4,0,0.6-0.2,0.7-0.3c0.3-0.4,0.2-0.9,0.1-1.4c-0.1-0.3-0.2-0.7-0.1-0.9c2.3,1.3,4.6,2.8,6.7,4.4
					c0,0.1,0.1,0.2,0.1,0.3c0.3,1.2,0.2,2.1-0.1,2.5C87.7,14.8,87.5,15.1,86.9,15.1z"/>
				<path class="st4" d="M81.6,7.7L81.6,7.7L81.6,7.7 M81.8,8.7c1.9,1.1,3.7,2.3,5.4,3.6c0,0,0,0.1,0,0.1c0.3,1.3,0.2,1.8,0,2
					c-0.1,0.1-0.3,0.1-0.4,0.1c0,0-0.1,0-0.1,0c-0.2,0-0.6-0.4-0.9-0.7c-0.6-0.6-1.4-1.3-2.5-1.3c-0.1,0-0.3,0-0.5,0
					c-1.3,0.2-1.8,1-2,1.5c0,0,0,0,0,0c0,0,0,0,0,0c-0.3-0.2-0.9-1.2-0.9-1.8c0-0.2-0.1-0.4-0.1-0.6c0-0.3-0.1-0.6-0.1-0.9
					c0.3,0.1,0.5,0.1,0.7,0.1c0.5,0,0.9-0.2,1.2-0.5C82,9.8,81.9,9.2,81.8,8.7 M80.9,6.8c-0.1,0.1-0.1,0.1-0.2,0.2
					c-0.7,0.8,0.6,2.6-0.3,2.6c-0.1,0-0.3,0-0.4-0.1c-0.4-0.1-1.4-0.9-1.9-0.9c-0.1,0-0.1,0-0.2,0c-0.6,0.4,0.4,1.4,0.5,1.8
					c0.2,0.6,0.2,1.3,0.3,1.9c0.1,0.7,0.9,2.4,1.7,2.7c0.2,0.1,0.4,0.1,0.6,0.1c1,0,0.7-1.3,2.1-1.5c0.1,0,0.2,0,0.2,0
					c1.3,0,2,2,3.3,2c0.1,0,0.1,0,0.2,0c2,0,1.9-2,1.5-3.5c0-0.1-0.1-0.3-0.1-0.5c-2.3-1.7-4.7-3.3-7.2-4.7C81,6.9,81,6.9,80.9,6.8
					L80.9,6.8z"/>
			</g>
			<g>
				<path class="st3" d="M58.4,16.2c-0.4,0-0.7-0.1-0.9-0.2c0,0-0.1,0-0.1-0.1c-0.3-0.2-0.6-0.5-0.9-0.8c-0.2-0.2-0.4-0.4-0.7-0.6
					c-0.4-0.3-0.7-0.4-1-0.4c-0.1,0-0.2,0-0.3-0.1c0,0,0,0,0,0c0.1-0.1,0.2-0.2,0.3-0.3c0.4-0.3,0.9-0.7,1-1.3
					c0.2-0.6,0.1-1.8,0-2.3c-0.1-0.4-0.3-0.8-0.6-1.1c-0.2-0.2-0.3-0.4-0.3-0.6c0,0,0,0,0.1,0c0.3,0,0.6,0.1,0.8,0.2
					c0.2,0.1,0.4,0.1,0.6,0.2c0.2,0.1,0.5,0.2,0.7,0.2C57.7,9,58,9,58.3,9h0.1c0.2,0,0.3,0,0.5,0c0.5,0.1,1,0.4,1,0.9
					c0,0.2-0.1,0.4-0.3,0.7c-0.2,0.3-0.4,0.7-0.5,1.2c-0.1,0.6-0.1,1.1,0,1.7c0,0.2,0,0.5,0,0.7c0,0.2,0,0.5,0.1,0.7
					c0,0.3,0.1,0.8,0,0.9C59.1,16.1,58.8,16.2,58.4,16.2z"/>
				<path class="st4" d="M56.3,9.2c0,0,0.1,0,0.1,0c0.2,0.1,0.5,0.2,0.8,0.2c0.4,0.1,0.8,0.1,1.2,0.1c0,0,0,0,0,0l0.1,0h0.1
					c0.2,0,0.3,0,0.5,0c0.2,0,0.4,0.2,0.5,0.3c0,0.1-0.1,0.3-0.2,0.4c-0.2,0.4-0.5,0.8-0.6,1.5c-0.1,0.6-0.1,1.2,0,1.8
					c0,0.2,0,0.5,0,0.7c0,0.3,0,0.6,0.1,0.8c0,0.1,0.1,0.3,0.1,0.5c-0.1,0-0.2,0-0.3,0c-0.3,0-0.5-0.1-0.6-0.1c0,0-0.1,0-0.1,0
					c-0.3-0.1-0.5-0.4-0.8-0.7c-0.2-0.2-0.4-0.5-0.7-0.7c-0.2-0.1-0.3-0.2-0.5-0.3c0.3-0.3,0.6-0.7,0.8-1.2c0.2-0.7,0.2-2,0-2.6
					C56.5,9.7,56.4,9.4,56.3,9.2 M55.1,7.8c-0.4,0-0.7,0.1-0.6,0.7c0.1,0.7,0.8,1.1,0.9,1.7c0.1,0.5,0.1,1.6,0,2.1
					c-0.1,0.6-0.8,1-1.2,1.3c-0.4,0.4-0.6,0.7,0,0.9c0.5,0.2,0.8,0.1,1.3,0.5c0.6,0.5,1,1.1,1.7,1.5c0,0,0.1,0.1,0.1,0.1
					c0.3,0.1,0.7,0.2,1.1,0.2c0.5,0,1-0.1,1.3-0.5c0.3-0.5,0-1.4,0-2c0-0.8-0.1-1.6,0-2.3c0.1-0.8,0.8-1.3,0.8-2
					c0-0.8-0.8-1.4-1.5-1.4c-0.2,0-0.4,0-0.6,0h-0.1l-0.1,0c-0.3,0-0.6,0-0.9-0.1c-0.4-0.1-0.9-0.3-1.3-0.4
					C55.8,7.9,55.5,7.8,55.1,7.8L55.1,7.8z"/>
			</g>
			<g>
				<path class="st3" d="M92.4,26.7c-0.1,0-0.4,0-0.8-0.4c-0.5-0.4-0.6-1-0.7-1.8c-0.1-0.8-0.3-1.7-1-2.4c-0.2-0.2-0.4-0.3-0.6-0.4
					c-0.9-0.6-1-0.8-0.9-1c0.1-0.2,0.2-0.2,0.2-0.2c0.2,0,0.5,0.1,0.8,0.4c0.6,0.5,1,0.9,1.7,0.9c0.4,0,0.8-0.1,1.2-0.4
					c0.8-0.5,1.6-1.1,1.7-2.5c0-0.5,0-1.1-0.1-1.6c0.1,0.2,0.3,0.3,0.4,0.5c0.1,0.4,0.2,0.8,0.3,1.1c0.5,1.7,0.7,2.8-0.4,3.9
					c-0.3,0.3-0.5,0.5-0.7,0.6c-0.7,0.6-0.7,0.8-0.6,1.9l0,0.5c0,0.4,0,0.7-0.2,0.9C92.6,26.7,92.5,26.7,92.4,26.7z"/>
				<path class="st4" d="M94.2,20.1c0.2,1,0.1,1.6-0.5,2.3c-0.3,0.3-0.5,0.4-0.6,0.6c-0.9,0.8-0.9,1.2-0.8,2.4c0,0.1,0,0.3,0,0.5
					c0,0.1,0,0.2,0,0.3c-0.1,0-0.2-0.1-0.3-0.2c-0.3-0.2-0.4-0.7-0.5-1.4c-0.1-0.7-0.2-1.5-0.7-2.1c0.1,0,0.2,0,0.2,0
					c0.5,0,1-0.2,1.5-0.5C93.1,21.4,93.8,20.9,94.2,20.1 M92.5,15.3c0.4,1.1,0.8,2.4,0.7,3.6c-0.1,1-0.6,1.5-1.4,2.1
					c-0.4,0.2-0.6,0.3-0.9,0.3c-0.4,0-0.8-0.3-1.3-0.7c-0.3-0.3-0.7-0.5-1.1-0.5c-0.3,0-0.6,0.1-0.8,0.5c-0.5,1.1,1.1,1.6,1.7,2.2
					c1.2,1,0.5,3.1,1.8,4.1c0.4,0.3,0.8,0.5,1.2,0.5c0.7,0,1-0.6,1-1.6c-0.1-2-0.2-1.3,1.1-2.6c1.8-1.7,0.6-3.7,0.2-5.7
					C94,16.7,93.3,16,92.5,15.3L92.5,15.3z"/>
			</g>
			<g>
				<path class="st3" d="M105.6,45.3c-0.3,0-0.6-0.6-0.7-1c-0.2-0.8-0.1-1.6,0.4-2.2c0.5-0.6,1.2-1,2-1.1c0.1,0.7,0.2,1.3,0.3,2
					l0.1,0.6l0,0c-0.1,0.1-0.3,0.3-0.4,0.4C107,44.4,106.1,45.3,105.6,45.3z"/>
				<path class="st4" d="M106.7,41.7c0.1,0.5,0.2,0.9,0.3,1.4l0,0.2l0,0.2c-0.1,0.1-0.1,0.1-0.2,0.2c-0.7,0.7-1,0.9-1.2,1
					c-0.1-0.1-0.1-0.2-0.2-0.5c-0.2-0.8,0-1.3,0.3-1.7C106,42.1,106.3,41.9,106.7,41.7 M107.5,40.4c-2,0-3.9,1.9-3.2,4.1
					c0.3,1,0.8,1.4,1.2,1.4c0.7,0,1.4-0.7,2.1-1.4c0.2-0.2,0.4-0.5,0.6-0.7c-0.1-0.3-0.1-0.6-0.2-0.9c-0.2-0.9-0.3-1.7-0.4-2.5
					C107.7,40.4,107.6,40.4,107.5,40.4L107.5,40.4z"/>
			</g>
			<g>
				<path class="st3" d="M109,51.3c-0.9-0.1-1.7-0.3-1.9-0.5c-0.4-0.4-0.4-0.7-0.4-0.8c0-0.5,0.8-1.2,1.6-1.8
					c0.1-0.1,0.2-0.1,0.3-0.2C108.8,49.3,108.9,50.3,109,51.3z"/>
				<path class="st4" d="M108.2,49.2c0.1,0.5,0.1,1,0.2,1.5c-0.4-0.1-0.7-0.2-0.9-0.2c-0.2-0.2-0.2-0.3-0.2-0.3
					C107.3,50,107.8,49.5,108.2,49.2 M109,47c-1.5,1.5-3.9,2.6-2.3,4.3c0.4,0.4,1.8,0.6,2.8,0.6c0,0,0.1,0,0.1,0
					C109.5,50.3,109.3,48.6,109,47L109,47z"/>
			</g>
			<g>
				<path class="st3" d="M105.8,34.3c-0.2-0.1-0.4-0.3-0.5-0.5C105.5,33.9,105.6,34.1,105.8,34.3C105.8,34.2,105.8,34.3,105.8,34.3z
					"/>
				<path class="st4" d="M104.2,32.1c-0.1,1.8,1.3,3.2,3,3.3c-0.2-0.6-0.5-1.1-1-1.6C105.6,33.2,104.8,32.7,104.2,32.1L104.2,32.1z"
					/>
			</g>
			<g>
				<path class="st3" d="M99,30.8c-0.2,0-0.5,0-0.7-0.1c-0.6-0.1-1.4-0.8-1.6-1.4c-0.1-0.3,0-0.4,0.1-0.5c0.1-0.1,0.3-0.2,0.5-0.2
					c0.1,0,0.2,0,0.4,0c0.2,0,0.3,0,0.5,0c0.7,0,1.2-0.4,1.5-1.1c0.1-0.4,0.1-0.7,0.1-1.1c0.1,0.1,0.5,0.2,0.6,0.3l0.1,0.2
					c0.7,0.9,1.2,1.6,1,2.6C101.4,30.3,100.1,30.8,99,30.8z"/>
				<path class="st4" d="M97.7,23.2c0,0.3,0.1,0.7,0.3,1.1c0.4,0.9,1.7,1.9,1.3,3.1C99,27.9,98.7,28,98.3,28c-0.1,0-0.3,0-0.4,0
					c-0.1,0-0.3,0-0.4,0c-0.3,0-0.6,0.1-0.9,0.4c-1,1,0.6,2.7,1.7,2.9c0.2,0.1,0.5,0.1,0.8,0.1c1.3,0,2.9-0.6,3.1-1.8
					c0.3-1.4-0.6-2.3-1.3-3.3c-0.8-0.4-1.6-0.7-2.1-1.3C98.2,24.4,97.9,23.8,97.7,23.2L97.7,23.2z"/>
			</g>
			<g>
				<path class="st3" d="M61.6,4.5c-0.2,0-0.5,0-0.7-0.1c-0.6-0.1-1.4-0.8-1.6-1.4c-0.1-0.3,0-0.4,0.1-0.5c0.1-0.1,0.3-0.2,0.5-0.2
					c0.1,0,0.3,0,0.4,0c0.2,0,0.3,0,0.5,0c0.2,0,0.4,0,0.5-0.1c0.6,0,1.3-0.2,1.9-0.5c0.2-0.1,0.4-0.1,0.6-0.2
					c0.3,0.6,0.4,1.1,0.3,1.6C64,4,62.8,4.5,61.6,4.5z"/>
				<path class="st4" d="M63.6,2.3c0.1,0.3,0.1,0.5,0,0.7c-0.1,0.5-1,0.9-2,0.9c-0.2,0-0.4,0-0.5-0.1c-0.4-0.1-1.1-0.7-1.1-1
					c0,0,0,0,0.1,0c0.1,0,0.2,0,0.3,0c0.2,0,0.3,0,0.5,0c0.2,0,0.4,0,0.6-0.1C62.2,2.7,62.9,2.5,63.6,2.3
					C63.5,2.3,63.6,2.3,63.6,2.3 M64.2,0.9c-1,0.2-1.9,0.7-2.8,0.7c-0.1,0.1-0.3,0.1-0.4,0.1c-0.1,0-0.3,0-0.4,0c-0.1,0-0.3,0-0.4,0
					c-0.3,0-0.6,0.1-0.9,0.4c-1,1,0.6,2.7,1.7,2.9C61.1,5,61.4,5,61.6,5c1.3,0,2.9-0.6,3.1-1.8C65,2.3,64.6,1.6,64.2,0.9L64.2,0.9z"
					/>
			</g>
			<g>
				<path class="st3" d="M22.8,65.1c-0.2,0-0.4,0-0.6-0.1c-1.5-0.5-1.5-2.3-1.3-4.9c0.1-1,0.1-1.9,0-2.7c-0.2-1.5-0.9-2.2-1.7-3.1
					c-0.2-0.2-0.3-0.4-0.5-0.6c-0.2-0.2-0.3-0.4-0.4-0.6c-0.2-0.3-0.4-0.6-0.9-1c-0.3-0.3-0.6-0.4-0.9-0.5c-0.3-0.2-0.6-0.3-0.8-0.5
					c-0.7-0.8-1-1.8-1.2-2.8c-0.1-0.3-0.2-0.7-0.3-1c-0.2-0.6-0.4-1.2-0.6-1.7c-0.5-1.2-0.9-2-0.5-3.4c0.1-0.2,0.2-0.4,0.4-0.5
					c0.2-0.2,0.4-0.5,0.6-0.9c0.1-0.2,0.2-0.4,0.3-0.6c0.3-0.4,0.6-0.8,0.6-1.5c0-0.5-0.4-0.9-0.7-1.2c-0.1-0.2-0.4-0.5-0.4-0.6
					c0-0.4,0.5-1,0.9-1.5c0.4-0.5,0.9-1,1.1-1.6c0.2-0.5,0.2-1,0.3-1.4c0-0.3,0.1-0.7,0.2-1c0-0.2,0.1-0.3,0.2-0.5
					c0.2-0.5,0.4-1.1,0.3-1.8c-0.2-1.1-1-1.8-1.7-2.4c-0.5-0.5-1.1-0.9-1.1-1.3c0-0.3,0.3-0.8,0.8-1.3c0.4-0.4,0.7-1,1.1-1.5
					c0.3-0.5,0.6-1,0.9-1.2c0,0,0,0,0,0c0,0,0,0,0.1,0c0.1,0,0.2,0,0.4,0c0.2,0,0.3,0.1,0.5,0.1c0.3,0,0.6-0.1,0.8-0.3
					c0.6-0.5,0.6-1,0.6-1.4c0-0.2,0-0.3,0-0.4c0.4-0.7,0.6-0.9,0.7-0.9c0,0,0.2,0.1,0.4,1c0.1,0.3,0.1,0.5,0,0.7
					c0,0.4,0,0.8,0.3,1.5c0.1,0.3,0.3,0.5,0.5,0.8c0.2,0.2,0.4,0.5,0.4,0.7c0.1,0.6,0,0.7,0,0.8c0,0,0,0,0,0c0,0,0,0-0.1,0
					c-0.3,0-1-0.3-1.4-0.5c-0.7-0.3-1.5-0.5-2.2-0.5c-1,0-1.4,0.4-1.5,0.7c-0.4,0.8,0.5,1.8,0.7,2.1c0.9,1,1.9,1.1,2.7,1.1
					c0.5,0,1-0.2,1.5-0.3c0.4-0.1,0.7-0.2,1-0.3c0,0,0.1,0,0.1,0c0.2,0,0.5,0,0.8,0.1c0.3,0.1,0.7,0.1,1,0.1c0.5,0,0.8-0.1,1.2-0.3
					c0.7-0.4,1.1-0.9,1.3-1.5c0.2-1-0.5-1.8-1.1-2.7c-0.3-0.4-0.6-0.7-0.7-1.1c0.1,0,0.3,0,0.5,0c0.9,0,2,0.2,2.2,0.3
					c1.2,1,2,5.8,1.6,7.4c-0.3,1.1-1.3,2.2-2.3,2.6l-0.2,0.1c-0.3,0.1-0.6,0.3-0.9,0.3c-0.1,0-0.2,0-0.3-0.1c0,0,0,0,0,0
					c0,0,0-0.1,0-0.2c0-0.3,0-0.6-0.2-1c-0.8-1.2-1.9-1.8-3.2-1.8c-0.5,0-1.1,0.1-1.7,0.3c-0.8,0.3-1.9,0.8-2.4,1.7
					c-0.1,0.2-0.6,2.2-0.2,2.8c0.1,0.2,0.4,0.4,0.6,0.4c0,0,0.1,0,0.1,0l0,0c0,0,0.1,0,0.1,0c0.3-0.1,0.6-0.2,0.9-0.4
					c0.6-0.3,1.2-0.5,1.7-0.5c0.4,0,0.8,0.1,1.3,0.9c0.6,1-0.2,2-1.5,3.3c-0.1,0.1-0.4,0.3-0.7,0.5c-0.5,0.3-1,0.6-1.2,0.9
					c-0.4,0.6-0.3,1.2-0.2,1.6c0,0.2,0.1,0.4,0,0.5c-0.3,0.6-0.9,1.2-1.6,1.6c-0.2,0.1-0.6,0.2-1,0.3c-0.6,0.1-1.2,0.2-1.5,0.5
					c-0.4,0.3-0.5,0.8-0.5,1.4c0.2,2.2,4.2,5.2,4.8,5.6c0.9,0.6,2.5,0.7,4.5,0.7c0.4,0,0.8,0,1.2,0l0.1,0c0.4,0,0.9,0,1.3,0
					c2.5,0,4.9,0.2,5.1,1.5c0,0.3-0.2,1-0.8,1.6c-0.4,0.4-0.7,0.6-0.8,0.6c-0.1,0-0.2-0.2-0.2-0.3c-0.1-0.2-0.1-0.2,0.2-0.4
					c0.3-0.2,0.9-0.7,0.5-1.6c-0.3-0.6-1.1-0.9-2.3-0.9c-1.5,0-4,0.5-4.6,1.3c-0.5,0.7,0.3,3,0.8,3.4c0.2,0.2,0.5,0.3,0.8,0.3
					c0.1,0,0.3,0,0.4,0c0.1,0,0.2,0,0.3,0c0.1,0,0.1,0,0.1,0c0.4,0.2,0.6,0.3,0.9,0.4c0.1,0.1,0.2,0.1,0.3,0.2
					c0.2,0.1,0.4,0.3,0.6,0.4c0.8,0.5,1.4,0.9,2.6,1.1c0.9,0.2,1.3,0.3,1.5,0.4c-0.1,0.1-0.2,0.2-0.4,0.3c-0.1,0.1-0.3,0.2-1,0.2
					c-0.3,0-0.6,0-0.8,0c-0.3,0-0.6,0-0.8,0c-0.1,0-0.1,0-0.2,0c-0.3,0-0.5,0.3-0.5,0.6c0,0.3,0,0.7,0.1,1c0.1,1.1,0.1,1.3-0.5,1.4
					c0,0,0,0,0,0c-0.1,0-0.3-0.1-0.5-0.2c-0.3-0.2-0.7-0.4-1.2-0.4c-0.1,0-0.3,0-0.4,0.1c-0.7,0.2-1.2,0.4-1.2,1.2
					c0,0.1,0,0.3-0.1,0.6c-0.1,0.2-0.2,0.4-0.2,0.6C23.2,64.9,23.1,65.1,22.8,65.1z"/>
				<path class="st4" d="M20,18.9L20,18.9L20,18.9 M19.6,19.4C19.6,19.4,19.6,19.4,19.6,19.4c0.1,0.2,0,0.4,0,0.6
					c0,0.4,0,0.9,0.3,1.7c0.2,0.4,0.4,0.6,0.6,0.9c0.1,0.1,0.2,0.3,0.3,0.4c-0.2-0.1-0.5-0.2-0.6-0.3c-0.8-0.3-1.7-0.5-2.4-0.5
					c-0.7,0-1.1,0.2-1.4,0.4c0.2-0.3,0.4-0.6,0.5-0.7c0,0,0.1,0,0.1,0c0.2,0,0.4,0.1,0.6,0.1c0.5,0,0.9-0.1,1.2-0.4
					c0.8-0.7,0.8-1.5,0.8-1.9C19.6,19.6,19.6,19.5,19.6,19.4C19.6,19.4,19.6,19.4,19.6,19.4 M25.8,21.4c0.6,0,1.1,0.1,1.3,0.2
					c1,1,1.7,5.3,1.3,6.8c-0.2,0.9-1.1,1.9-2,2.3c-0.1,0-0.1,0.1-0.2,0.1c-0.1,0.1-0.3,0.1-0.4,0.2c0-0.3-0.1-0.6-0.4-1
					c-1-1.3-2.2-2-3.6-2c-0.6,0-1.2,0.1-1.9,0.3c-0.9,0.3-2.1,0.9-2.7,2c-0.2,0.3-0.8,2.4-0.2,3.4c0.2,0.4,0.6,0.6,1.1,0.6
					c0.1,0,0.1,0,0.2,0l0,0c0.1,0,0.1,0,0.2,0c0.3-0.1,0.6-0.2,0.9-0.4c0.5-0.2,1.1-0.5,1.5-0.5c0.2,0,0.4,0,0.8,0.6
					c0.3,0.6-0.1,1.3-1.4,2.6c-0.1,0.1-0.4,0.3-0.6,0.4c-0.6,0.3-1.1,0.6-1.5,1.1c-0.5,0.8-0.3,1.6-0.3,2c0,0.1,0,0.2,0,0.2
					c-0.3,0.6-0.9,1.1-1.3,1.3c-0.1,0.1-0.6,0.1-0.8,0.2c-0.7,0.1-1.4,0.3-1.8,0.7c-0.4,0.4-0.6,0.8-0.7,1.4c-0.1-0.5-0.1-1,0.1-1.6
					c0-0.1,0.1-0.2,0.2-0.3c0.2-0.2,0.5-0.6,0.7-1.1c0-0.1,0.1-0.3,0.3-0.5c0.3-0.4,0.7-1,0.7-1.8c0-0.7-0.4-1.2-0.8-1.6
					c-0.1-0.1-0.2-0.2-0.3-0.3c0.1-0.3,0.5-0.7,0.7-1c0.4-0.5,0.9-1.1,1.2-1.8c0.2-0.5,0.3-1.1,0.3-1.5c0-0.3,0.1-0.6,0.1-0.9
					c0-0.1,0.1-0.3,0.2-0.4c0.2-0.6,0.5-1.2,0.3-2.1c-0.2-1.3-1.2-2.1-1.9-2.7c-0.3-0.3-0.9-0.7-0.9-0.9c0,0,0-0.3,0.6-0.9
					c0.2-0.2,0.4-0.4,0.5-0.6c-0.1,1,0.7,1.9,1,2.3c1,1.1,2.3,1.3,3.1,1.3c0,0,0,0,0,0c0.6,0,1.2-0.2,1.7-0.3
					c0.3-0.1,0.6-0.2,0.9-0.2c0,0,0.1,0,0.1,0c0.2,0,0.4,0,0.7,0.1l0,0c0.3,0.1,0.7,0.1,1.1,0.1c0.6,0,1-0.1,1.5-0.4
					c0.9-0.5,1.4-1.1,1.5-1.9c0.2-1.2-0.5-2.2-1.2-3.1C25.9,21.5,25.8,21.4,25.8,21.4 M16.9,21.7L16.9,21.7L16.9,21.7 M14.6,46.5
					c1.5,2,4,3.7,4,3.8c1,0.7,2.7,0.8,4.8,0.8c0.3,0,0.6,0,0.9,0c-0.7,0.2-1.3,0.6-1.6,1.1c-0.6,1,0.2,3.6,0.9,4.1
					c0.3,0.2,0.7,0.4,1.2,0.4c0.2,0,0.4,0,0.5,0c0.1,0,0.1,0,0.2,0c0.3,0.1,0.4,0.2,0.7,0.4c0.1,0.1,0.2,0.1,0.3,0.2
					c0.2,0.1,0.4,0.3,0.6,0.4c0.6,0.4,1.1,0.7,1.8,0.9c-0.2,0-0.3,0-0.5,0c-0.1,0-0.2,0-0.2,0c-0.6,0-1.1,0.5-1.1,1.2
					c0,0.4,0,0.7,0.1,1.1c0,0.2,0.1,0.6,0.1,0.8c0,0,0,0,0,0c-0.1,0-0.2-0.1-0.2-0.1l0,0c-0.3-0.2-0.8-0.4-1.4-0.4
					c-0.2,0-0.4,0-0.6,0.1c-0.6,0.2-1.7,0.5-1.6,1.8c0,0.1,0,0.2,0,0.3c-0.1,0.2-0.2,0.4-0.2,0.6c-0.1,0.3-0.2,0.6-0.3,0.8
					c-0.1,0-0.2,0-0.4-0.1c-1.1-0.4-1.1-1.9-0.9-4.3c0.1-1,0.1-2,0-2.8c-0.2-1.7-1-2.5-1.8-3.4c-0.2-0.2-0.3-0.4-0.5-0.6
					c-0.2-0.2-0.3-0.4-0.4-0.5c-0.2-0.3-0.5-0.7-1-1.1c-0.3-0.3-0.7-0.5-1-0.6c-0.3-0.2-0.5-0.2-0.6-0.4C15.5,50,15.2,49,15,48.1
					c-0.1-0.3-0.2-0.7-0.3-1C14.7,46.9,14.6,46.7,14.6,46.5 M19.7,17.8c-0.4,0-0.8,0.4-1.2,1.2c-0.3,0.6,0.2,1.1-0.5,1.6
					c-0.1,0.1-0.3,0.1-0.5,0.1c-0.1,0-0.3,0-0.4,0c-0.2,0-0.3,0-0.4,0c-0.2,0-0.3,0-0.4,0.1c-0.6,0.4-1.3,2-2,2.8
					c-2.8,2.8,1.4,3.2,1.9,5.5c0.1,0.7-0.2,1.3-0.4,2c-0.2,0.8-0.2,1.6-0.4,2.4c-0.4,1.2-2,2.2-2,3.3c0,0.6,1,1.3,1.1,1.9
					c0,0.8-0.6,1.2-0.9,1.9c-0.2,0.6-0.8,0.8-1,1.5c-0.6,2.3,0.5,3.4,1.1,5.5c0.4,1.4,0.5,2.9,1.6,4.1c0.5,0.5,1.2,0.6,1.7,1.1
					c0.7,0.6,0.7,0.9,1.3,1.5c1.1,1.2,1.8,1.7,2.1,3.4c0.3,2.4-1.2,7.1,1.7,8c0.3,0.1,0.6,0.1,0.8,0.1c0.9,0,1.1-0.9,1.6-2.1
					c0.4-1.1-0.4-1.1,0.9-1.4c0.1,0,0.2,0,0.3,0c0.3,0,0.6,0.1,0.9,0.3c0.3,0.1,0.5,0.3,0.8,0.3c0.1,0,0.1,0,0.2,0
					c1.6-0.4,0.9-1.7,0.9-3c0.1,0,0.1,0,0.2,0c0.2,0,0.5,0,0.8,0c0.3,0,0.6,0,0.9,0c0.5,0,1-0.1,1.3-0.3c1.7-1.2-0.1-1.6-1.3-1.8
					c-1.4-0.3-1.9-0.7-3.1-1.4c-0.5-0.3-0.7-0.5-1.3-0.7c-0.1,0-0.2-0.1-0.3-0.1c-0.1,0-0.2,0-0.3,0c-0.1,0-0.2,0-0.3,0
					c-0.2,0-0.3,0-0.5-0.1c-0.4-0.3-0.9-2.2-0.7-2.6c0.4-0.6,2.5-1.1,4.1-1.1c0.9,0,1.6,0.2,1.8,0.6c0.4,0.9-1.2,0.9-0.7,2
					c0.2,0.5,0.5,0.6,0.8,0.6c1,0,2.3-2,2.2-2.9c-0.3-1.8-2.9-2-5.7-2c-0.4,0-0.9,0-1.3,0c-0.4,0-0.9,0-1.3,0
					c-1.8,0-3.3-0.1-4.2-0.6c-1.2-0.8-5.7-4.6-4.2-6.1c0.4-0.4,1.8-0.4,2.4-0.7c0.8-0.4,1.4-1.1,1.8-1.9c0.3-0.6-0.3-1.3,0.1-2.1
					c0.3-0.4,1.5-0.9,1.9-1.3c1.2-1.1,2.4-2.6,1.6-4c-0.5-0.9-1.2-1.2-1.8-1.2c-0.9,0-1.9,0.6-2.8,0.9l0,0c-0.4,0,0-2.1,0.1-2.3
					c0.4-0.7,1.3-1.2,2.1-1.5c0.5-0.2,1-0.3,1.5-0.3c1.1,0,2,0.5,2.7,1.5c0.4,0.5-0.1,1,0.4,1.3c0.2,0.1,0.4,0.2,0.6,0.2
					c0.5,0,1-0.3,1.3-0.4c1.2-0.5,2.3-1.8,2.7-3c0.5-1.7-0.3-6.9-1.8-8.1c-0.2-0.2-1.5-0.4-2.5-0.4c-0.7,0-1.3,0.1-1.2,0.4
					c0.5,1.7,3.6,3.4,1,4.9c-0.3,0.2-0.6,0.2-0.9,0.2c-0.3,0-0.6,0-0.9-0.1c-0.3,0-0.6-0.1-0.9-0.1c-0.1,0-0.1,0-0.2,0
					c-0.8,0.1-1.6,0.6-2.5,0.6h0c-0.9,0-1.6-0.2-2.3-0.9c-1.2-1.4-0.6-1.9,0.4-1.9c0.6,0,1.3,0.2,1.9,0.4c0.6,0.3,1.2,0.5,1.6,0.5
					c0.5,0,0.8-0.3,0.6-1.5c-0.1-0.6-0.7-1.1-1-1.6c-0.4-1-0.1-1.2-0.3-2.1C20.5,18.2,20.1,17.8,19.7,17.8L19.7,17.8z"/>
			</g>
			<g>
				<path class="st3" d="M72.3,79.4c-0.1,0-0.3,0-0.5,0c-1.9-0.2-1.9-0.8-1.8-3.2c0.1-0.9-0.2-1.4-0.4-1.9c-0.1-0.2-0.2-0.5-0.3-0.8
					c-0.1-0.2,0-0.4,0-0.7c0-0.3,0-0.7-0.1-1c-0.2-0.7-0.7-1-1.1-1.3c-0.3-0.2-0.5-0.4-0.7-0.7c-0.1-0.2,0-0.3,0.1-0.6
					c0.1-0.5,0.4-1.3-0.7-1.9c-0.3-0.2-0.6-0.3-1-0.3c-0.2,0-0.4,0-0.6,0.1c-0.1,0-0.3,0.1-0.4,0.1c-0.1,0-0.2,0-0.3-0.1
					C64.2,67,64,66.7,64,66.4c0-0.4,0-0.7,0.2-0.9c0.2-0.2,0.4-0.2,0.8-0.3c0.5-0.1,1.3-0.1,1.7-1c0.3-0.6,0.2-1.1,0.1-1.5
					c-0.1-0.4-0.1-0.5,0.2-0.9c0.3-0.3,0.9-0.5,1.5-0.5c0.1,0,0.1,0,0.2,0c0.2,0,0.3,0.2,0.6,0.4c0.3,0.3,0.7,0.6,1.2,0.6
					c0,0,0,0,0,0c1.1,0,2-1.4,2.9-4.7l0,0c0.4-1.5,0.4-2.6-0.1-3.2c-0.3-0.3-0.6-0.5-1.1-0.5c-0.6,0-1.4,0.3-2.3,1
					c-0.7,0.5-1.4,1.2-2,1.9c-0.6,0.7-1.2,1.3-1.9,1.8c-0.5,0.3-1,0.5-1.3,0.5c-0.2,0-0.4-0.1-0.6-0.3c-0.5-0.7-0.6-2.4-0.1-3.9
					c0.1-0.3-0.1-0.6-0.4-0.7c-0.1,0-0.1,0-0.2,0c-0.1,0-0.2,0-0.3,0.1c-0.2,0-0.4-0.1-0.5-0.1c-0.1-0.1-0.2-0.2-0.3-0.4
					c-0.2-0.7,0-1.7,0.2-2.4c0.2-0.7,0.2-1.4,0.3-2.1c0.1-1,0.1-2,0.6-2.9c0.4-0.8,1.8-1.8,2.9-1.8c0.2,0,0.3,0,0.4,0.1
					c0.3,0.1,0.4,0.2,0.2,0.9c-0.2,0.7-0.4,1.9,1.3,2.4c0.3,0.1,0.6,0.1,0.8,0.1c0.6,0,0.9-0.3,1.1-0.6c0.1-0.1,0.2-0.3,0.4-0.5
					c0.7-0.7,1.3-1,1.6-1c0,0,0.1,0,0.1,0c0.4,0,0.6,0.2,0.9,0.8c0.2,0.3,0.4,0.6,0.6,0.9c0.4,0.4,0.9,0.7,1.5,0.7
					c1,0,1.8-0.8,1.9-1.9c0.2-1.2-0.6-1.6-1.1-1.8c-0.4-0.2-0.5-0.3-0.5-0.5c0-0.1,0-0.2,0.1-0.3c0.2-0.3,0.9-0.5,1.6-0.5
					c0.2,0,0.4,0,0.4,0c0.9,0.2,1.3,0.9,1.7,1.6c0.5,0.8,1.1,1.7,2.3,1.7c0.3,0,0.6,0,0.9-0.1c0.5-0.1,1-0.4,1.5-0.7
					c0.7-0.4,1.4-0.8,2-0.8c0.1,0,0.1,0,0.2,0c0.4,0.1,0.4,0.2,0.4,0.3c0.2,0.5-0.3,1.5-0.8,2.2c-0.9,1.2-0.8,2-0.3,3.2
					c0,0.1,0.1,0.2,0.1,0.3c0.1,0.2,0.2,0.5,0.3,0.6c0.1,0.9-0.2,2.3-0.4,3.1l-0.1,0.4c-0.1,0.2-0.1,0.4-0.1,0.5c0,0,0,0,0,0
					c-0.2,0.1-0.4,0.2-0.9,0.6c-0.9,0.7-2.6,1-3.9,1.1c-0.1,0-0.2,0-0.2,0c-0.1,0-0.1,0-0.2,0l-0.1,0c-0.1,0-0.2,0-0.3,0
					c-0.4,0-1,0.1-1.5,0.7c-0.1,0.1-0.1,0.1-0.2,0.2c-0.1,0.1-0.1,0.2-0.2,0.3c-0.2-0.2-0.2-0.4,0.1-1.1c0.2-0.6,0.5-1.6-0.3-2.2
					c-0.1-0.1-0.2-0.1-0.3-0.1c-0.2,0-0.3,0.1-0.5,0.2c-0.3,0.4-0.9,1.4-1,1.8c-0.9,2.8-1,6-1,8.2c0,1.8,0.2,2.2,1,3
					c0.2,0.2,0.5,0.5,0.9,0.9c1,1.2,1.4,2.6,1.3,4c-0.2,1.9-1.4,3.8-3.2,5.2C73.6,79.1,73.1,79.4,72.3,79.4z"/>
				<path class="st4" d="M77.2,44c0.2,0,0.2,0,0.3,0c0.6,0.1,0.9,0.6,1.4,1.3c0.5,0.8,1.2,2,2.8,2c0.3,0,0.7,0,1-0.1
					c0.6-0.2,1.1-0.5,1.7-0.8c0.6-0.3,1.3-0.7,1.7-0.7c0,0,0.1,0,0.1,0c0,0,0,0,0,0c0,0.3-0.3,1-0.7,1.5c-1.1,1.4-1,2.5-0.4,3.8
					c0,0.1,0.1,0.2,0.1,0.3c0.1,0.1,0.2,0.3,0.2,0.4c0.1,0.9-0.2,2.1-0.4,2.9c0,0.2-0.1,0.3-0.1,0.4c0,0.1,0,0.2-0.1,0.3
					c-0.2,0.1-0.4,0.3-0.8,0.5c-0.8,0.6-2.4,0.8-3.6,0.9c-0.1,0-0.1,0-0.2,0c-0.1,0-0.1,0-0.2,0l-0.1,0c-0.1,0-0.2,0-0.3,0
					c-0.3,0-0.7,0-1.1,0.2c0.1-0.7,0.1-1.5-0.8-2.2c-0.2-0.1-0.4-0.2-0.7-0.2c-0.3,0-0.7,0.2-0.9,0.5c-0.3,0.4-0.9,1.5-1.1,1.9
					c-0.9,2.8-1,6.1-1,8.3c0,2,0.2,2.5,1.2,3.4c0.2,0.2,0.5,0.5,0.8,0.9c0.9,1.1,1.3,2.3,1.1,3.6c-0.2,1.7-1.3,3.5-3,4.8
					c-0.9,0.7-1.2,0.8-1.9,0.8c-0.1,0-0.3,0-0.4,0c-1.4-0.1-1.4-0.3-1.3-2.6c0.1-1-0.3-1.7-0.5-2.2c-0.1-0.2-0.2-0.4-0.3-0.7
					c0-0.1,0-0.3,0-0.5c0-0.4,0-0.8-0.1-1.2c-0.3-0.9-0.9-1.3-1.3-1.5c-0.3-0.2-0.4-0.3-0.4-0.4c0-0.1,0-0.2,0.1-0.2
					c0.1-0.5,0.5-1.7-1-2.6c-0.4-0.2-0.8-0.4-1.3-0.4c-0.3,0-0.5,0-0.7,0.1c-0.1,0-0.2,0-0.2,0c-0.1-0.1-0.2-0.2-0.2-0.4
					c0-0.2,0-0.4,0.1-0.4c0,0,0.3-0.1,0.4-0.1c0.6-0.1,1.6-0.2,2.2-1.4c0.4-0.8,0.2-1.4,0.1-1.8c0-0.1,0-0.2,0-0.2
					c0,0,0-0.1,0.1-0.1c0.2-0.2,0.6-0.4,1-0.4c0,0,0.1,0,0.1,0c0.1,0,0.2,0.1,0.3,0.2c0.3,0.3,0.8,0.7,1.6,0.7c0,0,0,0,0,0
					c1.4,0,2.4-1.5,3.4-5.1l0,0c0.5-1.7,0.4-2.9-0.1-3.7c-0.4-0.5-0.9-0.7-1.5-0.7c-0.7,0-1.6,0.4-2.6,1.1c-0.8,0.6-1.4,1.3-2.1,2
					c-0.6,0.7-1.2,1.3-1.8,1.7c-0.6,0.4-0.9,0.4-1,0.4c0,0-0.1,0-0.1-0.1c-0.4-0.5-0.5-2,0-3.4c0.2-0.6-0.2-1.3-0.8-1.4
					c-0.1,0-0.2-0.1-0.3-0.1c-0.1,0-0.3,0-0.4,0.1c0,0-0.1,0-0.1,0c0,0,0,0,0-0.1C62.8,53,63,52,63.2,51.5c0.2-0.8,0.2-1.5,0.3-2.2
					c0.1-1,0.1-1.8,0.6-2.6c0.3-0.6,1.6-1.5,2.4-1.5c0,0,0.1,0,0.1,0c0,0.1,0,0.2,0,0.2c-0.1,0.6-0.6,2.4,1.7,3.1
					c0.4,0.1,0.7,0.2,0.9,0.2c0.8,0,1.3-0.5,1.5-0.8c0.1-0.1,0.2-0.3,0.4-0.4c0.8-0.7,1.1-0.9,1.2-0.9c0,0,0,0,0.1,0
					c0,0,0.1,0,0.1,0c0.1,0,0.2,0.3,0.3,0.5c0.2,0.3,0.4,0.7,0.7,1c0.5,0.5,1.2,0.8,1.9,0.8c1.3,0,2.3-1,2.5-2.4
					c0.2-1.5-0.9-2.1-1.4-2.4C76.6,44,76.9,44,77.2,44 M72.2,46.5L72.2,46.5L72.2,46.5 M85.3,51.6L85.3,51.6L85.3,51.6 M67.3,62.3
					L67.3,62.3L67.3,62.3 M77.2,42.8c-0.9,0-2.3,0.3-2.2,1.3c0.1,1.2,1.9,0.7,1.7,2.1c-0.1,0.9-0.7,1.4-1.4,1.4
					c-0.4,0-0.7-0.2-1-0.5c-0.7-0.7-0.8-1.9-2-1.9c-0.1,0-0.1,0-0.2,0c-0.6,0.1-1.4,0.8-1.9,1.2c-0.6,0.6-0.7,0.9-1.1,0.9
					c-0.1,0-0.3,0-0.6-0.1c-2.3-0.7,0.3-2.6-1.4-3.3c-0.2-0.1-0.4-0.1-0.6-0.1c-1.3,0-2.9,1.1-3.4,2.1c-0.9,1.7-0.5,3.4-0.9,5.1
					c-0.2,0.8-0.4,1.9-0.2,2.7c0.1,0.3,0.2,0.6,0.5,0.7c0.1,0.1,0.6,0.2,0.8,0.2c0.1,0,0.2,0,0.2-0.1c-0.7,2.2-0.4,5,1.3,5
					c0.4,0,1-0.2,1.6-0.6c1.4-1,2.5-2.7,3.9-3.7c0.8-0.6,1.5-0.9,1.9-0.9c0.9,0,1.1,1.1,0.6,2.9c-0.2,0.7-1.2,4.3-2.3,4.3h0
					c-0.7,0-1-0.8-1.7-1c-0.1,0-0.2,0-0.3,0c-0.7,0-1.5,0.3-1.9,0.7c-1,1,0,1.5-0.4,2.5c-0.5,1.1-1.7,0.3-2.4,1.1
					c-0.6,0.6-0.5,2.1,0.4,2.6c0.2,0.1,0.4,0.2,0.6,0.2c0.2,0,0.3,0,0.5-0.1c0.2,0,0.3-0.1,0.5-0.1c0.2,0,0.4,0,0.7,0.2
					c1.2,0.7,0,1.3,0.4,2.3c0.4,1,1.4,0.9,1.7,1.9c0.1,0.4,0,1.1,0.1,1.6c0.3,1,0.8,1.3,0.8,2.5c-0.1,2.3-0.2,3.6,2.3,3.8
					c0.2,0,0.3,0,0.5,0c1.1,0,1.7-0.3,2.6-1.1c3.1-2.5,4.8-6.6,2-10.1c-1.4-1.7-1.7-1.2-1.7-3.6c0-2.6,0.2-5.5,1-8
					c0.1-0.3,0.6-1.2,0.9-1.6c1.1,0.8-0.8,2.2,0.2,3.2c0.2,0.1,0.3,0.2,0.4,0.2c0.3,0,0.6-0.5,0.8-0.8c0.3-0.4,0.6-0.5,1-0.5
					c0.1,0,0.2,0,0.3,0c0.1,0,0.2,0,0.3,0c0.1,0,0.2,0,0.3,0c1.4-0.1,3.2-0.3,4.2-1.2c1.2-1,0.9-0.1,1.4-1.8c0.3-1,0.5-2.3,0.4-3.3
					c0-0.4-0.3-0.7-0.4-1.1c-0.5-1.1-0.5-1.6,0.2-2.6c0.6-0.8,1.8-3,0.1-3.4c-0.1,0-0.2,0-0.3,0c-1.2,0-2.6,1.2-3.7,1.5
					c-0.3,0.1-0.5,0.1-0.7,0.1c-1.9,0-1.7-2.7-3.9-3.3C77.6,42.8,77.4,42.8,77.2,42.8L77.2,42.8z"/>
			</g>
			<g>
				<path class="st3" d="M85.1,70.1c-0.2,0-0.8-0.3-2.5-1.4c-0.1-0.1-0.2-0.1-0.3-0.2c-0.2-0.1-0.4-0.2-0.6-0.2
					c-0.2,0-0.3,0-0.4,0.1c0,0-0.1,0-0.1,0c0,0-0.1,0-0.2-0.2c-0.1-0.2,0-0.7,0.1-1.1c0.1-0.5,0.2-1-0.1-1.4
					c-0.1-0.1-0.3-0.3-0.7-0.3c-0.2,0-0.4,0-0.6,0.1c-0.2,0.1-0.4,0.2-0.7,0.4c-0.1,0.1-0.4,0.2-0.5,0.3c0.1-0.1,0.1-0.2,0.2-0.3
					c0.1-0.2,0.3-0.4,0.3-0.6c0.1-0.4,0.2-0.9,0.3-1.3c0-0.2,0.1-0.4,0.1-0.7c0.1-0.7,0.9-2.1,1.3-2.2c0.2-0.1,0.3-0.1,0.4-0.1
					c0.1,0,0.1,0,0.3,0.3c0.3,0.4,0.6,1,1.7,1.2c0.1,0,0.2,0,0.3,0c0.9,0,1.5-0.6,2.1-1.2c0.4-0.4,0.8-0.8,1.3-0.9
					c0.1,0,0.1,0,0.1,0c0.6,0,0.8,0.2,0.9,0.3c0.3,0.4,0.4,1.3,0.1,2.5C87,67,85.8,69.9,85.1,70.1z"/>
				<path class="st4" d="M86.9,61.3c0.1,0,0.3,0,0.4,0.1c0.1,0.2,0.3,0.8,0,2c-0.7,3-1.7,5.4-2.2,6.1c-0.3-0.1-0.9-0.4-2.1-1.2
					c-0.1-0.1-0.2-0.1-0.3-0.2c-0.3-0.2-0.6-0.2-0.9-0.2c0,0-0.1,0-0.1,0c0-0.1,0.1-0.3,0.1-0.4c0.1-0.6,0.3-1.3-0.2-1.9
					c-0.3-0.3-0.7-0.5-1.2-0.5c-0.2,0-0.4,0-0.7,0.1c0.1-0.3,0.1-0.6,0.1-0.9c0-0.2,0.1-0.4,0.1-0.6c0,0,0,0,0,0
					c0.1-0.5,0.6-1.5,0.9-1.8c0,0,0,0,0,0c0,0,0,0,0,0c0.3,0.4,0.8,1.2,2,1.5c0.1,0,0.3,0,0.4,0c1.1,0,1.9-0.7,2.5-1.3
					C86.2,61.7,86.6,61.3,86.9,61.3C86.8,61.3,86.8,61.3,86.9,61.3 M86.9,60.2c-0.1,0-0.1,0-0.2,0c-1.3,0.1-2,2-3.3,2
					c-0.1,0-0.2,0-0.2,0c-1.4-0.3-1.1-1.5-2.1-1.5c-0.1,0-0.3,0-0.6,0.1c-0.8,0.2-1.6,1.9-1.7,2.7c-0.1,0.6-0.2,1.3-0.3,1.9
					c-0.1,0.4-1.1,1.4-0.5,1.8c0,0,0.1,0,0.2,0c0.5,0,1.5-0.7,1.9-0.9c0.2-0.1,0.3-0.1,0.4-0.1c0.9,0-0.4,1.8,0.3,2.6
					c0.3,0.3,0.4,0.4,0.6,0.4c0.1,0,0.2,0,0.3,0c0.1,0,0.2,0,0.3,0c0.1,0,0.2,0,0.3,0.1c0.4,0.3,2.5,1.6,3.1,1.6l0.1,0
					c1.5-0.3,2.9-5.8,3.2-7C88.7,62.2,88.8,60.2,86.9,60.2L86.9,60.2z"/>
			</g>
			<g>
				<path class="st3" d="M89.8,94.2c-0.1-0.4-0.3-0.7-0.6-1c-0.6-0.5-1.2-0.8-1.7-0.8c-0.9,0-1.5,0.6-2,1.2
					c-0.2,0.2-0.4,0.4-0.6,0.6c-0.7-1.1-0.7-2.6,0.2-3.9c0.1,0,0.1,0,0.2,0c2.1,0,2.7-1.9,3.1-3.5c0.2-0.7,0.4-1.3,0.6-1.8
					c0.2-0.3,0.4-0.5,0.6-0.8c0.8-1,1.7-2.2,1.2-4c-0.5-1.6-1.4-1.8-2.3-2.1c-0.4-0.1-0.8-0.2-1.2-0.4c-0.7-0.4-1.5-0.8-1.7-1.3
					c-0.1-0.3,0-0.6,0.2-1c0.2-0.4,2.2-1.9,2.7-1.9c1.1,0,2,1.3,2.7,2.3l0.1,0.2c0.1,0.2,0.3,0.4,0.4,0.6c0.3,0.5,0.6,0.9,1,1.4
					c0.1,0.2,0.3,0.3,0.5,0.5c0.3,0.3,0.6,0.7,0.8,1.1c0,0,0.1,0.2,0,0.8c-0.1,0.6-0.3,1.4-0.6,2.1c-0.1,0.3-0.3,0.6-0.6,1
					c-0.2,0.3-0.5,0.6-0.6,1c-0.6,1.5-0.7,2.5-0.5,4c0.2,1.2,0.8,2.4,1.7,3.3c-0.1,0.1-0.3,0.1-0.4,0.2c-1.1,0.5-1.9,1.3-2.8,2
					L89.8,94.2z"/>
				<path class="st4" d="M88.4,74.1c0.8,0.1,1.6,1.2,2.2,2.1l0.1,0.2c0.1,0.2,0.3,0.4,0.4,0.6c0.3,0.5,0.7,0.9,1,1.4
					c0.2,0.2,0.3,0.4,0.5,0.5c0.3,0.3,0.5,0.6,0.6,0.8c0,0,0,0.2,0,0.6c-0.1,0.6-0.3,1.3-0.5,2c-0.1,0.2-0.3,0.5-0.5,0.8
					c-0.2,0.3-0.5,0.7-0.7,1.1c-0.7,1.6-0.7,2.8-0.5,4.3c0.1,1.1,0.6,2.1,1.3,3c-0.9,0.5-1.7,1.1-2.4,1.8c-0.1-0.2-0.2-0.3-0.4-0.5
					c-0.7-0.6-1.4-1-2.1-1c-1.1,0-1.8,0.7-2.4,1.3c0,0,0,0,0,0c-0.2-0.7-0.1-1.6,0.3-2.3c2.4-0.1,3.1-2.4,3.5-3.9
					c0.2-0.6,0.4-1.3,0.6-1.6c0.1-0.2,0.4-0.5,0.6-0.8c0.8-1,1.9-2.4,1.3-4.5c-0.6-1.9-1.8-2.2-2.8-2.5c-0.4-0.1-0.7-0.2-1-0.3
					c-0.8-0.4-1.3-0.7-1.4-1c0-0.1,0-0.3,0.1-0.5C86.5,75.4,87.9,74.3,88.4,74.1 M88.3,73L88.3,73c-0.7,0-2.9,1.7-3.2,2.3
					c-0.8,1.6,0.3,2.4,1.8,3.1c1.5,0.7,2.7,0.2,3.2,2.1c0.6,2-1,3.1-1.8,4.4c-1,1.6-0.8,5-3.3,5c-0.1,0-0.3,0-0.4,0
					c-1.2,1.6-1.3,3.7,0,5.3c1.1-0.5,1.7-2,2.8-2c0.4,0,0.8,0.2,1.3,0.7c0.4,0.4,0.4,1.1,0.6,1.6c0.4-0.3,0.7-0.6,1.1-0.9
					c0.8-0.7,1.7-1.5,2.7-2c0.4-0.2,0.8-0.4,1.1-0.6c-1.1-0.9-1.9-2.1-2.1-3.5c-0.2-1.5-0.1-2.4,0.4-3.7c0.3-0.7,1-1.3,1.2-2
					c0.2-0.7,0.5-1.5,0.6-2.2c0-0.3,0.1-0.8,0-1.1c-0.2-0.7-0.9-1.2-1.3-1.7c-0.5-0.6-0.9-1.3-1.4-1.9C90.9,74.6,89.8,73,88.3,73
					L88.3,73z"/>
			</g>
			<g>
				<path class="st3" d="M98,87.4c-0.6-0.5-0.7-0.7-0.2-2.2c0.3-0.8,0.5-1.8,0.8-2.8c0.8-3.1,1.6-6.6,4.3-8
					c-0.2,0.4-0.5,0.9-0.8,1.3c-0.1,0.2-0.3,0.5-0.4,0.7c-0.8,1.3-1.7,2.6-1.9,4.1c-0.1,0.5-0.1,1-0.1,1.4c-0.4,1.1-0.7,2.5-0.4,3.6
					C98.9,86.2,98.5,86.8,98,87.4z"/>
				<path class="st4" d="M98.6,84.6c0,0.3,0,0.6,0.1,0.8c-0.2,0.3-0.3,0.6-0.5,0.8c0-0.2,0.1-0.5,0.3-1
					C98.4,85.1,98.5,84.9,98.6,84.6 M103.9,73.6c-0.4,0-0.8,0.1-1.3,0.4c-3.8,2-4.2,7.7-5.3,11.1c-0.8,2.3-0.1,2.4,0.8,3.2
					c0.7-0.8,1.3-1.6,1.8-2.5c-0.3-1-0.1-2.5,0.4-3.6c0-0.5,0-1,0-1.4c0.2-1.7,1.4-3.1,2.3-4.6C103.1,75.2,103.6,74.4,103.9,73.6
					C103.9,73.6,103.9,73.6,103.9,73.6L103.9,73.6z"/>
			</g>
			<g>
				<path class="st3" d="M94.9,75c-2-0.1-2.8-2.9-3.2-5c-0.2-1.1-0.3-2.2-0.5-3.4c0-0.2,0-0.4,0-0.6c0-0.4,0-0.9-0.1-1.3
					c-0.1-0.2-0.2-0.3-0.2-0.5c0,0,0,0,0-0.1c0,0,0.1,0,0.1,0c0.1-0.1,0.4-0.1,0.5-0.3c0.2-0.2,0.3-0.4,0.5-0.7
					c0-0.1,0.1-0.1,0.1-0.2c0.3-0.5,0.7-1.2,1-1.9c0.4-1,1-2.6,0.9-4.1c-0.1-1.4-0.9-2-1.7-2.5c-0.5-0.3-0.8-0.4-1.2-0.4
					c-0.6,0-1.1,0.4-1.7,0.9c-0.2,0.2-0.6,0.4-0.8,0.4c-0.1,0-0.2,0-0.2-0.2c-0.1-0.3,0-0.5,0.9-1c0.2-0.1,0.5-0.3,0.6-0.4
					c0.8-0.6,0.9-1.6,1-2.4c0.1-0.7,0.2-1.4,0.7-1.8c0.4-0.3,0.7-0.4,0.8-0.4c0.1,0,0.2,0,0.2,0.1c0.1,0.2,0.2,0.5,0.2,0.9l0,0.5
					c-0.1,1.1-0.1,1.3,0.6,1.9c0.2,0.1,0.4,0.3,0.7,0.6c1.1,1.1,0.9,2.2,0.4,3.9c-0.2,0.8-0.4,1.6-0.5,2.4c0,0.7-0.1,2.6,1.4,3.1
					c0.1,0,0.2,0.1,0.4,0.1c-1,1.1-1.1,3.3-0.3,4.4c0.5,0.8,1.3,1.3,2,1.6c1,0.6,1.6,0.9,1.3,2.5c-0.2,1.3-2.2,3.8-3.4,3.9
					c-0.1,0-0.2,0-0.3,0L94.9,75z M99.4,66.3c0-0.1,0-0.2,0-0.3c0.2-0.9,0.2-1.2-0.1-2.1c-0.4-1.3-1.1-2-1.9-2.1c0,0,0,0,0,0
					c0.2-0.2,0.5-0.5,0.7-0.5c0.4-0.1,0.7-0.2,1-0.2c0.4,0,0.6,0.1,0.8,0.3c0.3,0.3,0.4,0.8,0.4,1.5C100.3,64.1,99.8,65.6,99.4,66.3
					z"/>
				<path class="st4" d="M92.4,49.7L92.4,49.7L92.4,49.7 M92.2,49.7c0,0.1,0,0.2,0,0.3c0,0.2,0,0.3,0,0.5c-0.1,1.2-0.1,1.7,0.8,2.4
					c0.2,0.1,0.4,0.3,0.6,0.6c0.7,0.6,0.7,1.3,0.5,2.2c-0.4-0.9-1-1.4-1.7-1.8c-0.6-0.3-1-0.5-1.5-0.5c-0.1,0-0.2,0-0.2,0
					c0.5-0.7,0.6-1.5,0.7-2.1c0.1-0.7,0.2-1.2,0.5-1.4C92.1,49.8,92.1,49.8,92.2,49.7 M93.6,61.1c0.2,0.7,0.5,1.4,1.2,1.8
					c-0.7,1.4-0.6,3.3,0.1,4.4c0.6,1,1.5,1.4,2.2,1.8c1,0.6,1.2,0.7,1,1.9c-0.2,1.1-2.1,3.3-2.9,3.4c-0.1,0-0.2,0-0.2,0l-0.1,0
					c-1.2,0-2.1-1.5-2.7-4.5c-0.2-1.1-0.3-2.2-0.5-3.4c0-0.1,0-0.3,0-0.5c0-0.5,0-1-0.2-1.5c0,0,0-0.1,0-0.1c0.1,0,0.1-0.1,0.2-0.2
					c0.3-0.2,0.4-0.6,0.6-0.8c0-0.1,0.1-0.1,0.1-0.1c0.4-0.6,0.8-1.2,1.1-2C93.5,61.2,93.5,61.2,93.6,61.1 M99.1,61.6
					c0.2,0,0.3,0,0.4,0.1c0.1,0.1,0.2,0.5,0.2,1.1c0,0.1,0,0.3,0,0.5c-0.3-0.8-0.7-1.3-1.1-1.6C98.9,61.7,99,61.6,99.1,61.6
					 M92.4,48.5c-0.3,0-0.7,0.2-1.2,0.5c-1.3,1-0.6,3.1-1.8,4.1c-0.6,0.5-2.2,1.1-1.7,2.2c0.2,0.4,0.5,0.5,0.8,0.5
					c0.4,0,0.9-0.2,1.1-0.5c0.5-0.4,0.9-0.7,1.3-0.7c0.3,0,0.5,0.1,0.9,0.3c0.8,0.5,1.4,1,1.4,2.1c0.1,1.3-0.4,2.7-0.8,3.8
					c-0.3,0.7-0.6,1.2-1,1.8c-0.1,0.2-0.3,0.6-0.5,0.7c-0.2,0.2-0.6,0.2-0.8,0.5c-0.2,0.4,0.2,0.6,0.3,0.9c0.2,0.5,0.1,1.2,0.1,1.8
					c0.1,1.2,0.3,2.3,0.5,3.5c0.4,2,1.2,5.3,3.7,5.4l0.1,0c0.1,0,0.3,0,0.4,0c1.5-0.2,3.6-2.9,3.9-4.4c0.6-3.1-2.1-2.6-3.4-4.6
					c-0.6-1-0.6-3,0.4-3.8c0.4-0.3,0.8-0.5,1.1-0.5c0.7,0,1.2,0.8,1.5,1.7c0.3,0.8,0.2,1,0.1,1.8c-0.1,0.5-0.2,1.2,0.4,1.3l0,0
					c0.5,0,1.6-2.4,1.6-4.3c0-1.3-0.4-2.4-1.8-2.4c-0.3,0-0.7,0.1-1.1,0.2c-0.8,0.2-1.3,1.3-2.1,1.3c-0.1,0-0.2,0-0.4-0.1
					c-1-0.3-1-1.7-1-2.5c0.1-2.4,1.9-4.7-0.1-6.7c-1.3-1.3-1.2-0.6-1.1-2.6C93.5,49.1,93.1,48.5,92.4,48.5L92.4,48.5z"/>
			</g>
			<g>
				<path class="st3" d="M84,100c0.9-0.8,1.9-1.6,2.8-2.4C85.7,97.7,84.7,98.7,84,100z"/>
				<path class="st4" d="M86.8,97.6L86.8,97.6L86.8,97.6z M86.8,97.6c-1.1,0.1-2.1,1.1-2.8,2.4C84.9,99.2,85.9,98.4,86.8,97.6
					L86.8,97.6z"/>
			</g>
			<g>
				<path class="st3" d="M101.4,59.2c-0.5,0-1-0.2-1.4-0.5c-0.7-0.5-0.7-1.1-0.7-1.8c0,0,0,0,0,0l-0.2-1.8c0,0,0-0.1,0-0.1
					c-0.1-0.4-0.3-0.8-0.4-1.1c-0.3-0.8-0.5-1.3-0.2-2.1c0.1-0.2,0.3-0.5,0.5-0.7c0.5-0.7,1.2-1.7,0.8-2.8c-0.3-0.7-0.8-1.1-1.5-1.1
					c-0.2,0-0.3,0-0.5,0c-0.1,0-0.2,0-0.4,0c-0.2,0-0.4-0.1-0.5-0.2c-0.1-0.1-0.2-0.2-0.1-0.5c0.2-0.6,1-1.3,1.6-1.4
					c0.2,0,0.4-0.1,0.7-0.1c1.1,0,2.4,0.5,2.6,1.3c0.2,1-0.4,1.7-1,2.6c-0.6,0.8-1.2,1.6-1.4,2.7c0,0.2,0.1,0.4,0.2,0.5
					c0.6,0.4,1.2,0.7,1.8,0.7c0.7,0,1.3-0.3,1.9-0.9c0.1-0.1,0.2-0.2,0.3-0.4c0.1-0.2,0.4-0.6,0.7-0.8c0.1,0.5-0.2,1.7-0.4,2
					c0,0-0.2,0.1-0.3,0.2c-0.3,0.1-0.7,0.3-0.9,0.7c-0.4,0.8-0.2,1.8-0.1,2.7c0.2,1,0.4,1.9-0.1,2.4
					C102.1,59.1,101.8,59.2,101.4,59.2z"/>
				<path class="st4" d="M99,45.6c0.9,0,1.9,0.4,2,0.9c0.1,0.6-0.1,1.1-0.6,1.8c0,0,0-0.1,0-0.1c-0.4-1-1.1-1.5-2-1.5
					c-0.2,0-0.4,0-0.5,0c-0.1,0-0.2,0-0.3,0c-0.1,0-0.1,0-0.1,0c0.1-0.3,0.7-0.9,1.1-1C98.6,45.6,98.8,45.6,99,45.6 M104.5,51.3
					L104.5,51.3L104.5,51.3 M98.9,52.5c0.1,0.1,0.1,0.1,0.2,0.2c0.7,0.5,1.4,0.8,2.1,0.8c0.3,0,0.6,0,0.9-0.1c0,0,0,0.1-0.1,0.1
					c-0.5,1-0.3,2.1-0.1,3.1c0.2,0.8,0.3,1.6,0,2c0,0-0.1,0.2-0.5,0.2c-0.3,0-0.8-0.2-1.1-0.4c-0.4-0.3-0.5-0.6-0.5-1.4
					c0,0,0-0.1,0-0.1L99.6,55c0-0.1,0-0.1,0-0.2c-0.1-0.5-0.3-0.8-0.4-1.2C98.9,53.1,98.8,52.8,98.9,52.5 M99,44.4
					c-0.3,0-0.6,0-0.8,0.1c-1.1,0.3-2.7,1.9-1.7,2.9c0.3,0.3,0.6,0.4,0.9,0.4c0.1,0,0.3,0,0.4,0c0.1,0,0.3,0,0.4,0
					c0.4,0,0.7,0.1,0.9,0.7c0.4,1.2-0.8,2.2-1.3,3.1c-0.7,1.5,0.2,2.2,0.5,3.6c0.1,0.6,0.1,1.2,0.2,1.8c0,0.8,0.1,1.6,1,2.3
					c0.5,0.4,1.2,0.6,1.8,0.6c0.5,0,1-0.2,1.4-0.6c1.2-1.4-0.5-3.9,0.2-5.2c0.2-0.4,0.8-0.4,1.1-0.8c0.4-0.4,0.8-2.6,0.3-2.9
					c-0.1-0.1-0.2-0.1-0.3-0.1c-0.6,0-1.2,1.1-1.5,1.4c-0.5,0.5-1,0.7-1.5,0.7c-0.5,0-0.9-0.2-1.4-0.5c0.3-2.2,2.8-3.3,2.4-5.5
					C101.9,45,100.3,44.4,99,44.4L99,44.4z"/>
			</g>
			<g>
				<path class="st3" d="M105.2,70.5c0.3-1,0.6-1.9,0.8-2.9C105.5,68.5,105,69.6,105.2,70.5z"/>
				<path class="st4" d="M106,67.5L106,67.5L106,67.5z M106,67.5c-0.5,1-1,2-0.8,2.9C105.6,69.5,105.8,68.5,106,67.5L106,67.5z"/>
			</g>
			<g>
				<path class="st3" d="M106.3,62c-0.2-0.2-0.5-0.3-0.8-0.5c-0.3-0.2-0.8-0.4-0.9-0.6c0-0.1,0-0.3,0.2-0.5c0.1-0.2,0.3-0.2,0.4-0.2
					c0.3,0,0.8,0.3,1.3,0.5c0.1,0,0.1,0.1,0.2,0.1C106.6,61.2,106.5,61.6,106.3,62z"/>
				<path class="st4" d="M105.4,60.7L105.4,60.7L105.4,60.7 M105.4,60.8c0.2,0,0.4,0.2,0.6,0.3c0,0,0,0,0,0.1
					c-0.1,0-0.1-0.1-0.2-0.1C105.7,61,105.5,60.9,105.4,60.8 M105.3,59.6c-0.3,0-0.6,0.1-0.9,0.5c-1,1.5,0.8,1.7,1.6,2.4
					c0.3,0.2,0.5,0.4,0.6,0.6c0.1-0.3,0.1-0.6,0.2-0.9c0.2-0.6,0.4-1.1,0.7-1.7c-0.2-0.1-0.5-0.2-0.7-0.3
					C106.3,59.9,105.8,59.6,105.3,59.6L105.3,59.6z"/>
			</g>
			<g>
				<path class="st3" d="M17.8,70.7c-0.3,0-0.7-0.2-0.7-0.4c0-0.5,0.9-1.2,1.9-1.2c0.3,0,0.5,0.1,0.7,0.2c0.2,0.1,0.3,0.3,0.3,0.4
					c0,0.3-0.2,0.6-0.3,0.6C19.5,70.3,18.3,70.7,17.8,70.7L17.8,70.7z"/>
				<path class="st4" d="M19,69.6c0.1,0,0.3,0,0.4,0.1c0,0,0,0,0,0c-0.4,0.1-1.2,0.4-1.5,0.4c0,0,0,0,0,0
					C18.1,69.9,18.5,69.6,19,69.6 M19,68.4c-1.9,0-3.7,2.4-1.3,2.8c0,0,0.1,0,0.1,0c0.6,0,2-0.4,2.2-0.6c0.4-0.3,0.9-1.4,0-2
					C19.7,68.5,19.3,68.4,19,68.4L19,68.4z"/>
			</g>
			<g>
				<path class="st3" d="M83.2,78.8c-0.3,0-0.9-0.5-1.2-0.8c-0.4-0.4-0.7-0.6-1.1-0.6c0,0-0.1,0-0.1,0c-0.6,0-1.1,0.4-1.5,0.7
					c0,0-0.2,0.1-0.2,0.2c0-0.1,0-0.2,0-0.3c0.1-0.7,0.6-2,1.4-3c0.6-0.9,1.3-1.4,1.8-1.4c0.2,0,0.5,0.1,0.7,0.3
					c0.4,0.4,0.4,0.5-0.1,1c-0.3,0.4-0.8,0.9-0.8,1.7c0,0.7,0.5,1,0.8,1.2c0.3,0.2,0.4,0.3,0.3,0.5C83.3,78.6,83.2,78.8,83.2,78.8z"
					/>
				<path class="st4" d="M82.3,74.1c0.1,0,0.2,0.1,0.3,0.2c0,0,0,0,0,0c0,0.1-0.1,0.1-0.1,0.2c-0.4,0.4-1,1.1-0.9,2.1
					c0,0.2,0.1,0.5,0.2,0.6c-0.3-0.2-0.5-0.3-0.8-0.3c0,0-0.1,0-0.1,0l-0.1,0c0,0,0,0,0,0c-0.3,0-0.5,0.1-0.7,0.1
					c0.2-0.5,0.5-1.2,0.9-1.7C81.6,74.4,82.1,74.1,82.3,74.1 M82.3,73c-0.8,0-1.6,0.7-2.3,1.7c-0.8,1.1-1.4,2.5-1.5,3.3
					c-0.1,1,0,1.3,0.2,1.3c0.2,0,0.5-0.3,0.9-0.6c0.4-0.3,0.8-0.6,1.1-0.6l0.1,0c0.4,0,1.6,1.4,2.4,1.4c0.4,0,0.6-0.3,0.7-1.2
					c0.1-0.9-1.1-0.9-1.1-1.8c-0.1-1.2,2.1-1.7,0.7-3C83.1,73.1,82.7,73,82.3,73L82.3,73z"/>
			</g>
			<g>
				<path class="st3" d="M61.2,84.5c0,0-0.3,0-0.9-1.2c-0.2-0.4-0.3-1-0.3-1.5c-0.1-0.9-0.2-2.2-1.5-2.2c-0.4,0-0.9,0.1-1.4,0.5
					c-0.5,0.3-0.7,0.8-0.8,1.2c-0.1,0.4-0.2,0.4-0.3,0.4c-0.1,0-0.2,0-0.4-0.1c-0.3-0.1-0.4-0.3-0.5-0.9c0-0.2,0-0.3-0.1-0.5
					c-0.2-0.7-0.1-1.2,0-1.8c0.1-0.9,0.3-1.9-0.7-3.1c0.2-0.4,0.3-0.9,0.3-1.3c0.1-0.4,0.1-0.8,0.3-1.1c0.1-0.4,0.4-0.8,0.6-1.1
					c0.3-0.4,0.6-0.9,0.7-1.3c0.2-0.7,0.2-1.5,0.3-2.3c0-1.1,0-2,0.6-2.6c0,0,0,0,0,0c0,0.1,0,0.2,0,0.2c0,1.2,0.1,2.6,0.8,3.2
					c0.3,0.2,0.6,0.4,1,0.4c0.4,0,0.7-0.1,1-0.2c0.2-0.1,0.5-0.2,0.6-0.2c0.1,0,0.2,0,0.4,0.3c0.6,0.8,0.2,1.8-0.2,2.8
					c-0.3,0.9-0.7,1.7-0.3,2.5c0.3,0.6,1,0.9,2.2,1.1c1.3,0.2,2,1,2.1,2.6c0.1,1-0.1,2.3-0.7,2.9c-0.3,0.3-0.5,0.5-0.8,0.6
					c-0.4,0.3-0.9,0.6-1.3,1.4C61.5,84.5,61.2,84.5,61.2,84.5z M57.4,65c-0.1-0.2-0.2-0.3-0.3-0.3c-0.4-0.2-0.8-0.5-0.9-1
					c-0.4-1-0.1-2.5,0.4-3.4c0.4-0.7,0.8-1.1,1.2-1.1c0.5,0,1,0.6,1.4,1.4c0.3,0.7,0.4,1.8,0.3,2.6c-0.2,1-0.7,1.5-1.6,1.5
					C57.7,64.8,57.5,64.8,57.4,65C57.4,65,57.4,65,57.4,65z"/>
				<path class="st4" d="M57.7,59.8c0.1,0,0.5,0.3,0.9,1.1c0.3,0.6,0.4,1.5,0.2,2.2c-0.2,1-0.8,1-1,1c-0.1,0-0.2,0-0.3,0.1
					c-0.1-0.1-0.2-0.1-0.3-0.1c-0.2-0.1-0.4-0.2-0.6-0.6c-0.3-0.8-0.1-2.1,0.3-2.9C57.3,59.9,57.6,59.8,57.7,59.8L57.7,59.8
					 M57.2,68.8c0.1,0.3,0.3,0.5,0.6,0.7c0.4,0.3,0.9,0.5,1.4,0.5c0.5,0,0.9-0.2,1.2-0.3l0,0c0.1,0,0.2-0.1,0.3-0.1c0,0,0,0,0,0
					c0.4,0.5,0.1,1.2-0.3,2.2c-0.4,0.9-0.8,2-0.2,3c0.6,1,1.7,1.2,2.6,1.3c0.6,0.1,1.5,0.4,1.6,2c0.1,1-0.2,2.1-0.5,2.5
					c-0.2,0.2-0.4,0.4-0.7,0.5c-0.5,0.3-1.1,0.7-1.5,1.7c-0.2,0.4-0.4,0.7-0.5,0.8c-0.1-0.1-0.2-0.4-0.4-0.7
					c-0.2-0.3-0.2-0.8-0.3-1.3c-0.1-0.9-0.3-2.7-2-2.7c-0.5,0-1,0.2-1.7,0.5c-0.6,0.3-0.9,0.9-1,1.3c0-0.1,0-0.2,0-0.2
					c0-0.2-0.1-0.4-0.1-0.6c-0.1-0.5-0.1-1,0-1.6c0.1-0.9,0.3-2-0.6-3.3c0.1-0.4,0.2-0.7,0.3-1.1c0.1-0.4,0.1-0.7,0.3-1
					c0.1-0.3,0.3-0.7,0.6-1c0.3-0.5,0.6-0.9,0.8-1.5C57.1,70.1,57.1,69.4,57.2,68.8 M57.7,58.6L57.7,58.6c-0.6,0-1.2,0.4-1.7,1.4
					c-0.8,1.6-1.1,4.5,0.9,5.2c-1.3,1.2-0.5,3.5-1,5.1c-0.2,0.8-1,1.6-1.3,2.5c-0.3,0.9-0.3,1.8-0.7,2.7c1.7,1.7,0.3,2.9,0.7,4.9
					c0.2,0.7,0.1,1.5,1,1.8c0.2,0.1,0.4,0.1,0.5,0.1c1,0,0.6-1.3,1.3-1.7c0.5-0.3,0.9-0.4,1.2-0.4c1.2,0,0.6,2.1,1.3,3.3
					c0.5,1.1,1,1.6,1.4,1.6c0.5,0,1-0.6,1.5-1.7c0.6-1.2,1.2-1.1,2-1.9c0.7-0.8,0.9-2.3,0.8-3.4c-0.1-1.7-1-2.9-2.6-3.1
					c-4.3-0.6,0.4-3.5-1.3-6.1c-0.3-0.4-0.6-0.6-0.9-0.6c-0.3,0-0.5,0.1-0.8,0.2c-0.3,0.1-0.6,0.2-0.8,0.2c-0.2,0-0.4-0.1-0.7-0.2
					c-0.6-0.5-0.6-2.1-0.6-3.2c1.2,0,1.9-0.9,2.1-2c0.2-1,0.1-2.2-0.3-3C59.1,59.3,58.4,58.6,57.7,58.6L57.7,58.6z"/>
			</g>
			<g>
				<path class="st3" d="M7.1,30c0.4-0.7,0.7-1.4,1-2c0.2-0.4,0.4-0.7,0.5-1.1c-0.1,0.7-0.2,1.4-0.6,2C8,29.3,7.6,29.7,7.1,30z"/>
				<path class="st4" d="M9.5,24.3L9.5,24.3L9.5,24.3z M9.5,24.3c-0.1,0.1-0.1,0.2-0.2,0.3c-1.4,2.1-2.3,4.7-3.7,6.7
					c1.2-0.2,2.5-1.2,3-2C9.5,27.6,9.2,25.9,9.5,24.3L9.5,24.3z"/>
			</g>
			<g>
				<path class="st3" d="M13.2,20.6c-0.1,0-0.1,0-0.2,0c0.6-0.7,1.2-1.4,1.8-2.1c-0.1,0.4-0.2,0.7-0.4,1
					C14,20.2,13.6,20.6,13.2,20.6z"/>
				<path class="st4" d="M15.5,16.9c-1.2,1.2-2.3,2.5-3.4,3.9c0.3,0.3,0.7,0.5,1.1,0.5c0.6,0,1.2-0.4,1.7-1.4
					C15.3,19,15.6,17.9,15.5,16.9L15.5,16.9z"/>
			</g>
			<g>
				<path class="st3" d="M24.1,17.8c0,0-0.2-0.2-0.3-1.2c0-0.2,0-0.4-0.1-0.6c-0.1-1.2-0.3-2.8-2.1-2.8c-0.3,0-0.6,0-0.9,0.1
					c-0.2,0-0.4,0.2-0.4,0.4c-0.2,0.6-0.6,1.7-1.1,1.7c-0.2,0-0.4-0.1-0.8-0.4c0.9-0.8,1.8-1.6,2.8-2.3c0.5-0.4,1-0.6,1.6-0.8
					c0.4-0.2,0.8-0.3,1.2-0.6l0.1,0c0.3,0,0.6,0,0.9-0.1c0.2,0,0.5,0,0.8-0.1c0.6-0.1,1.2-0.1,1.8-0.1c0.7,0,1,0.1,1.1,0.1
					c0.3,0.2,0.4,0.3,0.5,0.3c0,0.1,0,0.2-0.1,0.3c-0.1,0.2-0.1,0.4-0.2,0.8c0,0.3-0.1,0.5-0.2,0.7c-0.2,0.4-0.3,0.9-0.1,1.8
					c0.1,0.4,0.3,0.6,0.5,0.9c0.3,0.4,0.3,0.5,0.2,0.7c-0.1,0.3-1,0.3-1.6,0.3c-0.7,0-1.3,0-1.8,0.3c-0.2,0.1-0.4,0.2-0.6,0.3
					C24.8,17.6,24.3,17.8,24.1,17.8C24.1,17.8,24.1,17.8,24.1,17.8z"/>
				<path class="st4" d="M27.6,11.6c0.6,0,0.8,0.1,0.8,0.1c0,0,0,0,0,0c-0.1,0.2-0.1,0.4-0.2,0.7c0,0.2-0.1,0.4-0.2,0.6
					c-0.2,0.6-0.4,1.1-0.1,2.1c0.1,0.5,0.4,0.8,0.6,1.1c0,0,0,0,0,0c-0.3,0-0.7,0.1-1,0.1c-0.7,0-1.4,0-2,0.3
					c-0.2,0.1-0.4,0.2-0.6,0.3c-0.1,0.1-0.3,0.1-0.5,0.2c0-0.1-0.1-0.3-0.1-0.6c0-0.2,0-0.4-0.1-0.6c-0.1-1.1-0.3-3-2.1-3.3
					c0.2-0.1,0.5-0.2,0.7-0.3c0.4-0.2,0.8-0.3,1.2-0.5l0,0c0.3,0,0.6,0,0.9-0.1c0.2,0,0.5,0,0.9-0.1C26.4,11.6,27,11.6,27.6,11.6
					 M27.6,10.4c-0.9,0-2,0.2-2.6,0.2c-0.4,0-0.8,0.1-1.2,0.1c-0.9,0.6-2,0.8-3,1.5c-1.1,0.9-2.2,1.8-3.3,2.8c0.5,0.5,1.1,1,1.7,1
					c0.6,0,1.2-0.5,1.7-2.1c0.3-0.1,0.6-0.1,0.8-0.1h0c1.6,0,1.5,1.4,1.6,2.9c0.2,1.3,0.4,1.7,0.9,1.7c0.4,0,1-0.3,1.9-0.7
					c1-0.4,3.2,0.1,3.7-0.8c0.4-0.8-0.5-1.3-0.6-2c-0.3-1.2,0.2-1.3,0.3-2.3c0.2-1,0.7-1.3-0.5-1.9C28.6,10.5,28.1,10.4,27.6,10.4
					L27.6,10.4z"/>
			</g>
			<g>
				<path class="st3" d="M30.3,8.4c-0.5,0-1-0.1-1.4-0.1c-0.2,0-0.3,0-0.5-0.1c-0.2,0-0.3,0-0.5,0c0.3-0.1,0.6-0.2,1-0.3
					c0.2,0,0.4,0,0.6,0c0.1,0,0.1,0,0.2,0c0.2,0,0.5-0.1,0.8-0.1c0.4-0.1,0.9-0.2,1.2-0.2c0,0,0.1,0,0.1,0c0,0.1-0.1,0.2-0.1,0.3
					C31.6,8.1,31.4,8.4,30.3,8.4z"/>
				<path class="st4" d="M31.7,7.1c-0.7,0-1.7,0.3-2.1,0.3c-0.1,0-0.1,0-0.2,0c-0.2,0-0.4,0-0.6-0.1c-1,0.2-1.9,0.5-2.7,1.1
					c-0.1,0.1-0.2,0.2-0.3,0.3c0.9,0,1.9,0,2.5,0.1C28.8,8.9,29.6,9,30.3,9c0.8,0,1.5-0.2,1.9-0.8C32.7,7.3,32.3,7.1,31.7,7.1
					L31.7,7.1z"/>
			</g>
			<g>
				<path class="st3" d="M54.4,47.1c-0.4,0-0.6-0.1-0.8-0.1c0.2-0.2,0.5-0.2,0.8-0.3c0.1,0,0.2,0,0.2-0.1c0.4-0.1,0.7-0.2,1-0.3
					c0.2-0.1,0.3-0.1,0.5-0.2c0.1,0,0.2-0.1,0.3-0.1c0.4-0.1,0.8-0.2,1.2-0.5c0.4-0.4,0.8-1.6,0.5-2.2c-0.2-0.4-0.6-0.7-0.9-1
					c-0.1-0.1-0.2-0.2-0.3-0.3c-1.1-1.1-0.9-2.2-0.4-3.9c0.2-0.8,0.4-1.6,0.5-2.4c0-0.7,0.1-2.6-1.4-3.1c-0.1,0-0.2-0.1-0.4-0.1
					c1-1.1,1.1-3.3,0.3-4.4c-0.5-0.8-1.3-1.3-2-1.6c-1-0.6-1.6-0.9-1.3-2.5c0.2-1.3,2.2-3.8,3.4-3.9c0.1,0,0.2,0,0.3,0l0.1,0
					c2,0.1,2.8,2.9,3.2,5c0.2,1.1,0.3,2.2,0.5,3.4c0,0.2,0,0.4,0,0.6c0,0.4,0,0.9,0.1,1.3c0.1,0.2,0.2,0.3,0.2,0.5c0,0,0,0,0,0.1
					c0,0-0.1,0-0.1,0c-0.1,0.1-0.4,0.1-0.5,0.3c-0.2,0.2-0.3,0.4-0.4,0.6c0,0.1-0.1,0.1-0.1,0.2c-0.4,0.6-0.7,1.2-1,1.9
					c-0.4,1-1,2.6-0.9,4.1c0.1,1.4,0.9,2,1.7,2.5c0.5,0.3,0.8,0.4,1.2,0.4c0.6,0,1.1-0.4,1.7-0.9c0.2-0.2,0.6-0.4,0.8-0.4
					c0.1,0,0.2,0,0.2,0.2c0.1,0.3,0,0.5-0.9,1c-0.2,0.1-0.5,0.3-0.6,0.4c-0.8,0.7-0.9,1.6-1.1,2.4c-0.1,0.4-0.1,0.8-0.3,1.2
					c-0.1,0.2-0.2,0.4-0.4,0.6c-0.6,0.5-1.6,0.6-2.5,0.7c0,0-0.1,0-0.1,0c0,0-0.2,0-0.2,0c-0.3,0-0.5,0-0.6,0.1
					c-0.3,0.1-0.5,0.3-0.7,0.4c-0.1,0.1-0.3,0.2-0.4,0.2C54.8,47.1,54.7,47.1,54.4,47.1z M42.3,37.5c-0.4,0-0.9-0.3-1-0.9
					c-0.2-0.8,0.6-2,1.3-2.6c0.1-0.1,0.5-0.3,0.8-0.4c0.8-0.4,2.1-1,1.7-2.3c-0.2-0.7-0.9-0.9-1.3-1.1c-0.1,0-0.2-0.1-0.3-0.1
					c0,0,0,0,0,0c0.1-0.2,1-0.4,1.4-0.5c0.4-0.1,0.7-0.1,1-0.2c0.2-0.1,0.5-0.2,0.7-0.3c0.8-0.3,1.4-0.6,2.2-0.6l0.1,0
					c0.3,0,0.6,0,0.9,0c1.3,0,1.6,0.3,1.7,0.4c0,0,0.1,0.1,0,0.4c-0.2,0.8-0.2,1.2,0.1,2.1l0.1,0.2c0.3,0.9,0.7,2,1.7,2
					c-0.2,0.2-0.4,0.4-0.6,0.4C52.7,34,52.5,34,52.4,34c-0.7,0-1.4-0.4-2.1-0.8c-0.8-0.5-1.6-0.9-2.6-0.9c-0.3,0-0.7,0.1-1,0.2
					c-0.7,0.3-2.3,1.2-3,1.9c-0.5,0.6-0.6,1.2-0.7,1.8c0,0.3-0.1,0.6-0.2,0.9C42.7,37.4,42.5,37.5,42.3,37.5z"/>
				<path class="st4" d="M56.1,20.7L56.1,20.7c1.3,0.1,2.1,1.5,2.7,4.5c0.2,1.1,0.3,2.1,0.5,3.4c0,0.1,0,0.3,0,0.5
					c0,0.5,0,1,0.2,1.5c0,0,0,0.1,0,0.1c-0.1,0-0.1,0.1-0.2,0.2c-0.3,0.2-0.4,0.5-0.6,0.8c0,0.1-0.1,0.1-0.1,0.2
					c-0.4,0.6-0.8,1.3-1.1,2c0,0.1,0,0.1-0.1,0.2c-0.2-0.7-0.5-1.4-1.2-1.8c0.7-1.4,0.6-3.3-0.1-4.4c-0.6-1-1.5-1.4-2.2-1.8
					c-1-0.6-1.2-0.7-1-1.9c0.2-1.1,2.1-3.3,2.9-3.4C56,20.7,56,20.7,56.1,20.7 M49.9,29c0.7,0,1,0.1,1.2,0.1
					c-0.2,0.8-0.2,1.3,0.1,2.3l0.1,0.2c0.2,0.5,0.4,1.2,0.9,1.8c-0.5-0.1-1-0.4-1.5-0.7l0,0c-0.8-0.5-1.7-1-2.8-1
					c-0.4,0-0.8,0.1-1.2,0.2c-0.2,0.1-0.5,0.2-0.9,0.4c0.1-0.3,0.1-0.8,0-1.2c-0.1-0.4-0.3-0.7-0.6-0.9c0,0,0,0,0,0
					c0.4-0.1,0.8-0.1,1.1-0.3c0.2-0.1,0.5-0.2,0.7-0.3c0.7-0.3,1.3-0.6,2-0.6l0.1,0C49.2,29,49.5,29,49.9,29 M43,34.4
					c-0.4,0.6-0.5,1.2-0.6,1.7c0,0.3-0.1,0.5-0.2,0.8c-0.1,0-0.3-0.2-0.4-0.4C41.8,36,42.3,35,43,34.4C43,34.5,43,34.4,43,34.4
					 M56.9,39.4c0.4,0.9,1,1.4,1.7,1.8c0.6,0.3,1,0.5,1.5,0.5c0.1,0,0.2,0,0.2,0c-0.5,0.7-0.6,1.5-0.7,2.1c-0.1,0.4-0.1,0.8-0.3,1
					c-0.1,0.1-0.2,0.3-0.3,0.4c-0.2,0.2-0.4,0.3-0.7,0.3c0.4-0.7,0.7-1.8,0.4-2.5c-0.2-0.6-0.7-0.9-1.1-1.2
					c-0.1-0.1-0.2-0.2-0.3-0.2C56.7,41,56.7,40.3,56.9,39.4 M56.1,19.6c-0.1,0-0.3,0-0.4,0c-1.5,0.2-3.6,2.9-3.9,4.4
					c-0.6,3.1,2.1,2.6,3.4,4.6c0.6,1,0.6,3-0.4,3.8c-0.5,0.4-0.9,0.6-1.2,0.6c-0.8,0-1-1-1.3-1.8c-0.2-0.8-0.2-1-0.1-1.8
					c0.3-1.2-1.1-1.4-2.3-1.4c-0.4,0-0.8,0-1.1,0c-1.2,0.1-2,0.5-3.1,1c-0.6,0.3-2.3,0.3-2.7,0.9c-0.7,1.2,1.2,0.7,1.5,1.6
					c0.3,1.2-1.6,1.5-2.3,2.1c-0.7,0.7-1.7,2-1.5,3.1c0.2,0.8,0.9,1.3,1.5,1.3c0.4,0,0.8-0.2,1-0.7c0.4-0.9,0.1-1.7,0.8-2.6
					c0.5-0.6,2-1.5,2.8-1.8c0.3-0.1,0.5-0.2,0.8-0.2c0.8,0,1.5,0.4,2.3,0.8c0.8,0.4,1.5,0.8,2.4,0.8c0.2,0,0.5,0,0.7-0.1
					c0.8-0.2,1.3-1.3,2.1-1.3c0.1,0,0.2,0,0.4,0.1c1,0.3,1,1.7,1,2.5c-0.1,2.4-1.9,4.7,0.1,6.7c0.3,0.3,0.9,0.6,1.1,1.1
					c0.2,0.4-0.1,1.3-0.4,1.6c-0.3,0.3-0.9,0.3-1.3,0.5c-0.5,0.2-1,0.4-1.5,0.5c-0.5,0.1-1,0.2-1.3,0.6c-0.7,0.8,0.4,1.1,1.3,1.1
					c0.2,0,0.5,0,0.6-0.1c0.4-0.2,0.7-0.5,1.1-0.7c0.1,0,0.3,0,0.5,0c0,0,0.1,0,0.1,0c0,0,0.1,0,0.1,0c0.1,0,0.1,0,0.2,0
					c1-0.1,2.1-0.2,2.9-0.8c0.2-0.2,0.5-0.5,0.6-0.8c0.5-1.1,0.2-2.5,1.2-3.3c0.6-0.5,2.2-1.1,1.7-2.2c-0.2-0.4-0.5-0.5-0.8-0.5
					c-0.4,0-0.9,0.2-1.1,0.5c-0.5,0.4-0.9,0.7-1.3,0.7c-0.3,0-0.5-0.1-0.9-0.3c-0.8-0.5-1.4-1-1.4-2.1c-0.1-1.3,0.4-2.7,0.8-3.8
					c0.3-0.7,0.6-1.2,1-1.8c0.1-0.2,0.3-0.6,0.5-0.7c0.2-0.2,0.6-0.2,0.8-0.5c0.2-0.4-0.2-0.6-0.3-0.9c-0.2-0.5-0.1-1.2-0.1-1.8
					c-0.1-1.2-0.3-2.3-0.5-3.5c-0.4-2-1.2-5.3-3.7-5.4L56.1,19.6L56.1,19.6z"/>
			</g>
		</g>
	</g>
</g>
</svg>
