<?xml version="1.0" encoding="utf-8"?>
<!-- Generator: Adobe Illustrator 23.0.6, SVG Export Plug-In . SVG Version: 6.00 Build 0)  -->
<svg version="1.1" xmlns="http://www.w3.org/2000/svg" xmlns:xlink="http://www.w3.org/1999/xlink" x="0px" y="0px"
	 viewBox="0 0 15.8 15.3" style="enable-background:new 0 0 15.8 15.3;" xml:space="preserve">
<style type="text/css">
	.st0{fill:#FFFFFF;}
	.st1{fill:#BB4C23;}
	.st2{fill:#FFD888;}
	.st3{fill:#EC953C;}
	.st4{fill:#FEBF46;}
	.st5{fill:#D11820;}
	.st6{fill:#E53E2F;}
	.st7{fill:#EB6D51;}
	.st8{fill:#E8573F;}
	.st9{fill:#ED8063;}
	.st10{fill:#F09377;}
	.st11{fill:#F6BBA5;}
	.st12{fill:#DCB054;}
	.st13{fill:#A69357;}
	.st14{fill:#F7E5DC;}
	.st15{fill:#FAE34D;}
	.st16{fill:#FCEB93;}
	.st17{fill:#FDF2BD;}
	.st18{fill:#FEFAE6;}
	.st19{fill:#F8DE00;}
	.st20{opacity:0.33;}
	.st21{opacity:0.4;}
	.st22{fill:#F9ECD3;}
	.st23{fill:#FFDC9A;}
	.st24{fill:#FFEDCE;}
	.st25{fill:#FFE6B9;}
	.st26{fill:#EBBC92;}
	.st27{fill:#318F78;}
	.st28{fill:#48BD9F;}
	.st29{fill:#ECBB56;}
	.st30{opacity:0.57;}
	.st31{opacity:0.28;}
	.st32{fill:#EAB542;}
	.st33{fill:#E2D8CF;}
	.st34{fill:#C4AF9D;}
	.st35{fill:#90796A;}
	.st36{fill:#F1ECE8;}
	.st37{fill:#B8CC9E;}
	.st38{opacity:0.61;fill:#FFFFFF;}
	.st39{fill:#E4EADA;}
	.st40{fill:#F69182;}
	.st41{fill:#BD575D;}
	.st42{fill:#F9B6A8;}
	.st43{fill:#FBCDC2;}
	.st44{fill:#9E1C0F;}
	.st45{fill:#C14D31;}
	.st46{fill:#C75D40;}
	.st47{fill:#D88B6F;}
	.st48{fill:#E5AD96;}
	.st49{fill:#006437;}
	.st50{fill:#2F774F;}
	.st51{fill:#69A244;}
	.st52{fill:#86B061;}
	.st53{fill:#BFD1A8;}
	.st54{fill:#A00053;}
	.st55{fill:#BF4675;}
	.st56{fill:#EBC8D1;}
	.st57{fill:#CD7190;}
	.st58{fill:#FBF3F5;}
	.st59{fill:#E3B1BF;}
	.st60{fill:#440213;}
	.st61{fill:#6C3F3F;}
	.st62{fill:#8C6764;}
	.st63{fill:#9F7E7B;}
	.st64{fill:#B29895;}
	.st65{fill:#4A825F;}
	.st66{fill:#8FAB94;}
	.st67{fill:#A7BCAA;}
	.st68{fill:#95726F;}
	.st69{fill:#D3C4C1;}
	.st70{fill:#CF4841;}
	.st71{fill:#E39D8C;}
	.st72{fill:#A03631;}
	.st73{fill:#6F2F15;}
	.st74{fill:#864D31;}
	.st75{fill:#9E6E55;}
	.st76{fill:#C8AA99;}
	.st77{fill:#D9AA88;}
	.st78{fill:#E4C3A9;}
	.st79{fill:#EFDCCE;}
	.st80{fill:#895221;}
	.st81{fill:#ECD9C0;}
	.st82{fill:#E4C7A0;}
	.st83{opacity:0.67;fill:#FFFFFF;}
</style>
<g id="Layer_1">
</g>
<g id="Layer_2">
	<g>
		<g>
			<path class="st33" d="M13.4,13.4c-0.5-1.7-2.6-5-2.6-5c1.9-1,4.9,1.3,4.9-2.1c0-3.3-3.7-8.7-10.9-5c-7.2,3.7-5,9.8-2.3,11.8
				c2.7,2,2.6-1.8,4.6-2.8c0,0,1.5,3.6,2.6,5C10.1,15.7,13.6,14,13.4,13.4z"/>
			<path class="st34" d="M11,14.5c0.1-0.1,0.2-0.2,0.3-0.3c0.4-0.2,0.8-0.2,1.1-0.6c0.3-0.4-0.2-1-0.4-1.3c-0.5-0.8-0.8-1.7-1.3-2.5
				C10.4,9.3,10,8.6,10.4,8c0.5-0.7,1.4-0.6,2.2-0.7c0.6,0,1.8,0.2,2.3-0.2c0.6-0.5,0.3-1.6,0.2-2.2c-0.1-0.5-0.4-1-0.6-1.4
				c-0.2-0.4-0.4-0.3-0.7-0.6c-0.2-0.2-0.3-0.5-0.4-0.7c-0.3-0.5-0.8-0.8-1.2-1.1c-0.2-0.2-0.3-0.3-0.6-0.4c-0.1,0-0.3-0.1-0.4-0.1
				C11,0.4,11,0.2,10.8,0.1c-0.2,0-0.5,0.2-0.7,0.3c0,0.4,0.9,0.2,1,0.7c-0.6,0.3-1.1-0.3-1.7-0.2c-0.2,0-0.2,0.1-0.4,0.1
				c-0.1,0-0.3-0.1-0.4-0.1C8.2,0.9,8.2,1,8,1.3c0.4,0.4,0.9,0.4,1.4,0.4c0.2,0,0.5,0,0.6,0.2c0.1,0.1,0.2,0.3,0.3,0.4
				c-0.3,0.2-2.3,0.1-2.3,0.7c0,0.4,0.8,0.2,1,0.2C9.4,3.2,9.7,3.4,10,3.5C9.7,3.6,7.2,4.5,8.3,5c0.1,0.1,0.5-0.1,0.6,0
				c0.2,0.2-0.2,0.3-0.3,0.4c-0.5,0.3-1,0.7-1.1,1.3c0.4,0.1,1.2-0.4,1.1,0.4c0,0.4-0.4,0.6-0.3,1.1c0,0.4,0.2,0.6,0.4,0.8
				C8.8,9.4,9.1,9.8,9.3,10c0.1-0.3,0.1-0.7-0.1-1c0.7-0.5,1.2,1.2,1.3,1.6c0.1,0.4,0.4,0.6,0.5,1c0.1,0.3,0.2,0.7,0.4,1
				c-0.4,0.3-0.6-0.4-0.8-0.6c-0.2-0.2-0.4-0.3-0.6-0.4c-0.2,0.6,0.9,1.1,0.9,1.7c0,0.6-0.5,0.1-0.7-0.1c-0.1,0.3,0.2,0.8,0.4,1.1
				c0,0.1,0,0.1,0,0.2C10.8,14.5,10.9,14.5,11,14.5z"/>
			<path class="st35" d="M8.2,7.7c2.1-1.1,4.6-1.4,6.1-1.1c0.6,0.1-1.8-4.6-7.5-1.7C1,7.8,3.4,12.5,3.7,12C4.4,10.6,6.1,8.8,8.2,7.7
				z"/>
			<path class="st36" d="M0.6,9.2C0.8,9.5,0.9,9.8,1.1,10c0,0,0.4,0.5,0.3,0.5c-0.2-0.1-0.4-0.1-0.6,0.1c0.1,0.2,0.8,0.7,1.1,0.6
				c0.3-0.1,0.5,0.3,0.8,0.2c0.1-0.5-0.4-0.7-0.7-1c0.3-0.3,0.7,0,0.4-0.6C2.3,9.4,1.7,9.3,1.7,9C2,9,2.4,9,2.6,9.1
				c0.1-0.5-0.9-0.9-0.1-1C2.8,8,3,8.2,2.9,7.7C2.7,7.2,1.8,7,2,6.5c0.3,0,0.3,0.4,0.6,0.3c0.5-0.2-0.1-0.4-0.1-0.6
				c0.2,0,0.3,0.3,0.4,0.4c0.2,0.1,0.4,0,0.5,0.3c0,0,0.2-0.1,0.2-0.1c0-0.2-0.2-0.4-0.2-0.6C3.2,5.9,4.3,6,4.3,5.8
				C4.4,5.5,3.7,5.2,3.6,5C3.7,5,4,5,4.1,5c0.1,0.1,0.2,0.3,0.2,0.4c0.1,0.2,0.3,0.5,0.5,0.1c0.1-0.2-0.3-0.8,0-1
				c0.3-0.1,0.6,0.9,0.7,1c0.3,0.3,0.3,0.2,0.3,0.6C5.9,6.6,6,6.8,6.2,7c0.1,0.1,0.1,0.3,0.2,0.4c0.2,0.2,0.3,0.1,0.5,0.2
				C7.1,7.7,7.4,8,7.4,8.3c0,0.1-0.2,0.2-0.1,0.3c0,0.2,0.2,0.2,0.4,0.4c0.4,0.3,0.8,0.8,1.1,1.2c0.3,0.4,1,2,1.5,1.4
				c0.3-0.3,0.1-0.5-0.1-0.8c-0.2-0.5,0-0.4,0-0.7c0.1-0.4-0.1-1.2-0.4-1.6C9.7,8.3,9.5,8.3,9.4,8.2C9.2,7.6,9.5,7.9,9.7,8
				c0.2,0,0.4,0.2,0.5-0.2c0.1-0.3-0.4-0.7-0.5-0.9C9.4,6.6,9.2,5.8,8.9,5.6C8.5,5.2,8.1,5.5,8,4.8c0-0.3,0.1-0.2,0-0.5
				C7.9,4.2,7.7,4.1,7.6,4C7.5,3.8,7.4,3.7,7.3,3.6C7.1,3.5,6.8,3.6,7,3.2C7,3,7.4,2.9,7.5,2.8c-0.1-0.5-0.7,0-0.9-0.5
				C6.9,2.1,7.2,2.1,7.4,2C7.3,1.6,6.5,1.4,6.2,1.3c-0.9-0.1,0,0.9-0.6,1.1c-0.7,0.2-0.3-1-1-0.7c-0.5,0.2,0,0.4,0,0.8
				c0,0.2-0.3,0.4-0.1,0.7C4.2,2.9,3.7,2.2,3.3,2.4c-0.6,0.2,0.3,0.9,0,1.3c-0.4,0.5-0.8-1-1.2-0.2C1.9,3.9,2.3,4.2,2.3,4.4
				c0.1,0.2,0,0.4,0,0.6C2.2,4.9,1.9,4.4,1.6,4.4C1.2,4.5,1.7,5,1.7,5.3c0,0.2,0.2,0.4-0.2,0.5C1.1,5.9,1.1,5.4,0.9,5.3
				C0.1,5.1,1.2,6.5,1.2,6.6c0.6,0.9-1.4-0.2-0.8,0.7c0.3,0.4,0.8,0.3,1,0.8C1.1,8.2,0.6,8,0.6,8.4c0,0.1,0.5,0.8,0.5,0.8
				C0.9,9.3,0.8,9.3,0.6,9.2z"/>
		</g>
	</g>
</g>
</svg>
