<?xml version="1.0" encoding="utf-8"?>
<!-- Generator: Adobe Illustrator 23.0.6, SVG Export Plug-In . SVG Version: 6.00 Build 0)  -->
<svg version="1.1" xmlns="http://www.w3.org/2000/svg" xmlns:xlink="http://www.w3.org/1999/xlink" x="0px" y="0px"
	 viewBox="0 0 14.9 15" style="enable-background:new 0 0 14.9 15;" xml:space="preserve">
<style type="text/css">
	.st0{fill:#FFFFFF;}
	.st1{fill:#BB4C23;}
	.st2{fill:#FFD888;}
	.st3{fill:#EC953C;}
	.st4{fill:#FEBF46;}
	.st5{fill:#D11820;}
	.st6{fill:#E53E2F;}
	.st7{fill:#EB6D51;}
	.st8{fill:#E8573F;}
	.st9{fill:#ED8063;}
	.st10{fill:#F09377;}
	.st11{fill:#F6BBA5;}
	.st12{fill:#DCB054;}
	.st13{fill:#A69357;}
	.st14{fill:#F7E5DC;}
	.st15{fill:#FAE34D;}
	.st16{fill:#FCEB93;}
	.st17{fill:#FDF2BD;}
	.st18{fill:#FEFAE6;}
	.st19{fill:#F8DE00;}
	.st20{opacity:0.33;}
	.st21{opacity:0.4;}
	.st22{fill:#F9ECD3;}
	.st23{fill:#FFDC9A;}
	.st24{fill:#FFEDCE;}
	.st25{fill:#FFE6B9;}
	.st26{fill:#EBBC92;}
	.st27{fill:#318F78;}
	.st28{fill:#48BD9F;}
	.st29{fill:#ECBB56;}
	.st30{opacity:0.57;}
	.st31{opacity:0.28;}
	.st32{fill:#EAB542;}
	.st33{fill:#E2D8CF;}
	.st34{fill:#C4AF9D;}
	.st35{fill:#90796A;}
	.st36{fill:#F1ECE8;}
	.st37{fill:#B8CC9E;}
	.st38{opacity:0.61;fill:#FFFFFF;}
	.st39{fill:#E4EADA;}
	.st40{fill:#F69182;}
	.st41{fill:#BD575D;}
	.st42{fill:#F9B6A8;}
	.st43{fill:#FBCDC2;}
	.st44{fill:#9E1C0F;}
	.st45{fill:#C14D31;}
	.st46{fill:#C75D40;}
	.st47{fill:#D88B6F;}
	.st48{fill:#E5AD96;}
	.st49{fill:#006437;}
	.st50{fill:#2F774F;}
	.st51{fill:#69A244;}
	.st52{fill:#86B061;}
	.st53{fill:#BFD1A8;}
	.st54{fill:#A00053;}
	.st55{fill:#BF4675;}
	.st56{fill:#EBC8D1;}
	.st57{fill:#CD7190;}
	.st58{fill:#FBF3F5;}
	.st59{fill:#E3B1BF;}
	.st60{fill:#440213;}
	.st61{fill:#6C3F3F;}
	.st62{fill:#8C6764;}
	.st63{fill:#9F7E7B;}
	.st64{fill:#B29895;}
	.st65{fill:#4A825F;}
	.st66{fill:#8FAB94;}
	.st67{fill:#A7BCAA;}
	.st68{fill:#95726F;}
	.st69{fill:#D3C4C1;}
	.st70{fill:#CF4841;}
	.st71{fill:#E39D8C;}
	.st72{fill:#A03631;}
	.st73{fill:#6F2F15;}
	.st74{fill:#864D31;}
	.st75{fill:#9E6E55;}
	.st76{fill:#C8AA99;}
	.st77{fill:#D9AA88;}
	.st78{fill:#E4C3A9;}
	.st79{fill:#EFDCCE;}
	.st80{fill:#895221;}
	.st81{fill:#ECD9C0;}
	.st82{fill:#E4C7A0;}
	.st83{opacity:0.67;fill:#FFFFFF;}
</style>
<g id="Layer_1">
</g>
<g id="Layer_2">
	<g>
		<g>
			<path class="st5" d="M12.8,2.2c-0.1-0.1-0.2-0.1-0.2-0.2c-0.7-0.6-1.4-1.3-2.3-1.6C9.8,0.3,9.4,0.4,8.9,0.3
				C8.3,0.2,7.9-0.1,7.2,0C6.6,0.1,5.8,0.2,5.2,0.4C4,0.8,2.5,1.6,1.8,2.7C1.6,3.1,1.5,3.5,1.2,3.9c-0.4,0.5-0.8,1-0.9,1.7
				C0,6.8-0.2,8,0.4,9.1c0.3,0.5,0.2,1,0.4,1.6c0.2,0.5,0.6,1,0.9,1.5c0.6,0.8,1.6,1.6,2.4,2c1,0.5,1.9,0.8,3.1,0.8
				c0.3,0,0.5,0,0.8,0c0.6-0.1,1.3-0.2,1.8-0.4C12,13.7,14,12,14.7,9.7c0.2-0.6,0.1-1.2,0.1-1.9c0-0.7,0.2-1.1,0.1-1.8
				C14.6,4.7,13.9,3.2,12.8,2.2z"/>
			<path class="st6" d="M12.5,12.6c0.1-0.1,0.1-0.1,0.2-0.2c0.6-0.7,1.2-1.3,1.5-2.2c0.2-0.5,0.1-0.9,0.2-1.4c0.1-0.6,0.3-1,0.2-1.7
				c-0.1-0.6-0.1-1.3-0.3-1.9c-0.4-1.2-1.2-2.6-2.3-3.3c-0.4-0.2-0.8-0.3-1.1-0.6C10.4,1,10,0.7,9.3,0.5C8.1,0.2,7,0.1,5.9,0.6
				C5.3,0.8,4.9,0.8,4.3,1c-0.5,0.2-1,0.6-1.4,0.9C2.1,2.4,1.4,3.4,1,4.2c-0.5,1-0.8,1.9-0.8,3c0,0.3,0,0.5,0,0.8
				c0.1,0.6,0.2,1.2,0.4,1.8c0.8,2,2.4,4,4.6,4.6c0.6,0.2,1.2,0.1,1.8,0.1c0.7,0,1.1,0.2,1.8,0.1C10.2,14.4,11.6,13.6,12.5,12.6z"/>
			<path class="st7" d="M5.8,14.4c0.1,0,0.2,0,0.3,0c0.9,0.1,1.7,0.3,2.6,0.2c0.5-0.1,0.8-0.4,1.2-0.6c0.6-0.2,1-0.2,1.5-0.7
				c0.5-0.4,1-0.8,1.4-1.3c0.8-0.9,1.6-2.3,1.6-3.6c0-0.4-0.1-0.8-0.1-1.3c0-0.6,0.1-1.2-0.1-1.8c-0.4-1.1-0.8-2.2-1.9-2.9
				c-0.5-0.3-0.7-0.7-1.1-1.1c-0.4-0.4-1-0.5-1.5-0.7c-0.9-0.4-2-0.5-3-0.4C5.8,0.4,4.9,0.7,4,1.3C3.7,1.4,3.5,1.5,3.3,1.7
				C2.9,2.1,2.4,2.5,2.1,3C0.8,4.7,0,7.1,0.5,9.2c0.2,0.6,0.6,1,0.8,1.6c0.3,0.6,0.4,1,0.9,1.5C3.1,13.3,4.5,14.1,5.8,14.4z"/>
			<path class="st8" d="M5.9,14.1c0.1,0,0.2,0,0.3,0c0.8,0.1,1.7,0.3,2.5,0.2c0.5-0.1,0.8-0.4,1.2-0.5c0.5-0.2,1-0.2,1.5-0.6
				c0.4-0.4,1-0.8,1.3-1.2c0.8-0.9,1.5-2.2,1.5-3.4c0-0.4-0.1-0.8-0.1-1.2c0-0.6,0.1-1.1-0.1-1.7c-0.4-1.1-0.8-2.1-1.8-2.7
				c-0.4-0.3-0.7-0.7-1.1-1c-0.4-0.3-0.9-0.5-1.4-0.7C9,0.7,7.8,0.7,6.9,0.7C5.9,0.8,5,1,4.1,1.6C3.9,1.7,3.7,1.8,3.5,2
				C3.1,2.3,2.7,2.8,2.3,3.2c-1.2,1.7-2,3.9-1.4,6c0.1,0.6,0.5,1,0.8,1.5c0.3,0.5,0.4,1,0.8,1.5C3.3,13,4.6,13.8,5.9,14.1z"/>
			<path class="st5" d="M6.2,13.3c0.1,0,0.2,0,0.4,0.1c0.3,0.2,0.7,0.6,0.8,0c0.2,0.2,0.4,0.5,0.7,0.3c0.2-0.2,0-0.4,0.4-0.3
				c0.1,0,0.2,0.1,0.3,0.1c0.2-0.1,0.1-0.2,0.2-0.3c0.2-0.3,0.4,0,0.5,0.1c0.2-0.2,0.3-0.4,0.6-0.4c0.1,0,0.2-0.1,0.3-0.1
				c0.1,0,0.1,0.1,0.2,0.1c0.1,0,0.1,0.1,0.2,0c0.2-0.2-0.3-0.7,0.1-0.9c0.2-0.1,0.4,0.2,0.6,0.1c0.4-0.1,0.3-0.6,0.4-0.8
				c0.2-0.5,0.9-0.2,1.1-0.7c0.1-0.2-0.2-0.3-0.1-0.6c0-0.1,0.3-0.1,0.4-0.2C13.6,9.3,13.1,9.3,13,9c-0.1-0.5,0.9,0,0.2-0.8
				c-0.3-0.3-0.3-0.4,0-0.8c0.2-0.2,0.4-0.5-0.1-0.6c-0.2-0.1-0.3,0.1-0.5,0c-0.2-0.1-0.4-0.3-0.3-0.4c0.2-0.3,0.9-0.3,0.8-0.8
				c0-0.4-0.7-0.3-0.8-0.7c0.4-0.3,0.2-0.5-0.1-0.6c-0.3-0.1-0.5,0-0.5-0.4c0-0.2,0.2-0.5-0.2-0.6c-0.1,0-0.2,0.2-0.4,0.1
				c-0.1,0-0.2-0.2-0.3-0.2c0.3-0.2-0.2-0.5-0.3-0.6c-0.2-0.2-0.2-0.4-0.6-0.3c-0.2,0.1-0.4,0.1-0.7,0C9.6,2,9.3,1.8,9.1,1.9
				C9,1.9,8.9,2.1,8.8,2.2C8.6,2.2,8.7,2.1,8.6,2C8.5,1.9,8.4,1.7,8.2,1.7C8.1,1.7,8.1,2,8,2.1C7.6,2.2,7.7,1.7,7.3,1.7
				c-0.3,0-0.2,0.5-0.6,0.5C6.5,2.2,6.3,1.5,6,2.1C5.9,2.3,6.1,2.5,5.8,2.5c-0.3,0-0.3-0.3-0.5-0.4c-0.4-0.2-0.6,1-0.6,1
				C4.4,2.9,4.1,2.6,4,3C3.9,3.2,4.1,3.5,3.8,3.6C3.5,3.7,2.6,3.1,2.5,3.7C2.4,4,2.8,4.3,2.7,4.6C2.5,4.9,2,4.7,1.8,5
				c-0.2,0.3,0.6,1,0.6,1c-0.3,0.3-1.2,0.3-1,0.8c0.1,0.4,0.9,0.4,0.3,0.9C1.6,7.9,1.2,7.9,1.1,8.1C1,8.3,1.3,8.5,1.5,8.6
				c0.2,0.1,0.3,0,0.5,0.1c0.5,0.4-0.1,0.5-0.1,0.8c0,0.4,0.7,0,0.6,0.5c-0.1,0.3-0.7,0.6,0,0.8C2.7,11,2.9,10.7,3,11.1
				c0.1,0.2-0.2,0.5,0,0.7c0.3,0.2,0.4-0.2,0.7,0c0.3,0.2,0.2,0.6,0.3,0.9c0.2,0.5,0.4,0.2,0.6-0.1c0,0,0.6,0.6,0.6,0.7
				C5.6,13.4,5.9,13.3,6.2,13.3z"/>
			<path class="st8" d="M2.5,11.7c0.1-0.2,0.3-0.3,0.5-0.5c0.2-0.2,0.4-0.5,0.6-0.7c0.2-0.2,0.4-0.2,0.6-0.4
				c0.2-0.2,0.4-0.5,0.6-0.7C5.2,9,5.6,8.7,6,8.3c0.4-0.3,0.6-0.7,0.9-1C7.6,6.6,8.4,6,9.1,5.2c0.4-0.4,0.8-0.8,1.1-1.2
				c0.3-0.3,0.5-0.6,0.8-0.9c0.3-0.3,0.4-0.2,0.7-0.4c0.2,0.1,0.4,0.2,0.5,0.4c0.1,0.2,0.2,0.4,0.4,0.5c0.1,0.2,0.1,0.2-0.1,0.4
				c-0.2,0.2-0.5,0.4-0.7,0.7c-0.5,0.5-1.1,0.6-1.6,1.1C9.8,6.3,9.4,6.7,9,7.1C8.3,7.9,7.5,8.5,6.7,9.3c-0.3,0.3-0.5,0.5-0.8,0.8
				c-0.5,0.4-0.8,0.7-1.2,1.1c-0.4,0.4-0.7,0.7-1.1,1.1c-0.1,0.1-0.2,0.2-0.3,0.3L2.5,11.7z"/>
			<path class="st9" d="M6.1,9.5C5.7,9.9,5.4,10.3,5,10.7c-0.3,0.3-0.6,0.6-0.9,0.9C4,11.7,4,11.7,3.9,11.8c0,0,0,0.1,0,0.1
				c0,0.1-0.1,0.1-0.2,0.2c-0.1,0.1,0,0.1-0.2,0.2c-0.1-0.1-0.1-0.1-0.2-0.1c-0.1,0-0.1,0.1-0.3,0C3,12.1,3,12,2.9,11.9
				c-0.1-0.3,0-0.2-0.2-0.3c-0.1-0.1-0.3-0.2-0.2-0.3c0.1-0.1,0.2-0.1,0.4-0.1c0.3-0.1,0.5-0.3,0.7-0.5c0.3-0.2,0.5-0.4,0.7-0.6
				c0.4-0.4,0.9-0.5,1.2-0.9c0.3-0.3,0.6-0.7,0.9-1C6.9,7.5,7.6,7,8.2,6.4C8.4,6.2,8.6,6,8.9,5.8c0.4-0.3,0.6-0.6,0.9-0.9
				c0.3-0.3,0.6-0.5,0.9-0.9c0.1-0.1,0.2-0.3,0.3-0.4c0.1-0.2,0.3-0.3,0.4-0.5c0.1-0.1,0.3-0.3,0.4,0c0.1,0.1-0.1,0.3,0.1,0.4
				c0.1,0.1,0.2,0,0.4,0c0,0,0.1,0.1,0.1,0.1c0.1,0,0.1,0,0.2,0.1c0.1,0.1,0,0.3-0.1,0.4c-0.1,0.1-0.2,0.1-0.4,0.2
				c-0.1,0.1-0.3,0.4-0.4,0.4c-0.2,0.1-0.4,0-0.5,0.2c-0.2,0.2-0.2,0.4-0.4,0.6c-0.2,0.1-0.3,0.2-0.5,0.3C9.9,5.9,9.8,6.1,9.6,6.3
				C9.3,6.6,9,6.9,8.7,7.1C8.5,7.4,8.3,7.7,8,8C7.9,8.1,7.7,8.3,7.5,8.4C7.3,8.7,7.1,8.7,6.9,8.8C6.6,9,6.3,9.3,6.1,9.5z"/>
			<g>
				<path class="st9" d="M7.4,8.2c0,0.2,0.1,0.4,0.1,0.7c0,0.3-0.2,0.5-0.3,0.7C7,9.8,6,11,6.5,11.2c0,0,0.3,0,0.3-0.1
					c0.1-0.1,0-0.2,0-0.3c0.2,0.1,0.2,0.2,0.3,0.4c0,0.1,0.1,0.1,0.2,0.1c0.1,0,0.1-0.1,0.1-0.1c0,0,0.1-0.1,0.1-0.1
					c0.1,0,0.1,0.1,0.2,0c0.1-0.1,0-0.3,0.1-0.4c0.2,0.1,0.4,0.7,0.5,0.3c0-0.1-0.1-0.1,0-0.2c0.1,0,0.2,0.2,0.2,0.2
					c0.1,0.1,0.3,0.2,0.4,0.1c0.1-0.1-0.1-0.3,0-0.4c0.1-0.2,0.5,0.3,0.8,0.1c0.3-0.2,0.2-0.4,0.1-0.6c-0.1-0.5,0.4-0.1,0.6-0.1
					c0.2,0,0.1-0.1,0.2-0.2c0-0.1,0-0.2,0-0.3c0-0.1-0.1-0.1-0.1-0.2c0.1,0,0.2,0,0.2,0c0.5,0-0.1-0.6-0.1-0.7c0.1,0,0.5,0,0.4-0.2
					c0-0.1-0.2-0.1-0.3-0.2c-0.1-0.1-0.2-0.2-0.3-0.2C10.8,8,11.1,8,11.1,7.8c0-0.2-0.3-0.1-0.4-0.2c-0.2-0.3,0.3-0.3,0.3-0.4
					C11.2,6.7,10.5,7,10.3,7C9.9,7.2,9.5,7.4,9.1,7.4c-0.2,0-0.4-0.2-0.6-0.2c-0.2,0-0.4,0.1-0.5,0L7.4,8.2z"/>
				<path class="st10" d="M7.6,8.2c0.1,0.1,0.1,0.2,0.2,0.2c0.1,0.2,0,0.5-0.1,0.7C7.6,9.3,7.1,9.8,7.2,10c0.2,0.4,0.4-0.4,0.5-0.4
					c0.4-0.3,0.3,0.6,0.4,0.7c0,0.1,0.3,0.3,0.4,0.3c0.1-0.1,0-0.5,0-0.6c0-0.1-0.2-0.4-0.2-0.5c0.1-0.3,0.3,0,0.4,0.2
					c0.2,0.2,0.9,0.9,0.6,0.3C9.2,9.8,8.8,9.4,8.9,9.2c0.1-0.2,0.2-0.1,0.4,0c0.1,0.1,0.4,0.5,0.5,0.4C9.9,9.5,9.5,9.1,9.4,9
					C9.3,8.9,9,8.8,9.1,8.6c0.1-0.2,0.5,0.2,0.7,0.2c0.2,0.1,0.4,0.1,0.4-0.1c0-0.4-0.6-0.3-0.8-0.4C9.3,8.2,8.9,8.1,9.2,8
					C9.4,7.8,9.6,8,9.8,7.8C9.4,7.4,9,7.9,8.6,8C8.4,8.1,8.1,8,7.9,7.8C7.8,7.6,7.8,7.5,7.7,7.6c-0.1,0-0.2,0.2-0.2,0.3
					C7.4,8,7.5,8.1,7.6,8.2z"/>
			</g>
			<g>
				<path class="st9" d="M7.7,7c0-0.2-0.1-0.4-0.1-0.7c0-0.3,0.2-0.5,0.3-0.7c0.1-0.3,0.3-0.5,0.5-0.8c0.1-0.2,0.1-0.4-0.1-0.5
					C8.1,4.2,8.1,4.4,7.9,4.4c-0.2,0-0.4-0.5-0.6-0.3c-0.1,0-0.1,0.1-0.2,0.2C7,4.1,6.8,3.8,6.6,3.9C6.5,4,6.6,4.3,6.4,4.3
					C6.2,4.4,6.2,4,6,4.2C5.8,4.3,5.9,4.4,5.8,4.6C5.6,4.5,5.4,4.2,5.2,4.4C5.1,4.7,5.5,5.1,5.3,5.3C5.2,5.4,5.1,5.2,5,5.1
					C4.6,4.8,4.9,5.5,4.8,5.6C4.7,5.7,4.5,5.5,4.4,5.4c-0.3-0.2-0.1,0.1,0,0.2c0.1,0.2,0,0.3-0.2,0.3C4,5.9,3.9,5.7,3.8,6
					c-0.1,0.2-0.2,0.2,0,0.4c0.2,0.2,0.5,0.3,0,0.5C3.1,7.2,4.1,7.2,4.1,7.4c0,0.1-0.2,0.3-0.3,0.4C4,7.9,4.4,7.9,4.3,8.2
					C4.2,8.3,4,8.3,4.1,8.5c0.1,0.1,0.3,0,0.3-0.1c0.1-0.1,0.3-0.2,0.4-0.2C5.2,8,5.6,7.8,6,7.9c0.2,0,0.4,0.2,0.6,0.2
					c0.2,0,0.4-0.2,0.5,0L7.7,7z"/>
				<path class="st10" d="M7.5,7C7.4,7,7.3,6.9,7.3,6.7c-0.1-0.2,0-0.4,0.1-0.6c0.1-0.2,0.5-0.7,0.4-0.9C7.6,4.8,7.4,5.6,7.3,5.6
					C6.9,6,7.1,5.1,7,4.9c0-0.1-0.3-0.3-0.4-0.3c-0.1,0.1,0,0.5,0,0.6c0,0.1,0.3,0.4,0.2,0.5C6.6,6,6.5,5.7,6.4,5.6
					C6.2,5.4,5.5,4.7,5.7,5.3c0.1,0.2,0.5,0.5,0.4,0.7C6.1,6.3,5.9,6.1,5.8,6C5.7,6,5.4,5.6,5.3,5.6C5.1,5.7,5.6,6.2,5.6,6.2
					c0.1,0.1,0.4,0.3,0.3,0.4C5.8,6.8,5.4,6.5,5.2,6.4C5,6.4,4.8,6.4,4.8,6.6C4.8,7,5.4,6.9,5.6,7c0.1,0,0.5,0.2,0.2,0.3
					C5.7,7.4,5.5,7.2,5.3,7.4C5.7,7.9,6,7.4,6.4,7.2C6.8,7.1,7,7.4,7.2,7.6C7.5,7.8,8,7.5,7.7,7.2C7.6,7.2,7.6,7.1,7.5,7z"/>
			</g>
			<path class="st10" d="M4.8,10C5,9.9,5,9.7,5.2,9.6c0,0,0.2,0,0.2-0.1c0.1,0,0.1-0.2,0.2-0.2C5.8,9.1,6,9,6.1,8.9
				c0.2-0.2,0.6-0.8,0.8-0.5C6.7,8.6,6.4,8.9,6.2,9C6.1,9.1,6,9.3,5.9,9.4C5.8,9.5,5.7,9.5,5.6,9.5C5.5,9.7,5.6,9.8,5.5,9.9
				c-0.2,0.3-0.6,0.3-0.8,0.6c-0.3,0.3-0.5,0.7-0.8,1c-0.1,0.1-0.3,0.4-0.5,0.3c-0.1,0-0.4-0.4-0.4-0.4c0.1-0.1,0.1,0,0.2-0.1
				c0.1,0,0.1-0.1,0.1-0.1c0.2-0.2,0.4-0.4,0.6-0.6C4.1,10.2,4.5,10.3,4.8,10z"/>
			<path class="st10" d="M8.1,6.8c0-0.2,0.4-0.5,0.6-0.7C8.9,6,9.3,5.9,9.5,5.7c0.1-0.1,0.3-0.4,0.4-0.6c0.2-0.2,0.3-0.5,0.6-0.7
				c0.1-0.1,0.2-0.3,0.4-0.4c0.1-0.1,0.3-0.2,0.4-0.4c0-0.1,0-0.2,0.1-0.3c0.2-0.1,0.2,0.2,0.3,0.3c0.1,0.1,0.3,0,0.3,0.1
				c0.2,0.3-0.9,0.8-1.1,0.9c-0.1,0.1-0.3,0.1-0.4,0.2c-0.1,0.1-0.2,0.2-0.3,0.4c-0.1,0.1-0.2,0.1-0.3,0.2C9.9,5.5,9.9,5.6,9.8,5.7
				C9.6,6,9.4,6,9.1,6.1C8.7,6.4,8.4,6.5,8.2,7L8.1,6.8z"/>
			<g>
				<path class="st11" d="M7.9,7.2C7.9,7.2,7.9,7.2,7.9,7.2C7.8,7.1,7.8,7,7.7,7c0,0-0.1,0-0.1,0C7.5,7,7.5,7,7.4,7
					C7.3,7,7.3,7,7.2,7C7.1,7,7,7.1,6.9,7.2c0,0,0,0.1-0.1,0.1c0,0.1-0.1,0.1-0.1,0.2c0,0.1,0,0.2,0,0.3c0,0,0,0.1,0,0.1
					c0,0.1,0.1,0.1,0.1,0.1C6.9,8.2,7,8.3,7.1,8.3c0.1,0.1,0.2,0.1,0.3,0.1c0,0,0.1,0,0.1,0c0.1,0,0.1,0,0.2,0
					C7.9,8.3,8,8.1,8.1,7.9c0-0.1,0-0.1,0-0.2c0-0.1,0-0.1,0-0.2C8.1,7.4,8,7.3,7.9,7.2z"/>
				<path class="st12" d="M7.6,8.2C7.6,8.2,7.6,8.2,7.6,8.2c0.1,0,0.1-0.1,0.2-0.1c0,0,0-0.1,0.1-0.1c0,0,0.1-0.1,0.1-0.1
					c0,0,0-0.1,0-0.1c0-0.1,0-0.2,0-0.3c0,0,0,0-0.1-0.1c0,0,0-0.1-0.1-0.1C7.7,7.2,7.6,7.1,7.5,7.1c0,0-0.1,0-0.1,0
					c0,0-0.1,0-0.1,0c-0.1,0-0.2,0.1-0.2,0.1C7,7.3,7,7.3,6.9,7.4c0,0,0,0,0,0.1c0,0,0,0.1,0,0.1c0,0.2,0,0.4,0.2,0.5
					c0,0,0.1,0,0.1,0.1c0,0,0.1,0.1,0.1,0.1C7.4,8.2,7.5,8.2,7.6,8.2z"/>
				<path class="st13" d="M7.7,7.5C7.7,7.5,7.7,7.5,7.7,7.5c0,0-0.1-0.1-0.1-0.1c0,0,0,0-0.1,0c0,0,0,0-0.1,0c0,0-0.1,0-0.1,0
					c-0.1,0-0.1,0-0.2,0.1c0,0,0,0,0,0c0,0,0,0,0,0.1c0,0.1,0,0.1,0,0.2c0,0,0,0,0,0.1c0,0,0,0,0,0.1c0,0,0.1,0.1,0.1,0.1
					c0,0,0.1,0,0.1,0c0,0,0,0,0,0c0,0,0.1,0,0.1,0c0.1,0,0.2-0.1,0.2-0.2c0,0,0-0.1,0-0.1c0,0,0,0,0-0.1C7.7,7.6,7.7,7.5,7.7,7.5z"
					/>
			</g>
			<g>
				<g>
					<path class="st8" d="M2.7,10.3c0,0,0-0.1,0-0.1c0-0.1,0.2-0.2,0.2-0.4c0-0.3-0.2-0.2-0.3-0.4c-0.1-0.1,0-0.3,0-0.4
						c0.1-0.1,0.2-0.1,0.2-0.3c0-0.2-0.2-0.2-0.3-0.3c-0.3-0.2-0.6-0.4,0-0.5c0.2,0,0.7,0.1,0.9,0.3c0.3,0.3-0.2,0.3-0.2,0.6
						c0,0.4,1.1,0.1,0.4,0.8C3.8,9.6,2.9,10.6,2.7,10.3z"/>
					<path class="st8" d="M2.4,7c-0.3,0-0.2-0.3,0-0.4C2.6,6.5,2.9,6.7,3,6.4c0.1-0.3-0.8-0.8-0.4-1.1C2.7,5.4,3,5.5,3.2,5.5
						C3.3,5.1,2.8,5,2.9,4.7c0.1-0.4,0.6-0.2,0.7,0C3.6,4.8,3.7,5,3.6,5.2C3.5,5.3,3.4,5.3,3.3,5.4c-0.1,0.1,0.1,0.2,0,0.4
						C3.2,5.9,3,5.9,2.9,6c0.2,0.2,0.2,0.3,0.2,0.6c0,0.1,0,0.2,0,0.3c0,0.2,0.2,0.3-0.1,0.4L2.4,7z"/>
					<path class="st8" d="M4.5,3.3C5.2,4.1,5,2.8,5.2,2.6c0.1,0,0.6,0.8,0.1,1.1C5.2,3.8,5,3.7,4.8,3.8C4.7,4,4.7,4.3,4.6,4.5
						C4.1,5,3.3,3.9,3.5,3.8C3.7,3.7,4,4.3,4.3,4C4.5,3.9,4.2,3.5,4.5,3.3z"/>
					<path class="st8" d="M6.3,3.3C6.3,3.3,6.3,3.2,6.3,3.3C6.1,3.1,6,3.3,5.9,3c0.5-0.2,0.3-0.6,0.8-0.3C7.2,3,7,2.5,7.4,2.2
						c0.1,0.1,0.4,0.4,0.5,0.4c0.2,0,0.3-0.4,0.6-0.3c0.5,0.1,0.2,1.4-0.1,1.5C7.8,3.8,8,2.6,7.5,3C7.4,3.1,7.3,3.2,7.2,3.2
						c0,0,0,0.1-0.1,0.1C7.1,3.4,7,3.2,7,3.3C6.8,3.4,6.8,3.6,6.8,3.8C6.6,3.8,6.5,3.4,6.3,3.3z"/>
					<path class="st8" d="M9,3.7C9,3.4,9.2,2.9,9.5,2.9c0.3-0.1,0.7,0.1,0.6,0.4C10,3.6,9.6,3.8,9.4,4.1C9.3,4.3,9.2,4.7,9,4.3
						C8.9,4.1,8.9,3.9,9,3.7z"/>
				</g>
				<g>
					<path class="st8" d="M12,5.1c0,0,0,0.1,0,0.1c0,0.1-0.2,0.2-0.2,0.4c0,0.3,0.2,0.2,0.3,0.4c0.1,0.1,0,0.3,0,0.4
						c-0.1,0.1-0.2,0.1-0.2,0.3c0,0.2,0.2,0.2,0.3,0.3c0.3,0.2,0.6,0.4,0,0.5c-0.2,0-0.7-0.1-0.9-0.3C11.1,7,11.6,7,11.6,6.7
						c0-0.4-1.1-0.1-0.4-0.8C10.9,5.7,11.8,4.7,12,5.1z"/>
					<path class="st8" d="M12.8,8.3c0.3,0,0.2,0.3,0,0.4c-0.2,0.1-0.5-0.1-0.6,0.1C12,9.2,13,9.7,12.6,9.9c-0.2-0.1-0.4-0.2-0.7-0.1
						c-0.1,0.4,0.4,0.5,0.3,0.8c-0.1,0.4-0.6,0.2-0.7,0c-0.1-0.1-0.1-0.3-0.1-0.5c0.1-0.2,0.3-0.1,0.3-0.2c0.1-0.1-0.1-0.2,0-0.4
						c0.1-0.1,0.3-0.2,0.4-0.3c-0.2-0.2-0.2-0.3-0.2-0.6c0-0.1,0-0.2,0-0.3c0-0.2-0.2-0.3,0.1-0.4L12.8,8.3z"/>
					<path class="st8" d="M10.5,12c-0.7-0.8-0.5,0.5-0.7,0.7c-0.1,0-0.6-0.8-0.1-1.1c0.1-0.1,0.3,0,0.5-0.1c0.2-0.2,0.1-0.5,0.3-0.6
						c0.5-0.5,1.2,0.6,1.1,0.7c-0.3,0.1-0.5-0.5-0.8-0.2C10.5,11.5,10.8,11.9,10.5,12z"/>
					<path class="st8" d="M8.7,12.1C8.7,12.1,8.8,12.1,8.7,12.1c0.2,0.1,0.3,0,0.4,0.3c-0.5,0.2-0.3,0.6-0.8,0.3
						c-0.6-0.3-0.3,0.2-0.7,0.5c-0.1-0.1-0.4-0.4-0.5-0.4c-0.2,0-0.3,0.4-0.6,0.3c-0.5-0.1-0.2-1.4,0.1-1.5c0.6-0.1,0.3,1.1,0.9,0.7
						c0.1-0.1,0.1-0.2,0.2-0.2c0,0,0-0.1,0.1-0.1c0.1,0,0.1,0.1,0.2,0.1c0.2-0.1,0.1-0.3,0.2-0.5C8.4,11.6,8.6,11.9,8.7,12.1z"/>
					<path class="st8" d="M5.8,11.6c-0.1,0.4-0.3,0.8-0.5,0.8c-0.3,0.1-0.7-0.1-0.6-0.4c0.1-0.3,0.5-0.6,0.7-0.8
						C5.4,11,5.5,10.6,5.7,11C5.8,11.2,5.8,11.4,5.8,11.6z"/>
				</g>
			</g>
			<g>
				<path class="st14" d="M4.4,1.2C4.1,1.3,3.9,1.4,3.6,1.5C3.3,1.6,3.3,1.9,3.1,2.1C2.8,2.5,2.2,2.5,1.9,2.9
					c-0.2,0.2,0,0.5-0.1,0.7C1.7,3.9,1.4,4,1.2,4.2C0.9,4.6,0.9,4.9,0.8,5.4c0,0.2-0.4,1.3,0,1.1c0.3-0.1,0.1-0.5,0-0.7
					c0-0.2,0-0.5,0.1-0.7C1.1,5,1.2,5,1.2,4.9c0-0.1,0-0.2,0-0.2c0.1-0.1,0.1-0.2,0.2-0.3C1.6,4.1,1.9,4,2,3.8C2.2,3.5,2,3.2,2.3,3
					C2.5,2.8,2.8,2.7,3,2.4c0.2-0.3,0.4-0.4,0.6-0.6c0.1-0.1,0.2-0.3,0.3-0.3c0.2-0.1,0.4,0,0.5-0.1c0.4-0.1,0.7-0.4,1-0.6
					c0.3-0.1,0.8-0.3,1.1-0.3c0.4,0,0.7,0.1,1.1,0c0.2,0,0.8,0.2,0.7-0.2C8.2,0,7.6,0.4,7.4,0.4c-0.2,0-0.4,0-0.6,0
					c-0.2,0-0.5,0-0.7,0c-0.3,0-0.5,0-0.7,0.2C5.2,0.7,5,0.8,4.7,1C4.6,1.1,4.5,1.1,4.4,1.2z"/>
				<path class="st14" d="M9.5,0.6c0-0.1-0.1-0.2-0.2-0.2C8.8,0.3,8.6,0.7,9.1,0.8C9.3,0.9,9.5,0.8,9.5,0.6z"/>
			</g>
		</g>
		<g>
			<g>
				<path class="st12" d="M7.6,12.4c0-0.2-0.1-0.3-0.1-0.3c-0.1,0-0.1,0.1-0.1,0.3c0,0.2,0.1,0.3,0.1,0.3
					C7.5,12.7,7.6,12.6,7.6,12.4z"/>
				<path class="st12" d="M7.6,2.5c0-0.2-0.1-0.3-0.1-0.3c-0.1,0-0.1,0.1-0.1,0.3c0,0.2,0.1,0.3,0.1,0.3C7.5,2.8,7.6,2.7,7.6,2.5z"
					/>
			</g>
			<g>
				<path class="st12" d="M11.1,10.9c-0.1-0.1-0.2-0.2-0.3-0.1c-0.1,0.1,0,0.2,0.1,0.3c0.1,0.1,0.2,0.2,0.3,0.1
					C11.2,11.1,11.2,11,11.1,10.9z"/>
				<path class="st12" d="M4.1,3.9C4,3.8,3.8,3.7,3.8,3.8C3.7,3.8,3.8,4,3.9,4.1C4,4.2,4.1,4.2,4.2,4.2C4.2,4.1,4.2,4,4.1,3.9z"/>
			</g>
			<g>
				<path class="st12" d="M12.4,7.3c-0.2,0-0.3,0.1-0.3,0.1c0,0.1,0.1,0.1,0.3,0.1c0.2,0,0.3-0.1,0.3-0.1
					C12.7,7.4,12.6,7.3,12.4,7.3z"/>
				<path class="st12" d="M2.5,7.3c-0.2,0-0.3,0.1-0.3,0.1c0,0.1,0.1,0.1,0.3,0.1c0.2,0,0.3-0.1,0.3-0.1C2.8,7.4,2.7,7.3,2.5,7.3z"
					/>
			</g>
		</g>
		<g>
			<g>
				<path class="st12" d="M3.3,10C3.4,10,3.5,9.9,3.4,9.8c0-0.1-0.2,0-0.3,0C3,9.9,2.9,10,2.9,10.1C3,10.1,3.1,10.1,3.3,10z"/>
				<path class="st12" d="M11.8,5.1C12,5,12,4.9,12,4.9c0-0.1-0.2,0-0.3,0c-0.1,0.1-0.2,0.2-0.2,0.3C11.5,5.2,11.7,5.2,11.8,5.1z"/>
			</g>
			<g>
				<path class="st12" d="M6.3,12.3c0-0.2,0-0.3,0-0.3c-0.1,0-0.2,0.1-0.2,0.3c0,0.2,0,0.3,0,0.3C6.2,12.5,6.3,12.4,6.3,12.3z"/>
				<path class="st12" d="M8.9,2.7c0-0.2,0-0.3,0-0.3c-0.1,0-0.2,0.1-0.2,0.3c0,0.2,0,0.3,0,0.3C8.7,3,8.8,2.9,8.9,2.7z"/>
			</g>
			<g>
				<path class="st12" d="M10.1,11.7c-0.1-0.1-0.2-0.2-0.3-0.2c-0.1,0,0,0.2,0,0.3C9.9,12,10,12,10.1,12
					C10.1,12,10.1,11.8,10.1,11.7z"/>
				<path class="st12" d="M5.1,3.1C5,3,4.9,2.9,4.9,2.9c-0.1,0,0,0.2,0,0.3C5,3.4,5.1,3.5,5.1,3.4C5.2,3.4,5.2,3.3,5.1,3.1z"/>
			</g>
			<g>
				<path class="st12" d="M12.3,8.6c-0.2,0-0.3,0-0.3,0c0,0.1,0.1,0.2,0.3,0.2c0.2,0,0.3,0,0.3,0C12.5,8.8,12.4,8.7,12.3,8.6z"/>
				<path class="st12" d="M2.7,6.1c-0.2,0-0.3,0-0.3,0c0,0.1,0.1,0.2,0.3,0.2c0.2,0,0.3,0,0.3,0C3,6.2,2.9,6.1,2.7,6.1z"/>
			</g>
		</g>
		<g>
			<g>
				<path class="st12" d="M2.7,8.9C2.9,8.8,3,8.7,3,8.7c0-0.1-0.2-0.1-0.3,0c-0.2,0-0.3,0.1-0.3,0.2C2.4,8.9,2.6,8.9,2.7,8.9z"/>
				<path class="st12" d="M12.3,6.3c0.2,0,0.3-0.1,0.3-0.2c0-0.1-0.2-0.1-0.3,0c-0.2,0-0.3,0.1-0.3,0.2C12,6.3,12.1,6.4,12.3,6.3z"
					/>
			</g>
			<g>
				<path class="st12" d="M5.1,11.8c0.1-0.1,0.1-0.3,0-0.3c-0.1,0-0.2,0-0.3,0.2c-0.1,0.1-0.1,0.3,0,0.3C4.9,12,5,12,5.1,11.8z"/>
				<path class="st12" d="M10.1,3.3c0.1-0.1,0.1-0.3,0-0.3c-0.1,0-0.2,0-0.3,0.2c-0.1,0.1-0.1,0.3,0,0.3C9.9,3.5,10,3.4,10.1,3.3z"
					/>
			</g>
			<g>
				<path class="st12" d="M8.9,12.2c0-0.2-0.1-0.3-0.2-0.3c-0.1,0-0.1,0.2,0,0.3c0,0.2,0.1,0.3,0.2,0.3C8.9,12.5,8.9,12.4,8.9,12.2z
					"/>
				<path class="st12" d="M6.3,2.7c0-0.2-0.1-0.3-0.2-0.3C6,2.4,6,2.6,6.1,2.7C6.1,2.9,6.2,3,6.3,3C6.3,3,6.4,2.8,6.3,2.7z"/>
			</g>
			<g>
				<path class="st12" d="M11.8,9.8c-0.1-0.1-0.3-0.1-0.3,0c0,0.1,0,0.2,0.2,0.3c0.1,0.1,0.3,0.1,0.3,0C12,10,12,9.9,11.8,9.8z"/>
				<path class="st12" d="M3.3,4.9C3.1,4.8,3,4.8,2.9,4.9c0,0.1,0,0.2,0.2,0.3c0.1,0.1,0.3,0.1,0.3,0C3.5,5.1,3.4,5,3.3,4.9z"/>
			</g>
		</g>
	</g>
</g>
</svg>
