<?xml version="1.0" encoding="utf-8"?>
<!-- Generator: Adobe Illustrator 15.1.0, SVG Export Plug-In . SVG Version: 6.00 Build 0)  -->
<!DOCTYPE svg PUBLIC "-//W3C//DTD SVG 1.1//EN" "http://www.w3.org/Graphics/SVG/1.1/DTD/svg11.dtd">
<svg version="1.1" id="Capa_1" xmlns="http://www.w3.org/2000/svg" xmlns:xlink="http://www.w3.org/1999/xlink" x="0px" y="0px"
	 width="184.594px" height="232.314px" viewBox="0 0 184.594 232.314" enable-background="new 0 0 184.594 232.314"
	 xml:space="preserve">
<g display="none">
	<g display="inline">
		<defs>
			<rect id="SVGID_1_" x="0" y="0" width="184.594" height="232.314"/>
		</defs>
		<clipPath id="SVGID_2_">
			<use xlink:href="#SVGID_1_"  overflow="visible"/>
		</clipPath>
		<path clip-path="url(#SVGID_2_)" fill="#FFFFFF" d="M35.175,198.353c-9.263,4.265-27.314,1.437-32.062,6.871
			c-6.296,7.21,15.656,8.202,26.294,9.867c18.051,2.827,17.849,15.295,36.387,12.738c7.163-0.989,11.128-6.483,18.391-9.084
			c7.262-2.601,22.124-5.382,17.978-12.706c-3.443-6.084-22.144-4.607-31.66-7.75C64.991,196.473,46.316,193.222,35.175,198.353"/>
	</g>
	<g display="inline">
		<defs>
			<rect id="SVGID_3_" x="0" y="0" width="184.594" height="232.314"/>
		</defs>
		<clipPath id="SVGID_4_">
			<use xlink:href="#SVGID_3_"  overflow="visible"/>
		</clipPath>
		<path clip-path="url(#SVGID_4_)" fill="#FCFCFC" d="M35.946,198.948c-8.842,4.07-26.073,1.371-30.604,6.559
			c-6.011,6.884,14.944,7.831,25.098,9.421c17.232,2.699,17.038,14.601,34.735,12.159c6.836-0.943,10.622-6.19,17.554-8.672
			c6.935-2.482,21.119-5.137,17.161-12.128c-3.287-5.809-21.137-4.399-30.222-7.397C64.408,197.153,46.581,194.049,35.946,198.948"
			/>
	</g>
	<g display="inline">
		<defs>
			<rect id="SVGID_5_" x="0" y="0" width="184.594" height="232.314"/>
		</defs>
		<clipPath id="SVGID_6_">
			<use xlink:href="#SVGID_5_"  overflow="visible"/>
		</clipPath>
		<path clip-path="url(#SVGID_6_)" fill="#F9F9F9" d="M36.716,199.542c-8.421,3.877-24.834,1.307-29.148,6.246
			c-5.726,6.558,14.232,7.459,23.904,8.975c16.411,2.569,16.226,13.903,33.082,11.579c6.512-0.898,10.116-5.896,16.72-8.26
			c6.604-2.363,20.114-4.894,16.345-11.552c-3.132-5.53-20.133-4.189-28.785-7.046C63.824,197.833,46.844,194.877,36.716,199.542"/>
	</g>
	<g display="inline">
		<defs>
			<rect id="SVGID_7_" x="0" y="0" width="184.594" height="232.314"/>
		</defs>
		<clipPath id="SVGID_8_">
			<use xlink:href="#SVGID_7_"  overflow="visible"/>
		</clipPath>
		<path clip-path="url(#SVGID_8_)" fill="#F7F7F7" d="M37.486,200.136c-8,3.684-23.593,1.241-27.69,5.936
			c-5.44,6.229,13.521,7.086,22.71,8.524c15.591,2.44,15.416,13.211,31.428,11.002c6.188-0.854,9.613-5.604,15.885-7.849
			c6.273-2.245,19.109-4.646,15.528-10.973c-2.974-5.256-19.127-3.98-27.346-6.695C63.241,198.511,47.109,195.705,37.486,200.136"/>
	</g>
	<g display="inline">
		<defs>
			<rect id="SVGID_9_" x="0" y="0" width="184.594" height="232.314"/>
		</defs>
		<clipPath id="SVGID_10_">
			<use xlink:href="#SVGID_9_"  overflow="visible"/>
		</clipPath>
		<path clip-path="url(#SVGID_10_)" fill="#F4F4F4" d="M38.256,200.731c-7.579,3.49-22.354,1.176-26.235,5.623
			c-5.153,5.9,12.811,6.713,21.516,8.077c14.771,2.312,14.605,12.515,29.776,10.423c5.861-0.81,9.106-5.308,15.048-7.436
			c5.945-2.128,18.106-4.402,14.712-10.396c-2.817-4.979-18.12-3.771-25.908-6.343C62.657,199.192,47.373,196.533,38.256,200.731"/>
	</g>
	<g display="inline">
		<defs>
			<rect id="SVGID_11_" x="0" y="0" width="184.594" height="232.314"/>
		</defs>
		<clipPath id="SVGID_12_">
			<use xlink:href="#SVGID_11_"  overflow="visible"/>
		</clipPath>
		<path clip-path="url(#SVGID_12_)" fill="#F1F1F1" d="M39.027,201.326c-7.158,3.296-21.111,1.11-24.778,5.312
			c-4.868,5.572,12.098,6.341,20.32,7.629c13.952,2.185,13.795,11.819,28.124,9.845c5.536-0.764,8.602-5.013,14.215-7.022
			c5.612-2.01,17.1-4.157,13.895-9.817c-2.663-4.703-17.115-3.563-24.471-5.991C62.073,199.873,47.637,197.361,39.027,201.326"/>
	</g>
	<g display="inline">
		<defs>
			<rect id="SVGID_13_" x="0" y="0" width="184.594" height="232.314"/>
		</defs>
		<clipPath id="SVGID_14_">
			<use xlink:href="#SVGID_13_"  overflow="visible"/>
		</clipPath>
		<path clip-path="url(#SVGID_14_)" fill="#EEEEEE" d="M39.797,201.92c-6.738,3.104-19.872,1.045-23.323,4.999
			c-4.582,5.246,11.387,5.967,19.127,7.181c13.132,2.057,12.984,11.127,26.47,9.267c5.212-0.719,8.097-4.718,13.38-6.61
			c5.284-1.891,16.095-3.914,13.078-9.241c-2.505-4.427-16.108-3.354-23.032-5.639C61.488,200.552,47.901,198.189,39.797,201.92"/>
	</g>
	<g display="inline">
		<defs>
			<rect id="SVGID_15_" x="0" y="0" width="184.594" height="232.314"/>
		</defs>
		<clipPath id="SVGID_16_">
			<use xlink:href="#SVGID_15_"  overflow="visible"/>
		</clipPath>
		<path clip-path="url(#SVGID_16_)" fill="#ECECEC" d="M40.568,202.515c-6.317,2.908-18.632,0.979-21.866,4.687
			c-4.297,4.919,10.677,5.596,17.932,6.731c12.312,1.929,12.174,10.433,24.819,8.688c4.886-0.674,7.59-4.424,12.543-6.196
			c4.955-1.773,15.091-3.671,12.262-8.666c-2.349-4.149-15.104-3.143-21.594-5.285C60.905,201.233,48.166,199.015,40.568,202.515"/>
	</g>
	<g display="inline">
		<defs>
			<rect id="SVGID_17_" x="0" y="0" width="184.594" height="232.314"/>
		</defs>
		<clipPath id="SVGID_18_">
			<use xlink:href="#SVGID_17_"  overflow="visible"/>
		</clipPath>
		<path clip-path="url(#SVGID_18_)" fill="#E9E9E9" d="M41.337,203.11c-5.896,2.715-17.392,0.915-20.411,4.374
			c-4.01,4.592,9.967,5.224,16.739,6.283c11.492,1.801,11.362,9.737,23.166,8.109c4.56-0.63,7.085-4.129,11.708-5.785
			c4.624-1.653,14.085-3.425,11.444-8.087c-2.191-3.875-14.097-2.935-20.156-4.935C60.32,201.913,48.431,199.843,41.337,203.11"/>
	</g>
	<g display="inline">
		<defs>
			<rect id="SVGID_19_" x="0" y="0" width="184.594" height="232.314"/>
		</defs>
		<clipPath id="SVGID_20_">
			<use xlink:href="#SVGID_19_"  overflow="visible"/>
		</clipPath>
		<path clip-path="url(#SVGID_20_)" fill="#E6E6E6" d="M42.108,203.705c-5.477,2.521-16.149,0.851-18.955,4.062
			c-3.724,4.265,9.256,4.852,15.546,5.835c10.673,1.672,10.553,9.043,21.513,7.531c4.234-0.585,6.58-3.834,10.873-5.37
			c4.295-1.538,13.081-3.183,10.629-7.513c-2.037-3.597-13.092-2.726-18.719-4.583C59.737,202.593,48.694,200.671,42.108,203.705"/>
	</g>
</g>
<g>
	<g>
		<defs>
			<path id="SVGID_21_" d="M26.339,142.201c-0.027,0-0.054,0-0.081,0C26.285,142.201,26.312,142.201,26.339,142.201 M22.852,137.632
				c-0.219,1.282-0.397,3.989-0.642,6.443c0.009-0.09-3.643,57.528-4.272,63.006c0.733,0.469,2.475,0.438,2.867,0.011
				c0.526-5.791,5.353-55.991,6.308-64.867c4.071,0.226,9.558,2.183,12.633,3.245c4.049,1.399,3.839,4.094,4.297,8.894
				c0.457,4.802,0.09,56.478,0,66.454c1.944,1.334,4.566,1.334,6.718,0.068c0.28-9.979,2.426-62.979,2.884-67.665
				c0.456-4.688,2.972-5.716,6.4-6.286c2.69-0.449,13.368-2.297,19.341-2.515c3.248-0.118,4.769,0.513,5.166,1.97
				c0.306,1.12,4.925,62.514,5.152,64.715c0.167,0.653,0.912,0.997,2.231,0.568c-0.229-3.199-3.514-67.486-3.885-69.997
				c-0.458-3.087-1.368-3.152-2.467-3.164c-1.1-0.01-28.012,2.803-30.475,3.068c-2.758,0.303-7.1,0.384-11.776-0.832
				c-6.079-1.581-16.392-4.343-17.764-4.746C25.225,136.002,23.068,136.369,22.852,137.632"/>
		</defs>
		<clipPath id="SVGID_22_">
			<use xlink:href="#SVGID_21_"  overflow="visible"/>
		</clipPath>
		
			<linearGradient id="SVGID_23_" gradientUnits="userSpaceOnUse" x1="-208.5388" y1="308.3777" x2="-207.5392" y2="308.3777" gradientTransform="matrix(-67.187 -2.6219 -2.6219 67.187 -13115.0449 -21085.2969)">
			<stop  offset="0" style="stop-color:#FC615B"/>
			<stop  offset="1" style="stop-color:#E10111"/>
		</linearGradient>
		<polygon clip-path="url(#SVGID_22_)" fill="url(#SVGID_23_)" points="95.292,136.133 18.05,133.119 14.581,222.02 91.822,225.035 
					"/>
	</g>
</g>
<g>
	<g>
		<defs>
			<path id="SVGID_24_" d="M24.144,137.854c-0.135,0.788-0.262,2.244-0.396,3.785c-0.073,0.841-0.15,1.718-0.234,2.564l-0.025-0.002
				c-0.002,0.46-0.049,1.194-0.127,2.44l-0.422,6.593c-0.351,5.479-0.826,12.843-1.32,20.377c-1.167,17.75-1.928,28.655-2.27,32.497
				c0.041,0,0.086,0.001,0.129,0.001c0.036,0,0.068,0,0.101-0.001c0.831-8.946,5.324-55.618,6.23-64.026l0.133-1.236l1.102,0.061
				c0.037,0.002,0.073,0.004,0.108,0.006l0.033,0.002c4.068,0.228,9.38,2.067,12.555,3.167l0.432,0.149
				c4.45,1.538,4.716,4.673,5.054,8.641c0.036,0.437,0.075,0.893,0.121,1.367c0.483,5.069,0.07,58.771,0.012,65.83
				c1.223,0.586,2.766,0.587,4.114,0.003c0.353-11.501,2.416-62.368,2.866-66.979c0.566-5.819,4.164-6.897,7.489-7.452l0.61-0.103
				c3.618-0.607,13.223-2.222,18.899-2.429c0.271-0.009,0.531-0.015,0.78-0.015c2.101,0,4.979,0.306,5.697,2.948
				c0.184,0.67,1.036,11.25,3.804,47.169c0.007,0.076,0.013,0.154,0.019,0.233c-0.011-0.189-0.02-0.379-0.03-0.569
				c-0.979-18.475-2.615-49.393-2.854-51.01c-0.303-2.036-0.561-2.039-1.171-2.045c-1.302,0.023-27.257,2.729-30.33,3.062
				c-1.201,0.132-2.449,0.196-3.711,0.196c-2.948,0-5.822-0.356-8.537-1.063c-5.774-1.5-15.468-4.095-17.56-4.687
				C24.963,137.407,24.253,137.677,24.144,137.854"/>
		</defs>
		<clipPath id="SVGID_25_">
			<use xlink:href="#SVGID_24_"  overflow="visible"/>
		</clipPath>
		
			<linearGradient id="SVGID_26_" gradientUnits="userSpaceOnUse" x1="-207.5457" y1="307.075" x2="-206.5457" y2="307.075" gradientTransform="matrix(-97.6672 -5.5716 -5.5716 97.6672 -18470.9414 -30966.5)">
			<stop  offset="0" style="stop-color:#FD8781"/>
			<stop  offset="1" style="stop-color:#E40A18"/>
		</linearGradient>
		<polygon clip-path="url(#SVGID_25_)" fill="url(#SVGID_26_)" points="94.376,137.602 19.578,133.335 14.612,220.385 
			89.41,224.653 		"/>
	</g>
</g>
<g>
	<g>
		<defs>
			<path id="SVGID_27_" d="M51.128,133.775c-3.53,0.241-21.531,2.046-25.67,2.222c0.01,0.003,0.02,0.006,0.029,0.01
				c0.033-0.002,0.061-0.004,0.081-0.004c1.372,0.403,11.685,3.165,17.764,4.746c4.677,1.216,9.019,1.135,11.776,0.832
				c2.463-0.267,29.375-3.078,30.475-3.067c0.066,0.001,0.132,0.002,0.199,0.003c-5.325-1.021-20.573-3.69-24.264-4.368
				c-2.224-0.408-4.172-0.549-6.103-0.549C54.011,133.598,52.615,133.673,51.128,133.775"/>
		</defs>
		<clipPath id="SVGID_28_">
			<use xlink:href="#SVGID_27_"  overflow="visible"/>
		</clipPath>
		
			<linearGradient id="SVGID_29_" gradientUnits="userSpaceOnUse" x1="-210.8215" y1="311.1238" x2="-209.8219" y2="311.1238" gradientTransform="matrix(-39.9845 -1.6387 -1.6387 39.9845 -7844.5928 -12646.9756)">
			<stop  offset="0" style="stop-color:#FD8781"/>
			<stop  offset="1" style="stop-color:#FB4D48"/>
		</linearGradient>
		<polygon clip-path="url(#SVGID_28_)" fill="url(#SVGID_29_)" points="86.125,133.612 25.559,131.129 25.116,141.95 
			85.681,144.432 		"/>
	</g>
</g>
<g>
	<g>
		<defs>
			<path id="SVGID_30_" d="M51.196,134.756c-1.367,0.094-4.932,0.426-9.059,0.808c-3.672,0.341-7.616,0.707-10.831,0.983
				c3.806,1.021,8.764,2.337,12.274,3.25c2.528,0.657,5.208,0.99,7.961,0.99c1.179,0,2.345-0.062,3.462-0.184
				c0.673-0.073,9.929-1.046,18.093-1.877c1.905-0.195,1.528-1.243-0.458-1.597c-1.411-0.252-2.811-0.501-4.137-0.735
				c-3.186-0.566-5.875-1.044-7.161-1.28c-1.984-0.365-3.868-0.534-5.927-0.534C53.939,134.581,52.454,134.669,51.196,134.756"/>
		</defs>
		<clipPath id="SVGID_31_">
			<use xlink:href="#SVGID_30_"  overflow="visible"/>
		</clipPath>
		
			<linearGradient id="SVGID_32_" gradientUnits="userSpaceOnUse" x1="-210.1653" y1="310.8552" x2="-209.1653" y2="310.8552" gradientTransform="matrix(-43.0373 0 0 43.0373 -8970.6123 -13240.7041)">
			<stop  offset="0" style="stop-color:#FEA8A4"/>
			<stop  offset="1" style="stop-color:#FB4D48"/>
		</linearGradient>
		<rect x="31.306" y="134.581" clip-path="url(#SVGID_31_)" fill="url(#SVGID_32_)" width="43.695" height="6.207"/>
	</g>
</g>
<g>
	<g>
		<defs>
			<path id="SVGID_33_" d="M60.744,136.35L49.1,137.377c-0.679,0.062-1.207,0.382-1.178,0.721c0.03,0.337,0.604,0.562,1.284,0.503
				l11.644-1.028c0.679-0.06,1.207-0.383,1.178-0.72c-0.026-0.302-0.485-0.513-1.065-0.513
				C60.891,136.34,60.818,136.343,60.744,136.35"/>
		</defs>
		<clipPath id="SVGID_34_">
			<use xlink:href="#SVGID_33_"  overflow="visible"/>
		</clipPath>
		
			<linearGradient id="SVGID_35_" gradientUnits="userSpaceOnUse" x1="-186.8337" y1="302.198" x2="-185.8337" y2="302.198" gradientTransform="matrix(13.907 13.9626 19.5458 -11.1066 -3255.5549 6100.4805)">
			<stop  offset="0" style="stop-color:#FF1538"/>
			<stop  offset="1" style="stop-color:#E0000F"/>
		</linearGradient>
		<polygon clip-path="url(#SVGID_34_)" fill="url(#SVGID_35_)" points="46.418,137.177 53.012,143.798 63.532,137.821 
			56.938,131.201 		"/>
	</g>
</g>
<g>
	<g>
		<defs>
			<path id="SVGID_36_" d="M60.044,146.934c-1.184,0.196-2.254,0.453-3.174,0.892c0.226,9.665,0.808,48.782,0.832,52.021
				c1.778-0.603,3.699-0.646,5.312,0c-0.121-2.872,0.83-43.771,1.083-53.584C62.281,146.556,60.826,146.802,60.044,146.934"/>
		</defs>
		<clipPath id="SVGID_37_">
			<use xlink:href="#SVGID_36_"  overflow="visible"/>
		</clipPath>
		
			<linearGradient id="SVGID_38_" gradientUnits="userSpaceOnUse" x1="-209.9172" y1="300.4138" x2="-208.9167" y2="300.4138" gradientTransform="matrix(2.4491 -57.4194 -57.4194 -2.4491 17822.8496 -11113.7354)">
			<stop  offset="0" style="stop-color:#E0000F"/>
			<stop  offset="0.1455" style="stop-color:#E0000F"/>
			<stop  offset="1" style="stop-color:#A6000F"/>
		</linearGradient>
		<polygon clip-path="url(#SVGID_37_)" fill="url(#SVGID_38_)" points="64.084,200.155 66.378,146.36 56.883,145.956 54.589,199.75 
					"/>
	</g>
</g>
<g>
	<g>
		<defs>
			<rect id="SVGID_39_" x="0" y="0" width="184.594" height="232.314"/>
		</defs>
		<clipPath id="SVGID_40_">
			<use xlink:href="#SVGID_39_"  overflow="visible"/>
		</clipPath>
		<path clip-path="url(#SVGID_40_)" d="M86.078,181.917c1.064,1.4,48.967-4.551,48.967-4.551l0.977,7.039L86.078,181.917z"/>
	</g>
	<g>
		<defs>
			<rect id="SVGID_41_" x="0" y="0" width="184.594" height="232.314"/>
		</defs>
		<clipPath id="SVGID_42_">
			<use xlink:href="#SVGID_41_"  overflow="visible"/>
		</clipPath>
		<path clip-path="url(#SVGID_42_)" d="M175.933,97.898c0,0,1.944-8.077-8.104-5.603c-10.05,2.476-11.383,9.673-21.265,9.095
			c-9.884-0.579-17.39-19.958-29.894-16.533c-12.503,3.426-44.679,25.604-57.858,41.373c0,0-5.648,6.061,14.664-1.845
			c20.312-7.903,54.973-18.194,53.41,4.502c-1.562,22.696-15.779,40.311-21.322,44.926c0,0,24.479-50.264,12.64-51.449
			c-11.841-1.188-52.969,15.134-62.875,16.389c-9.906,1.257-22.333-4.688,7.406-28.798c29.739-24.108,46.641-33.742,59.803-33.034
			c13.164,0.706,15.731,17.864,28.583,14.162c12.854-3.702,31.88-15.812,30.466-3.11
			C180.172,100.673,175.037,102.379,175.933,97.898"/>
	</g>
	<g>
		<defs>
			<rect id="SVGID_43_" x="0" y="0" width="184.594" height="232.314"/>
		</defs>
		<clipPath id="SVGID_44_">
			<use xlink:href="#SVGID_43_"  overflow="visible"/>
		</clipPath>
		<path clip-path="url(#SVGID_44_)" d="M165.238,11.462c-6.409-4.548-13.654-2.78-20.343-6.164
			c-8.893-4.496-20.656-1.809-28.711,3.199c-9.894,6.15-17.664,17.875-17.386,29.822c0.261,11.06,11.831,18.969,20.686,9.386
			c1.268,2.493,3.571,5.796,4.075,8.581c10.411-9.299,27.237-17.625,41.633-12.671C166.114,33.341,178.803,21.085,165.238,11.462
			C160.404,8.032,169.594,14.552,165.238,11.462 M165.604,33.901c1.025-4.693-3.183,0.91-2.141,7.14
			c-12.966-3.309-29.245,3.622-38.948,11.898c-4.616-13.598,9.604-34.972,24.759-23.111c-6.149-16.511-23.776,3.296-27.261,9.698
			c-6.745,12.391-22.128,13.145-20.933-4.346c2.074-30.41,37.836-37.649,55.427-17.737c-1.125-2.229-2.513-4.286-4.167-6.176
			C164.364,9.101,176.599,24.169,165.604,33.901C165.629,33.785,167.432,32.282,165.604,33.901"/>
	</g>
	<g>
		<defs>
			<rect id="SVGID_45_" x="0" y="0" width="184.594" height="232.314"/>
		</defs>
		<clipPath id="SVGID_46_">
			<use xlink:href="#SVGID_45_"  overflow="visible"/>
		</clipPath>
		<path clip-path="url(#SVGID_46_)" d="M165.809,45.821l-41.217,13.772c1.513,10.728,10.726,18.98,21.868,18.98
			c12.202,0,22.091-9.89,22.091-22.09c0-2.467-0.403-4.839-1.148-7.054C166.979,48.171,166.441,46.967,165.809,45.821"/>
	</g>
	<g>
		<defs>
			<rect id="SVGID_47_" x="0" y="0" width="184.594" height="232.314"/>
		</defs>
		<clipPath id="SVGID_48_">
			<use xlink:href="#SVGID_47_"  overflow="visible"/>
		</clipPath>
		<path clip-path="url(#SVGID_48_)" d="M125.603,85.357c0.938,0.716,1.796,1.528,2.59,2.409
			C127.446,86.837,126.603,86.023,125.603,85.357"/>
	</g>
</g>
</svg>
