<?xml version="1.0" encoding="utf-8"?>
<!-- Generator: Adobe Illustrator 23.0.6, SVG Export Plug-In . SVG Version: 6.00 Build 0)  -->
<svg version="1.1" xmlns="http://www.w3.org/2000/svg" xmlns:xlink="http://www.w3.org/1999/xlink" x="0px" y="0px"
	 viewBox="0 0 70.4 70.1" style="enable-background:new 0 0 70.4 70.1;" xml:space="preserve">
<style type="text/css">
	.st0{fill:#FFFFFF;}
	.st1{fill:#FCFCFC;}
	.st2{fill:#F9F9F9;}
	.st3{fill:#F7F7F7;}
	.st4{fill:#F4F4F4;}
	.st5{fill:#F1F1F1;}
	.st6{fill:#EEEEEE;}
	.st7{fill:#ECECEC;}
	.st8{fill:#E9E9E9;}
	.st9{fill:#E6E6E6;}
	.st10{fill:url(#SVGID_1_);}
	.st11{fill:url(#SVGID_2_);}
	.st12{fill:url(#SVGID_3_);}
	.st13{fill:url(#SVGID_4_);}
	.st14{fill:url(#SVGID_5_);}
	.st15{fill:url(#SVGID_6_);}
	.st16{fill:url(#SVGID_7_);}
	.st17{fill:url(#SVGID_8_);}
	.st18{fill:url(#SVGID_9_);}
	.st19{fill:url(#SVGID_10_);}
	.st20{fill:url(#SVGID_11_);}
	.st21{fill:url(#SVGID_12_);}
	.st22{fill:#EB993F;}
	.st23{fill:#F7CD99;}
	.st24{fill-rule:evenodd;clip-rule:evenodd;fill:#B34525;}
	.st25{fill:#B34525;}
</style>
<g id="Fondo">
</g>
<g id="Logo">
	<g>
		<g>
			<path class="st25" d="M53.7,58.2c-0.9-3.4-1.9-8.5-3.6-11.6c-6.7-11.7-16-22.2-29.8-27.2c-2-0.7-4.6-1.7-6.6-2.2L1.5,68.9
				L53.7,58.2z"/>
			<path class="st22" d="M22.8,35.5c-0.3-1.9,1-3.7,2.9-4c1.9-0.3,3.7,1,4,2.9c0.3,1.9-1,3.7-2.9,4C24.9,38.7,23.1,37.4,22.8,35.5z"
				/>
			<path class="st22" d="M13.3,57.5c-0.3-2.1,1.1-4.1,3.2-4.4c2.1-0.3,4.1,1.1,4.4,3.2c0.3,2.1-1.1,4.1-3.2,4.4S13.6,59.6,13.3,57.5
				z"/>
			<path class="st22" d="M31.5,51.5c-0.6-3.7,1.9-7.2,5.6-7.8c3.7-0.6,7.2,1.9,7.8,5.6c0.6,3.7-1.9,7.2-5.6,7.8
				C35.6,57.8,32.1,55.2,31.5,51.5z"/>
		</g>
		<path class="st22" d="M17.4,1L15,11.2c20.9,5,38.6,22.5,44.3,43.1l10.1-2.6C62.8,27.4,43,7.5,17.4,1z"/>
	</g>
</g>
</svg>
