<?xml version="1.0" encoding="utf-8"?>
<!-- Generator: Adobe Illustrator 23.0.6, SVG Export Plug-In . SVG Version: 6.00 Build 0)  -->
<svg version="1.1" xmlns="http://www.w3.org/2000/svg" xmlns:xlink="http://www.w3.org/1999/xlink" x="0px" y="0px"
	 viewBox="0 0 184.6 232.3" style="enable-background:new 0 0 184.6 232.3;" xml:space="preserve">
<style type="text/css">
	.st0{fill:#FFFFFF;}
	.st1{fill:#FCFCFC;}
	.st2{fill:#F9F9F9;}
	.st3{fill:#F7F7F7;}
	.st4{fill:#F4F4F4;}
	.st5{fill:#F1F1F1;}
	.st6{fill:#EEEEEE;}
	.st7{fill:#ECECEC;}
	.st8{fill:#E9E9E9;}
	.st9{fill:#E6E6E6;}
	.st10{fill:url(#SVGID_1_);}
	.st11{fill:url(#SVGID_2_);}
	.st12{fill:url(#SVGID_3_);}
	.st13{fill:url(#SVGID_4_);}
	.st14{fill:url(#SVGID_5_);}
	.st15{fill:url(#SVGID_6_);}
	.st16{fill:url(#SVGID_7_);}
	.st17{fill:url(#SVGID_8_);}
	.st18{fill:url(#SVGID_9_);}
	.st19{fill:url(#SVGID_10_);}
	.st20{fill:url(#SVGID_11_);}
	.st21{fill:url(#SVGID_12_);}
	.st22{fill:#EB993F;}
	.st23{fill:#F7CD99;}
	.st24{fill-rule:evenodd;clip-rule:evenodd;fill:#B34525;}
	.st25{fill:#B34525;}
</style>
<g id="Fondo">
</g>
<g id="Logo">
	<g>
		<g>
			<path class="st0" d="M35.2,198.4c-9.3,4.3-27.3,1.4-32.1,6.9c-6.3,7.2,15.7,8.2,26.3,9.9c18.1,2.8,17.8,15.3,36.4,12.7
				c7.2-1,11.1-6.5,18.4-9.1c7.3-2.6,22.1-5.4,18-12.7c-3.4-6.1-22.1-4.6-31.7-7.7C65,196.5,46.3,193.2,35.2,198.4z"/>
			<path class="st1" d="M35.9,198.9c-8.8,4.1-26.1,1.4-30.6,6.6c-6,6.9,14.9,7.8,25.1,9.4c17.2,2.7,17,14.6,34.7,12.2
				c6.8-0.9,10.6-6.2,17.6-8.7c6.9-2.5,21.1-5.1,17.2-12.1c-3.3-5.8-21.1-4.4-30.2-7.4C64.4,197.2,46.6,194,35.9,198.9z"/>
			<path class="st2" d="M36.7,199.5c-8.4,3.9-24.8,1.3-29.1,6.2c-5.7,6.6,14.2,7.5,23.9,9c16.4,2.6,16.2,13.9,33.1,11.6
				c6.5-0.9,10.1-5.9,16.7-8.3c6.6-2.4,20.1-4.9,16.3-11.6c-3.1-5.5-20.1-4.2-28.8-7C63.8,197.8,46.8,194.9,36.7,199.5z"/>
			<path class="st3" d="M37.5,200.1c-8,3.7-23.6,1.2-27.7,5.9c-5.4,6.2,13.5,7.1,22.7,8.5c15.6,2.4,15.4,13.2,31.4,11
				c6.2-0.9,9.6-5.6,15.9-7.8c6.3-2.2,19.1-4.6,15.5-11c-3-5.3-19.1-4-27.3-6.7C63.2,198.5,47.1,195.7,37.5,200.1z"/>
			<path class="st4" d="M38.3,200.7c-7.6,3.5-22.4,1.2-26.2,5.6c-5.2,5.9,12.8,6.7,21.5,8.1c14.8,2.3,14.6,12.5,29.8,10.4
				c5.9-0.8,9.1-5.3,15-7.4c5.9-2.1,18.1-4.4,14.7-10.4c-2.8-5-18.1-3.8-25.9-6.3C62.7,199.2,47.4,196.5,38.3,200.7z"/>
			<path class="st5" d="M39,201.3c-7.2,3.3-21.1,1.1-24.8,5.3c-4.9,5.6,12.1,6.3,20.3,7.6c14,2.2,13.8,11.8,28.1,9.8
				c5.5-0.8,8.6-5,14.2-7c5.6-2,17.1-4.2,13.9-9.8c-2.7-4.7-17.1-3.6-24.5-6C62.1,199.9,47.6,197.4,39,201.3z"/>
			<path class="st6" d="M39.8,201.9c-6.7,3.1-19.9,1-23.3,5c-4.6,5.2,11.4,6,19.1,7.2c13.1,2.1,13,11.1,26.5,9.3
				c5.2-0.7,8.1-4.7,13.4-6.6c5.3-1.9,16.1-3.9,13.1-9.2c-2.5-4.4-16.1-3.4-23-5.6C61.5,200.6,47.9,198.2,39.8,201.9z"/>
			<path class="st7" d="M40.6,202.5c-6.3,2.9-18.6,1-21.9,4.7c-4.3,4.9,10.7,5.6,17.9,6.7c12.3,1.9,12.2,10.4,24.8,8.7
				c4.9-0.7,7.6-4.4,12.5-6.2c5-1.8,15.1-3.7,12.3-8.7c-2.3-4.1-15.1-3.1-21.6-5.3C60.9,201.2,48.2,199,40.6,202.5z"/>
			<path class="st8" d="M41.3,203.1c-5.9,2.7-17.4,0.9-20.4,4.4c-4,4.6,10,5.2,16.7,6.3c11.5,1.8,11.4,9.7,23.2,8.1
				c4.6-0.6,7.1-4.1,11.7-5.8c4.6-1.7,14.1-3.4,11.4-8.1c-2.2-3.9-14.1-2.9-20.2-4.9C60.3,201.9,48.4,199.8,41.3,203.1z"/>
			<path class="st9" d="M42.1,203.7c-5.5,2.5-16.2,0.8-19,4.1c-3.7,4.3,9.3,4.9,15.5,5.8c10.7,1.7,10.6,9,21.5,7.5
				c4.2-0.6,6.6-3.8,10.9-5.4c4.3-1.5,13.1-3.2,10.6-7.5c-2-3.6-13.1-2.7-18.7-4.6C59.7,202.6,48.7,200.7,42.1,203.7z"/>
		</g>
		<g>
			
				<linearGradient id="SVGID_1_" gradientUnits="userSpaceOnUse" x1="-724.4816" y1="180.9119" x2="-657.2946" y2="178.2899" gradientTransform="matrix(-1 0 0 1 -636.9031 0)">
				<stop  offset="0" style="stop-color:#FC615B"/>
				<stop  offset="1" style="stop-color:#E10111"/>
			</linearGradient>
			<path class="st10" d="M17.9,207.1c0.7,0.5,2.5,0.4,2.9,0c0.5-5.8,5.4-56,6.3-64.9c4.1,0.2,9.6,2.2,12.6,3.2
				c4,1.4,3.8,4.1,4.3,8.9c0.5,4.8,0.1,56.5,0,66.5c1.9,1.3,4.6,1.3,6.7,0.1c0.3-10,2.4-63,2.9-67.7c0.5-4.7,3-5.7,6.4-6.3
				c2.7-0.4,13.4-2.3,19.3-2.5c3.2-0.1,4.8,0.5,5.2,2c0.3,1.1,4.9,62.5,5.2,64.7c0.2,0.7,0.9,1,2.2,0.6c-0.2-3.2-3.5-67.5-3.9-70
				c-0.5-3.1-1.4-3.2-2.5-3.2c-1.1,0-28,2.8-30.5,3.1c-2.8,0.3-7.1,0.4-11.8-0.8c-6.1-1.6-16.4-4.3-17.8-4.7c-0.3,0-2.5,0.4-2.7,1.6
				c-0.2,1.3-0.4,4-0.6,6.4C22.2,144,18.6,201.6,17.9,207.1z M26.3,142.2c0.3,0,0.5,0,0.8,0C26.8,142.2,26.5,142.2,26.3,142.2z"/>
			
				<linearGradient id="SVGID_2_" gradientUnits="userSpaceOnUse" x1="-725.4417" y1="181.426" x2="-627.7745" y2="175.8544" gradientTransform="matrix(-1 0 0 1 -636.9031 0)">
				<stop  offset="0" style="stop-color:#FD8781"/>
				<stop  offset="1" style="stop-color:#E40A18"/>
			</linearGradient>
			<path class="st11" d="M49.5,220.1c0.4-11.5,2.4-62.4,2.9-67c0.6-5.8,4.2-6.9,7.5-7.5l0.6-0.1c3.6-0.6,13.2-2.2,18.9-2.4
				c0.3,0,0.5,0,0.8,0c2.1,0,5,0.3,5.7,2.9c0.2,0.7,1,11.2,3.8,47.2c0,0.1,0,0.2,0,0.2c0-0.2,0-0.4,0-0.6c-1-18.5-2.6-49.4-2.9-51
				c-0.3-2-0.6-2-1.2-2c-1.3,0-27.3,2.7-30.3,3.1c-1.2,0.1-2.4,0.2-3.7,0.2c-2.9,0-5.8-0.4-8.5-1.1c-5.8-1.5-15.5-4.1-17.6-4.7
				c-0.5,0.1-1.2,0.3-1.3,0.5c-0.1,0.8-0.3,2.2-0.4,3.8c-0.1,0.8-0.1,1.7-0.2,2.6l0,0c0,0.5,0,1.2-0.1,2.4l-0.4,6.6
				c-0.4,5.5-0.8,12.8-1.3,20.4c-1.2,17.7-1.9,28.7-2.3,32.5c0,0,0.1,0,0.1,0l0,0c0,0,0.1,0,0.1,0c0.8-8.9,5.3-55.6,6.2-64l0.1-1.2
				l1.1,0.1c0,0,0.1,0,0.1,0l0,0c4.1,0.2,9.4,2.1,12.6,3.2l0.4,0.2c4.4,1.5,4.7,4.7,5.1,8.6c0,0.4,0.1,0.9,0.1,1.4
				c0.5,5.1,0.1,58.8,0,65.8C46.6,220.7,48.1,220.7,49.5,220.1L49.5,220.1z"/>
			
				<linearGradient id="SVGID_3_" gradientUnits="userSpaceOnUse" x1="-712.0847" y1="138.5729" x2="-672.1002" y2="136.9342" gradientTransform="matrix(-1 0 0 1 -636.9031 0)">
				<stop  offset="0" style="stop-color:#FD8781"/>
				<stop  offset="1" style="stop-color:#FB4D48"/>
			</linearGradient>
			<path class="st12" d="M85.6,138.5c-1.1,0-28,2.8-30.5,3.1c-2.8,0.3-7.1,0.4-11.8-0.8c-6.1-1.6-16.4-4.3-17.8-4.7c0,0,0,0-0.1,0
				c0,0,0,0,0,0c4.1-0.2,22.1-2,25.7-2.2c3.5-0.2,6.5-0.3,10.4,0.4c3.7,0.7,18.9,3.3,24.3,4.4C85.7,138.5,85.6,138.5,85.6,138.5z"/>
			
				<linearGradient id="SVGID_4_" gradientUnits="userSpaceOnUse" x1="-711.2459" y1="137.6845" x2="-668.2086" y2="137.6845" gradientTransform="matrix(-1 0 0 1 -636.9031 0)">
				<stop  offset="0" style="stop-color:#FEA8A4"/>
				<stop  offset="1" style="stop-color:#FB4D48"/>
			</linearGradient>
			<path class="st13" d="M72.6,137.1c-1.4-0.3-2.8-0.5-4.1-0.7c-3.2-0.6-5.9-1-7.2-1.3c-2-0.4-3.9-0.5-5.9-0.5c-1.5,0-3,0.1-4.2,0.2
				c-1.4,0.1-4.9,0.4-9.1,0.8c-3.7,0.3-7.6,0.7-10.8,1c3.8,1,8.8,2.3,12.3,3.3c2.5,0.7,5.2,1,8,1c1.2,0,2.3-0.1,3.5-0.2
				c0.7-0.1,9.9-1,18.1-1.9C75,138.5,74.6,137.5,72.6,137.1z"/>
			
				<linearGradient id="SVGID_5_" gradientUnits="userSpaceOnUse" x1="-704.0533" y1="292.6074" x2="-718.4281" y2="311.864" gradientTransform="matrix(-0.998 2.280000e-02 -2.280000e-02 0.7421 -643.0851 -65.7116)">
				<stop  offset="0" style="stop-color:#FF1538"/>
				<stop  offset="1" style="stop-color:#E0000F"/>
			</linearGradient>
			<path class="st14" d="M47.9,138.1c0,0.3,0.6,0.6,1.3,0.5l11.6-1c0.7-0.1,1.2-0.4,1.2-0.7l0,0c0-0.3-0.6-0.6-1.3-0.5l-11.6,1
				C48.4,137.4,47.9,137.8,47.9,138.1L47.9,138.1z"/>
			
				<linearGradient id="SVGID_6_" gradientUnits="userSpaceOnUse" x1="-695.5662" y1="203.8213" x2="-698.0153" y2="146.4019" gradientTransform="matrix(-1 0 0 1 -636.9031 0)">
				<stop  offset="0.1455" style="stop-color:#E0000F"/>
				<stop  offset="1" style="stop-color:#A6000F"/>
			</linearGradient>
			<path class="st15" d="M60,146.9c0.8-0.1,2.2-0.4,4.1-0.7c-0.3,9.8-1.2,50.7-1.1,53.6c-1.6-0.6-3.5-0.6-5.3,0
				c0-3.2-0.6-42.4-0.8-52C57.8,147.4,58.9,147.1,60,146.9z"/>
		</g>
		<g>
			<path d="M86.1,181.9c1.1,1.4,49-4.6,49-4.6l1,7L86.1,181.9z"/>
			<path d="M175.9,97.9c0,0,1.9-8.1-8.1-5.6c-10,2.5-11.4,9.7-21.3,9.1c-9.9-0.6-17.4-20-29.9-16.5c-12.5,3.4-44.7,25.6-57.9,41.4
				c0,0-5.6,6.1,14.7-1.8c20.3-7.9,55-18.2,53.4,4.5c-1.6,22.7-15.8,40.3-21.3,44.9c0,0,24.5-50.3,12.6-51.4
				c-11.8-1.2-53,15.1-62.9,16.4c-9.9,1.3-22.3-4.7,7.4-28.8c29.7-24.1,46.6-33.7,59.8-33c13.2,0.7,15.7,17.9,28.6,14.2
				C164,87.4,183,75.3,181.6,88C180.2,100.7,175,102.4,175.9,97.9z"/>
			<path d="M165.2,11.5c-6.4-4.5-13.7-2.8-20.3-6.2c-8.9-4.5-20.7-1.8-28.7,3.2c-9.9,6.1-17.7,17.9-17.4,29.8
				c0.3,11.1,11.8,19,20.7,9.4c1.3,2.5,3.6,5.8,4.1,8.6c10.4-9.3,27.2-17.6,41.6-12.7C166.1,33.3,178.8,21.1,165.2,11.5
				C160.4,8,169.6,14.6,165.2,11.5z M165.6,33.9c1-4.7-3.2,0.9-2.1,7.1c-13-3.3-29.2,3.6-38.9,11.9c-4.6-13.6,9.6-35,24.8-23.1
				c-6.2-16.5-23.8,3.3-27.3,9.7c-6.7,12.4-22.1,13.1-20.9-4.3c2.1-30.4,37.8-37.6,55.4-17.7c-1.1-2.2-2.5-4.3-4.2-6.2
				C164.4,9.1,176.6,24.2,165.6,33.9C165.6,33.8,167.4,32.3,165.6,33.9z"/>
			<path d="M165.8,45.8l-41.2,13.8c1.5,10.7,10.7,19,21.9,19c12.2,0,22.1-9.9,22.1-22.1c0-2.5-0.4-4.8-1.1-7.1
				C167,48.2,166.4,47,165.8,45.8z"/>
			<path d="M125.6,85.4c0.9,0.7,1.8,1.5,2.6,2.4C127.4,86.8,126.6,86,125.6,85.4z"/>
		</g>
	</g>
</g>
</svg>
